<svg xmlns="http://www.w3.org/2000/svg" viewBox="0 0 687.49 665.61"><defs><style>.cls-1{fill:#3148a1;}.cls-2{fill:#b1d0fe;}.cls-3{fill:#f5e461;}.cls-4{fill:#fff;}.cls-5{fill:#050505;}</style></defs><title>Asset 9</title><g id="Layer_2" data-name="Layer 2"><g id="Layer_1-2" data-name="Layer 1"><path class="cls-1" d="M579.34,602.9a246.54,246.54,0,0,0,32.83,6c5.45.55,10.85.93,16.15,1a152.48,152.48,0,0,0,15.54-.5,176,176,0,0,1-24.31.34c6.09.37,11.7.54,17.35.74s11.34.29,17.62.26c-1.75,1.14-4.72,1.45-7.45,1.89s-5.25.72-6.2,1.94a142.83,142.83,0,0,1-45.1-5.54,168.14,168.14,0,0,1-40.6-17.79,26.64,26.64,0,0,1,4.31.43,21.16,21.16,0,0,1,3.58,1.09,25.31,25.31,0,0,1,5.81,3.41c1.75,1.28,3.35,2.74,5.06,3.91A17.17,17.17,0,0,0,579.34,602.9Z"/><path class="cls-1" d="M687.49,606c-2.87,1-5.66,1.94-8.49,2.68A65.8,65.8,0,0,1,687.49,606Z"/><path class="cls-1" d="M409,478.61c-1.62-1.08-3.23-2.17-4.81-3.27-.79-.55-1.56-1.12-2.35-1.65l-2.38-1.55c.86.43,1.7.89,2.53,1.37s1.59,1.07,2.37,1.62C405.92,476.26,407.46,477.44,409,478.61Z"/><path class="cls-1" d="M537.09,598.2a45.4,45.4,0,0,1-5.53-2.14A160,160,0,0,1,514,582.37c-2.77-2.49-5.5-5-8.09-7.74-.65-.67-1.31-1.32-2-2l-1.9-2.1c-1.26-1.41-2.53-2.81-3.8-4.22,1.39,1.52,2.85,3,4.33,4.48s3,2.89,4.59,4.26,3.2,2.73,4.84,4.05,3.31,2.6,5,3.89C523.74,588.08,530.64,592.88,537.09,598.2Z"/><path class="cls-1" d="M549.09,610.05c14,6.42,28.57,12.1,42.6,17.52C577.56,622.66,563.08,617.15,549.09,610.05Z"/><path class="cls-1" d="M296.34,464.14a1.15,1.15,0,0,1-.78,1,3.32,3.32,0,0,0-1.23.42c-2.94-.66-5.87-1.34-8.87-1.93s-6-1.26-9-1.83c1.54-.11,3-.85,4.57-.71a60.11,60.11,0,0,1,7.33,2.22A19.06,19.06,0,0,0,296.34,464.14Z"/><path class="cls-1" d="M412.36,481.32c.15,0,.31.05.46.09l3.19,2.36c.09.14.17.26.26.42Q414.25,482.84,412.36,481.32Z"/><path class="cls-1" d="M303.82,465.44a5,5,0,0,0,.39,2.47c-3.25-.79-6.48-1.62-9.81-2.33a7.4,7.4,0,0,0,1.16-.44C297.9,464.79,301.2,466.17,303.82,465.44Z"/><path class="cls-1" d="M368.8,492.52c1.57.89,3.83.24,4.81.32l2.61,2.56c.82.92,1.65,1.84,2.5,2.75s1.74,1.82,2.66,2.72,1.78,1.95,2.76,2.93a9.32,9.32,0,0,1,1.78.74,16.22,16.22,0,0,0,2.5.94,23.3,23.3,0,0,0,1.29,3.59c-1.14-1-2.26-2.13-3.42-3.13l-3.49-2.89c-.59-.48-1.15-1-1.76-1.46l-1.84-1.34-3.68-2.75c-1.25-.9-2.59-1.69-3.89-2.57l-1.95-1.29-1-.66-1-.59c-2.78-1.55-5.46-3.3-8.44-4.72l2.45,1c.83.35,1.58.79,2.38,1.2C365.63,490.72,367.22,491.59,368.8,492.52Z"/><path class="cls-1" d="M30.5,365.67C38.28,372.89,46,381.39,54.7,389A112.72,112.72,0,0,0,68.33,399.4a64.55,64.55,0,0,0,14.89,7.14c-5-3.71-10.24-7.86-15.23-12.22A157.61,157.61,0,0,1,54.35,381c-7.89-8.8-12.67-16.8-11.19-20.65s7,1.72,14.38,9.25c3.67,3.78,7.84,8,12.12,11.91a89.69,89.69,0,0,0,12.48,9.71c-1.57-2-1.56-2-3.07-4,1.49,2,3.08,4,5.32,4.36-.78-1-1.79-2.11-2.88-3.29s-2.21-2.48-3.26-3.75a43.45,43.45,0,0,1-2.75-3.72,9.54,9.54,0,0,1-1.36-3.15c1.46.35,2.89.72,4.35,1C75.42,373,70,366.55,65,359.74s-9.61-13.91-11.46-20a119.58,119.58,0,0,0,47.84,51.69c3.72,2,7.46,4.14,11.46,5.84,3.91,1.88,8.08,3.36,12.22,4.92,2.09.73,4.24,1.36,6.37,2l3.21,1L138,406c2.2.55,4.37,1.15,6.59,1.65l6.7,1.39c9,1.69,18.15,3,27.43,3.85l3.46.34,3.49.27c2.33.18,4.64.38,7,.53,4.67.27,9.3.57,14,.76,9.28.46,18.57.76,27.73,1.15,20.57,0,40.76-1.16,61-1.87,10.13-.32,20.26-.52,30.48-.4,2.55,0,5.12.15,7.68.22l3.85.11c1.28.05,2.57.15,3.86.23l7.74.48,7.78.79c1,.15,2.09.37,3.34.65s2.63.74,4.11,1.19c2.95.94,6.3,1.95,9.77,3.43s7.11,2.83,10.59,4.63,6.9,3.34,9.9,5.18A203.08,203.08,0,0,1,427,449a354.27,354.27,0,0,1,28.95,22.46,255.86,255.86,0,0,1,23.76,26.38c7,8.81,13.28,17.47,19.41,25.67s12.1,15.91,18.37,22.78c3.14,3.41,6.35,6.68,9.62,9.64a114.16,114.16,0,0,0,10.67,8.41,17.28,17.28,0,0,1,3.92,4.08,12.4,12.4,0,0,1,1.2,2.3,5,5,0,0,1,.41,2c-.07,2.36-3.21,3.47-11.64-1.32-1.81-.9-3.53-1.92-5.27-2.95s-3.4-2.16-5.09-3.29l-1.26-.85-1.21-.9-2.42-1.84c-1.62-1.22-3.18-2.65-4.76-4A158.65,158.65,0,0,1,493.7,538.7c1.56.06,3.43,1.94,5.38,4s4,4.25,6,5.13c-7.38-10.45-13.6-19.47-22.17-30.15l8.48,10.5c2.79,3.35,5.58,6.75,8.36,9.91-7-8-14.09-17.31-21.85-27.17a357.75,357.75,0,0,0-26-30.21,26.82,26.82,0,0,1-2.33-3c-.74-1-1.42-2.13-2.08-3.26s-1.31-2.28-2-3.46l-1-1.77c-.37-.59-.75-1.18-1.15-1.77a35.86,35.86,0,0,0-5.75-6.87,31.52,31.52,0,0,0-9.24-5.54c14.15,13.54,25.56,28.48,35.72,42.86l14.86,21.15c4.88,6.88,9.72,13.38,14.76,19.58a1,1,0,0,0-.24,0c9.2,10.74,17.22,20,26.61,28.05-3.14-2.29-6.31-4.67-8.51-7.48l2.21,2.73c.74.9,1.51,1.71,2.27,2.57s1.52,1.71,2.33,2.52l2.42,2.42L522,570.7l1.27,1.16,2.56,2.3c1.74,1.49,3.52,2.94,5.31,4.36a153.49,153.49,0,0,0,23.36,14.74,120.79,120.79,0,0,1-36-18.51l-4.09-3.19c-1.36-1.08-2.65-2.24-4-3.37s-2.59-2.38-3.88-3.58-2.6-2.4-3.84-3.71c-2.49-2.61-5-5.16-7.42-8-1.21-1.38-2.43-2.73-3.63-4.15l-3.57-4.3c-9.48-11.53-18.56-24.19-28.37-36.6s-20.55-24.72-33-35.26c5.33,7.64,12.74,14.83,19.45,22.2s12.64,14.7,15.3,22c-8.48-10.91-17.21-22.06-27.11-32.82-2.4-2.74-5.08-5.32-7.65-8-1.27-1.35-2.68-2.59-4.05-3.88l-4.12-3.84-4.36-3.68-2.19-1.83-1.1-.92-1.15-.86-4.61-3.44c-1.54-1.14-3.06-2.32-4.69-3.34,2.12.91,4.09,2,6.18,2.91A79.46,79.46,0,0,0,395,448.27c-2.09-1.33-4.29-2.46-6.47-3.65l-3.3-1.73c-1.1-.56-2.25-1-3.37-1.53l-6.8-2.95-6.87-2.54c-1.14-.42-2.27-.87-3.41-1.27l-3.41-1.14c-2.26-.75-4.5-1.58-6.72-2.35l-4.75-1.62c1.56.56,3.16,1.09,4.75,1.62a207.33,207.33,0,0,1,45.86,23.14q-2.67-1.23-5.35-2.64c-.9-.47-1.78-1-2.7-1.45l-2.81-1.4c-1.89-1-3.82-2-5.81-3.09l-6.3-3.19a43.91,43.91,0,0,0,3.53,2.75l2,1.41,2.11,1.52c1.44,1,3,2,4.51,3.08.77.53,1.57,1,2.33,1.58l2.29,1.7c2.1,1.32,4.22,2.61,6.3,4l6,4.34c1,.74,2,1.41,3,2.21l2.87,2.35c1.89,1.58,3.85,3.1,5.6,4.79-.73-.6-1.42-1.24-2.17-1.81l-2.27-1.71c-1.51-1.13-3-2.25-4.55-3.34-3.13-2.07-6.33-4-9.48-5.86-3.27-1.67-6.5-3.29-9.72-4.76-3.3-1.31-6.54-2.58-9.73-3.68a245.09,245.09,0,0,1,25.21,17.06,178.94,178.94,0,0,1,21.89,20.74,179.46,179.46,0,0,0-25.24-20.73l-5.49-4.16-5.74-3.82c-1-.63-1.92-1.29-2.9-1.89l-3-1.74c-2-1.14-4-2.34-6-3.43-4.15-2.05-8.26-4.25-12.57-6l-3.21-1.38-1.61-.68-1.64-.62L353.35,442l2.07.54c-1.36-.42-2.7-.89-4.07-1.24l-5.22-1.64c-1.75-.53-3.49-1.13-5.26-1.56l-5.31-1.4L332.9,436l-2.68-.6a85.75,85.75,0,0,0-19.41-1.23l-3.19-.42c2.11-.44,3.21-1-.63-2-8.16-2.31-16.91-2.86-25.89-3.41s-18.24-1-27.63-3.11c-4.92-1.1-11.66-1.1-18.89-.93a4.44,4.44,0,0,0-3.93.1l-4.71.1a99.54,99.54,0,0,0-11.45-.12c3.72.18,7.58.19,11.45.12q2.16.09,4.29.12a6.91,6.91,0,0,1-4.22,1.15c26.34,2.27,53.89,4.28,81.61,8-1.74.36-4.17.61-5.19.87,2.78-.17,5.57-.33,8.38-.45,8.95,1.28,17.92,2.63,26.88,4.45a29,29,0,0,0-7.67.18A269.64,269.64,0,0,1,367.2,450a178.88,178.88,0,0,1,34.9,18.07,181.56,181.56,0,0,1,26.32,25.48c7.88,9.16,15,18.75,22,28.35a175.58,175.58,0,0,0-23.1-33.1c13.25,13,24.7,27.45,35.68,41.81s21.53,28.74,33.18,42c-3.25-1.25-6.61-3.36-10-5.1s-6.41-3.41-9.1-3.83c-1.13,1.28,6.22,10.62.95,6.07-10.12-7.92-16.89-16.4-22.84-22.92s-11.21-11.26-18-12.28c-1.59,0,0,6.86,1.1,13s1.85,11.59-1.64,8.58c-1.32-1.36-2.86-3-4.57-4.93s-3.54-3.93-5.52-6.19l-6.18-7c-2.14-2.35-4.34-4.92-6.57-7.36-1.12-1.54-2.29-3.08-3.51-4.64s-2.48-3-3.77-4.52c-.2-.49-1.15-.76-2.29-1.13-4.78-4.83-9.37-9.39-13.46-12.92l-2.91-2.63-2.7-2.22c-.84-.71-1.63-1.39-2.35-2s-1.45-1.16-2.07-1.7L378,496.49l-1.39-1.17c-.46-.38-1-.71-1.46-1.07a9.54,9.54,0,0,1-1.67-3.42c-1.67-.23-3.17-.67-4.74-1-2.81-1.71-5.55-3.52-8.54-5-1.47-.76-2.91-1.57-4.41-2.28l-4.59-2-2.38-1.61-2.47-1.5c-1.66-1-3.32-2-5-2.92-.1.59.26,1.53-.62,1.9a211.38,211.38,0,0,0-25.41-6.81,43.28,43.28,0,0,1-9.36-5.11c-5.35,1.88-13.51,1.22-22.7.28l-14.1-1.6c-4.76-.46-9.35-.89-13.61-1v.2l-26-1.92a31.15,31.15,0,0,1-4.07-2.09c-2.26.74-4.58.65-5.71,1-3.55-.59-6.84-1.3-10-2s-6.17-1.59-9.17-2.41c-1.14.37-3.4,1.91-5.81,1.72s-4.74-.58-7.06-.8-4.66-.47-6.95-.66l-4-.61-4.06-.71c-2.71-.5-5.42-.93-8.18-1.51-18.46-3.82-36.83-9.09-54.26-17.06a4.52,4.52,0,0,1,0-2.55,14.43,14.43,0,0,1-4.87-1.15,29.69,29.69,0,0,0-4.49-1.6c.57-.06,1-.25,1.1-.7a32.19,32.19,0,0,1-5.17-1.67,16.68,16.68,0,0,1-3.51-2,88.4,88.4,0,0,0-7.21-5.17c-1.6-.74-3.43-.83-5.1-1.43-.72-.47-1.42-1-2.14-1.48a43.6,43.6,0,0,0-9.9-9.25c-3.61-2.62-7.54-5-11.33-7.93q-5.31-4.9-10.23-10.09c-3.3-3.42-6.45-7-9.51-10.51C33,374.16,32.83,370.38,30.5,365.67Z"/><path class="cls-1" d="M274.25,461.37c-7.89-1.55-15.95-3-24-4.41C259,457.65,266.89,456.9,274.25,461.37Z"/><path class="cls-1" d="M438.63,562.59a40.41,40.41,0,0,0,1.69,5.52,54.72,54.72,0,0,0,2.68,5.68c-6.93-8.89-13.35-17.58-19.57-25.76s-12.32-16-18.51-23.09l.14-.14c5.31,5.39,10.88,13.25,16.55,20.73S433.1,559.81,438.63,562.59Z"/><path class="cls-1" d="M295.56,465.14a7.4,7.4,0,0,1-1.16.44l-.07,0A3.32,3.32,0,0,1,295.56,465.14Z"/><path class="cls-1" d="M490.44,573.57c.45.53.93,1,1.4,1.49-2-1.67-3.83-3.51-5.73-5.28s-3.71-3.66-5.52-5.54c1.63,1.34,3.19,2.89,4.87,4.43S488.78,571.88,490.44,573.57Z"/><path class="cls-1" d="M533.29,609.42A209.64,209.64,0,0,0,562.68,622q9.47,4,19,7.37t18.95,6.53A200.06,200.06,0,0,1,533.29,609.42Z"/><path class="cls-1" d="M465.65,597.8c1.52,2,3.06,4.13,4.59,6.25s3.17,4.24,4.87,6.35c-1.93-1.87-3.85-3.73-5.6-5.62l-5.34-5.62C465.26,599.44,465.27,598.3,465.65,597.8Z"/><path class="cls-1" d="M461,541.46l2,2.49-6.29-5.45C457.62,539,459.52,540.53,461,541.46Z"/><path class="cls-1" d="M506.47,636.24l-4.78-3.39L497,629.32a43.09,43.09,0,0,0,6.52,2.62A15.2,15.2,0,0,0,506.47,636.24Z"/><path class="cls-1" d="M561.3,661.07c2.52.82,5,1.63,7.47,2.35s4.86,1.51,7.23,2.19c-6-1.22-12.08-2.83-18-4.58C559.5,660.88,560.72,660.7,561.3,661.07Z"/><path class="cls-2" d="M160.89,372.93a33.22,33.22,0,0,1,.87,4.76c1.29,2.17,3.49,4.92,5.38,7.55s3.45,5.1,3.48,6.85c-.67.63-8.15-1.11-8.88-2.27a47.35,47.35,0,0,1-5.51-6.87c-1.48-2.29-2.72-4.54-4-6.82s-2.48-4.62-4-7.06a70.4,70.4,0,0,0-5.58-7.71c-.64-1.17-5.37-2.28-9.43-4.05,0,0,.63,1.17,1.45,2.47-2.82-1.2-5.6-3.71-8.5-6.31l-4.36-4a43.45,43.45,0,0,0-4.39-3.61,10,10,0,0,1,.88,2.64,16.08,16.08,0,0,0-2.67-5c-.63-.86-1.34-1.72-2.11-2.58s-1.55-1.78-2.4-2.66c-1.68-1.78-3.5-3.55-5.31-5.26l-2.68-2.52L100.74,328A26.07,26.07,0,0,1,98.82,324c-1.52-1.36-2.95-2.79-4.35-4.26s-2.7-3.07-4.1-4.63-2.83-3.17-4.41-4.76-3.31-3.17-5.14-4.83a87.84,87.84,0,0,1-9-11.27c-3-4.47-6.12-9.17-9.51-13.45-2.48-4-4.84-8.23-7.17-12.49-1.21-2.1-2.19-4.36-3.29-6.53s-2.16-4.37-3.27-6.51c-2.32-4.23-4.37-8.54-6.78-12.52a92.64,92.64,0,0,0-8-11.07c-1.93-2.25-4-7.27-4.19-12.42a18.37,18.37,0,0,1-3.32-3.43,42.21,42.21,0,0,1-2.93-4.38,74.27,74.27,0,0,1-5-10.67c-1.32-3.91-2.49-8-3.55-12-.52-2-1.06-4-1.49-5.93s-.77-3.86-1.13-5.68a17.8,17.8,0,0,1,1.28-11.83c-5.11-13.25-9.9-28.05-11.3-43-2.35-18.94-3.3-38.25.07-59.1a32.67,32.67,0,0,0,.05-5.67,39.47,39.47,0,0,0-.59-5.71l1.79-3.64C4.52,36.1,3.68,24.5,6.83,14.25,9.07,7.25,11.9,3.76,14.88,2s6-1.84,8.89-2a93.36,93.36,0,0,0,1.08,11.84c.29,2,.58,4,.88,6.11s.6,4.16.81,6.3.42,4.31.51,6.54.06,4.51-.07,6.87a67.57,67.57,0,0,1-2.56,15.12,29.76,29.76,0,0,0-1.06,10.91c.09,2,.25,4.14.4,6.2.09,1,.14,2.06.24,3.07s.19,2,.26,3c.54,3.29,0,6.69-.15,10s.14,6.52,1.94,9.31c-2.18,4.1-3.5,11.17-4.15,19.06a101.88,101.88,0,0,0,.25,12.08c.08,1,.18,2,.29,3s.33,2,.51,2.91c.38,1.91.82,3.76,1.33,5.51-.29,1.26-.92,0-1.12,2.14.45,1.22.87,2.45,1.27,3.69l.6,1.87c.22.62.44,1.25.67,1.87Q27,151.13,28.12,155c.37,1.29.73,2.59,1.1,3.89s.69,2.62,1.13,3.92c.81,2.61,1.59,5.25,2.36,7.92.37,1.34.75,2.68,1.13,4s.73,2.71,1.2,4q1.35,4,2.7,8.06c.45,1.35.91,2.7,1.37,4s.88,2.73,1.47,4c1.1,2.66,2.23,5.32,3.39,8,.64,1.31,1.26,2.67,1.85,4.06.29.7.58,1.4.87,2.12s.57,1.44.91,2.14c1.3,2.86,2.58,5.85,3.91,8.9a95.59,95.59,0,0,0,10,18.22,5.29,5.29,0,0,1,.83,1.58c.3.76.62,1.73,1.07,2.72a32.11,32.11,0,0,0,3,5.89l3.12,2.83c2.32,4.48,5.6,8.82,8.32,13.08.68,1.06,1.35,2.11,2,3.14.3.52.61,1,.91,1.54l.91,1.47a33.54,33.54,0,0,1,2.81,5.58,59.73,59.73,0,0,0,6.46,10.59c2.35,3.19,4.61,6.25,6.55,9.5a81.89,81.89,0,0,0,5.71,7.61c1.1,1.33,2.23,2.7,3.42,4s2.42,2.66,3.64,4,2.38,2.67,3.51,4l3.23,3.92a33.58,33.58,0,0,1,4.74,7.42,11,11,0,0,0,2.19,2.55c1.08,1,2.32,2,3.24,2.94l1.65,3.53c1.86,1.79,4.55,1.35,6.45,3.07,3,2.88,6.15,6,9.42,8.92s6.46,6,9.48,8.84c5.95,5.8,10.82,11.26,12.19,16.13C164.94,372.72,160.22,370.05,160.89,372.93Z"/><path class="cls-2" d="M212.1,421.64c-1.06.42,1.11,2,2.62,2.65-.8-1.53-1-2.93-3.25-5.17l4,2.65c3.25-.57-3.76-2.92-.88-2.23,2.16,1.53,3.76,2.9,2.13,3.2-.1-.7-1.26-1-2.51-1.94-1,1.12,1,2.93,1.77,4.47-2.16-1.3-4.3-2.6-6.44-3.93Z"/><path class="cls-2" d="M199.12,410.77l1.2,1c1.07-.39.11-1.67-.85-3,4.91,4.76-1.43,2.33,1.16,5.76C201.12,414.06,198,411.15,199.12,410.77Z"/><path class="cls-2" d="M208.65,412c1.46,3.09,4.81,3.24,4.26,5.47-1.82-1.91-3.62-3.84-5.4-5.77Z"/><path class="cls-2" d="M166.92,384.49c-2.19-.79-1.09-.4-3.85-2.79l4.13,3.24Z"/><path class="cls-2" d="M89.87,311.48c.54,1.51.95,2.94,1.6,4.48a18.84,18.84,0,0,0,3,5,16.55,16.55,0,0,1-3.42-5.71C90.39,313.46,90.05,312,89.87,311.48Z"/><path class="cls-2" d="M67.34,269.89c.67-.29,0-1.69,1.45-.07.21,1-2,.88.64,3.1Z"/><path class="cls-2" d="M68.4,264.67v-2.43C68.19,262.33,68.1,263.31,68.4,264.67Z"/><path class="cls-2" d="M141.71,371.36v-.5c-.22-.09-.51-.16-.76-.25C141.18,370.85,141.39,371.08,141.71,371.36Z"/><path class="cls-2" d="M136.89,365.77c1,1.49,1.91,3,2.9,4.46a12.16,12.16,0,0,1,1.16.38C138.6,368.17,140.34,367.89,136.89,365.77Z"/><path class="cls-2" d="M141.73,370l0,.9a9.58,9.58,0,0,1,4.22,3.64,16.81,16.81,0,0,0,5.08,4.8A45.36,45.36,0,0,0,141.73,370Z"/><path class="cls-2" d="M146.66,372l1.91.41c1.08,1.14.53,1.63.25,1.87.9.61,1.82,1.19,2.74,1.77,1.89-.28-5.7-6.84-7.58-8.66Z"/><path class="cls-2" d="M178.51,380.55l-.12-.07.12.08Z"/><path class="cls-2" d="M173.28,372.15l-1.87,1.76c3.48,2.28,3,4.15,7,6.57l.12.07C178.72,377.51,174.64,375.77,173.28,372.15Z"/><path class="cls-2" d="M134.07,359.92c3.19,2.8,5.59,4.9,7.51,4.65L136,359C137.57,361.78,135.19,359.69,134.07,359.92Z"/><path class="cls-2" d="M132.32,351.93l2.85,2.39-.68-1.71C134.16,352.77,133.43,352.61,132.32,351.93Z"/><path class="cls-2" d="M134.49,352.61c.37-.18.22-.81-.74-1.83Z"/><path class="cls-2" d="M141.37,355.92c-.67-2.79-1.88-1.11-4.68-4.16C135.24,352.94,139.8,354.56,141.37,355.92Z"/><path class="cls-2" d="M129.06,344l-.1-1.87-1.46,1.11C128,343.46,128.53,343.73,129.06,344Z"/><path class="cls-2" d="M101.51,327.75c3.86,1.88-.38-2.88,0-3.78Z"/><path class="cls-2" d="M128.56,337.88l-.21,2.09,1.09-.2c.74.73,2,1.72,2.19,2.86,1-.45.5-1.2-.37-2.06A28.58,28.58,0,0,1,128.56,337.88Z"/><line class="cls-2" x1="114.21" y1="329.87" x2="112.23" y2="326.23"/><path class="cls-2" d="M139.46,339.71c.57-.46-2.17-6,2.24-1.14-1.72-1.84-4.47-4.14-1.82-3.67-3-2.76-1.46,1.15-4,0C138.19,335.6,138.26,338.09,139.46,339.71Z"/><path class="cls-2" d="M133.24,331.79c-1.15-1.65-2.52-3.76-3.84-4C130.85,329.18,131.13,331.49,133.24,331.79Z"/><polygon class="cls-2" points="134.81 327.46 135.8 330.47 135.83 327.94 134.81 327.46"/><line class="cls-2" x1="98.28" y1="307.1" x2="96.56" y2="308.73"/><path class="cls-2" d="M126.54,319.35c1.73,1.61,3.39,3.29,5.19,4.83-1.33-1.69-2.54-3.48-3.8-5.22-3.48-2-2.61-.22-1.1,2.19C126.48,320.43,126.29,319.78,126.54,319.35Z"/><path class="cls-2" d="M129.79,326.86l2,1c.37-.27-2-2.42-3.7-4.66C129.11,324.81,130.05,326.24,129.79,326.86Z"/><path class="cls-2" d="M128.12,323.18c-.44-.68-.88-1.38-1.29-2A12.31,12.31,0,0,0,128.12,323.18Z"/><path class="cls-2" d="M86.07,294,90,299.47A17,17,0,0,0,86.07,294Z"/><path class="cls-2" d="M124.39,314.2l-.69-.73-1.51,1.06C123.87,315.76,124.09,314.41,124.39,314.2Z"/><path class="cls-2" d="M121.1,305.73c-.39-2.09-3.76-4-4.9-5,.56,2.55,2.37,4.31,4,6.74C118.56,305.06,120.49,306.14,121.1,305.73Z"/><path class="cls-2" d="M117.07,297.9l3.91,4.41C121.7,300.1,118.86,299.64,117.07,297.9Z"/><path class="cls-2" d="M110.38,291.17c-.48-.29-.63.38-1.58-.2,0,1.14,1.56,2.47,2.34,3.72Z"/><path class="cls-2" d="M133.38,341.27c-1.45-1.2-2.7-2.32-3.94-3.35.78,1,1.55,2.05,2.35,3.06l2.45,3A13.22,13.22,0,0,0,133.38,341.27Z"/><path class="cls-2" d="M1.34,30.76a57.72,57.72,0,0,1,.88,7.52c.17,2.78.12,5.76.14,8.74.05,6-.28,11.92-.17,16.19C2.05,65,2,66.75,1.93,68.6c0,.92,0,1.85,0,2.8S2,73.3,2,74.26c.21,3.86.53,7.86.94,11.91L4.55,98.44c.22,2.06.58,4.1.85,6.14s.54,4.07.76,6.09l-.74-.09c0,1.59,0,3.24,0,4.94s.28,3.42.48,5.18c.39,3.53.91,7.18,1.46,10.86.73,3.66,1.47,7.35,2.19,11q.53,2.73,1,5.4c.41,1.76.8,3.5,1.15,5.21l.81-.93c-.31-2.33-.89-5.34.75-3.79.18,3.13.56,7.32,0,8.38l1.84,2.06c-.35,2.11-3.87,1.17-1.78,6.4,2.05,1.22,2.22,4.35,2.4,7.12s.36,5.15,2.41,4.72c-.93,1.39-.56,3.22.15,5A44,44,0,0,1,20.59,187l1.28-2.31c.7,5.69-.39,11.73.91,14.23,1.35,3.27,3,7.13,4.69,11.06.85,2,1.72,3.93,2.6,5.84a29.83,29.83,0,0,0,1.42,2.76c.5.89,1,1.76,1.49,2.59-1.34,2.46-3.27-7.37-3.38-1.95a47.76,47.76,0,0,1,6.19,10.38c.44,1,.87,1.95,1.29,3s.82,2,1.29,3q1.37,3,2.68,6.23c.89,2.12,1.79,4.26,2.68,6.4.46,1.07.91,2.15,1.39,3.21l1.59,3.09a83.61,83.61,0,0,0,7.18,11.59c-.09-.53-.69-2,.17-1.2.09,2,1.27,3.61,2.57,5.51a34.3,34.3,0,0,1,4,6.64c.78-1.49-3.15-7.84-4.37-10.18,4-.46,0,1.7,4.82,7.12-.11-.53-.33-1.58,0-1.72,4.49,5.52-.35,3.59,3.14,7.84L63.56,277c2.82,4.52,1.32,1.17,5.43,5.61-2.14.41-1.68,3.66-.93,5.08,1.14.05,4,5.13,5,3.44a10.84,10.84,0,0,0,1.52,4.66,14.56,14.56,0,0,0,2.34,2.74,11,11,0,0,1,3.88,7c3.06,1.34-.32-3.44,1-4.13,5.29,4.88-.17,3.08,1,5.48,2,1.33,8.53,7.82,10,11.89L94,318c1.47,2.78,3.88,6.08,5.91,9.09,1,1.5,1.94,2.93,2.63,4.17a7.59,7.59,0,0,1,1.22,3c1.66.15,1.62-.62.79-1.81a22.23,22.23,0,0,0-1.7-2.05L100.74,328c.22-1.41,3.62,1.41,4.82,3.11-.73-.77-.34-1.65-1.67-2,.7-1.08,2.29,1.62,3.33,2.19,4.82,5.57-2.6-1.41-1,1.31,2.29,1.61,6.93,6.72,6.22,3.35,4.19,4.1.17,3.12,1.83,5.79-2.33-4.14-5.43-3.27-6.67-6.9-1.34-.35-1.43.35-.78,1.81,1.91,1.57,4.17,4.37,6.24,6.45s3.8,3.6,4.42,2.81l.88,2.64,2.71.61.47,1c-.3-3.09-3-7-3-9.55.37-.92,2.33,1.52,3.61,2.52l-.2,2.1c2.75,3.19,4.36,0,8.18,4.24-4.06-.8,2.54,6.64,4.6,10.36,5.77,0,1.5-2.56,6.42-2.59,1.58,1.37,3.74,2.95,5.94,4.64a32,32,0,0,1,6,5.56c-9.38-7.63,2.91,5.75-5.45.65,1.34,1.59,3,2.25,4.58,3.6-.57,3.3-3.82-.11-3,3.39l1.92-1c1.37,3,1.37,5.79,5.52,9.82,1.1-.3,4.12.45,5.79,2.46-.25,1.64-.22,2.39,3.91,5.56,5.18,1.47,3.91-1.06,1.41-4.45s-6.23-7.73-6-9.71c-5.46-4.85-6.9-9.13-8.47-13.84a45.45,45.45,0,0,0-3.08-7.39,38.3,38.3,0,0,0-6.41-8.79c-2.93-.89-2.42,0-6.8-3-4.88-.06,4.05,7.27,5.3,10.91-1.6-.68-3.21-1.36-4-2.75l-.14,2.78c-7.1-4.93-1.29-5.61-7.54-9.87l1.58.73-3.64-2.39.47.94c-2-1.68-3.72-1.07-6.14-4.45l3.42,1.32c-2.37-.8-1.06-3.08-3.88-4.83,1.89.64,3,.23,3.84,1a64.68,64.68,0,0,0-4.24-5.46c-1.42-1.68-2.78-3.29-4.16-4.84q-2-1.74-4-3.54c-1.3-1.19-2.57-2.4-3.75-3.69q-3.6-3.81-6.93-7.78c-1.13-1.31-2.16-2.7-3.18-4.08s-2-2.79-3-4.19c-2-2.82-3.91-5.61-5.59-8.61a14.18,14.18,0,0,0,.43,1.74,6.38,6.38,0,0,1-2.32-5c-1.26-2.21-2.5-4.44-3.71-6.67a140.68,140.68,0,0,1-10-13.22c.72-.86,1.28-.71,1.83-.1-1.55-1.84-2.6-2.91-2.28-.26-2.49-3.35-2.56-5.54-4.17-8.15L76.58,269c-.93-2.9-2.85-1.51-4.33-5.28-3.89-4.93-.08,3.32-1.86,3.55L69.2,265l-.41,3.49A23.06,23.06,0,0,1,66.64,262a25,25,0,0,1-.33-4.65c.4,1.3.92,2.54,1.4,3.8,1.48-.05.62-1.47-.5-3.2s-2.46-3.81-2.27-5l.42.38c-3-5.38-.46,1.8-2.78-1.67l-1.79-7.4L60,246.23c-1.57-1.58-2.64-4.6-3.71-8s-2.14-7.14-3.51-10.39c-1.26-3.83-4.6-8.18-6.94-12.81,0,1,.46,3-.27,2.66-.59-1.42-1.57-3.66-2.08-5.36s-.41-2.89.81-2.11l-2.79-3.57a9.72,9.72,0,0,1-.74-3.76l-.29,1.38L38,199.59c.36-.07.4-2.13,1.44.25a13.12,13.12,0,0,0-1.1-4.53c-.64-1.52-1.33-3.13-2.16-4.79A47.62,47.62,0,0,1,31.77,179l1.62,2.35a10.13,10.13,0,0,1-1.3-3,11,11,0,0,1-.14-2.46,11.58,11.58,0,0,0-1.21-5.93l-.94,1.6c-1.66-3.95-2.06-12-.66-11.08-3.3.14.47-2.55-2.82-4.45l2.4-3.11c-1.36-2.46-2.37-5-3.48-3,.4-4.43.22-7.87-2.08-10a.22.22,0,0,1-.09-.1l-.08-.08H23c-.38-.9-.47-5.11-1.54-3.08-1.43-9.71,2-5.49.87-14.67l-2.21-.16c-.34-7.13-2.43-14-4.12-19.39l1.79-.79c-.65-3.68-1.86.8-2.4-5,.31-.82.87-1.56,1.36-1.43-.11-2.81.05-6.07.28-9.68S17.82,78,18,73.81c.36.08.68,1.18.84,1.74,0-.91-.06-2-.13-3.08s-.09-2.33-.17-3.56c-.14-2.45-.35-5-.55-7.13.88-2.38,1.9-5,2.77-7.79s1.64-5.78,2.49-8.84,1.48-6.23,2.11-9.42,1.16-6.41,1.53-9.6c-2.7-10.43-6.36-18-11.29-20.07-1.9.92-4.25,3.75-6.78,8C7.59,16.23,6.32,18.73,5,21.52S2.57,27.43,1.34,30.76Z"/><path class="cls-3" d="M223.07,412.94l0,.05,0,.18c.59.2.43.61.26,1.15.18,0,.36-.05.45.14-.36.86,0,.43.36,1.05,0-.19,0-.43.14-.53l.18,1.19c.35-.16.74-.3,1-.1a7,7,0,0,1,2.28.42A1.41,1.41,0,0,1,228,416a.53.53,0,0,1,.49.48,1,1,0,0,0,.22-.08,1,1,0,0,1-.22.08,1.81,1.81,0,0,1,0,.52c.09-.1.18-.19.32-.15v-.71a.17.17,0,0,1,.17,0l-.17-.18-.18.14c-.14.05-.23-.05-.32-.14s.09-.24.18-.33l-.32-.38c-.54-.15-.31,1-.81.38l.13-.19c-.13-.29-.13-.67-.49-.86.63-.28-.5-.8.36-.85.41-1.09-.27-2.52.63-3.61a9.18,9.18,0,0,1-2.45-.66c.1-.1.19-.24.32-.19l-.32-.33c0,.19.05.42-.18.52-.27-.52-.49.24-.81.19l-.32-.71-.12.08c-.19,1.28-.74,2.55-1,3.82Z"/><path class="cls-3" d="M233.75,391.2h-.68c-1.72-10.87,1.17-25.5.82-38.93l2.54.33c-1.54-3.59-2.46-7.68-4.27-11.05l-.45,1.31a7.85,7.85,0,0,1-2-6.14l.65.19c.37,2.58.22-.18,2,.87l.33.45.33-.26-.34-.45c.38.05.87,0,1,.43l.07-.6c1.8-1.29,3.35-1.29,5.36-1.13-.25-.33-2.23,0-1.57-1.42l.65.19-1.17-1.57.86-.7c-.42-.56-.86-.93-.6-1.5l-1.34-.17c.5-2.58-1-5.82-.06-8.43-1.29-.57.42-2-.67-3.43l-1.42.63c-1.93,1.57-.92,5.25-1.61,7.8l-.76-.1c-.23-.54-.86-.92-.49-1.58l-1.33-.18c-4.69,1.12,1,4.59.31,5.52-1.3,2-2.85-1.28-2.67-.35-1.78-2.15-3.31,1.8-4.87,2.72-3.11,2.54-1.54,8.11-1.46,11.47,3.32,5.6-.09,13.07,0,18.25-.39,2.49,4.66,6.48.5,8.08l-.84,4.65-.77-.1c-.24,4.54,1.59,9.54,2.16,13.77.16,1.85,2.13,2.41,0,3.25-1.4,3.67,1.47,8,1.73,11.58.68,0,1.4.48,1.76-.18-.84-1.83.86-3.95,2.71-4l-.18.69,1.5-1.23-.59-.79a3.13,3.13,0,0,1,1.11-.3c.65-1.35,2.29-2.52,3.4-3.92A3.53,3.53,0,0,1,233.75,391.2Z"/><path class="cls-3" d="M170.75,262l.05,0,0-.15c-.6-.18-.43-.55-.26-1-.18,0-.36,0-.46-.12.37-.76,0-.38-.36-.93,0,.17.05.38-.13.46l-.19-1.05a1.18,1.18,0,0,1-1,.09,8,8,0,0,1-2.28-.37,1.27,1.27,0,0,1-.29.41.51.51,0,0,1-.48-.43.81.81,0,0,0-.22.07.81.81,0,0,1,.22-.07,1.42,1.42,0,0,1,0-.46c-.09.08-.19.17-.32.13v.63a.19.19,0,0,1-.18,0l.18.17.18-.13c.14,0,.23,0,.32.13s-.09.21-.18.29l.31.34c.55.12.32-.89.82-.34l-.14.17c.14.25.14.59.5.76-.63.25.5.71-.36.76-.41,1,.27,2.23-.64,3.2a10,10,0,0,1,2.45.59c-.09.09-.18.21-.32.17l.32.3c0-.17,0-.38.18-.47.27.47.5-.21.82-.17l.32.64.12-.08c.19-1.13.74-2.26,1-3.39Z"/><path class="cls-3" d="M160.07,281.29l.68,0c1.71,9.67-1.18,22.67-.83,34.61l-2.53-.29c1.53,3.19,2.46,6.82,4.27,9.82l.44-1.17a6.49,6.49,0,0,1,2,5.46l-.66-.16c-.37-2.3-.21.15-2-.78l-.34-.4-.32.24.33.4c-.38-.05-.87,0-1-.39l-.07.53c-1.8,1.15-3.35,1.15-5.36,1,.25.3,2.23,0,1.57,1.27l-.66-.17,1.18,1.4-.86.62c.42.5.86.82.6,1.33l1.33.16c-.5,2.28,1.06,5.17.07,7.49,1.29.5-.42,1.75.66,3.05l1.43-.56c1.93-1.4.91-4.67,1.6-6.94l.76.09c.23.48.86.82.5,1.41l1.33.15c4.69-1-1-4.08-.32-4.9,1.3-1.74,2.86,1.14,2.68.31,1.77,1.91,3.31-1.6,4.87-2.42,3.11-2.25,1.54-7.21,1.45-10.19-3.31-5,.09-11.62,0-16.23.39-2.21-4.66-5.76-.5-7.17l.84-4.14.76.08c.25-4-1.58-8.47-2.15-12.23-.17-1.64-2.14-2.14,0-2.89,1.4-3.26-1.48-7.11-1.73-10.29-.68,0-1.4-.43-1.77.16.85,1.63-.85,3.5-2.7,3.56l.18-.61-1.5,1.09.58.7a3.34,3.34,0,0,1-1.1.27c-.66,1.2-2.29,2.24-3.4,3.48A2.87,2.87,0,0,1,160.07,281.29Z"/><path class="cls-3" d="M202,328.63l0-.09c0-.11,0-.21,0-.31-.6-.36-.44-1.09-.27-2.05-.18,0-.36.08-.45-.25.36-1.52,0-.76-.36-1.86,0,.34,0,.76-.14.93l-.18-2.11c-.34.29-.73.53-1,.18-.7.21-1.55-.48-2.29-.74a3.16,3.16,0,0,1-.28.81c-.3-.05-.43-.41-.48-.85a.59.59,0,0,0-.22.14.59.59,0,0,1,.22-.14,5.63,5.63,0,0,1,0-.92c-.09.17-.18.34-.31.26v1.26c-.07,0-.13,0-.18-.07l.18.32.18-.25c.13-.08.23.09.31.25a.67.67,0,0,1-.18.59l.32.68c.55.25.32-1.77.82-.68l-.14.34c.14.51.14,1.18.5,1.52-.63.51.5,1.43-.36,1.52-.41,1.94.27,4.47-.64,6.41.59.34,1.72.34,2.45,1.18-.09.17-.18.42-.32.34l.32.59c0-.34-.05-.76.18-.93.27.93.5-.42.82-.34l.31,1.27.13-.15c.18-2.27.74-4.53,1-6.79Z"/><path class="cls-3" d="M191.28,367.29l.68,0c1.72,19.33-1.17,45.34-.82,69.22l-2.54-.59c1.54,6.38,2.47,13.65,4.28,19.63l.44-2.32c1.41,2.13,2.31,7.56,2,10.92l-.66-.33c-.37-4.6-.21.31-2-1.55l-.33-.8-.32.47.33.8c-.38-.09-.87,0-1-.78l-.07,1.06c-1.8,2.3-3.35,2.3-5.37,2,.25.6,2.23,0,1.58,2.53l-.66-.33,1.17,2.79-.85,1.25c.41,1,.86,1.64.59,2.66l1.34.31c-.5,4.57,1,10.34.07,15,1.29,1-.43,3.5.66,6.1l1.43-1.12c1.93-2.8.91-9.34,1.6-13.87l.76.18c.23.95.86,1.64.49,2.81l1.34.31c4.68-2-1-8.16-.32-9.81,1.3-3.48,2.85,2.28,2.67.62,1.78,3.83,3.32-3.21,4.88-4.83,3.11-4.51,1.54-14.43,1.45-20.39-3.31-10,.09-23.24,0-32.45.4-4.42-4.65-11.53-.49-14.35l.84-8.28.76.17c.24-8.06-1.59-16.95-2.15-24.47-.17-3.28-2.14-4.28,0-5.77,1.4-6.53-1.48-14.22-1.74-20.59-.68,0-1.39-.86-1.76.32.85,3.26-.85,7-2.7,7.12l.18-1.22-1.51,2.18.59,1.4a2.11,2.11,0,0,1-1.1.54c-.66,2.4-2.29,4.48-3.41,7A10.56,10.56,0,0,1,191.28,367.29Z"/><path class="cls-3" d="M238.29,490.48l0,0a.56.56,0,0,1,0,.12c.6.13.44.39.27.74.18,0,.36,0,.45.09-.36.55,0,.28.36.67,0-.12,0-.27.14-.33l.18.76a1.55,1.55,0,0,1,1-.06,10.14,10.14,0,0,1,2.29.27.91.91,0,0,1,.28-.3.49.49,0,0,1,.49.31l.22,0-.22,0a.73.73,0,0,1,0,.33A.39.39,0,0,1,244,493v-.46a.25.25,0,0,1,.17,0l-.17-.12-.19.09a.37.37,0,0,1-.31-.09c-.05-.12.09-.15.18-.21l-.32-.25c-.54-.09-.32.64-.81.25l.13-.13c-.13-.18-.13-.42-.5-.55.64-.18-.5-.52.37-.55.4-.7-.28-1.62.63-2.32a12.66,12.66,0,0,1-2.45-.43c.09-.06.18-.15.32-.12l-.32-.21c0,.12.05.27-.18.33-.27-.33-.5.15-.81.12l-.32-.45-.13.05a21.53,21.53,0,0,1-1,2.46Z"/><path class="cls-3" d="M249,476.47h-.68c-1.72-7,1.17-16.44.82-25.09l2.54.21c-1.54-2.31-2.47-5-4.28-7.12l-.44.84a4.05,4.05,0,0,1-2-3.95l.66.12c.37,1.66.22-.12,2,.56l.33.29.33-.17-.34-.29c.38,0,.87,0,1,.28l.07-.39a10.36,10.36,0,0,1,5.37-.72c-.25-.22-2.23,0-1.58-.92l.66.12-1.17-1,.86-.45c-.42-.36-.86-.6-.6-1l-1.34-.11c.5-1.66-1-3.75-.07-5.43-1.29-.37.43-1.27-.66-2.21l-1.43.4c-1.93,1-.91,3.39-1.6,5l-.76-.06c-.23-.35-.86-.6-.49-1l-1.34-.12c-4.68.72,1,3,.32,3.56-1.3,1.26-2.85-.83-2.67-.22-1.78-1.39-3.31,1.16-4.87,1.75-3.11,1.63-1.55,5.23-1.46,7.39,3.31,3.61-.09,8.42,0,11.76-.39,1.6,4.65,4.18.49,5.21l-.84,3-.76-.07c-.24,2.92,1.59,6.15,2.15,8.87.17,1.19,2.14,1.55,0,2.1-1.41,2.36,1.47,5.15,1.73,7.46.68,0,1.39.31,1.76-.12-.85-1.18.86-2.54,2.71-2.58l-.18.44,1.5-.79-.59-.5a4.69,4.69,0,0,1,1.1-.2c.66-.87,2.29-1.62,3.41-2.52C248.17,478.2,248.06,477.47,249,476.47Z"/><path class="cls-3" d="M157.76,597.09l0,.06a1.77,1.77,0,0,0,0,.2c.6.24.44.71.27,1.33.18,0,.36,0,.45.17-.36,1,0,.49.36,1.2,0-.22,0-.49.14-.6l.18,1.37c.34-.19.73-.34,1-.11a6.23,6.23,0,0,1,2.29.48,1.57,1.57,0,0,1,.28-.53c.3,0,.43.26.48.55a.6.6,0,0,0,.22-.09.6.6,0,0,1-.22.09,2.4,2.4,0,0,1,0,.6c.09-.11.18-.22.31-.17v-.82a.16.16,0,0,1,.18,0l-.18-.21-.18.16c-.13.06-.23-.05-.31-.16s.08-.28.18-.39l-.32-.44c-.55-.16-.32,1.16-.82.44l.14-.22c-.14-.32-.14-.76-.5-1,.63-.33-.5-.93.36-1,.41-1.26-.27-2.91.64-4.17a8.32,8.32,0,0,1-2.45-.76c.09-.11.18-.28.32-.22l-.32-.39c0,.22,0,.5-.18.61-.27-.61-.5.27-.82.22l-.31-.83-.13.1c-.18,1.47-.74,2.94-1,4.41Z"/><path class="cls-3" d="M168.45,572l-.68,0c-1.72-12.56,1.17-29.47.82-45l2.54.38c-1.54-4.15-2.47-8.87-4.28-12.76l-.44,1.51c-1.41-1.38-2.31-4.92-2-7.1l.66.22c.37,3,.21-.2,2,1l.33.51.32-.3-.33-.52c.38.06.87,0,1,.51l.07-.7c1.8-1.49,3.35-1.49,5.37-1.3-.25-.39-2.23,0-1.58-1.65l.66.22-1.17-1.82.85-.8c-.41-.65-.86-1.07-.59-1.73l-1.34-.21c.5-3-1.05-6.71-.07-9.73-1.29-.66.43-2.28-.66-4l-1.43.73c-1.93,1.82-.91,6.07-1.6,9l-.76-.12c-.23-.62-.86-1.07-.49-1.83l-1.34-.2c-4.68,1.29,1,5.31.32,6.37-1.3,2.27-2.85-1.48-2.67-.39-1.78-2.5-3.32,2.08-4.88,3.13-3.11,2.94-1.54,9.38-1.45,13.26,3.31,6.47-.09,15.1,0,21.09-.4,2.87,4.65,7.49.49,9.33l-.84,5.38-.76-.11c-.24,5.23,1.59,11,2.15,15.9.17,2.14,2.14,2.79,0,3.76-1.4,4.24,1.48,9.24,1.74,13.38.68,0,1.39.56,1.76-.21a3.47,3.47,0,0,1,2.7-4.63l-.18.79,1.51-1.41-.59-.91a2.73,2.73,0,0,1,1.1-.35c.66-1.56,2.29-2.92,3.41-4.53A4.63,4.63,0,0,1,168.45,572Z"/><path class="cls-3" d="M214.07,649.09l0,.07,0,.25c.59.3.43.89.26,1.67.18,0,.36-.07.45.2-.36,1.23,0,.62.36,1.51,0-.28,0-.62.14-.76l.18,1.72c.35-.24.74-.43,1-.15.7-.17,1.54.39,2.28.61a2.34,2.34,0,0,1,.28-.67c.3,0,.44.34.49.7a.8.8,0,0,0,.22-.12.8.8,0,0,1-.22.12,3.65,3.65,0,0,1,0,.74c.09-.14.18-.27.32-.21v-1c.07,0,.12,0,.17.06l-.17-.27-.18.21c-.14.07-.23-.07-.32-.21s.09-.34.18-.48l-.32-.55c-.54-.2-.31,1.44-.81.55l.13-.27c-.13-.41-.13-1-.49-1.23.63-.42-.5-1.17.36-1.24.41-1.57-.27-3.63.63-5.21-.59-.27-1.72-.27-2.45-1,.1-.13.19-.34.32-.27l-.32-.48c0,.28.05.62-.18.75-.27-.75-.49.35-.81.28l-.32-1-.12.12c-.19,1.84-.74,3.68-1,5.52Z"/><path class="cls-3" d="M224.75,617.68l-.68,0c-1.72-15.7,1.17-36.84.82-56.24l2.54.47c-1.54-5.18-2.46-11.08-4.27-15.95l-.45,1.89c-1.4-1.73-2.3-6.14-2-8.87l.65.27c.37,3.73.22-.25,2,1.26l.33.65.33-.38-.34-.65c.38.07.87,0,1,.63l.07-.87c1.8-1.86,3.35-1.86,5.36-1.63-.25-.49-2.23,0-1.57-2l.65.27-1.17-2.27.86-1c-.42-.81-.86-1.34-.6-2.17L227,530.8c.5-3.71-1-8.4-.06-12.17-1.29-.82.42-2.85-.67-5l-1.42.9c-1.93,2.28-.92,7.59-1.61,11.27l-.76-.14c-.23-.77-.86-1.33-.49-2.29l-1.33-.25c-4.69,1.62,1,6.63.31,8-1.3,2.83-2.85-1.85-2.67-.5-1.78-3.12-3.31,2.6-4.87,3.92-3.11,3.67-1.54,11.72-1.46,16.57,3.32,8.09-.09,18.88,0,26.37-.39,3.59,4.66,9.36.5,11.66l-.84,6.73-.77-.15c-.24,6.55,1.59,13.78,2.16,19.89.16,2.67,2.13,3.47,0,4.69-1.4,5.3,1.47,11.55,1.73,16.72.68,0,1.4.7,1.76-.25-.84-2.65.86-5.7,2.71-5.79l-.18,1,1.5-1.77-.59-1.14a2.49,2.49,0,0,1,1.11-.44c.65-1.95,2.29-3.64,3.4-5.66A7.05,7.05,0,0,1,224.75,617.68Z"/><path class="cls-4" d="M129.06,496.52c-1.18-.71-.34.94-.65.32-.84-.53-1.61-1.11-2.41-1.68C128.2,496.44,128.65,492.89,129.06,496.52Z"/><path class="cls-4" d="M121.22,495.78l-1.09,0c-.1-.76,0-2.4,1-1.79A2.16,2.16,0,0,0,121.22,495.78Z"/><path class="cls-5" d="M105.42,506.6l0-1.22c.24.51,1.44.24,1.58,1.09Z"/><path class="cls-5" d="M93.44,445.8a2.19,2.19,0,0,0,.58-.62,3.24,3.24,0,0,1,2.86,1.25c-.41,1,.51,3.14-.9,2.94l-.1-.23c-1,.16-2.76,1.57-2.26,2.77.86.16,2.2-1,3.68,0a4.82,4.82,0,0,1-.61,4.61l2.49.76c-.12,1.49-1.17,2.05-1.7,3.21l-1.1-.6c-.74.7-2.7.55-2.34,2.46a9.49,9.49,0,0,1,2.48,2.82c-.76,1.19-.53,2.58-.12,4a14.15,14.15,0,0,1,1,4c2,.72,2.09,2.56,2.21,4.33s.37,3.46,2.81,3.67c.21,4,3.17,3.53,5.78,4.77-1.37,3.62-4.19-2.69-5.91-.47a22.39,22.39,0,0,0,2.21,6.51c.5,1.06,1,2.13,1.52,3.18a30.63,30.63,0,0,1,1.37,3.19c1.89.43,2.73-2.05,4-.06-1.19-.32-2.5,1.18-2.16,2-.15-.94.71-.29,1.24-.42l0-.73c3.38-2,1,3,3.38,3.61-.89,1.21-.32-.76-1.55-.31-1.57.77-3.2,2.31-2.77,4.59,2,1.46,2.39,3.31,2.82,5.29a30.13,30.13,0,0,0,.69,3,8.57,8.57,0,0,0,1.67,3c1.13-1,1.3.55,1.9,1.11-1.61-.17-1.84,2.32-1.48,3.27,1.35.54,3.79-.91,4.59.75l1.54-2.55c-.09-.74-2.48-2.07-3.58-2.82,1.1-1.15,0-2.23-.86-3.27s-1.49-2,.45-2.83l-.11.92c0,1.57,1.17,2.11,2.57,2.42a20.47,20.47,0,0,1,4.41,1c.13,2.32-1.2,4.08-1.75,6.18.33,1.84,1.55,1.53,2.66,1.78,1.4.77.76,2.16.67,3.3.44.31.4-.61.84-.3.17.72.22,1.66.66,2,2.17-1.47.35-3.58,0-5.41.55.12,1-.13,1.31.39.41.31-.07.56-.21.77l.86.6c.61-.46,1.62-1.52,2.54-.59l-.7,1.58c1.28,2.38,4.79.92,3-1.81l-1.42.8c-.06-1.32-.12-2.62-.14-3.92,1-1.38,1.85.4,3.07-.54a2.09,2.09,0,0,0,1.06-2.18,9.68,9.68,0,0,0-.45-2.42c-1.59-.26-.81,1.5-.51,2.33-1.07.12-2.14.23-3.23.33a1.07,1.07,0,0,1,.26-1.61c.39-.92,2.52-1.75,1.75-2.31-1.17-2.4-2.4,1.54-3.82-.22-2,2.16-.22,5.66-.58,7.52l.67.82c-.82,1.22-1.42-1.08-1.09.71-1.5-.53-2.16-2.11-2.35-3.86a17.5,17.5,0,0,1,.42-5.07c1.44-1,1.69-3.61,4.46-3.54-.25-.83.67-1.91-.2-2.69-2.07-.5-2.52-1.55-2.71-2.67s0-2.37-1.06-3.34c-.17.5-1,.35-1.53.53-.47-1.93,1.42-2.58,2.86-3.22s2.53-1.27.67-3.14a1.68,1.68,0,0,0-2.37,0c-.21.82-1.1,2-.1,2.66-.69.33.12,1.85-1.74,1.68-.6-2.38-3.76-2.11-4-4.21l-1.36-.09c-.29-.7-2.34-1.89-1.86-3.26-.4-3.17,2.48-.8,3.71-1.23l-.25-2.57c-1.91-.77-1.38-2.27-.87-3.65s.93-2.64-1.12-3.2l.86,0c1.57.89,2.83-1.47,2.49-2.35l-.94-.47c-3.66,0-2.65-4.16-4.28-6.18-.05-.53.56-.91.81-.52l.73-2.92c-3.36.1-.6-1.84-1.42-3.24-1.56-.74-3-.75-4.24-2a6.07,6.07,0,0,0-.26-4.83,4.84,4.84,0,0,1,.19-4.58c-2.51-.1-3.43-2.09-5.95,0a39,39,0,0,1,1.94-5.44,19.45,19.45,0,0,0,1.6-5.21c-.4-.19-.77-.41-1.19-.6-2.49-.15-6.32-.88-9.77-1.11S94.36,443.73,93.44,445.8Z"/><path class="cls-5" d="M122.55,530.62c-.38-.47-.72-1-1.06-1.44l-.4.63C120.64,531,122,529.92,122.55,530.62Z"/><path class="cls-4" d="M124.36,415.08c-1-1.41-2.89-3.07-4.1-2.14-.25,1.9,1.67,3.32.48,5.2C122.67,418.12,123.38,415.78,124.36,415.08Z"/><path class="cls-5" d="M128.24,491.79c-.35-.61-.67-1.24-1-1.86L125.94,491C125.73,493,127.66,490.78,128.24,491.79Z"/><path class="cls-4" d="M104.35,407.41c-1,0-1.93-.53-1.46.47l1.67,1.51C104.08,409.13,105.81,407,104.35,407.41Z"/><path class="cls-4" d="M100.61,402.12l-2.91.16c.47.77,1.66,1.3,1.16,2C99.37,403.33,100.81,403.37,100.61,402.12Z"/><path class="cls-4" d="M99.92,412.81c2.92-2.71-3.59-3.05.31-5.23-.66-3.25-3.33-2.32-5.78-1.62,0,1.26,3.39.08,4.33,2.09-.51,1.24-1,2.74-2.71,3C95.8,414.29,99,411.05,99.92,412.81Z"/><polygon class="cls-4" points="93.84 401.92 93.8 403.43 95.75 402.73 93.84 401.92"/><polygon class="cls-4" points="91.45 412.75 92.66 414.03 92.91 411.75 91.45 412.75"/><path class="cls-4" d="M85.68,409.62l0,1c.72.78,1.68,1.3,2.41.54C87.85,409.91,86.4,410.14,85.68,409.62Z"/><path class="cls-5" d="M106.3,435.09a32.39,32.39,0,0,0,9.55-11.61,15.46,15.46,0,0,1-2.58-2.53l2.13-2.68c0-2.62-.75-5.73-3.89-7.45.49-.49,1-.48,1.46-1-1-1,0-2.9-1.64-3.9,1-1.2,2.44-1.17,3.91-1.87-1.4-2.69,2.58-6,.26-8.71,4.16-1.05-2.27-4,1.66-5.28a4.82,4.82,0,0,0-2.58-7c.73,0,2.61,1.1,3.64-.07-.23-.25-.45-.75-.69-.77,0-.24,1.34-2.38.17-3.18a1.56,1.56,0,0,0-1.17-.38c-3.34,2.71-11.58-4.16-15.91-6.67-.3-.36-.53-.73-.81-1.09a7.83,7.83,0,0,0-1.3,4.18c1.24-.43.87,2,2.14.86,0-.25-.22-.51-.21-.76l1.55-1.64c.89,1.53-.75,4.9,1.62,6-.81,1.68-2.77,2.08-4.27,3-.38,2.7-2.46,5.84-.62,8.16.38,2.75-1.82,3.16-3.54,3.85.91,1.28-.36,3.49,1.32,4-1.52,2.21-4.45,2.89-6.64,3.85-1.25,1.75.2,1.79,1.38,3.07-.53,3.55-4.83-.85-4.88,3.25-.51,1.53,1.41,3.6,2.87,3.6-1.44,1.8.24,4.1-1.42,5.41,2.32,1.39,1.84,3,1.34,4.68s-1.06,3.47,1.07,5.08c-.24,3.73,2.3,6.52,4,9.88A19.14,19.14,0,0,0,106.3,435.09Z"/><path class="cls-4" d="M556,499.86c-2.48.72,1.48.72,0,.72L550.55,502C555,500.58,548.58,498.65,556,499.86Z"/><path class="cls-4" d="M547.59,506.64l-1,1c-1.48-.24-4.45-1-2.47-1.69A7.36,7.36,0,0,0,547.59,506.64Z"/><path class="cls-5" d="M553.51,525.51l-2-.48c1,0,1.48-1.21,3-1Z"/><path class="cls-5" d="M439.4,521.32a3.39,3.39,0,0,0-1.08-.63c.23-1.3.89-1.9,3-2.72,1.86.48,6.11-.15,5.41,1.22l-.47.07c.1,1,2.34,2.94,4.7,2.59.52-.84-1.44-2.32.83-3.67a15.3,15.3,0,0,1,8.53,1.26l2.16-2.34c2.79.34,3.52,1.5,5.51,2.21l-1.47,1c1,.85.17,2.75,3.77,2.73a21.91,21.91,0,0,1,6-1.91c3.8,2,10.46.21,15,.8,4.42-3.69,13.5,1.79,16.88-2.76,7.3.94,8.08-2,12-4.06,5.64,2.45-7.37,3.12-4.37,5.46,8.24.79,17.23-.54,25.66-.28,2.12-1.57-1.54-3.31,2.86-3.71-1.46,1,.16,2.76,1.72,2.78-1.7-.25,0-.77.24-1.3l-1.24-.33c-.89-3.91,5.92.39,8.84-1.56,1.33,1.32-1.57,0-1.79,1.28.06,1.76,1.35,3.84,5.38,4.51,7.94-2.2,13.51,1.78,22.31,1-.39-1.46,2.07-.82,3.49-1-1.79,1.28,1.72,2.78,3.43,3,2.08-.81,2.39-3.64,5.66-3.37l-2.2-2.71c-1.23-.32-5.68.85-7.89,1.43-1.4-3.08-11,1.39-10-2.81l1.39.55c5.06,1.52,7.64-2.65,12.41-4.12,3.85,1.2,5.14,3.28,7.71,4.92,3.08.81,3.92-.33,5.53-1.08,2.69-.65,4,.67,5.55,1.46.94-.15-.43-.7.51-.84,1.24.32,2.61.88,3.56.74.45-2.6-4.71-2.59-7.79-3.4.8-.37,1-.9,2.08-.81.94-.14.75.39.9.62l1.89-.28c.05-.76-.34-2.22,2.16-2.35l1.49,1.56c5,.52,7.36-3.12,1-3.44l-.56,1.6-6.12-2.37c-1-1.62,2.88-1.19,3-2.72.89-1.9-4.38-2.89-6.7-3.3-2.4,1.11,1.49,1.55,3.18,1.8l-3.43,2.79c-.94.14-2.32-.42-2.28-1.18-1.05-.86.17-3.06-1.72-2.78-5.45-.46-.31,2.83-4.86,3,1.25,2.85,8.88,3.48,11.3,4.89l2-.05c.86,1.39-3.31.49-.22,1.3-5.11,1.77-12.42-1.69-16.22-3.65-.07-1.77-4.2-3.43-.94-5.68-1.71-.26-2.57-1.64-4.94-1.3-6.41,3-9.19-.65-14.86.19.76.4-.38,1.07-.55,1.61-7.92-1.1,2.45-7.7-8.43-6.09-1.89.29-2.88,1.19-2.3,2.12,1.37.55,2.71,1.87,4.93,1.29,0,.76,3.55.73,1.44,2.31-5-.52-7.33,2.36-11.36,1.69l-1.31,1.21c-1.56,0-5.39,1.31-7.52.36-6.21-.85.45-2.6.68-3.89l-5.13-.76c-5.94,2.91-9.77-4.11-14.81-.58l.51-.83c2.88-1.19-.92-3.15-3-3.1l-1.6.74c-2.53,3.41-10.08,1.25-15.13,2.25-1.09-.09-1.52-.78-.58-.92l-5.55-1.45c-1.59,3.27-4.07.09-7.38.59-2.27,1.35-3,2.72-6,3.67-7.68-2.39-12.25,1.07-19.13-1.7-1.07,2.44-5.33,3.07-2,5.86-7.17-1.45-13.56-4.15-20.52-4.93-.49.39-1,.73-1.48,1.13C439.23,509,432,519.08,439.4,521.32Z"/><path class="cls-5" d="M605.45,523.64l-3.12,0,.43.69C604,525.38,603.89,523.62,605.45,523.64Z"/><path class="cls-4" d="M380.28,489c-3,1-6.43,2.9-4.45,4.11,3.95.24,6.92-1.69,10.87-.48C386.7,490.66,381.76,489.94,380.28,489Z"/><path class="cls-5" d="M546,498.59l-4.55.17,1,1.62C546.16,501.34,543.49,498.71,546,498.59Z"/><path class="cls-4" d="M365,509.06c0,1-1,1.93,1,1.45l3-1.7C368.41,509.3,364,507.6,365,509.06Z"/><path class="cls-4" d="M354.58,512.93l.49,2.9c1.48-.49,2.47-1.69,3.95-1.21C357.05,514.14,357.05,512.69,354.58,512.93Z"/><path class="cls-4" d="M375.83,513.41c-5.44-2.9-5.94,3.63-10.38-.24-6.43.73-4.45,3.39-3,5.81,2.48,0,0-3.39,4-4.36,2.47.49,5.44,1,5.93,2.66C378.79,517.53,372.37,514.38,375.83,513.41Z"/><polygon class="cls-4" points="354.58 519.7 357.54 519.7 356.06 517.77 354.58 519.7"/><polygon class="cls-4" points="375.83 521.88 378.3 520.67 373.85 520.43 375.83 521.88"/><path class="cls-4" d="M369.89,527.69h2c1.48-.73,2.46-1.69,1-2.42C370.39,525.51,370.89,527,369.89,527.69Z"/><path class="cls-5" d="M420.59,507.62a64.48,64.48,0,0,0-22.88-10,37.35,37.35,0,0,1-5.36,2.52l-5.46-2.16c-5.43,0-11.85.75-15.28,3.9-1-.48-1-1-2-1.44-2,1-5.94,0-7.89,1.71-2.48-1-2.5-2.41-4-3.86-5.42,1.46-12.37-2.39-17.78,0-2.52-4.11-7.89,2.44-10.9-1.43-5.94-1.44-12.35.27-13.81,2.94,0-.73,2-2.67-.53-3.63-.48.24-1.47.49-1.47.73-.49,0-4.95-1.2-6.42,0-.61.45-.79.81-.65,1.19,5.83,3.18-7,11.79-11.54,16.27-.68.31-1.39.57-2.07.87a28.65,28.65,0,0,0,8.51,1c-1-1.21,3.95-1,1.46-2.18-.49,0-1,.24-1.48.25l-3.48-1.45c3-1,9.9.46,11.85-2,3.47.71,4.48,2.65,6.47,4.09,5.43.23,11.88,2.16,16.31.21,5.43-.5,6.44,1.68,7.94,3.37,2.46-1,6.92.22,7.89-1.47,4.46,1.44,6,4.34,8,6.51,3.47,1.21,3.46-.25,5.92-1.46,6.92.47-1.43,4.84,6.47,4.82,3,.48,6.91-1.46,6.89-2.91,3.47,1.44,7.91-.27,10.4,1.42,5.39-4.61,12.37,1.91,18.75-2.22,7.1.37,12.62-2,19.31-3.5C425.3,515.57,424.35,511.25,420.59,507.62Z"/></g></g></svg>