<svg xmlns="http://www.w3.org/2000/svg" viewBox="0 0 634.87 403.33"><defs><style>.cls-1{fill:#fff;}.cls-2{fill:#3148a1;}.cls-3{fill:#f5e461;}.cls-4{fill:#b1d0fe;}</style></defs><title>Asset 8</title><g id="Layer_2" data-name="Layer 2"><g id="Layer_1-2" data-name="Layer 1"><path class="cls-1" d="M435.45,93.16c-7.31,5.19,5.21-1.59.52,1l-4,2.8-4,2.88-8,5.75c6.41-4.88,4.25-5.11,3.48-5.56-.38-.23-.42-.51,1.16-1.46A117.71,117.71,0,0,1,435.45,93.16Z" transform="translate(0 -1.16)"/><path class="cls-1" d="M414.31,116.84l-2.29,3c-2.36,1.2-6,2.86-8.26,3.77s-3.33.88-.61-1.44A61.07,61.07,0,0,0,414.31,116.84Z" transform="translate(0 -1.16)"/><path d="M446.42,131.05l-6.3,2.73c3-1.68,3.56-4.1,8.22-6.32Z" transform="translate(0 -1.16)"/><path d="M398.87,168.92a9.39,9.39,0,0,0-2.5-1.73,3.62,3.62,0,0,1,2.74-1.61,18.45,18.45,0,0,1,6.23.44l3.88,2.29a29.1,29.1,0,0,1,3.72,2.68,12.66,12.66,0,0,1,1.27,1.29c.17.2.32.39.45.56a3.89,3.89,0,0,1,.28.52c.3.62.22,1-.39,1.11l-.68-.58a2.67,2.67,0,0,0-.41,1.48c0,.32-.07.69-.07,1s0,.74,0,1.11a10.77,10.77,0,0,0,.68,4.31c.7.2,1.41-.48,2.29-1a2.13,2.13,0,0,1,1.47-.31,3.27,3.27,0,0,1,1.9,1.48c.77,2.59.52,6.29-.73,10.14A40.37,40.37,0,0,1,413.47,203c.23,2.57.4,5.15.49,7.75a34.07,34.07,0,0,1-5.69,8l-2.63,2.57c-.93.82-1.84,1.76-2.9,2.84.41-1.49.77-3,1.12-4.49-1.37,1-2.32.55-3.61,1a6.56,6.56,0,0,0-2.3,1.46,36.88,36.88,0,0,0-3.56,4.06l-1,2.06-.9,1.67a27.79,27.79,0,0,1-1.77,2.79c-.6.93-1.36,1.74-2.24,2.84s-2,2.23-3.51,3.61c-.59.22-1.2.43-1.83.65s-1.26.52-1.87.75-1.21.43-1.81.69-1.28.44-1.92.71a63.59,63.59,0,0,1-8.55,2.61,33.19,33.19,0,0,1-9,.8,19.61,19.61,0,0,1-7.28-1.69,8.81,8.81,0,0,1-7.35-2,17.19,17.19,0,0,1-5-7.57,56.07,56.07,0,0,1-2.3-9.74,26.09,26.09,0,0,0-2.64-8.59c.89-4.74,2-8.34,2.73-11.32.22-.74.43-1.43.6-2.1s.31-1.33.5-1.93c.37-1.21.5-2.34.85-3.5.56-2.42,1-4.52,1.55-6.75.32-1.13.64-2.32,1.07-3.58s1-2.59,1.68-4c3.64-2.81,4.79-2.77,4.44-1.47a17,17,0,0,1-1.31,2.88c-.69,1.19-1.43,2.62-2.23,4.07-.42.71-.74,1.49-1.12,2.22s-.74,1.45-1,2.17a22.87,22.87,0,0,0-1.28,3.75c-.45,2.07-.15,3,1.64,1.64a92.3,92.3,0,0,1,11.2-13.89,151,151,0,0,1,14.95-13.39c5.54-4.35,11.46-8.62,17.69-12.81l9.37-6.16c1.56-1,3.11-2,4.68-3l4.73-2.86c5.05-5.9-7.21-1.39,5.58-10-3.56,3.94,2.61,3.19,7.34.48-5.33,2.71-.48-1.06-.3-2.09l-4,1.79c-2.85-1.72,1.7-4.24,7.86-7.29l4.83-2.38c1.67-.81,3.35-1.62,4.95-2.47a33.65,33.65,0,0,0,8-5.4c5-.58-4.78,2.67-4.51,4.75.74,1.1,2.48,1.77,5.62,1.41a32.48,32.48,0,0,0,5.81-1.35,73.36,73.36,0,0,0,8.27-3.22A121.64,121.64,0,0,1,472.36,110c5.5-2.82,11.08-5,16.7-7.3l4.25-1.69,4.34-1.64q4.37-1.66,8.9-3.5c3-1.27,6.16-2.48,9.37-3.89s6.51-2.92,10-4.59c-2.13-1.47,6.14-3.94,10.55-6.15-5,4.19,7.1,1.47,12.73-.31,6.22-3.81,5.64-8.22,16.42-11.85L557,68c-2.11.51-6.58,2.7-11.4,5.14-2.4,1.24-4.89,2.53-7.19,3.79l-6.11,3.42c-1.57-.59-4.52.18-8,1.55s-7.58,3.46-11.43,5.34c-1.92.94-3.79,1.85-5.51,2.62a45.27,45.27,0,0,1-4.55,1.9c-2.61.86-4.24.78-4.11-1l4.73-1.31a61.77,61.77,0,0,0,11-4.63A75.31,75.31,0,0,0,523,79.07c2.71-2,5.35-4.11,8.22-6.26,1.43-1.08,2.93-2.17,4.52-3.26s3.32-2.11,5.16-3.15c13.22-3.44,18.61-2,27.84-2.92,10.52-2.6,12.71-5.12,17.63-8.1,8.6-4,13.66-3.59,19.07-4.12,3.07-1.19-1.76-.54,1.33-1.73,4.26-.84,9.09-1.49,12.16-2.69.4-4.18-16.89,1.15-27.48,3.58,2.48-1.42,2.85-2.39,6.52-3.49,3.07-1.26,2.7-.29,3.3-.12,2.06-.84,4.14-1.62,6.2-2.43-.2-1.14-2.19-2.81,6.18-5.65,1.9.23,3.78.42,5.68.67,16.94-4.19,23.6-11.85,1.76-5.9l-1.19,2.86c-3.63.44-7.23,1-10.85,1.52s-7.26,1-10.87,1.61c-2-.58.21-1.87,3-3.18s6-2.77,5.78-3.91c1.08-1.84-3-1.69-8.3-.85s-11.9,2.6-15.93,3.62c-7.58,4.33,5.77.5,11.63-1.07L584.07,42c-3.1,1.27-8,2.19-8.22,1-4,.06-1-4.53-7.2-1.85-4.65,1.47-6.92,2.53-8,3.34s-.89,1.33-.62,1.86c.53,1.06,1.47,2.09-6,5.08,5.68,2.31,31.3-6.11,40.14-6.64l6.77-2.36c3.53,1-10.79,4.42-.13,2.1a83.26,83.26,0,0,1-13.62,5.31c-4.92,1.51-10.07,2.9-15.18,4l-7.54,1.59c-2.47.51-4.87,1-7.17,1.38l-12.17,2.1c-1.15-2.39-15.75.79-6.26-6.67A56.31,56.31,0,0,1,531,54a34.68,34.68,0,0,0-9.2,3.2c-2.42,1.63-4.71,3-6.91,4.28s-4.25,2.38-6.27,3.34a112,112,0,0,1-11.51,4.71c-3.71,1.38-7.38,2.64-11.24,4.17-1.93.77-3.93,1.57-6,2.55s-4.15,2.08-6.36,3.35c2.71-.67-.5,2-.7,3a48.33,48.33,0,0,1-7.45,2.6,7.12,7.12,0,0,1-3.66.21c-1.5-.49-1.42-2-1.57-3.27s-.54-2.26-3-1.68a28.06,28.06,0,0,0-5.48,2.23,111.27,111.27,0,0,0-9.91,5.64C436,92,433.5,94.86,436,95.09c2.37-.81,4.85-1.35,7.55-2.26a37.78,37.78,0,0,0,9-4.39c.42,1.08,11.81-4.86,6.17.73a83,83,0,0,0-10.38,5.64c-2.95,1.91-5.53,3.8-8,5.63-5,3.62-9.48,7.19-16,10.28l-3.17,3.88c-4.79,2.81-15.51,11.36-22.65,14.22-19.44,10.53-.7-4.16-1-6.25-5.4,2.88-10.81,5.75-16.13,8.79a58.62,58.62,0,0,1-11.83,8.83c-4,2.31-8,4.14-11.84,6.07a68.69,68.69,0,0,0-11.14,6.59,33.73,33.73,0,0,0-9.15,10.2l.53-2.27c3.39-4.4,2-4.68-1.07-3.17A38.65,38.65,0,0,0,326.55,166c-1.17,1.83-2.2,3.83-3.26,5.72a22.73,22.73,0,0,1-1.54,4.74c-.36.87-.74,1.81-1.19,2.76s-.95,1.93-1.42,3-1,2.14-1.56,3.24-1.06,2.37-1.62,3.61-1.07,2.52-1.59,3.83c-.26.66-.52,1.32-.79,2s-.46,1.36-.7,2a74.2,74.2,0,0,0-3.85,17.5,54,54,0,0,0,1.09,17.18,16.83,16.83,0,0,1,.24,4.49c-.08.3-.23.34-.44,0a5.28,5.28,0,0,1-.71-1.88c.06.5.09,1,.17,1.5l.27,1.5.56,3c.2,1,.53,2,.79,3s.55,2,.9,3a53.88,53.88,0,0,0,5.65,11.61,13.76,13.76,0,0,1,3,1.44,23.63,23.63,0,0,1,2.78,1.94c1.75,1.54,3.67,3.21,5.74,5.17l3.44,2.82c1.23.95,2.59,1.79,4,2.7a43.12,43.12,0,0,0,4.61,2.32,40.66,40.66,0,0,0,5.21,1.64c1.3.07,2.49.06,3.59.05l1.59,0,1.48-.16a50.06,50.06,0,0,0,5.43-.87l2.75-.54c.95-.23,1.94-.46,3-.69l1.66-.35,1.78-.45c1.24-.3,2.59-.58,4.05-1a49.71,49.71,0,0,0,20.47-5.08c1.45-.78,2.9-1.54,4.25-2.36s2.62-1.67,3.85-2.57,2.42-1.8,3.55-2.76,2.26-1.91,3.31-2.92a125,125,0,0,0,11.68-12.76c3.69-4.53,7.34-9.31,11.4-14.58-.58-2.66.6-7.62.69-10.76.06-1.56-.17-2.68-.9-2.82s-2,.7-4.22,2.9c.8-1.39,1.62-2.77,2.37-4.16s1.53-2.78,2.25-4.18c1.49-2.78,2.88-5.6,4.16-8.49,2.49-5.78,4.57-12,4.85-18.84a36,36,0,0,0-5.24-20.28,43.79,43.79,0,0,0-15.55-14.74,53.65,53.65,0,0,0-6-1c-2.27,1.07-5.81,2.17-9.27,3.77a34.34,34.34,0,0,0-9.09,5.68c-2.28,2.16-3.45,4.42-2.82,6.57a6.76,6.76,0,0,0,2.33,3.18A30.66,30.66,0,0,0,398.87,168.92Z" transform="translate(0 -1.16)"/><path d="M609.75,56.88c-3.46,1-6.87,2.21-10.3,3.34l1.75.51C605.63,61,604.57,58.48,609.75,56.88Z" transform="translate(0 -1.16)"/><path class="cls-1" d="M189.89,160.15a95.6,95.6,0,0,0-12.57,8.78c-2.84,2.53-3.55,4.2.1,3.48,6.69-2.76,12.18-6,17.89-8.83,2.85-1.44,5.69-2.88,8.75-4.12a80.47,80.47,0,0,1,9.84-3.27c-.52-1.35-5.12-.59-10.32.59S192.71,159.77,189.89,160.15Z" transform="translate(0 -1.16)"/><path d="M403.24,109.36c-4.68,2.82-9.25,5.82-13.87,8.75l4.36.17C405.83,112.53,395.56,114.15,403.24,109.36Z" transform="translate(0 -1.16)"/><path class="cls-1" d="M152.69,211.07c.67,1.29-1.78,4.19,4.09.34,2.75-2.32,5.48-4.69,8.27-7C163.77,205.79,148.56,210.72,152.69,211.07Z" transform="translate(0 -1.16)"/><path class="cls-1" d="M123.59,234l3.73,2.84c4-3.3,6.09-6.55,10.93-8.48a33.34,33.34,0,0,1-7,2.08A21.58,21.58,0,0,0,123.59,234Z" transform="translate(0 -1.16)"/><path class="cls-1" d="M190.08,200.16c-9.58,2.06-13.77,5.51-17.53,8.7a30.69,30.69,0,0,1-6.08,4.26,26.34,26.34,0,0,1-9.42,2.64c-2.45,1.42-4.46,2.67-6.09,3.77a39.81,39.81,0,0,0-3.81,2.91c-1.86,1.66-2.47,2.8-2.28,3.6.38,1.59,3.95,1.85,7.06,2.24,3.76-2,3.19-3.13,3.09-4.72s.26-3.65,6.12-7.44c4-1.64,8.48-3.42,12.24-4.59s6.83-1.78,8.16-1C202,201.39,179.69,206.62,190.08,200.16Z" transform="translate(0 -1.16)"/><path class="cls-1" d="M128.87,242.63c2.88-1.75,5.76-3.49,8.71-5.16-1.94,0-3.91,0-5.86.05Z" transform="translate(0 -1.16)"/><path class="cls-1" d="M195.35,211.72l7.06-5.13-7.11,3c-2.36,1-4.71,2.06-7.07,3.09Z" transform="translate(0 -1.16)"/><path class="cls-1" d="M180.61,228.35l6.12-3c4.11-3.14,6.57-5.87,1.5-4.71C180.7,224.62,183.2,225.9,180.61,228.35Z" transform="translate(0 -1.16)"/><path d="M338.57,147.06q-4.21-.75-8.78-1.41c-3-.36-6.16-.62-9.4-.88l-4.93-.34c-1.67-.06-3.34-.09-5-.12-3.41,0-6.92-.09-10.48,0a261.71,261.71,0,0,0-45.37,5.53c-2.7,1.58-5.45,3.17-8.33,4.75s-5.84,3.32-9,5c-3.31.54-6.59,1.19-9.87,1.84s-6.6,1.26-9.87,2a239.63,239.63,0,0,0-27.71,12.77c-8.66,4.75-16.08,9.89-20.63,14.65-3.52.92-3.85.27-7.38,1.19-5.73,4.35-19.13,9.59-24.14,15.25-4.29,1.46-6.69,1.82-8.77,1.82a36.82,36.82,0,0,0-6.74.17c-8,5.9-18.2,11.06-28.09,17S74.5,238.87,68,247c-2.81.38-5.44,2.07-8,4.33a44.14,44.14,0,0,0-3.74,3.93c-1.21,1.44-2.47,2.89-3.62,4.48-2.35,3.14-4.75,6.26-7.14,9.06a31.65,31.65,0,0,1-3.82,3.71,17.77,17.77,0,0,1-4.16,2.73,98.17,98.17,0,0,0-18.84,27.62c-1,2.28-1.84,4.46-2.58,6.5A57.52,57.52,0,0,0,14.47,315a35.15,35.15,0,0,0-.77,4.62,12.51,12.51,0,0,0,.18,3.29c-.51-.2-.71-2.33-1.4-3.39s-1.88-1-4.42,3.23c-.19,1-.57,2.38-.86,3.57s-.4,2.19-.23,2.25c-.16.46-.75,1.8-1.55,3.66L4.11,335.4c-.44,1.15-.86,2.41-1.29,3.69-1.84,5.1-3,11-2.79,14,.18,2.49.65,3.31,1.28,2.87a13.86,13.86,0,0,1,1.63-3.22,5.32,5.32,0,0,1,1.54-1.59c1-.58,1.84-.21,2.62.85a9.93,9.93,0,0,1,1.11,2.08c.35.84.68,1.83,1.08,2.94.76,2.23,1.48,4.91,2.19,7.81.89,2.93,1.73,6.08,2.64,9.24l1.58,4.75c.54,1.57,1,3.12,1.65,4.62l1.79,4.37.86,2.05c.34.65.66,1.3,1,1.92q1,1.88,1.83,3.48a27.06,27.06,0,0,0,1.71,2.88c.87,2.11,1.65,4.29,2.48,6.36a253.22,253.22,0,0,1-.68-27.29c-.48.78-.78.38-1-.56a17.77,17.77,0,0,1-.4-3.71c-.11-2.63-.27-4.71-1.57-.71a14.44,14.44,0,0,0,0,2.46,19.92,19.92,0,0,1,.11,2.44L22.78,380c-.2,1-.46,1.92-.57,2.88l-.88,5.83c-1-4.91-.95-13.29,0-21.18.06-1,.19-2,.34-2.93s.25-1.92.37-2.85c.23-1.87.38-3.67.63-5.31a27.46,27.46,0,0,0,.06-8,46.23,46.23,0,0,1,3.2-6.92,42.41,42.41,0,0,1,3.26-4.63,41.07,41.07,0,0,1,3.25-3.53c1.1-1.11,2.2-2.24,3.32-3.55,3.81-8.24,9.28-16.58,14.87-24.2l2.05-2.86L54.81,300c1.4-1.81,2.66-3.67,4-5.37s2.54-3.46,3.7-5.16,2.31-3.31,3.28-5c5.93-7,10.42-10.32,13.86-12.14a34.59,34.59,0,0,1,8.76-2.77,47.69,47.69,0,0,1,5.09-5c2-1.68,4.17-3.4,6.22-5s4-3.08,5.48-4.45a9.45,9.45,0,0,0,2.9-3.52,59.57,59.57,0,0,1,9.13-3.8,42.82,42.82,0,0,1,7.24-1.69c4.31-.68,7.89-.53,11.58-.88,5.51-2.17,8-3.72,9.91-5.4s3.22-3.6,6.52-6.38c5.29-2.66,7.95-3.38,9.22-3.25s1.24,1.16,1.28,2.12.16,1.83,1.77,1.7,4.71-1.28,10.77-4.31a67.78,67.78,0,0,0,13.63-7.81c3.82-2.79,6.34-5.37,5.86-6.35A73.35,73.35,0,0,0,204,212.5c3-1.23,6-2.6,8.9-3.83s5.73-2.46,8.38-3.42a32.77,32.77,0,0,1,7.33-1.74,34.31,34.31,0,0,1,6-4.35,54.62,54.62,0,0,1,6.84-3.28c1.19-.49,2.41-.95,3.65-1.39s2.52-.8,3.8-1.18c2.56-.75,5.19-1.45,7.84-2.15s5.34-1.28,8-2,5.34-1.49,8-2.24A72,72,0,0,0,288,180.46c11.66-2.82,21.88-5.57,32-8.59,10.11-2.73,20.12-5.71,31.31-7.68,2.38-3.38,2.7-6.63.68-9.57a14.74,14.74,0,0,0-4.82-4.16,31.17,31.17,0,0,0-3.79-1.86A49.74,49.74,0,0,0,338.57,147.06Z" transform="translate(0 -1.16)"/><path class="cls-1" d="M569.24,115.9c.3,1.16.93.63.7.83l.52,2.4C569.78,116.86,566.89,115.49,569.24,115.9Z" transform="translate(0 -1.16)"/><path class="cls-1" d="M574.41,124.83l.77,1.24a2.72,2.72,0,0,1-2-1.62C573.78,124.88,574.17,125,574.41,124.83Z" transform="translate(0 -1.16)"/><path class="cls-2" d="M593.5,145.78l-.78-.3c.16-.13-.93-1.59-.46-1.51Z" transform="translate(0 -1.16)"/><path class="cls-2" d="M571.2,156.19a4.57,4.57,0,0,0-.78-.59,11.62,11.62,0,0,1-2.14-3.53c.77.31.84-1,2,.69v.14c1,1.13,3.2,3.07,3.24,2.36-.72-1-2.45-2.48-3.38-4.33,0-.87,1.07-.74,2.57.31l-1.91-3c.78,0,2,1.25,3,1.81l.71,1.32c1,.85,2.67,3.15,3.22,2.64a8.66,8.66,0,0,1-.87-3c2.5,1.76,1.88-1.15,3.17-1.07-2.84-4.84,3.88.26,0-5.43,2.07.1-.59-3.34-2-6.27,3.26,2.06,1.82,4.57,4.55,6.86,2.08-.18,2.24-2.92,3.84-3.74-1.18-2.1-3.43-3.61-3.11-4.66.7,1.32,2.68,3.16,3,3-.52-.06-.74-.89-1.22-1.53l-.51-.2c-3.9-4.4,1.32-.35-.08-3,1.48,1.34-.27.19.93,1.71,1.71,2,3.91,4.25,5.2,4.48-.84-3.59,3.88.25,4.52-1.85-1.47-1.63-.46-1.22-.43-1.65a7.13,7.13,0,0,0,3.46,3c-.45-1.21-3.12-4.51-2.34-4.64l-2.95-2.82c-.51-.21-.1,1.73.11,2.69-3.19-3.36-.43,3.07-4.3-1.89l.75.45c2.27,1.07-1.33-4.08-2-6.41,1.77.87,4,3.09,6,4.64,1.26.52.31-.9-.15-2-.2-1.11,1.28.23,2.28.94,0-.3-.74-.75-.72-1,.51.21,1.26.67,1.27.37-2.42-3-3.23-2.35-4.5-2.87-.23-.53-.71-1.17-.45-1.21,0-.29.49.35.74.6l0-.58c-.72-.89-2.19-2.52-1.91-3l1.73,1.59c1.3-.06-1.82-4.57-3.14-4.08l1.45,1.92-3.27-1.92c-1.72-1.74-.68-1.76-2.14-3.53a6.75,6.75,0,0,0-4.24-2.91,2.32,2.32,0,0,0,2.24,1.65l2.13,3.67c0,.29-.77-.16-1.5-1-1-.85-2.91-3.55-3-3-1.3.2,2.68,3.3,2.11,4.1,2.94,3.12,4.77,2.83,6.51,4.13l.28-.33c1.47,1.48-.06,1,1.21,1.53.89,2.71-3.61-.29-6.1-2-1.71-2-4-3.38-5.61-6.41-.52-.07-2-1.55-2-.83,1.84,4.29-2.09.47-2.19,2.2a10.54,10.54,0,0,1,1.45,1.92c-2.33-.21-7-9.19-7.2-5.88a5.13,5.13,0,0,0,1.67,2.74c.75.46,2.23,1.79,2,.83.74.88,1.28.37,2.46,2.47-1.3.06,1.09,3.69-.19,3.47l1,1.56c-.27.18.39,2.22-.86,1.42-1.81-.15-2.42-3-3.63-4.57l-1.55-.19c1.85,4.14-5.52-3.43-2.92,1.32l-.73-1c-.68-1.75-3.17-3.5-3.45-3.17l.46,1.07c2.87,4.27-.42,2.78-.26,4.61-.26,0-1-.7-1-1l-2.28-.93c2.89,4-.56.66-.62,1.67.94,1.86,2.14,3.53,2.57,5-3.53-1.73-.93,2.86-4.7.59,2.18,3,2.1,4.25,5.32,7-2.55-.72-6.16-3-8-2.93.29.5.54,1,.85,1.49C559.37,142.06,567.86,154.6,571.2,156.19Z" transform="translate(0 -1.16)"/><path class="cls-2" d="M600,136.68l-.54.37.74.74C601.44,138.88,599.74,136.86,600,136.68Z" transform="translate(0 -1.16)"/><path class="cls-1" d="M530.65,126.82c.46,1.52,1.76,4.21,3.24,5.33.86-.24-.52-2.87,1.27-2C533.31,127.92,531.82,127.74,530.65,126.82Z" transform="translate(0 -1.16)"/><path class="cls-2" d="M566.42,115.77l-.57.8,1.72,1.73C569.09,118.92,566.13,116.24,566.42,115.77Z" transform="translate(0 -1.16)"/><path class="cls-1" d="M547.5,152c.93,1.11,1.7,2.36,1.55,1.53l-1.15-2.34C548.29,151.82,546,150.46,547.5,152Z" transform="translate(0 -1.16)"/><path class="cls-1" d="M549.56,157.85l2.87,3.28c-.23-.76-1.23-2.28-.53-1.92C551.12,158.91,549.73,157.25,549.56,157.85Z" transform="translate(0 -1.16)"/><path class="cls-1" d="M553.43,155.57c-3.66-2.62,2.54,5-1.89,1.11-.33,1.7,2.54,4.49,5.11,7.09.39-.33-3.27-3.91-3.56-5.55a5.93,5.93,0,0,1,3.51,2.27C557.86,159.91,553.81,157.15,553.43,155.57Z" transform="translate(0 -1.16)"/><polygon class="cls-1" points="556.07 164.49 556.55 164.09 554.45 162.07 556.07 164.49"/><polygon class="cls-1" points="561.57 164.16 560.8 162.44 559.86 162.76 561.57 164.16"/><path class="cls-1" d="M566.2,172.81l.32-.27a7.22,7.22,0,0,0-2.17-2.91C564.19,170.23,565.66,171.84,566.2,172.81Z" transform="translate(0 -1.16)"/><path class="cls-2" d="M555,142.92c-5.28-4.32-9.95-7.32-13.32-8.51a33.41,33.41,0,0,1,1.57,3.62l-2.95-1.76c-.86.74-1.18,2.45,1.3,6.54-.62-.42-1.08-1-1.7-1.4.62,1.39-.94.81.38,3-1.32-.78-2.72-2.45-4.35-3.92.54,2.42-4.28-1.1-2.81,2.43-4.35-4.4,1.08,3.86-3.11-.19-2.34-.87-1.72,2,.61,5.22-.7-.83-2.25-3.33-3.58-4.11a4.7,4.7,0,0,0,.47,1c-.08.07-1.95-.72-1,.88a6.9,6.9,0,0,0,1,1.45c4,2.88,10.21,14.52,13.79,20.27.19.46.33.85.51,1.29,1.06.46,1.92.59,2.37.07-1.32-1.26-.31-1.65-1.86-2.71-.08.07.07.41,0,.49l-2-1.21c-.46-1.52,2-.79,0-3.84,1.24.36,3.26,2.45,5,3.86,1.09-.46,4,.89,2.81-2,.39-1.29,2.65,1.08,4.51,2.82-.54-1.44,1.32-.66-.15-2.74,2.1,1.06,5.13,4.2,7.54,6.44,1.71.92.31-.75-.46-2.48,1.56-.39,4.42,5.77,5.67,4.69.94.16-.3-2.61-1.7-4.28,1.94,1.2,1-1.36,3,.25-3.56-6,3.82.55.87-5.06,1.49-.52.09-4-.27-6.61A97.77,97.77,0,0,0,555,142.92Z" transform="translate(0 -1.16)"/><path class="cls-3" d="M544,7l.09,0,.32,0c.36-.59,1.11-.49,2.1-.28,0-.18-.09-.36.26-.44,1.56.4.78,0,1.92-.32-.35,0-.79,0-1-.16l2.18-.13c-.28-.35-.52-.75-.15-1-.2-.7.56-1.53.87-2.26a3.28,3.28,0,0,1-.87-.31c.07-.29.46-.42.93-.46a.59.59,0,0,0-.14-.22.59.59,0,0,1,.14.22,8,8,0,0,1,1,0c-.18-.09-.35-.19-.26-.32l-1.35,0c0-.07,0-.13.09-.18l-.36.17.26.19c.09.14-.09.22-.28.31a.81.81,0,0,1-.62-.2l-.73.3c-.28.54,1.88.36.7.83l-.35-.14c-.54.12-1.26.11-1.62.46-.53-.64-1.51.46-1.6-.38-2.06-.34-4.72.3-6.82-.45-.32.61-.27,1.74-1.1,2.52-.18-.08-.46-.15-.37-.29l-.6.35c.35,0,.79-.09,1,.12-1,.33.47.47.4.8l-1.29.39.16.12a34.72,34.72,0,0,1,3.52.26c1.18.18,2.34.37,3.51.5Z" transform="translate(0 -1.16)"/><path class="cls-3" d="M501.71,3l.23.64c-5,1.94-10.31,4.08-15.89,6.45s-11.36,5.07-17.14,8.15a151.23,151.23,0,0,0-17,10.46,125,125,0,0,0-15.37,12.89l-1.3-2.28c-4.11,6-8.81,12.72-11.42,19l1.93-1.71a18.26,18.26,0,0,1-2.06,5.28,33.55,33.55,0,0,1-3.45,5.38l-.34-.67c2.57-4.28-.4.13-.69-2.55l.24-.9-.57.22-.24.9c-.26-.3-.7-.51-.32-1.27-.25.31-.51.6-.75.92-2.9,1.07-4.2.23-5.68-1.18-.18.72,1.86,1.23-.3,3.27l-.34-.68c-.28,1.09-.49,2.21-.72,3.32l-1.47.75c-.24,1.18-.26,2-1.07,2.88l1,1c-3,4.23-4.6,10.69-7.59,15,.7,1.54-1.9,3.49-2,6.59l1.8-.64c2.92-2.17,4.81-9.18,7.82-13.25l.58.53c-.27,1,0,2-.95,3l1,.89c2.6.08,3.32-1.94,3.66-4.19s.34-4.67,1.07-5.27c1.53-1.28,1.83-.38,1.83.61s-.2,2.12.16,1.31c-.23,2.21.91,1.87,2.36.93s3.33-2.41,4.41-2.7a12.63,12.63,0,0,0,3.67-2.77,23.39,23.39,0,0,0,1.73-2c.59-.7,1.17-1.45,1.73-2.23s1.11-1.57,1.66-2.36l1.65-2.33c.55-.76,1.05-1.51,1.57-2.2s1-1.33,1.53-1.91a26.4,26.4,0,0,1,4.44-7,50.38,50.38,0,0,1,6.39-6c2.27-1.87,4.73-3.47,7-5.06s4.45-3,6.36-4.37a13,13,0,0,0,2.76-2.63c.93-1,1.84-2.24,2.79-3.31,1.93-2.08,4-3.65,6.33-2.62l3.87-1.75c1.28-.59,2.6-1.09,3.9-1.64l.2.76c7.26-3.58,14.83-8.81,22-11.71,3.15-1.14,3.58-3.39,5.65-1.73a22.32,22.32,0,0,0,5.09-1,49.57,49.57,0,0,0,5.13-1.78l5.13-1.87a42.05,42.05,0,0,1,5-1.31c-.11-.67.72-1.52-.55-1.7a8.53,8.53,0,0,1-5,.37c-1.49-.28-2.66-1-2.89-1.86l1.31-.06-2.56-1.06-1.36.85a2.2,2.2,0,0,1-.8-1,19.06,19.06,0,0,1-4-.67,32.53,32.53,0,0,0-4.2-.91A14.09,14.09,0,0,1,501.71,3Z" transform="translate(0 -1.16)"/><path class="cls-4" d="M82.41,213a30.65,30.65,0,0,1-.3-3.51c-1.1-2.4-3.89-4.89-3.86-7.77.32-.85,3.85-3,4.16-2.34,4,3.51,4.2,9.87,8.42,14,.29.61,2.53-.94,4.43-1.65,0,0-.29-.59-.66-1.22,2.62-.92,5.34,1.63,8.21,1.52a5.36,5.36,0,0,1-.44-1.54c.91,4,5.55,4.41,8.73,5.34a7.34,7.34,0,0,1,1.05,1.79c3.1.29,5.47,2.27,9.45,1.77,3.2,0,6.73,3,10.72,3.67,6.33,2.63,12.16,9,19.68,6.15,1.25-.48,3.05.25,4.08,2.65a9.35,9.35,0,0,1,8.49-1.42,49.84,49.84,0,0,1,8,3.45c1.8.68,2.33,3.31,2.57,5.16,1.38-.16,2.77-.3,4.17-.39s2.78-.19,4.16-.2a31.1,31.1,0,0,1,8,.88c3.31.62,6.6,1.23,9.9,2.19a42.14,42.14,0,0,1,10,4c.94.48,3,.08,4.16-.55l1,1.68a30.65,30.65,0,0,0,6.28,0c2-.11,3.94-.17,5.65.72,4.66,2.49,4.23,8.91,4,14.44-3,1.39-6.37,4.23-10,6s-7.44,2.37-11.3-.51c-1-1-2.53-1.12-4.17-1.09s-3.43.34-5,.34c-2.81.56-4.86-2.84-7.89,0-2.07-5-8.66-10-14.54-9.71-.31-.59.31-.86-.32-1.58-4.36.91-8.55.29-12.77-.68S158,252,153.48,251.25c-4.67-.37-9.17-3.69-15.09-3.64-.63.23-2.38-2-3.92-2.12l-1.9.69c-3.66-1.5-8.28-2-10.29-4.76-2.64-2.58-5.72-2.88-8.08-4.84-3.55-3-11-3.08-13.19-7.9-.27-.61-1.81-.75-2.72-1.13l-.84-1.81c-.91-.37-2.25,1.55-3.15,1.18-2.88-1.39-6.22-2.63-9-4.31s-4.93-3.86-5.46-7.23C80.48,215.14,82.67,215,82.41,213Z" transform="translate(0 -1.16)"/><path class="cls-4" d="M60.32,194.48c.49-.79-.41-1.29-1-1.32a7.27,7.27,0,0,0,1.22,3.3l-1.67-.77c-1.48,1.8,1.55,1.11.29,1.64-.9-.5-1.54-1.11-.8-2,0,.57.51.36,1,.73.48-1.37-.3-2.21-.59-3.27l2.71.93Z" transform="translate(0 -1.16)"/><path class="cls-4" d="M65.73,198.64l-.51-.36c-.5.79-.11,1.5.27,2.2-2-2,.74-2.62-.3-4.52C65,196.64,66.23,197.86,65.73,198.64Z" transform="translate(0 -1.16)"/><path class="cls-4" d="M61.46,201.59c-.54-2.1-2-.89-1.69-3.08L62,201.38Z" transform="translate(0 -1.16)"/><path class="cls-4" d="M79.85,206.26c1-.39.5-.19,1.74.48L79.72,206Z" transform="translate(0 -1.16)"/><path class="cls-4" d="M117,220.94c-.66-1.46-1.07-3-2.64-3.86C116,217.6,116.73,220.45,117,220.94Z" transform="translate(0 -1.16)"/><path class="cls-4" d="M131.13,233.33c-.29.67.19,1.07-.68,1.1-.22-.49.85-2-.66-1.46Z" transform="translate(0 -1.16)"/><path class="cls-4" d="M131.25,237.33l.31,1.5A2.56,2.56,0,0,0,131.25,237.33Z" transform="translate(0 -1.16)"/><path class="cls-4" d="M91.46,204.71v.41c.1,0,.23-.13.35-.18A1.83,1.83,0,0,0,91.46,204.71Z" transform="translate(0 -1.16)"/><path class="cls-4" d="M93.65,206.74l-1.3-2.08a4.79,4.79,0,0,1-.55.28C92.87,205.74,92.05,206.81,93.65,206.74Z" transform="translate(0 -1.16)"/><path class="cls-4" d="M91.42,205.86l0-.74c-2,.69-1.78-2.16-4.23-2.25A6.89,6.89,0,0,0,91.42,205.86Z" transform="translate(0 -1.16)"/><path class="cls-4" d="M89.12,206.73l-.89.62c-.5-.38-.22-1.06-.09-1.39l-1.26-.1c-.91,1.21,2.57,2.75,3.43,3.27Z" transform="translate(0 -1.16)"/><path class="cls-4" d="M74.29,215.07s0,0,.06,0h-.06Z" transform="translate(0 -1.16)"/><path class="cls-4" d="M76.55,219.58l.92-2.36c-1.58-.24-1.33-2-3.12-2.15,0,0,0,0-.06,0C74.13,217.7,76,217.22,76.55,219.58Z" transform="translate(0 -1.16)"/><path class="cls-4" d="M94.91,210c-1.48-.59-2.59-1-3.5.16L94,211.75C93.27,210.31,94.38,210.75,94.91,210Z" transform="translate(0 -1.16)"/><path class="cls-4" d="M95.69,215.38,94.34,215l.32,1A1.32,1.32,0,0,1,95.69,215.38Z" transform="translate(0 -1.16)"/><path class="cls-4" d="M94.66,216a.77.77,0,0,0,.34,1.05Z" transform="translate(0 -1.16)"/><path class="cls-4" d="M91.4,217c.3,1.89.87,0,2.2.89C94.29,216.19,92.13,217.28,91.4,217Z" transform="translate(0 -1.16)"/><polygon class="cls-4" points="97.24 218.75 97.3 220.15 98 218.47 97.24 218.75"/><path class="cls-4" d="M110.73,216.4c-1.92,1,.28,1.88.11,2.79Z" transform="translate(0 -1.16)"/><path class="cls-4" d="M97.53,224.34l.09-1.73-.53.77c-.37-.15-1-.2-1.08-1C95.07,224.13,96.94,223.71,97.53,224.34Z" transform="translate(0 -1.16)"/><line class="cls-4" x1="104.58" y1="221.15" x2="105.62" y2="222.75"/><path class="cls-4" d="M92.25,228.87c-.27.68,1.07,3.56-1.08,2.11.84.54,2.18.88.89,1.93,1.45.58.7-1.68,2-2.15C92.87,231.47,92.84,229.5,92.25,228.87Z" transform="translate(0 -1.16)"/><path class="cls-4" d="M95.33,231.67c.58.62,1.28,1.51,1.92,1C96.53,232.36,96.36,230.71,95.33,231.67Z" transform="translate(0 -1.16)"/><polygon class="cls-4" points="94.62 234.73 94.09 232.95 94.12 234.92 94.62 234.73"/><line class="cls-4" x1="113.14" y1="228.22" x2="113.88" y2="225.97"/><path class="cls-4" d="M98.85,237.43l-2.67-.7,2,1.8c1.77-.5,1.29-1.34.48-2.29A1.59,1.59,0,0,1,98.85,237.43Z" transform="translate(0 -1.16)"/><path class="cls-4" d="M97.08,233.57l-1,.37c-.16.39,1,.8,1.9,1.51A2.59,2.59,0,0,1,97.08,233.57Z" transform="translate(0 -1.16)"/><path class="cls-4" d="M98,235.45l.69.79A2.73,2.73,0,0,0,98,235.45Z" transform="translate(0 -1.16)"/><path class="cls-4" d="M119.88,230.62l-2.29-1.16A2.64,2.64,0,0,0,119.88,230.62Z" transform="translate(0 -1.16)"/><path class="cls-4" d="M100.06,240.09l.36.15.71-1.67C100.27,238.61,100.2,239.76,100.06,240.09Z" transform="translate(0 -1.16)"/><path class="cls-4" d="M102,244.44c.29,1.3,2,.65,2.67.71-.41-1.55-1.39-1.75-2.32-2.53C103.32,243.4,102.32,243.77,102,244.44Z" transform="translate(0 -1.16)"/><path class="cls-4" d="M104.43,247.79l-2.16-.9C102,249,103.46,247.58,104.43,247.79Z" transform="translate(0 -1.16)"/><path class="cls-4" d="M108.22,248.38c.26-.09.29-.67.8-.84-.08-.83-1-.79-1.42-1.19Z" transform="translate(0 -1.16)"/><path class="cls-4" d="M95.18,224.37c.69.19,1.32.32,1.92.44-.77-.72-1.55-1.41-2.34-2.08A8,8,0,0,0,95.18,224.37Z" transform="translate(0 -1.16)"/><path class="cls-4" d="M223.08,243.58c-3.37,2.45-8.74,1.94-11.77,1.82-2.36-.72-5.21-.59-8.23-.36a44.49,44.49,0,0,1-9.08.06l.23-.69c-4.13-2.07-10.29-2-15.15-3.36v1c.77.38,1.83.72.83,1.78-1-.72-2.3-1.59-2.4-2.42l-1.25,1.09c-.46-1,1.06-3.87-1.14-3.54-2.14,2.88-3.55-3.67-4.88.3,0-2.63-2.48-1.09-3.38-1.54l.06,2c-1.67-1.63-2.64-4.94-3.75-4.79-2.55-.42-5.93-1.34-8.88-1.38.11-2.31,2.78.93,1.8-1.81-6.37,2.13-11.49-5.84-18.26-5.91.11.24.58.63.07.82-.62-2-2.78-1-4.42-2.63-.21,1.49,2.33,2.55,3.16,3.09-1.78,3.19-.18-1.06-3-.87.11.24.34.73.19,1.06-2.72-.15-.23-2.46-2.33-2.55l.66,1.46c-1.81-.76-.76.28-3.11.28a3.66,3.66,0,0,0,0-3.95c-.54.76-2.32-.57-2.67,1.25-1.22-4.64-3.59-.12-4.71-4.52-1.55,1.13.38,2.13-.2,3.46-2.86.19-.12-2.21-.81-3.09-1,.36-4.47-.09-5.36-2l-.57,1.34c-1.6-2.25-5-3.84-5.17-6.06-1.58,1.71.14,2.22,1.61,2.82-.06,1.15-1.81,1.22-2.4.59.37.14.19,1,.85.54-.32,1.24-1.13.12-1.64.31-2.42-1.39,1.27-.46.45-1.58-1.12.12-3.44-1-3,1.1-2.09-.66-.15-2.22-1-3.34,1.16,1.85,2.65-.68,3.3,1.36a1.33,1.33,0,0,0,.34-1.82c-1.87-.18-4.61-2.88-5.19-1l-.44-1.54-1.3,1.05-.23-.49c.16,2.21,1.47,3.72,1.49,5.7-.17.91-1.12.12-1.75.07l.09-1.73c-1.34-.93-2.12,2.48-3.93,1.17,1.94-1.58-1.21-3.81-2.14-5.75-2.74,3-.74,2.83-3.08,5.42-1.46-.6-4.09-.45-5.53-2.17,4.33,1.47-1.28-3.22,2.6-3.28-.61-.62-1.37-.34-2.11-.62.34-3,1.81-1.83,1.51-4.29l-.93,1.79c-.58-1.79-.52-4.1-2.39-5.4-.52.77-1.92,1.59-2.66.72.15-1.49.18-2.08-1.72-2.77-2.44,1.23-1.88,2.74-.77,4.38s2.75,3.46,2.59,5.24c4.93,2.71,2.31,11.36,8,15.44,1.4-.81,1.17-1.29,3.27-1.24,2.35-2.57-2-3.52-2.48-5.89.76-.27,1.51-.56,1.86.17l.09-2.31c3.36.17.59,3.76,3.58,3.78l-.76.28,1.74-.08-.22-.49c1,.2,1.8-1.23,3,0l-1.66.9c1.16-.71.55,1.77,1.92,1.56-.91.56-1.45,1.49-1.86,1.39a13.79,13.79,0,0,0,4.22,3.12c5.43.78,10,3.36,14.28,6.85a8.05,8.05,0,0,0-.33-.9c1-.19,1.3.82,1.5,1.9.78.68,1.55,1.38,2.32,2.11a22.43,22.43,0,0,1,6.13,1.72c-.25,1.06-.53,1.36-.85,1.33.93.12,1.59-.05,1.11-1.43,1.59.28,1.89,1.58,3,2l-3.15.85c.81,1.12,1.56-1.12,2.72.15,2.47.24-.38-2.12.45-3.55l.84.54-.23-2.46c1.78,1.34,2.16,3.46,2.57,5L132,239c-1.36,2.19,2.29,1.15,2.45,2.79l-.25.09c2.18.9-.05-1.4,1.55-1.13l2,3,.09-1.74c1.87-.4,4,3.06,6.48,4.42,1.32.93,3.71.33,5.68.73-.23-.48-.82-1.11-.43-1.54,1.1.44,3.54,1.24,2.12,2.62l2-.76a1.85,1.85,0,0,1,1.18,1.05l-.19-.86,2.1.05c-.13.33.33,1.29-.66,1.1,1.53,2.55,5.34,0,8.38,1.91l-1.26.5c2.38-.66,1.69,2.18,4.19,1.77l-.1-1.4c1.74-.12,4.18,2.35,3.42,3.23,1.17-3.06.6,1.19,2.38-1.24l.08,3.13c1.25-.49,2.38-.7,2.14-2.31,1.2,1.74,2.42,2.36,3.86.75a.13.13,0,0,1,.07-.06l.05-.06,0,.05c.42-.13,1.81.84,1.51-.67,3.59,1.08,1.12,3.28,4.6,4.13l.73-2.05c2.5,1.21,5.6.12,7.92-.64l-.2,1.85c1.48-.09.2-1.85,2.42-1.69a2,2,0,0,1,.17,1.48c2.09.45,4.59,2.08,7.68,3-.11.35-.59.58-.84.7a22.41,22.41,0,0,0,5.45-.26,20.37,20.37,0,0,0,5.64,5,15.81,15.81,0,0,0,7.22,2.38,25.1,25.1,0,0,0,9-13.58C230.24,251.2,227.18,247.18,223.08,243.58Z" transform="translate(0 -1.16)"/></g></g></svg>