<svg xmlns="http://www.w3.org/2000/svg" viewBox="0 0 667.42 364.95"><defs><style>.cls-1{fill:#f5e461;}.cls-2{fill:#fff;}.cls-3{fill:#3148a1;}.cls-4{fill:#b1d0fe;}</style></defs><title>Asset 7</title><g id="Layer_2" data-name="Layer 2"><g id="Layer_1-2" data-name="Layer 1"><path d="M203.83,141.48a12.8,12.8,0,0,1,1.2-3.87c0-.86,0-1.8.06-2.68a7.05,7.05,0,0,1,.56-2.37,4.43,4.43,0,0,1,3-2.69c.46,0,1.45.46,2.32.6s1.49.1,1.31.26a7,7,0,0,0-.72,3.16,24.34,24.34,0,0,0,.34,5.05,29.09,29.09,0,0,0,1.79,6.05,26.85,26.85,0,0,0,3.87,6.53c.23.52,1.39.84,2.89,1.15s3.36.54,5,.92c0,0-.52-.93-1.17-1.94,2.3.55,4.64,2,7.15,3.52a29.86,29.86,0,0,0,7.81,3.65,6.87,6.87,0,0,1-1.07-2,8.74,8.74,0,0,0,2.87,3.3,20.56,20.56,0,0,0,4.58,2.49,62.28,62.28,0,0,0,10.59,2.84,20.46,20.46,0,0,1,2.86,2c1.55.13,3.07.25,4.6.48l5.16.62,6.27.72c2.33.28,4.93.6,8,1.2a26.68,26.68,0,0,1,8.36,3.77,31.07,31.07,0,0,1,7.9,7.72c.54.79,1.13,1.59,1.6,2.42s.92,1.66,1.37,2.5a44.19,44.19,0,0,1,2.06,5.07,60.85,60.85,0,0,1,2.34,9.81,51.74,51.74,0,0,1-1.12,15.5c-.51,2.44-1.2,4.93-1.83,7L302,230.39a43.75,43.75,0,0,0-2.05,10.78c-.07,3.2.6,6,2.21,7.82a5.26,5.26,0,0,1,.65,1.06,4,4,0,0,1,.2.64,5,5,0,0,1,.19.69,12.68,12.68,0,0,1-.17,3.69,23.7,23.7,0,0,1,2.67.76,8.76,8.76,0,0,1,1.21.5,10.53,10.53,0,0,1,1.28.56l.59.33.67.33c.45.23.83.5,1.3.76s.94.53,1.4.83,1,.57,1.49.89c2,1.23,4.31,2.6,6.79,3.88,1.19.67,2.52,1.26,3.75,1.89s2.52,1.17,3.8,1.65A14,14,0,0,1,335,273.8,141.64,141.64,0,0,1,354.58,276a78.16,78.16,0,0,1,10.67,2.87l2.73,1.06,1.36.55,1.37.64c.91.44,1.82.86,2.72,1.34s1.81,1,2.7,1.56a56.65,56.65,0,0,1,13.19,10.65,51,51,0,0,1,5.44,7.21,55.24,55.24,0,0,1,3.89,7.65A117.28,117.28,0,0,1,403,322.48c.52,1.82,1,3.44,1.45,4.87.25.67.49,1.35.72,2.06s.59,1.37.85,2.1a8,8,0,0,0,2.15,2.49,12.62,12.62,0,0,0,1.55,1,7.33,7.33,0,0,0,1.43.68c.2.86.39,1.72.59,2.58a26.31,26.31,0,0,0,9.41,4.84c3.24,1,6.26,1.65,9.09,2.79a19,19,0,0,1,4.75,2.64,13.33,13.33,0,0,1,3.1,3.27c1.67,2.35,2.61,5.27,3.6,7.95A86.56,86.56,0,0,1,432,363.5a38.31,38.31,0,0,1-11.62,1.78,31.65,31.65,0,0,1-13-2.91,29.66,29.66,0,0,1-11.82-10,87.23,87.23,0,0,0-6.92-8.62c-1.27-1.63-2.68-3.26-3.83-5.06a41.39,41.39,0,0,1-3.19-5.3c-1.76-2.82-2.36-6-3.19-8.78s-1.93-5.24-4.42-6.39a13.57,13.57,0,0,0-.44-6.45,9.08,9.08,0,0,0-.68-1.86A17.48,17.48,0,0,0,372,308c-.38-.62-.79-1.25-1.21-1.89a20.93,20.93,0,0,0-1.49-1.83,28.18,28.18,0,0,0-7.94-6.16,32.8,32.8,0,0,0-9.41-3.28c-.83-.79.44-.84-1.15-1.89-4.57-.43-9.18-1-13.92-1.69-2.38-.36-4.75-.75-7.23-1.25s-5-1.09-7.52-1.82A90.81,90.81,0,0,1,307,282.43a62.07,62.07,0,0,1-14.49-9.6,32.7,32.7,0,0,1-10.39-17.43,48.53,48.53,0,0,1-1.21-11c0-3.65.2-7.22.36-10.75a15.36,15.36,0,0,1,1.25-4.34,29.24,29.24,0,0,0,1.73-5.81c-.14-1.28-.29-2.52-.46-3.75a43.68,43.68,0,0,0,1.1-6.18,50.88,50.88,0,0,0,.27-5.95c0-1.9-.14-3.62-.21-5.2-.06-.78-.08-1.54-.13-2.22s0-1.36,0-2a10.34,10.34,0,0,0-3.48-6.82,28.49,28.49,0,0,0-6.88-4,29.09,29.09,0,0,0-7.68-2l-4.73-.66c-1.64-.24-3.33-.54-5-.83-6.61-1.29-12.85-3.57-16.33-6.86a9.32,9.32,0,0,0-2.76-1.31c-1.25-.43-2.62-1-3.69-1.44-.82-.85-1.6-1.77-2.37-2.67-2.06-1-4.41.25-6.48-.87-6.46-4-13.47-8.92-18.56-14.46a43.11,43.11,0,0,1-3.47-4.15,26.54,26.54,0,0,1-2.59-4.14,11.68,11.68,0,0,1-1.44-7.51,14.08,14.08,0,0,0,2.41,1.73C202.76,142.71,203.65,142.73,203.83,141.48Z" transform="translate(0 -0.42)"/><path d="M224.28,93.32c.34.53.75,0,1.11-1a14.16,14.16,0,0,0,.66-3.53c-1.2,1.82-2.42,2.85-4.09,6.25a52.45,52.45,0,0,0,1.46-5.78c-.85-1.76-1.18-.25-1.43,1.13s-.38,2.71-.44,1c.84-3.13,1.4-5.88,2.32-4.11-.61.52-.42,2-1,4,.69.29,1.32-.34,1.92-1.31s1.13-2.31,1.7-3.26a54.05,54.05,0,0,1-1.9,9.77C224.51,95.39,224.42,94.39,224.28,93.32Z" transform="translate(0 -0.42)"/><path d="M215.76,109.54l.82-1.26c-.54-1-1.66.1-2.77,1.09,1.95-2.5,2.59-2.31,3.09-1.71s.88,1.49,2.4,0C218.69,107.27,216.28,110.55,215.76,109.54Z" transform="translate(0 -0.42)"/><path d="M215.47,100.06a7.83,7.83,0,0,0,2.45-3.72c.49-1.19.89-2.16,2.05-2.26a52.36,52.36,0,0,1-4.6,7.17Z" transform="translate(0 -0.42)"/><path d="M205.27,132.92c.47.3.57.36.62.55a4,4,0,0,0,.26,1.28,10.24,10.24,0,0,1-.75-2.06Z" transform="translate(0 -0.42)"/><path d="M271.45,170.88c-1.33-.78-2.49-1.56-3.8-2.23a19.18,19.18,0,0,0-4.51-1.67C266.69,167.42,270.59,170.33,271.45,170.88Z" transform="translate(0 -0.42)"/><path d="M297,208.68c-.73-.11-1,1.29-1.26-.69.36-.9,2.22.34,1.08-2.77C296.88,206.38,296.91,207.53,297,208.68Z" transform="translate(0 -0.42)"/><path d="M293.06,212c-.48.57-1,1.13-1.48,1.67C291.77,213.69,292.49,213.09,293.06,212Z" transform="translate(0 -0.42)"/><path d="M219.7,142.4l-.09.45c.16.06.39.09.58.14A5.63,5.63,0,0,0,219.7,142.4Z" transform="translate(0 -0.42)"/><path d="M223,146.67c-.66-1.15-1.25-2.35-1.86-3.49a4.45,4.45,0,0,1-.9-.19C221.75,144.85,220.32,145.32,223,146.67Z" transform="translate(0 -0.42)"/><path d="M219.44,143.65l.17-.8a4.73,4.73,0,0,1-2.82-2.82,10.27,10.27,0,0,0-2.84-3.75,11.86,11.86,0,0,0,2.3,4.19A19.13,19.13,0,0,0,219.44,143.65Z" transform="translate(0 -0.42)"/><path d="M215.66,142.33l-1.54-.27c-.7-.95-.11-1.4.18-1.62-.65-.48-1.24-.95-1.82-1.42-.82.16-.18,1.56,1.09,3.17.62.79,1.31,1.66,2,2.36l1.6,1.68C216.63,144.91,216.09,143.66,215.66,142.33Z" transform="translate(0 -0.42)"/><path d="M194.74,130.64l0,.1v-.1Z" transform="translate(0 -0.42)"/><path d="M193,139.14c.83-.2,1.65-.42,2.47-.65a5.88,5.88,0,0,1-.64-3.77,12.5,12.5,0,0,0-.07-4l0-.1c-1.25.7-1.54,2-1.58,3.53A27.38,27.38,0,0,1,193,139.14Z" transform="translate(0 -0.42)"/><path d="M224.92,151.39c-2.57-1.89-4.39-3.4-6.06-2.94.7.73,1.4,1.45,2.15,2.12s1.45,1.41,2.22,2.07C222,150.39,224,151.85,224.92,151.39Z" transform="translate(0 -0.42)"/><path d="M226.51,158.24,224,156.75c.2.47.43.92.65,1.39C224.89,157.92,225.53,157.89,226.51,158.24Z" transform="translate(0 -0.42)"/><path d="M224.6,158.14c-.31.26-.15.8.75,1.5Z" transform="translate(0 -0.42)"/><path d="M218.52,156.36c.56,2.53,1.64.78,4.19,3.07C223.92,158.06,219.89,157.45,218.52,156.36Z" transform="translate(0 -0.42)"/><polygon points="230.13 164.25 230.52 165.93 231.59 164.44 230.13 164.25"/><path d="M255.88,166.14c-3.34.78,1.35,2.08,1.48,3C256.85,168.13,256.35,167.16,255.88,166.14Z" transform="translate(0 -0.42)"/><path d="M231.72,170.07l-.27-2-.91.54c-.8-.44-2.1-.95-2.44-2C226.49,168,230.3,169,231.72,170.07Z" transform="translate(0 -0.42)"/><path d="M245.9,171.24c.93.74,1.88,1.42,2.85,2.1" transform="translate(0 -0.42)"/><path d="M221.44,171.38c-.49.55,3.18,5.3-1.95,1.59,2,1.42,5.09,3,2.46,3.17,3.47,1.94,1.14-1.44,3.83-1a3.16,3.16,0,0,1-2.54-1.42A17.15,17.15,0,0,0,221.44,171.38Z" transform="translate(0 -0.42)"/><path d="M229,177.25c1.52,1.2,3.47,2.68,4.76,2.45a11.86,11.86,0,0,1-2.3-1.66A2.84,2.84,0,0,0,229,177.25Z" transform="translate(0 -0.42)"/><polygon points="228.85 181.42 226.99 178.87 227.73 181.28 228.85 181.42"/><line x1="268.19" y1="179.32" x2="268.41" y2="176.97"/><path d="M239.69,186.2c-1.15-.33-2.29-.7-3.41-1.1s-2.27-.75-3.38-1.2c.92.6,1.87,1.11,2.82,1.66s1.89,1.11,2.87,1.6c4.09.25,2.44-1,0-2.44C239.26,185.21,239.71,185.71,239.69,186.2Z" transform="translate(0 -0.42)"/><path d="M233.74,180.69l-2.2-.19c-.23.34,2.64,1.64,5.08,2.92a21.4,21.4,0,0,1-2-1.49C234.06,181.44,233.73,181,233.74,180.69Z" transform="translate(0 -0.42)"/><path d="M236.62,183.42c.67.44,1.36.9,2,1.3A14.3,14.3,0,0,0,236.62,183.42Z" transform="translate(0 -0.42)"/><path d="M284.26,183.37a27.58,27.58,0,0,0-5.77-3A36.28,36.28,0,0,0,284.26,183.37Z" transform="translate(0 -0.42)"/><path d="M244.09,189.8l1,.31.79-1.67C243.77,188.17,244.25,189.46,244.09,189.8Z" transform="translate(0 -0.42)"/><path d="M251.86,195.29a6.21,6.21,0,0,0,3.75,1.11c1.45.06,2.89-.05,3.7,0a11.14,11.14,0,0,0-3.62-1.75c-1.31-.41-2.7-.8-4.17-1.31C254.46,194.39,252.15,194.61,251.86,195.29Z" transform="translate(0 -0.42)"/><path d="M260.57,199.19c-1-.15-2.08-.35-3.15-.54s-2.15-.38-3.21-.6C255.06,200.25,258,199,260.57,199.19Z" transform="translate(0 -0.42)"/><path d="M268.68,199.59c.38-.11.23-.71,1-.91a1.67,1.67,0,0,0-1.22-.75c-.59-.13-1.22-.21-1.81-.39.4.34.76.68,1.1,1S268.39,199.25,268.68,199.59Z" transform="translate(0 -0.42)"/><path d="M226.76,168.42c1.5.73,2.85,1.37,4.17,1.92-1.81-1.41-3.62-2.75-5.33-4.22A10.33,10.33,0,0,0,226.76,168.42Z" transform="translate(0 -0.42)"/><path d="M422.1,340.31a8.09,8.09,0,0,1-2.15.05,19.6,19.6,0,0,1-2.33-.43c-.76-.25-1.55-.55-2.36-.88s-1.52-.8-2.3-1.23a28.81,28.81,0,0,1-7-6.31c-.25-.44-.52-.88-.81-1.31s-.5-.9-.78-1.35-.57-.91-.86-1.37-.59-1-.89-1.6c-1.25-2.26-2.64-5.15-4.28-8.48a100.41,100.41,0,0,0-6.17-11,56.86,56.86,0,0,0-9.16-10.6l.62-.41c-.59-.67-1.22-1.34-1.86-2s-1.37-1.24-2.08-1.86a44.07,44.07,0,0,0-4.58-3.39A58.76,58.76,0,0,0,365,283c-.87-.36-1.73-.68-2.6-1l-2.59-.88c-1.71-.51-3.43-1.07-5.1-1.5-3.36-.94-6.57-1.68-9.6-2.5l.41,1.13c2,.69,4.66,1.49,2.72,2.29-2.59-1.19-6.08-2.56-6.68-3.49l-2.38.85c-1.49-1.17.66-4-4.17-4.17-1.7,1.3-3.95.09-5.84-1s-3.44-2.07-4.21-.11c-.39-1.48-1.71-2-3.14-2.32s-3-.41-3.91-.91c.16.77.33,1.55.52,2.33a22.18,22.18,0,0,1-2.48-2.24c-.71-.82-1.35-1.64-1.95-2.37-1.1-1.53-2-2.69-2.88-3a30.75,30.75,0,0,1-6.16-4.29l-.7-.63a4.54,4.54,0,0,1-.67-.64c-.4-.44-.82-.87-1.25-1.29s-.72-.89-1.1-1.31l-.29-.32-.23-.33c-.16-.23-.32-.44-.48-.65.83-.88,1.23.08,1.64.8s.8,1.22,1.12-.42a4.94,4.94,0,0,1-1.21-.95,5.14,5.14,0,0,1-1-1.19c-.26-.45-.52-.91-.76-1.4a11,11,0,0,1-.45-1.6,19.16,19.16,0,0,1,.48-8c.67-3,1.79-6.39,2.82-10.05.52-1.83,1-3.74,1.41-5.75a44.42,44.42,0,0,0,.84-6.38c-.28.47-.79,2-.91.79,1.18-1.55,1.48-3.62,1.65-6s.16-5.09.57-8.27a3.14,3.14,0,0,0-.85,1.85c-.23.91-.44,2.06-.62,3.26-.4,2.37-.78,4.92-1.11,6.21-1.65-1.11-1.38-1.41-.72-2.39a6.79,6.79,0,0,0,1.05-2.15,9.23,9.23,0,0,0,.32-1.81,14.29,14.29,0,0,0-.1-2.46c-.21.52-.62,1.55-1,1.46a15.39,15.39,0,0,1,.05-3.65,2.44,2.44,0,0,1,.7-1.32,2.31,2.31,0,0,0,.7-1.05,5.86,5.86,0,0,0-.17-2.89c-.22,1.18-.54,2.29-.85,3.39-.12-2.86-.41-3.35-.69-3.86a20.69,20.69,0,0,1-1.83-4.31c1.09.26,1.8-.5,2.17-1.63a6.73,6.73,0,0,0,.08-3.61c-.53-.26-1.41-2.18-2.41-3.79s-2.22-2.88-2.74-2a17.2,17.2,0,0,0-1.09-3.38,16.1,16.1,0,0,0-1.62-2.5,12.17,12.17,0,0,0-1.88-1.8,14.83,14.83,0,0,0-2-1.37c-.68-.4-1.35-.8-2.05-1.17s-1.4-.82-2.1-1.25a29.23,29.23,0,0,1-4.58-3.61c-2,.17-1.28.87-.24,1.74s2.45,2,2,2.56c-1-.33-1.85-.55-2.46-.76a8.88,8.88,0,0,1-1.34-.56c-.59-.35-.65-.7-.55-1,.21-.69,1.15-1.41-.22-2.13-1.39-.07-4.62-.49-7.62-.87s-5.9-.93-7.4-1.9l-.4,1.41c-2.33-1.11-5.17-2.08-7.7-3.19s-4.56-2.31-5.07-3.55c-2.4,1.51,1.06,2.5,4.16,3.29.41,1.23-3,1.11-4.41.26.76.25.8,1.21,1.87.74,0,.65-.59.65-1.24.48a7.23,7.23,0,0,0-1.86-.47c-2.65-1-2-1.11-1.07-1.05s2.37.13,1.36-.57c-2.15-.06-7-2.16-5.57.36-4.28-1.56-.95-2.53-2.81-4.11a5.06,5.06,0,0,0,3.67,1.37,3.3,3.3,0,0,1,3,1.25c1.06-.39.9-1,0-1.92a16.19,16.19,0,0,1-3-1l-3.12-1.43c-1.94-.93-3.52-1.51-3.87-.59l-1.07-2c-.73.17-1.48.36-2.21.49l-.48-.69a11.13,11.13,0,0,0,2,3.78,12.94,12.94,0,0,1,2,3.49c-.1,1-2.2-.39-3.41-.83l-.2-1.93a3.3,3.3,0,0,0-3.28-.24,4,4,0,0,1-4-1c1.76-.21,1-1.53-.26-3.15-.64-.84-1.44-1.75-2.18-2.62a19.2,19.2,0,0,1-1.77-2.53c-2.46.6-2.79,1.19-3.05,1.84s-.41,1.27-2.56,1.66c-.67-.54-1.5-1.06-2.34-1.67s-1.76-1.25-2.67-1.93a30.58,30.58,0,0,1-2.54-2.28,13.29,13.29,0,0,1-2-2.62,21.14,21.14,0,0,0,2,1.74c.46.32.73.41.87.36s0-.8-.19-1.6c-.46-1.59-.92-3.38,2.26-1.26-.89-1.37-2.18-1.91-3.31-3.06,1.25-2.89,3.24-.05,3.36-3.06l-1.85.95a24.5,24.5,0,0,1,0-3.73,11.15,11.15,0,0,0-.5-3.67c-.9.3-2.6-.15-2.35-1.09a7.92,7.92,0,0,0,1.34-.92,1,1,0,0,0,.35-.9,5.28,5.28,0,0,0-2.51-.28,2.6,2.6,0,0,0-1,.52,3.69,3.69,0,0,0-.78,1,5.66,5.66,0,0,0-.6,1.29,11.89,11.89,0,0,0-.38,1.61,7.45,7.45,0,0,1-.84,3.09,27.29,27.29,0,0,1,2.26,6c.48,2,.8,4.1,1.15,6.27a22.88,22.88,0,0,0,8,14.65c2.76.42,2.24-.36,6.55,1.6,2.22-.57,1.05-2-.7-3.76-.9-.86-1.92-1.85-2.8-2.81a7.61,7.61,0,0,1-1.83-2.74c1.41.45,2.84.77,3.53,1.95l.09-2.63c3.11,1.61,3.48,2.75,3.76,3.93a3.94,3.94,0,0,0,.71,1.73,6.45,6.45,0,0,0,2.74,1.7l-1.46-.25c1.15.43,2.29.83,3.46,1.18l-.54-.71c2,.9,3.3-.21,6,1.91l-3.14.06c1.09-.06,1.47.53,1.92,1.22a3.26,3.26,0,0,0,2.4,1.7c-1.74.18-2.6.92-3.48.54a23.08,23.08,0,0,0,2.5,1.83c.84.54,1.67,1.06,2.52,1.52a52.26,52.26,0,0,0,5.06,2.37c6.06,1.49,12,2.87,17.9,4.07,3,.62,6,1.17,8.93,2a34.22,34.22,0,0,1,8.4,3.32,6.74,6.74,0,0,0-1.08-1.17,4.2,4.2,0,0,1,3.73,3,15.54,15.54,0,0,1,3.94,4.69,17.55,17.55,0,0,1,3.61,5,20.1,20.1,0,0,1,1.81,7c-1,.39-1.47.08-1.63-.55.44,1.86.95,3.08,1.86,1a9.83,9.83,0,0,1-.07,4.2,27.52,27.52,0,0,0-.67,3.48,40,40,0,0,0-1.86-5.73,2.66,2.66,0,0,0,.48,2.4,3.36,3.36,0,0,1,.3,3.11c.11,2.61.62,2.11,1.3,1s1.45-2.88,2.26-2.52c-.1.74-.19,1.48-.34,2.22.82-.74,1.58-1.51,2.35-2.32a14.88,14.88,0,0,1-4.84,9c.49-1.06.91-2.15,1.35-3.26-1.17-.78-1.42.61-1.67,2.35s-.55,3.9-1.46,4.5l-.06-.5c-1.33,5.26,1.53-.85,1,2.81-1.2,1.95-2.41,3.92-3.6,5.93l1.87-.74c.07,2-.95,4.67-2,7.79a36.48,36.48,0,0,0-2.37,10.35,17.15,17.15,0,0,0,1.13,6.88c.23.6.44,1.22.7,1.82l.86,1.79c.29.59.54,1.2.85,1.78s.65,1.14,1,1.71c-.09-1-.49-3,.25-2.62.58,1.35,1.5,3.52,2.28,5a5.19,5.19,0,0,1,.56,1.88c0,.4-.29.59-1,.35,1.24.91,2.45,1.79,3.7,2.55a10.89,10.89,0,0,1,2.07,3.07,11.79,11.79,0,0,1-.28-1.34c.62.56,1.35,1,2,1.48s1.34,1,2.06,1.36c-.28.24.7,2-1.34.55,1.58,2.48,4.46,4.09,7.76,5.27s7,2.27,10.67,4.2l-2.64-.15a9,9,0,0,1,4.86,2,11.19,11.19,0,0,0,2,1.26,10.28,10.28,0,0,0,3.19.79L323,285.3c3.83.6,10.41,3.92,9.08,4.67,1.29-3,1.85,1.46,4.76-.75l1.47,3.44c2.53-.23,4.91-.08,3.78-1.94,3.32,2.27,6.06,3.4,8.69,2.21a.16.16,0,0,1,.11-.05l.1,0,0,.05c.88,0,4.12,1.78,3.07-.06,4.05,1.51,4.79,2.68,5.47,3.74s1.33,2,4.72,3.85l1.38-1.71c2.55,1.76,5.11,3.32,7.65,4.83,1.22.8,2.51,1.51,3.62,2.36.57.4,1.16.78,1.71,1.19l1.52,1.26c-.38.52-.77,1-1.16,1.54,1.11,1.19,1.36.88,1.81.69s1-.17,2.41,2.1c0,.81-.19,1.63-.69,1.73a41.56,41.56,0,0,1,2.71,8.15,84.44,84.44,0,0,0,3,10.13c-.36.09-1.05-.7-1.4-1.11.34.76.76,1.63,1.27,2.53s1.16,1.82,1.79,2.75c.32.47.63.94,1,1.38l1.09,1.28a25.11,25.11,0,0,0,2.1,2.3,32.77,32.77,0,0,0,8.39,13.92,37.93,37.93,0,0,0,16.14,9.64,29.09,29.09,0,0,0,7.1-1.61,21.26,21.26,0,0,0,5.23-2.87,14.59,14.59,0,0,0,3.25-3.57,10.2,10.2,0,0,0,1.41-3.88,7.24,7.24,0,0,0-.86-1.26,13.73,13.73,0,0,0-1.23-1.38c-.46-.46-1-.93-1.53-1.39s-1.14-1-1.75-1.56A92.11,92.11,0,0,1,422.1,340.31Z" transform="translate(0 -0.42)"/><path class="cls-1" d="M537.79,131.43c6.68-.3,13.39-.47,20.07-.54l5,0c1.66,0,3.32.06,5,.1l9.91.28,19.47.68,18.76,1-14.66-.67c-2.44-.14-4.88-.18-7.33-.23l-7.33-.16c3.66.08,7.18.23,10.63.44s6.81.65,10.19,1.08c6.75.87,13.51,2,20.87,3.5-4.66,2-14.14-.53-16.69,2.4-35.54-2.35-71.13-7.5-106.06-10.54,6.91-3.58,12.55-2.89,17.64-1.34S532.9,131.45,537.79,131.43Z" transform="translate(0 -0.42)"/><path class="cls-1" d="M667.42,144c-3.58-.26-7.06-.54-10.49-.86A50.71,50.71,0,0,1,667.42,144Z" transform="translate(0 -0.42)"/><path class="cls-1" d="M306.48,176c-3.9,1-7.83,2-11.66,2.64A77.56,77.56,0,0,1,306.48,176Z" transform="translate(0 -0.42)"/><path class="cls-1" d="M491.16,148.37c-2.11.62-4.24,1.11-6.4,1.52q-12.17-.27-24.54-.65l-25-.28c4.56,0,9.18-.3,13.84-.65l7-.55,3.52-.28,3.52-.18C472.58,146.86,482,146.78,491.16,148.37Z" transform="translate(0 -0.42)"/><path class="cls-1" d="M508.75,154.84q6.18-.12,12.38,0,3.11.09,6.19.25c2.06.11,4.11.33,6.15.53a203.41,203.41,0,0,1,24,3.89c-7.76-1.41-15.75-2.47-23.89-3.3-2-.2-4.09-.42-6.14-.56l-6.19-.35Q515,155,508.75,154.84Z" transform="translate(0 -0.42)"/><path class="cls-1" d="M165.38,242.53a4.94,4.94,0,0,1-2.06,2.05,16.53,16.53,0,0,0-2.69,1.51q-16.44,3.27-31.77,6.11c3.09-1.17,6.72-3.34,9.5-4.15,5.59-1,8.52-.88,12-1.24S157.91,245.56,165.38,242.53Z" transform="translate(0 -0.42)"/><path class="cls-1" d="M310.87,175.09c.12-.13.24-.26.37-.38l4-1.06c.17,0,.33.06.51.12A45.12,45.12,0,0,1,310.87,175.09Z" transform="translate(0 -0.42)"/><path class="cls-1" d="M179.28,239.35c-.25,1.23-.5,2.48.12,3.27l-9.3,1.57-9.34,1.88c.93-.51,1.81-1,2.56-1.49a53.27,53.27,0,0,1,7.8-2.44A34.11,34.11,0,0,0,179.28,239.35Z" transform="translate(0 -0.42)"/><path class="cls-1" d="M285.3,225.84c2.27-.46,3.9-3.1,4.88-3.86l9.35.66c3.2.22,6.52.35,10.09.29,1-.75,3.27-1.15,5.25-2.65a27.36,27.36,0,0,0,4.48,1.79L296,225c-7.87,1.12-15.85,2.18-24,3.17C276.27,227.22,280.68,226.39,285.3,225.84Z" transform="translate(0 -0.42)"/><path class="cls-1" d="M191.92.42a116,116,0,0,1-4.07,15.84c-.85,2.65-1.76,5.32-2.67,8s-1.87,5.35-2.81,8c-3.65,10.72-7,21.41-7.22,32.18,5.59-10.91,11.06-24.33,16.31-35.18a85.71,85.71,0,0,1,7.83-13.69c2.61-3.49,5.18-5.7,7.85-5.94,5.33-.49,3.45,7.76-.53,18.38-2,5.32-4.54,11.2-6.86,16.93a155.64,155.64,0,0,0-5.92,15.86c1.79-2.11,1.8-2.1,3.55-4.22-1.74,2.12-3.56,4.22-3.11,6.74,3.63-4.18,8.37-13.1,12.39-14.87l.93,5.06a52.3,52.3,0,0,0,7.88-9.8c2.48-3.83,5-8,7.29-12.33,4.78-8.52,9.37-17.16,14.7-22.68-19.74,28.47-33.92,63.86-48,101.32q-2.61,7-5.24,14.12l-1.2,3.29-.81,2.29-1.65,4.6-6.22,17.74c-2,5.67-3.91,11-5.83,16.06s-3.86,9.84-6,14.52c-.13.44-.26.88-.38,1.31l-.11.38c0,.05-.08.17,0,.16l.35-.14,1.39-.57,2.78-1.14c1.85-.77,3.69-1.56,5.5-2.36,3.63-1.6,7.17-3.25,10.57-4.91s6.67-3.3,9.73-4.94,5.92-3.29,8.54-4.92a76.35,76.35,0,0,0,12.58-9.39,25.82,25.82,0,0,0,3.69-4.37l.32-.53.16-.26.07-.12s0-.08-.05-.11l-.14-.2.81-.39,1.64-.79,6.53-3.16c3.42-1.35,9.44-2.71,16.15-3.94l5.13-.9c1.74-.27,3.5-.49,5.23-.72,3.48-.45,6.89-.85,10-1.19l16.08-4.13,4-1.05,4-1,8-2c10.73-2.7,21.37-5.9,32-9.09q8.56-1.94,17.16-3.42c2.86-.49,5.73-1,8.6-1.38s5.75-.72,8.63-1.05c5.76-.64,11.53-1.19,17.32-1.69,2.89-.24,5.79-.48,8.7-.69l8.74-.43c23.36-1.22,47.12-1.53,72-2.93,10-.51,23.68,8.93-.53,12.45-10,1.85-20,3.69-30.09,4.92-5,.64-10.08,1.14-15.13,1.63s-10.1,1-15.17,1.43c2.13-3.27,11.91-2.18,16.27-4.82-7.54-.38-14.43-.53-21.27-.4a180.59,180.59,0,0,0-21,1.44l7.33-.91,7.34-.75,14.69-1.48c-6.12.62-12.41,1.18-18.81,1.75-3.21.24-6.43.62-9.68,1L372.54,128c-6.57.77-13.22,1.54-19.87,2.47s-13.29,2.2-19.91,3.48c-4.86.74-9.75-1.1-15.06-2s-11-.65-17.37,3.91c17.59-1.09,35.49-1.3,53.37-2.17,17.93-.38,35.86-1.43,53.74-2.63a.91.91,0,0,0-.16.24c4-.4,7.86-.75,11.7-1.06,1.91-.15,3.82-.33,5.71-.43l5.67-.28c7.54-.36,15-.68,22.71-1.13-4.77.67-9.62,1.49-13.87,1.17q8.46.62,16.83.86c2.8.06,5.59.23,8.37.32s5.57.19,8.35.26q8.33.19,16.63.22l4.15,0,4.15.1,8.29.19q-5.84,1-11.75,1.82c-3.94.61-7.89,1.2-11.87,1.72-8,1-16,1.83-24.07,2.53s-16.21,1.53-24.39,2.12l-6.13.41c-2.05.12-4.1.26-6.15.45l-12.29,1-12.32.9-6.15.43c-2.06.14-4.1.37-6.15.55-8.18.78-16.34,1.55-24.45,2.38-2,.22-4.05.39-6.07.66l-6,.8q-6,.82-12,1.71c-7.95,1.2-15.82,2.42-23.51,4.14a44.83,44.83,0,0,0,7,.38c2.38-.06,4.81-.15,7.26-.4,4.9-.48,9.89-1.34,14.83-2.16a139,139,0,0,1,14.44-1.86,40,40,0,0,1,13,1.31l-10.73,1.06-2.68.25-2.68.31-5.37.61q-10.74,1.2-21.56,2.26l-43.62,4.86c2.11-.72,4.14-1.54,6.17-2.4-18.67-.52-37.49,5.68-55.57,8.64l-4.89.66c1.62-.18,3.26-.41,4.89-.66l12.49-1.69,6.2-.86,6.19-.73q12.38-1.44,24.52-3c-7.17,2.47-15,3.86-24.45,4.88,5.43,1.2,12.88.85,20.31.5,9.57-1.62,19.21-2.75,28.75-3.89-7.32,1.25-14.56,2.7-21.54,4.58s-13.71,4.13-20.09,6.51c5-.34,10.09-.81,15.14-1.36l7.58-.87,7.61-.77,15.2-1.63,7.58-.78c2.52-.27,5-.5,7.55-.64-2.73.41-5.45.92-8.17,1.43l-8.16,1.52-16.29,3c-4.63.38-9.23,1-13.85,1.54l-13.91,1.71-7,.88c-2.33.29-4.66.6-7,1l-14,2.25L240,179l-4.2,1-11,1.86c-3,.48-6,1.11-8.95,1.71-5.3,1.37-10.67,3.89-16.83,6.92l-2.84.71c2.21-1.51,3.33-2.77.3-2.61a39.21,39.21,0,0,0-9.92,1.45c-3.5.88-7.26,2-11.12,3.22-1.93.58-3.88,1.16-5.81,1.7l-2.87.76c-.94.26-1.87.5-2.77.72-3.62.87-6.95,1.37-9.26,1a13.83,13.83,0,0,0-5.13.88c-1.15.34-2.42.77-3.8,1.26l-2.15.79-.56.21-.28.1s-.11.05-.12,0l0-.08.23-.7c.13-.43.27-.87.4-1.32,2-2.48,1.59-2.58.7-2.3.27-.93.57-1.89.89-2.87,1.28-2.8,2.6-5.69,2.9-7.86a73.5,73.5,0,0,0-2.9,7.86c-.49,1.05-.93,2.06-1.3,3-1,.37-2.29.85-1.54-.77l-4.76,8.91-.49.91-.12.22.22-.05.44-.1,1.75-.43,3.54-.86,7.18-1.75,14.85-3.69q7.64-1.74,15.54-3.68l7.93-2c2.66-.69,5.32-1.39,8-2-1.8,1.23-4.35,2.61-5.53,3.46,2.91-1.49,5.71-2.84,8.37-4.17,8-2,16-4.16,23.61-6.46a29,29,0,0,0-6.3,4c2.89-.58,5.87-1.26,8.73-1.77l9.76-1.93q9.76-2,19.51-4.13l19.6-4,9.81-2,4.91-1,4.92-.93,18.7-1.72,9.3-.85c3.1-.3,6.21-.45,9.31-.68l18.55-1.33c3.09-.22,6.17-.5,9.25-.69l9.26-.52c-3.38-.4-6.8-.69-10.24-.9s-6.89-.17-10.38-.15c-7,.06-14,.38-21.13.85q14-2.24,28-4.31c2.34-.36,4.68-.63,7-.9l7.05-.8q7.05-.8,14.11-1.48c9.4-1,18.86-1.43,28.29-1.85q7.08-.28,14.17-.43c4.72,0,9.45.08,14.17.21-3.3,1.94-7.23,3.66-10.83,5.5s-6.85,3.92-8.8,6.35c.21,1.12,3.33,1.65,5.53,2.13a4.46,4.46,0,0,1,2.14.77c.16.3-.38.6-2.1,1.07-12.49,4.11-23.33,5.09-32.25,6.74-8.89,1.85-15.83,4.32-20.31,11.13-.78,1.81,6.16,5,12.13,8.23s11,6.37,6.61,8.07c-3.7.94-8.87,2-14.92,3.14s-13,2.19-20.11,3.56c-4.2.18-8.53.57-13,1-.59-.17-1.43.66-2.51,1.6l-11.42,1.76c-3.7.63-7.25,1.2-10.59,1.69-6.67,1-12.45,1.68-16.61,1.92l-4.62.25-4.57.39a11.59,11.59,0,0,1-4.42-2,31.13,31.13,0,0,1-5.36,2.95q-6.12.6-12.16,1.28l-6,.69c-2,.25-4,.57-6,.86-4.59-.19-9.2-.53-13.72-.57.25.77,1.16,1.68.49,2.62l-7.44,1.21-3.7.62-1.64.31c-.66.12-1.33.23-1.84.35-1.11.23-2.2.44-3.31.69l-26.43,6c-7,.61-13,.53-17.75-.55a69.88,69.88,0,0,1-8.83,4.35c-1.64.7-3.31,1.3-5.13,2s-3.67,1.41-5.59,2.09c-7.7,2.72-16.23,5.21-24.93,7.55s-17.58,4.54-26.21,6.74-16.77,4.42-24.76,6.91l-.33.36-18.47,5L60.05,274l-4.64,1.25-2.32.61-1.74.17,4.37-8.51c2.5-3.46,5.14-6.92,7.89-10.34a8.52,8.52,0,0,1,.53-3.61,12.41,12.41,0,0,0,.73-3.05c7.58-13.12,15.06-24.69,22.23-35.8-.09-1.17-2-2.54-.13-6.42,4.2-8,7.76-15.39,11.13-22.64l13.43-26,10.54-21.29q4.89-10.31,9.77-20.55c.8-1.68,1.61-3.35,2.37-5,.4-.83.78-1.68,1.16-2.55L136,109a4.15,4.15,0,0,1,.23-.47l.18-.36,3-5.85c2-3.88,3.9-7.79,5.89-11.67a7.83,7.83,0,0,1,3.26.31c-.41-3,1.91-6.2,2-8.74a1.56,1.56,0,0,0,1.13,1.12,16.42,16.42,0,0,1,2.7-8.16,51.58,51.58,0,0,0,4.41-6.93c.48-1.54-.12-3.33.07-4.93l1.05-2.14A24.5,24.5,0,0,0,167,50.62c1.47-3.91,2.32-8.12,3.73-12.42,3.82-8.26,7.59-16.58,11.23-25C184.77,6.56,188.58,4.72,191.92.42Z" transform="translate(0 -0.42)"/><path class="cls-1" d="M125.15,252.89,106,256.36l-18,3.14c7.18-1.92,14.61-4.39,21-5.93a52,52,0,0,1,8.82-1.48A18.65,18.65,0,0,1,125.15,252.89Z" transform="translate(0 -0.42)"/><path class="cls-1" d="M397.64,209.33A37.21,37.21,0,0,0,409,213.15l-7.93.46c-2.65.16-5.29.29-7.93.55l-15.84,1.42c-5.28.5-10.59.92-15.89,1.49l-16,1.85-.06-.25c4.25-.79,9-1.31,13.92-1.76l3.7-.34,3.72-.24c2.49-.16,5-.34,7.38-.56C383.79,214.91,392.56,213.29,397.64,209.33Z" transform="translate(0 -0.42)"/><path class="cls-1" d="M163.32,244.58c-.75.49-1.63,1-2.56,1.49l-.13,0A16.53,16.53,0,0,1,163.32,244.58Z" transform="translate(0 -0.42)"/><path class="cls-1" d="M435.88,163.19l2.12,0c-2.67.39-5.34.77-8,1.12l-4,.51-4,.58A71.63,71.63,0,0,1,435.88,163.19Z" transform="translate(0 -0.42)"/><path class="cls-1" d="M493.81,163.78l32.94-1.26c7.06.51,14,1.27,20.9,2.22q5.15.72,10.19,1.65c1.68.32,3.35.64,5,1s3.3.82,4.94,1.26c-6.11-.61-12.24-.92-18.37-1.39L531,165.88c-3.08-.27-6.16-.38-9.25-.57l-9.28-.51Z" transform="translate(0 -0.42)"/><path class="cls-1" d="M438.71,209.32c4.43.7,8.92,1.71,13.41,2.57l-13.3.09C439.61,211.15,438.84,210.12,438.71,209.32Z" transform="translate(0 -0.42)"/><path class="cls-1" d="M391.06,168.9c1.09-.13,2.19-.22,3.28-.33-2.75.87-5.48,2-8.21,3C387.1,170.91,389.44,169.88,391.06,168.9Z" transform="translate(0 -0.42)"/><path class="cls-1" d="M486,213l-9.75-.52a30.5,30.5,0,0,0,5.7-2.14A11.47,11.47,0,0,0,486,213Z" transform="translate(0 -0.42)"/><path class="cls-1" d="M536.59,212.62c4.46.19,8.78.43,12.92.87-5.15.17-10.42.28-15.62.35C535.08,213.06,536,212.37,536.59,212.62Z" transform="translate(0 -0.42)"/><path class="cls-2" d="M16.34,158.25c1.08.27,1.08-.16,1.08,0l2.18.6C17.42,158.36,14.52,159.07,16.34,158.25Z" transform="translate(0 -0.42)"/><path class="cls-2" d="M26.5,159.18l1.45.11a4.68,4.68,0,0,1-2.54.27C26.14,159.45,26.5,159.34,26.5,159.18Z" transform="translate(0 -0.42)"/><path class="cls-2" d="M54.82,158.52l-.73.22c0-.11-1.81-.16-1.45-.33Z" transform="translate(0 -0.42)"/><path class="cls-2" d="M48.53,171.11a7.71,7.71,0,0,0-1,.12,21.39,21.39,0,0,1-4.08-.33c.73-.2-.22-.67,1.83-.59l.1.05c1.5,0,4.42-.26,3.89-.52-1.26-.06-3.47.16-5.5-.09-.64-.32.13-.69,1.89-.94l-3.52-.24a19.92,19.92,0,0,1,3.33-.61l1.46.16c1.28-.11,4.14,0,4.1-.41a13.42,13.42,0,0,1-2.87-.67c2.94-.42.32-1.15,1.21-1.65-5.54-.49,2.68-1.49-4.15-1.86,1.41-.81-2.94-.89-6.08-1.32,3.67-.62,4.68.81,8.18.48,1.19-.91-.81-1.9-.41-2.83-2.37-.23-5,.17-5.57-.31a13.85,13.85,0,0,0,4.17-.19,6.11,6.11,0,0,1-2,0l-.49.14c-5.87.1.58-.65-2.35-1,2-.14,0,.18,1.92.2,2.64,0,5.76-.15,6.77-.59-3.3-.88,2.67-1.49,1.47-2.46-2.2,0-1.23-.23-1.55-.39a12.74,12.74,0,0,0,4.55-.38c-1.22-.23-5.46-.26-5.06-.62l-4.06.24c-.48.14,1.27.63,2.14.87-4.62.16,2.08,1.22-4.21,1.11l.82-.16c2.29-.55-4-.84-6.18-1.37,1.8-.42,4.92-.56,7.39-.85,1.2-.34-.5-.43-1.62-.6s1-.45,2.18-.62c-.21-.1-1,0-1.25-.05.48-.14,1.31-.29,1.1-.4-3.9,0-3.88.52-5.09.86-.56-.09-1.36-.11-1.22-.23-.22-.1.58-.08.93-.1l-.42-.2c-1.15,0-3.34,0-3.52-.24l2.33-.17c.78-.54-4.68-.81-5.15-.1l2.4.06-3.56.67c-2.44.11-1.79-.31-4.08-.32a11.09,11.09,0,0,0-5,.74,3.8,3.8,0,0,0,2.71-.35l4.18.37c.21.11-.62.26-1.77.26s-4.59,0-4.17.19c-.68.6,4.25,0,4.5.53,4.28-.14,5.23-1,7.34-1.25l-.07-.22c2.08-.09.73.36,1.95,0,2.65.57-2.54,1.37-5.48,1.79-2.65,0-5.15.47-8.53.11-.38.19-2.46.28-1.94.54,4.48.71-1,1,.29,1.64a20.21,20.21,0,0,1,2.4.06c-1.65.87-11.54-.27-9.12.93a9.09,9.09,0,0,0,3.17.25c.83-.15,2.81-.29,1.93-.54,1.15,0,1.11-.39,3.48-.16-.79.55,3.53.81,2.53,1.25l1.82.15c0,.17,2,.59.53.83-1.27.68-3.89,0-5.84-.08l-1.13.57c4.36.65-6.17,1.08-.86,1.63l-1.26,0c-1.78-.32-4.73.1-4.65.32l1.11.18c5.12.28,1.87,1.11,3.38,1.67a2.77,2.77,0,0,1-1.38.06l-2.18.61c4.9.18.15.45.89.82,2,.25,4.07.32,5.5.66-3.59.85,1.6,1.35-2.55,2.11,3.66.12,4.6.59,8.8.22-2.19.79-6.23,1.5-7.4,2.27l1.69.16C30.09,171.13,45.17,171.93,48.53,171.11Z" transform="translate(0 -0.42)"/><path class="cls-2" d="M52,152.8l-.06.34,1.05,0C54.62,153,52,153,52,152.8Z" transform="translate(0 -0.42)"/><path class="cls-2" d="M0,177.63a22.22,22.22,0,0,0,6.17.49c.36-.44-2.54-.76-.73-1.2A28.07,28.07,0,0,0,0,177.63Z" transform="translate(0 -0.42)"/><path class="cls-2" d="M14.43,159.35l.25.5,2.44-.11C18.56,159.33,14.61,159.63,14.43,159.35Z" transform="translate(0 -0.42)"/><path class="cls-2" d="M30.13,179.32c1.45,0,2.91.11,2.18-.11l-2.54-.33C30.49,178.94,28,179.43,30.13,179.32Z" transform="translate(0 -0.42)"/><path class="cls-2" d="M35.94,180.46l4.36-.05c-.74-.17-2.55-.27-1.82-.44C37.75,180.19,35.58,180.19,35.94,180.46Z" transform="translate(0 -0.42)"/><path class="cls-2" d="M36.67,178.12c-4.36.6,5.44.65-.37,1.14,1.1.71,5.09.49,8.72.33,0-.27-5.09,0-6.54-.44a9.71,9.71,0,0,1,4-.65C42.84,177.79,38.12,178.5,36.67,178.12Z" transform="translate(0 -0.42)"/><polygon class="cls-2" points="46.1 180.04 46.1 179.72 43.2 179.88 46.1 180.04"/><polygon class="cls-2" points="49.37 177.7 47.56 177.43 47.2 177.92 49.37 177.7"/><path class="cls-2" d="M58.09,178.77v-.22a13.39,13.39,0,0,0-3.63-.1C54.82,178.72,57,178.66,58.09,178.77Z" transform="translate(0 -0.42)"/><path class="cls-2" d="M28,173.18a85.29,85.29,0,0,0-15.07,2.53c1.39.18,2.72.37,3.79.59l-3.24.6c0,.6,1.13,1.31,5.85,1.68-.72.11-1.44.11-2.16.22,1.45.22,0,.66,2.56.87-1.44.28-3.62.28-5.79.44,2.2.6-3.59,1.37.06,2-6.16.27,3.66.87-2.14,1.2-2.16.65.41,1.36,4.4,1.52a37,37,0,0,0-5.44.06,8.33,8.33,0,0,0,1.1.16c0,.06-1.8.55,0,.71a12.16,12.16,0,0,0,1.77.07c4.78-.64,17.69.78,24.41,1.27l1.31.23c1-.27,1.69-.58,1.57-.94-1.81.11-1.46-.43-3.27-.16,0,.06.37.11.37.17l-2.17.38c-1.46-.33.69-1.09-2.94-1.31a43.92,43.92,0,0,1,6.15-.71c.34-.6,3.22-1.31.3-1.8-.74-.6,2.52-.71,5-.87-1.45-.28.34-.77-2.2-.87a84.67,84.67,0,0,1,9.77-.88c1.81-.39-.37-.39-2.19-.66.7-.76,7.26.16,7.23-.71.72-.33-2.19-.76-4.37-.76,2.16-.38-.4-.87,2.14-1.15-6.92-.59,2.86-1.36-3.33-2.07.55-.78-3-1.39-5.25-2.12C39.91,172.66,33.43,172.77,28,173.18Z" transform="translate(0 -0.42)"/><path class="cls-3" d="M367.77,266.57c1.49-1.19,2.79-.71,4.05-1-.5.13-1,.27-1.52.39.76-.19,1.3.49,1.87,2-.44,1.7-.75.28-1.15,2.58-1.77-.15-3.2-3.23-4.61-6C367.74,259.26,367.26,266.7,367.77,266.57Z" transform="translate(0 -0.42)"/><path class="cls-3" d="M373.81,270.71a2,2,0,0,1-.54.06C373.49,270.55,373.69,270.39,373.81,270.71Z" transform="translate(0 -0.42)"/><path class="cls-3" d="M353.41,286.94a1.75,1.75,0,0,1-.69.59C353,287,353.19,287,353.41,286.94Z" transform="translate(0 -0.42)"/><path class="cls-3" d="M363.9,279a7.59,7.59,0,0,1-.44,1,20.92,20.92,0,0,1-2.22-2.4C362.07,278.24,363.32,276.12,363.9,279Z" transform="translate(0 -0.42)"/><path class="cls-3" d="M364.18,284c.86-.12,1.59.89,2.09,3.34A5.49,5.49,0,0,0,364.18,284Z" transform="translate(0 -0.42)"/><path class="cls-3" d="M343.87,313.39c-.05.45-.11.79-.16,1.07a4.66,4.66,0,0,0-.14.55c-.26-.63-.52-1.29-.77-2a9.32,9.32,0,0,1,.38-1.09C343.46,312.68,343.29,314.76,343.87,313.39Z" transform="translate(0 -0.42)"/><path class="cls-3" d="M353.65,286.81c0-.08,0-.16.05-.24l.25-.31a.76.76,0,0,0,0,.14A1,1,0,0,1,353.65,286.81Z" transform="translate(0 -0.42)"/><path class="cls-3" d="M344.27,313.69c-.1.85-.2,1.7-.25,2.38l-.45-1.05c.05-.18.09-.35.14-.56C343.9,313.88,344,314.77,344.27,313.69Z" transform="translate(0 -0.42)"/><path class="cls-3" d="M347.74,320.93a14.13,14.13,0,0,0,.56-2.17,16.87,16.87,0,0,0,.63,3.08c.11-.43.24-.46.46-1.33,0,.7,0,1.3,0,1.83a7.6,7.6,0,0,1-2.35-1.5A.58.58,0,0,1,347.74,320.93Z" transform="translate(0 -0.42)"/><path class="cls-3" d="M331.18,294.3c1.24-1.13,1.93,3.57,3.55-.92-.89-3-2.47-4.24-1.74-11.75s1.78-.45,2.79-.71l-.06-1.62c0,.81.06,1.62.28.75a41.67,41.67,0,0,1-.21-5.64l.44-1.74c0-5.7-1-7.06-1-12.75,1,18.45,6.32,11.38,10.37,10.33,2.47-2.26,5.29-8.68,8.08-15.9.48-.94,1.27-.33,1.8.35a15.4,15.4,0,0,0,3.9-5.08c2.69-3.13,4.39,1.32,6.93.66.51-.13.28,7.25-1.18,9.25-1.29,2.39-2.41,3.24-3.42,3.16.4-2.29.71-.87,1.14-2.57-.56-1.49-1.1-2.16-1.86-2l1.52-.39c-1.27.32-2.57-.15-4.05,1-.51.13,0-7.31-1.36-2.09,1.41,2.75,2.83,5.82,4.61,6l0,.17A8.19,8.19,0,0,1,364,263c-.27.29-.57.68-.73.26a5.26,5.26,0,0,0,2.94,3.31c-4.05,7.55-6.84,1.76-10.32,4.28.41,4,2.25-1.39,2.44,3.44a7.32,7.32,0,0,1-4.15-2.14,7.67,7.67,0,0,0,.45-1c-.58-2.83-1.83-.72-2.67-1.43l-.21-.27a1.27,1.27,0,0,0,.21.27,23.84,23.84,0,0,0,2.22,2.4c-.48.84-.88.81-1.3.29a8.43,8.43,0,0,0,.63,3.09,7.09,7.09,0,0,1,1.4.65c-.77.11-1.64,1.13-2.54,2.9.82,1.7,1.84,2,2.74,3l-1.77.68a16,16,0,0,0-2.58-2.3l.12-.13-.22.06a5.66,5.66,0,0,0-1.07-.54c-.36.09-.8,1-1.28,2.15l-.17,0a3.54,3.54,0,0,0,.18-1.86c-.6-2.28-2,1.33-2.62-1.76-.17-.81-.57-.44-1,.12,0-.56-.13-.22-.24.32l-.3.37c-.21.06-.42.06-.68.58a1.69,1.69,0,0,0,.68-.58.67.67,0,0,0,.25-.13,4.55,4.55,0,0,1-.39,1.39c1.32.69,2.66,1.7,4.15,1.55-.16.59-.35,1.17-.45,1.56.21-.55.42-1.09.62-1.59a3.39,3.39,0,0,0,1.51-.67,11,11,0,0,0-.61,1.87c1.28.53,2.7.11,4.13-.44a31.81,31.81,0,0,0,3.4,3.38,7.8,7.8,0,0,0-1.63-4.06c2-.72,4-1,5.61,1.41-.66,2.6-1.36,4.41-2,7.83-.19,1.68.35,2.34-.12,3.28-1.88,4.55-2.29.24-4,9.61-.42,2.55-.07,11.76-.77,13.57a6.54,6.54,0,0,1-2.12,2,1.24,1.24,0,0,0-.63-.51c0-.18-.12.35-.26.94-.87.31-1.66.27-2-.35-.13-.24-.27-.46-.4-.67,0-.53,0-1.21,0-2.08a12.5,12.5,0,0,1-.48,1.44,8,8,0,0,0-1.13-1.27c-.14-.84-.26-1.79-.4-2.5-.07.6-.13,1.4-.25,2a6.74,6.74,0,0,0-1.48-.81,23.29,23.29,0,0,1-.15-3.53c-1.21,5.19-2.11,1.76-3.1,2.42l0,.19a10.55,10.55,0,0,1-1.34-.45c0-.52,0-1.13,0-1.83-.23.87-.35.91-.46,1.34A16.18,16.18,0,0,1,339,311a15,15,0,0,1-.56,2.17.59.59,0,0,0-.71-.08,8.91,8.91,0,0,1-.73-.76,18.8,18.8,0,0,1-2.28-4c.05-.68.15-1.53.24-2.37-.27,1.07-.36.18-.56.77.06-.29.12-.62.17-1.07-.59,1.36-.41-.71-.7-1.45a9.88,9.88,0,0,0-.38,1.09l-.09-.25c0-3.83-.53-2.62-1-2.79-.35-1-.7-2.06-1-3.1C331.08,298.39,331.24,295.91,331.18,294.3Z" transform="translate(0 -0.42)"/><path class="cls-3" d="M342.7,312.78c-.33-.9-.66-1.83-1-2.78C342.17,310.17,342.75,309,342.7,312.78Z" transform="translate(0 -0.42)"/><path class="cls-3" d="M353.85,320.17a24.87,24.87,0,0,0,.15,3.54,27,27,0,0,0-3.27-.92l0-.2C351.75,321.93,352.65,325.36,353.85,320.17Z" transform="translate(0 -0.42)"/><path class="cls-3" d="M343.71,314.46c0,.21-.09.38-.14.56h0A4.66,4.66,0,0,1,343.71,314.46Z" transform="translate(0 -0.42)"/><path class="cls-3" d="M359.93,288.12l.1.07a6.52,6.52,0,0,1-.93.86C359.4,288.42,359.67,288.22,359.93,288.12Z" transform="translate(0 -0.42)"/><path class="cls-3" d="M362.61,290.49c.59-.23,1.19-.47,1.78-.68a7.85,7.85,0,0,1,1.62,4.06A33.78,33.78,0,0,1,362.61,290.49Z" transform="translate(0 -0.42)"/><path class="cls-3" d="M355.73,322.53c.15.71.27,1.67.4,2.51a7.47,7.47,0,0,0-.64-.53C355.6,323.93,355.66,323.13,355.73,322.53Z" transform="translate(0 -0.42)"/><path class="cls-3" d="M357.42,289.75l.17,0c-.21.51-.42,1-.63,1.6C357.06,290.92,357.26,290.34,357.42,289.75Z" transform="translate(0 -0.42)"/><path class="cls-3" d="M357.7,326.94c-.15-.23-.29-.44-.44-.64a11.86,11.86,0,0,0,.48-1.44C357.69,325.74,357.68,326.42,357.7,326.94Z" transform="translate(0 -0.42)"/><path class="cls-3" d="M360.38,327a1.21,1.21,0,0,1,.63.5,5.56,5.56,0,0,1-.89.43C360.26,327.37,360.37,326.84,360.38,327Z" transform="translate(0 -0.42)"/><path class="cls-4" d="M209.1,283.06c.26-1.37.53-1.05.77-1.53-.09.19-.19.38-.29.57.15-.28.27.32.42,1.72-.05,1.74-.14.37-.16,2.7-.36.06-.72-2.81-1.06-5.37C208.92,275.8,209,283.25,209.1,283.06Z" transform="translate(0 -0.42)"/><path class="cls-4" d="M210.39,286.43a.21.21,0,0,1-.1.12C210.32,286.31,210.36,286.13,210.39,286.43Z" transform="translate(0 -0.42)"/><path class="cls-4" d="M206.75,305a3.11,3.11,0,0,1-.12.66C206.67,305.13,206.71,305.11,206.75,305Z" transform="translate(0 -0.42)"/><path class="cls-4" d="M208.63,295.82c0,.42,0,.75-.06,1-.16-.58-.33-1.3-.5-2.11C208.26,295.33,208.45,293.07,208.63,295.82Z" transform="translate(0 -0.42)"/><path class="cls-4" d="M208.81,300.74c.17-.22.33.69.49,3.06A12.14,12.14,0,0,0,208.81,300.74Z" transform="translate(0 -0.42)"/><path class="cls-4" d="M205.51,332.43c0,.45,0,.79,0,1.08,0,.12,0,.3,0,.57-.07-.61-.14-1.23-.2-1.88,0-.24,0-1.09.05-1.12C205.41,331.78,205.43,333.86,205.51,332.43Z" transform="translate(0 -0.42)"/><path class="cls-4" d="M206.8,304.86v-.24c0-.12,0-.24,0-.35a.61.61,0,0,1,0,.14C206.83,304.64,206.81,304.78,206.8,304.86Z" transform="translate(0 -0.42)"/><path class="cls-4" d="M205.59,332.68c0,.85,0,1.71,0,2.39,0-.32-.07-.65-.11-1,0-.18,0-.36,0-.57C205.53,332.91,205.57,333.78,205.59,332.68Z" transform="translate(0 -0.42)"/><path class="cls-4" d="M206.46,339.45c0-.05,0-1.79,0-2.23.07,1.14.13,2.28.2,3,0-.44,0-.48.06-1.38,0,.7,0,1.3,0,1.83a4.21,4.21,0,0,1-.5-1.21C206.36,339.3,206.41,339.26,206.46,339.45Z" transform="translate(0 -0.42)"/><path class="cls-4" d="M202.54,315c.22-1.27.47,3.31.68-1.34a85.69,85.69,0,0,1-.63-11.45c0-7.54.34-.67.53-1.05l-.05-1.6c0,.8.05,1.6.08.71-.05-1.6-.15-3.09-.18-5.57l0-1.79c-.13-5.65-.37-6.87-.5-12.53.63,18.2,1.52,10.53,2.3,9,.43-2.54.83-9.26,1.21-16.77.07-1,.24-.47.36.13a46.86,46.86,0,0,0,.65-5.51c.46-3.43.9.77,1.39-.19a85.48,85.48,0,0,1,0,9.33c-.2,2.53-.4,3.51-.6,3.55,0-2.33.12-1,.16-2.7-.15-1.4-.27-2-.42-1.72l.3-.57c-.25.48-.51.17-.78,1.53-.1.2-.18-7.25-.32-1.91.35,2.56.7,5.44,1.06,5.37v.17c.15-.31.3,0,.45-.13,0,.32-.1.75-.14.35a6.75,6.75,0,0,0,.66,2.92c-.62,8-1.31,2.58-1.93,5.51.17,3.89.41-1.65.56,3.12-.29,0-.57-.58-.87-1.63,0-.26,0-.58.07-1-.19-2.74-.38-.49-.57-1.1,0-.08,0-.15,0-.24a2.35,2.35,0,0,0,0,.24c.17.81.34,1.53.5,2.11-.07.9-.15.92-.25.46.05,1.59.13,2.29.2,3a1.47,1.47,0,0,1,.29.48,12.68,12.68,0,0,0-.43,3.19A14.42,14.42,0,0,0,207,300c-.11.28-.22.6-.33.89a17.23,17.23,0,0,0-.57-2l0-.15a.93.93,0,0,0-.05.1,1.5,1.5,0,0,0-.22-.41,15.05,15.05,0,0,0-.2,2.29l0,0a18.31,18.31,0,0,0,0-1.86c-.18-2.19-.37,1.56-.57-1.43,0-.78-.12-.37-.19.25,0-.55,0-.21,0,.34,0,.14,0,.27-.05.4s-.08.12-.12.67a3.41,3.41,0,0,0,.12-.67.5.5,0,0,0,.05-.15c0,.63,0,1.38,0,1.42.28.52.56,1.37.86,1,0,.61-.05,1.21-.06,1.61,0-.57.06-1.13.09-1.65a2.7,2.7,0,0,0,.28-.85c0,.43-.05,1-.08,1.93.27.37.54-.22.81-.94.25,1.06.5,2.2.75,2.94A23.73,23.73,0,0,0,207,300c.38-1,.77-1.5,1.15.71-.07,2.67-.17,4.56-.21,8,0,1.69.13,2.29,0,3.28-.26,4.74-.44.51-.55,10,0,2.58.27,11.68.18,13.56a15.82,15.82,0,0,1-.37,2.27,1,1,0,0,0-.14-.43c0-.18,0,.36,0,1-.16.42-.32.48-.4-.1,0-.22-.07-.42-.1-.62,0-.52,0-1.19,0-2.06,0,.66,0,1.14-.06,1.48-.09-.45-.17-.82-.26-1.11,0-.82-.09-1.75-.13-2.44,0,.6,0,1.4,0,2a2.21,2.21,0,0,0-.31-.62c0-.78-.08-1.89-.11-3.49-.12,5.3-.38,2-.56,2.78v.2a1.45,1.45,0,0,1-.27-.28c0-.52,0-1.13,0-1.83,0,.89,0,.95-.06,1.39-.07-.7-.13-1.85-.2-3,0,.44,0,2.18,0,2.23-.05-.19-.1-.14-.14,0-.06-.2-.11-.42-.17-.67-.18-.92-.36-2.2-.55-3.71v-2.38c0,1.09-.07.22-.1.82,0-.28,0-.62,0-1.08-.08,1.43-.1-.65-.17-1.35,0,0,0,.88-.05,1.13l0-.24c-.08-3.8-.16-2.53-.26-2.64-.09-1-.18-2-.28-3C202.62,319.09,202.59,316.61,202.54,315Z" transform="translate(0 -0.42)"/><path class="cls-4" d="M205.26,332c-.08-.86-.17-1.74-.26-2.64C205.1,329.44,205.18,328.16,205.26,332Z" transform="translate(0 -0.42)"/><path class="cls-4" d="M207.64,338c0,1.59.08,2.72.12,3.49a2.21,2.21,0,0,0-.67-.52v-.19C207.27,340,207.53,343.24,207.64,338Z" transform="translate(0 -0.42)"/><path class="cls-4" d="M205.5,333.51c0,.21,0,.39,0,.57h0C205.49,333.81,205.5,333.63,205.5,333.51Z" transform="translate(0 -0.42)"/><path class="cls-4" d="M208.07,305.4l0,.05c-.05.39-.11.72-.16,1A3.54,3.54,0,0,1,208.07,305.4Z" transform="translate(0 -0.42)"/><path class="cls-4" d="M208.66,307.43c.11-.3.22-.62.33-.9a23.9,23.9,0,0,1,.42,3.83C209.16,309.61,208.91,308.47,208.66,307.43Z" transform="translate(0 -0.42)"/><path class="cls-4" d="M208.07,340.06c.05.69.1,1.62.14,2.44a3.27,3.27,0,0,0-.14-.44C208.08,341.47,208.07,340.67,208.07,340.06Z" transform="translate(0 -0.42)"/><path class="cls-4" d="M207.61,307.32l0-.05c0,.52-.06,1.09-.09,1.66C207.57,308.52,207.6,307.92,207.61,307.32Z" transform="translate(0 -0.42)"/><path class="cls-4" d="M208.57,344.2c0-.21-.07-.4-.1-.58,0-.34,0-.83.06-1.49C208.54,343,208.55,343.68,208.57,344.2Z" transform="translate(0 -0.42)"/><path class="cls-4" d="M209.1,344a1,1,0,0,1,.14.43,4.8,4.8,0,0,1-.17.53A7.73,7.73,0,0,1,209.1,344Z" transform="translate(0 -0.42)"/></g></g></svg>