<svg xmlns="http://www.w3.org/2000/svg" viewBox="0 0 62.29 58.5"><defs><style>.cls-1{fill:#3148a1;}</style></defs><title>Asset 10</title><g id="Layer_2" data-name="Layer 2"><g id="Layer_1-2" data-name="Layer 1"><path class="cls-1" d="M45,0H41.72A1.31,1.31,0,0,0,40.6.82L26.93,39.47,13.21.82A1.28,1.28,0,0,0,12.09,0H8.85a.54.54,0,0,0-.6.49A.7.7,0,0,0,8.3.82l16,45.2a1.11,1.11,0,0,0,.17.3l-1.73,4.89L5,.83A1.29,1.29,0,0,0,3.84,0H.6a.55.55,0,0,0-.6.5A.59.59,0,0,0,.06.83L20.14,57.61a1.22,1.22,0,0,0,.33.48.54.54,0,0,0,.57.39h3.25a1,1,0,0,0,.37-.07.56.56,0,0,0,.29-.16,1.29,1.29,0,0,0,.46-.59L45.51.82a.58.58,0,0,0-.24-.76A.56.56,0,0,0,45,0Z"/><path class="cls-1" d="M61.69,0H58.45a1.29,1.29,0,0,0-1.12.82L37.23,57.68a.57.57,0,0,0,.24.76.52.52,0,0,0,.3.06H41a1.29,1.29,0,0,0,1.12-.82L62.23.82A.57.57,0,0,0,62,.06.52.52,0,0,0,61.69,0Z"/><path class="cls-1" d="M41.63,32.9H38.39a1.29,1.29,0,0,0-1.12.82l-8.47,24a.57.57,0,0,0,.24.76.51.51,0,0,0,.3.06h3.25a1.3,1.3,0,0,0,1.11-.8l8.48-24a.57.57,0,0,0-.25-.75A.51.51,0,0,0,41.63,32.9Z"/><path class="cls-1" d="M39.65,29.26H42.9A1.31,1.31,0,0,0,44,28.44L53.79.8A.56.56,0,0,0,53.44,0H49.92a.75.75,0,0,0-.26,0,1.37,1.37,0,0,0-.59.42,1,1,0,0,0-.13.25L39.07,28.64A.54.54,0,0,0,39.65,29.26Z"/></g></g></svg>