<svg xmlns="http://www.w3.org/2000/svg" viewBox="0 0 776.78 67.93"><defs><style>.cls-1{fill:#3148a1;}</style></defs><title>Asset 3</title><g id="Layer_2" data-name="Layer 2"><g id="Layer_1-2" data-name="Layer 1"><path class="cls-1" d="M0,3.11H9.71l13.7,49,13.45-49H45.5L27.94,67H17.86Z"/><path class="cls-1" d="M67.38,67,90.17,3.11h10.12L123.82,67H114L107.91,50.8H83L77.31,67ZM85.63,43.46h20.53l-10-29.79Z"/><path class="cls-1" d="M154.66,67V3.11h9.23L191,50V3.11h9.44V67h-8.91L164.1,19.83V67Z"/><path class="cls-1" d="M237.76,67V3.11h24.59a27.39,27.39,0,0,1,15.28,4.26,26.72,26.72,0,0,1,9.85,11.48,39,39,0,0,1,3.31,16.38,39.17,39.17,0,0,1-1.94,12.58,30.88,30.88,0,0,1-5.52,10.08,24.62,24.62,0,0,1-9,6.71,29.17,29.17,0,0,1-12,2.42ZM247.19,59h15.19q9.06,0,14-6.62t5-17.11A33.75,33.75,0,0,0,279.28,23a18.9,18.9,0,0,0-6.45-8.61,17.1,17.1,0,0,0-10.45-3.24H247.19Z"/><path class="cls-1" d="M313,3.11H323.9l17.26,26.28L358.64,3.11h10.93L345.78,37.62h.1V67h-9.43V37.62Z"/><path class="cls-1" d="M392.66,0a10.7,10.7,0,0,1,10.66,10.79,10.66,10.66,0,1,1-21.31,0A10.69,10.69,0,0,1,392.66,0Zm0,19.82a8.93,8.93,0,0,0,8.93-9,8.94,8.94,0,1,0-17.87,0A8.93,8.93,0,0,0,392.66,19.82Zm1.43-7.5A3.24,3.24,0,0,0,396.71,9a3.22,3.22,0,0,0-3.35-3.41H389.3V16.25H391V12.38h1.13l2.78,3.87h2Zm-.73-5.06a1.74,1.74,0,0,1-.06,3.47H391V7.26Z"/><path class="cls-1" d="M419.3,67V3.11h9.43v28.4h29V3.11h9.44V67h-9.44V39.21h-29V67Z"/><path class="cls-1" d="M497.16,67,520,3.11h10.11L553.6,67h-9.85L537.68,50.8H512.81L507.08,67ZM515.4,43.46h20.54l-10-29.79Z"/><path class="cls-1" d="M587.71,59.09q-8.51-8.84-8.5-23.86t8.5-23.94q8.5-8.89,22.09-8.9a30.12,30.12,0,0,1,13.29,2.9,29.29,29.29,0,0,1,10.24,8.19l-6.89,5.28q-6.84-8.31-16.64-8.31-9.6,0-15.38,6.64t-5.78,18.14q0,11.51,5.78,18.07t15.38,6.56q9.8,0,16.64-8.3l6.89,5.28A29.4,29.4,0,0,1,623.09,65a30.12,30.12,0,0,1-13.29,2.9Q596.21,67.93,587.71,59.09Z"/><path class="cls-1" d="M664.57,67V3.11H674V29.83L693.65,3.11h10.73l-23.9,32L709.36,67H697.69L674,41.16V67Z"/><path class="cls-1" d="M732.26,48.63h9.23a11.33,11.33,0,0,0,3.31,7.91c2.15,2.22,5.25,3.32,9.33,3.32s7.3-.91,9.57-2.73a9.66,9.66,0,0,0,3.81-6.69q.47-8.71-11-11.33L748.35,37q-15.58-4.07-15.58-16.38A16.79,16.79,0,0,1,738.5,7.46q5.73-5.07,15-5.07,8.91,0,14.75,5.12t5.83,13.59h-9.23a9.93,9.93,0,0,0-3.24-7.68,11.54,11.54,0,0,0-8.11-3q-5.55,0-8.53,2.75a9.26,9.26,0,0,0-3,7.14q0,6.21,9.18,8.49l8,1.87Q777.71,35,776.73,50.9a17.4,17.4,0,0,1-1.94,6.42,18.88,18.88,0,0,1-4.3,5.41,19.79,19.79,0,0,1-7,3.79,29.56,29.56,0,0,1-9.41,1.41,25.41,25.41,0,0,1-9.4-1.66,19,19,0,0,1-6.9-4.41,20.11,20.11,0,0,1-4.1-6.16A18.72,18.72,0,0,1,732.26,48.63Z"/></g></g></svg>