<?xml version="1.0" encoding="UTF-8" standalone="no"?>
<svg
   xmlns:dc="http://purl.org/dc/elements/1.1/"
   xmlns:cc="http://creativecommons.org/ns#"
   xmlns:rdf="http://www.w3.org/1999/02/22-rdf-syntax-ns#"
   xmlns:svg="http://www.w3.org/2000/svg"
   xmlns="http://www.w3.org/2000/svg"
   xmlns:sodipodi="http://sodipodi.sourceforge.net/DTD/sodipodi-0.dtd"
   xmlns:inkscape="http://www.inkscape.org/namespaces/inkscape"
   viewBox="0 0 634.87 403.33"
   version="1.1"
   id="svg5222"
   sodipodi:docname="bottomright.svg"
   inkscape:version="0.92.4 (5da689c313, 2019-01-14)">
  <metadata
     id="metadata5226">
    <rdf:RDF>
      <cc:Work
         rdf:about="">
        <dc:format>image/svg+xml</dc:format>
        <dc:type
           rdf:resource="http://purl.org/dc/dcmitype/StillImage" />
      </cc:Work>
    </rdf:RDF>
  </metadata>
  <sodipodi:namedview
     pagecolor="#ffffff"
     bordercolor="#666666"
     borderopacity="1"
     objecttolerance="10"
     gridtolerance="10"
     guidetolerance="10"
     inkscape:pageopacity="0"
     inkscape:pageshadow="2"
     inkscape:window-width="1806"
     inkscape:window-height="1051"
     id="namedview5224"
     showgrid="false"
     inkscape:zoom="1.0679352"
     inkscape:cx="296.3663"
     inkscape:cy="238.13634"
     inkscape:window-x="105"
     inkscape:window-y="-9"
     inkscape:window-maximized="1"
     inkscape:current-layer="svg5222" />
  <defs
     id="defs5084">
    <style
       id="style5082">.cls-1{fill:#fff;}.cls-2{fill:#3148a1;}.cls-3{fill:#f5e461;}.cls-4{fill:#b1d0fe;}</style>
    <clipPath
       clipPathUnits="userSpaceOnUse"
       id="clipPath5776">
      <rect
         style="fill:#3148a1;fill-opacity:0.00995023"
         id="rect5778"
         width="635.8064"
         height="302.45282"
         x="0"
         y="-0.25256217" />
    </clipPath>
  </defs>
  <title
     id="title5086">Asset 8</title>
  <g
     id="Layer_2"
     data-name="Layer 2"
     clip-path="url(#clipPath5776)"
     transform="translate(-0.00553767,101.12973)">
    <g
       id="Layer_1-2"
       data-name="Layer 1">
      <path
         class="cls-1"
         d="m 435.45,93.16 c -7.31,5.19 5.21,-1.59 0.52,1 l -4,2.8 -4,2.88 -8,5.75 c 6.41,-4.88 4.25,-5.11 3.48,-5.56 -0.38,-0.23 -0.42,-0.51 1.16,-1.46 a 117.71,117.71 0 0 1 10.84,-5.41 z"
         transform="translate(0,-1.16)"
         id="path5088"
         inkscape:connector-curvature="0"
         style="fill:#ffffff" />
      <path
         class="cls-1"
         d="m 414.31,116.84 -2.29,3 c -2.36,1.2 -6,2.86 -8.26,3.77 -2.26,0.91 -3.33,0.88 -0.61,-1.44 a 61.07,61.07 0 0 0 11.16,-5.33 z"
         transform="translate(0,-1.16)"
         id="path5090"
         inkscape:connector-curvature="0"
         style="fill:#ffffff" />
      <path
         d="m 446.42,131.05 -6.3,2.73 c 3,-1.68 3.56,-4.1 8.22,-6.32 z"
         transform="translate(0,-1.16)"
         id="path5092"
         inkscape:connector-curvature="0" />
      <path
         d="m 398.87,168.92 a 9.39,9.39 0 0 0 -2.5,-1.73 3.62,3.62 0 0 1 2.74,-1.61 18.45,18.45 0 0 1 6.23,0.44 l 3.88,2.29 a 29.1,29.1 0 0 1 3.72,2.68 12.66,12.66 0 0 1 1.27,1.29 c 0.17,0.2 0.32,0.39 0.45,0.56 a 3.89,3.89 0 0 1 0.28,0.52 c 0.3,0.62 0.22,1 -0.39,1.11 l -0.68,-0.58 a 2.67,2.67 0 0 0 -0.41,1.48 c 0,0.32 -0.07,0.69 -0.07,1 0,0.31 0,0.74 0,1.11 a 10.77,10.77 0 0 0 0.68,4.31 c 0.7,0.2 1.41,-0.48 2.29,-1 a 2.13,2.13 0 0 1 1.47,-0.31 3.27,3.27 0 0 1 1.9,1.48 c 0.77,2.59 0.52,6.29 -0.73,10.14 a 40.37,40.37 0 0 1 -5.53,10.9 c 0.23,2.57 0.4,5.15 0.49,7.75 a 34.07,34.07 0 0 1 -5.69,8 l -2.63,2.57 c -0.93,0.82 -1.84,1.76 -2.9,2.84 0.41,-1.49 0.77,-3 1.12,-4.49 -1.37,1 -2.32,0.55 -3.61,1 a 6.56,6.56 0 0 0 -2.3,1.46 36.88,36.88 0 0 0 -3.56,4.06 l -1,2.06 -0.9,1.67 a 27.79,27.79 0 0 1 -1.77,2.79 c -0.6,0.93 -1.36,1.74 -2.24,2.84 -0.88,1.1 -2,2.23 -3.51,3.61 -0.59,0.22 -1.2,0.43 -1.83,0.65 -0.63,0.22 -1.26,0.52 -1.87,0.75 -0.61,0.23 -1.21,0.43 -1.81,0.69 -0.6,0.26 -1.28,0.44 -1.92,0.71 a 63.59,63.59 0 0 1 -8.55,2.61 33.19,33.19 0 0 1 -9,0.8 19.61,19.61 0 0 1 -7.28,-1.69 8.81,8.81 0 0 1 -7.35,-2 17.19,17.19 0 0 1 -5,-7.57 56.07,56.07 0 0 1 -2.3,-9.74 26.09,26.09 0 0 0 -2.64,-8.59 c 0.89,-4.74 2,-8.34 2.73,-11.32 0.22,-0.74 0.43,-1.43 0.6,-2.1 0.17,-0.67 0.31,-1.33 0.5,-1.93 0.37,-1.21 0.5,-2.34 0.85,-3.5 0.56,-2.42 1,-4.52 1.55,-6.75 0.32,-1.13 0.64,-2.32 1.07,-3.58 0.43,-1.26 1,-2.59 1.68,-4 3.64,-2.81 4.79,-2.77 4.44,-1.47 a 17,17 0 0 1 -1.31,2.88 c -0.69,1.19 -1.43,2.62 -2.23,4.07 -0.42,0.71 -0.74,1.49 -1.12,2.22 -0.38,0.73 -0.74,1.45 -1,2.17 a 22.87,22.87 0 0 0 -1.28,3.75 c -0.45,2.07 -0.15,3 1.64,1.64 a 92.3,92.3 0 0 1 11.2,-13.89 151,151 0 0 1 14.95,-13.39 c 5.54,-4.35 11.46,-8.62 17.69,-12.81 l 9.37,-6.16 c 1.56,-1 3.11,-2 4.68,-3 l 4.73,-2.86 c 5.05,-5.9 -7.21,-1.39 5.58,-10 -3.56,3.94 2.61,3.19 7.34,0.48 -5.33,2.71 -0.48,-1.06 -0.3,-2.09 l -4,1.79 c -2.85,-1.72 1.7,-4.24 7.86,-7.29 l 4.83,-2.38 c 1.67,-0.81 3.35,-1.62 4.95,-2.47 a 33.65,33.65 0 0 0 8,-5.4 c 5,-0.58 -4.78,2.67 -4.51,4.75 0.74,1.1 2.48,1.77 5.62,1.41 a 32.48,32.48 0 0 0 5.81,-1.35 73.36,73.36 0 0 0 8.27,-3.22 121.64,121.64 0 0 1 16.75,-9.98 c 5.5,-2.82 11.08,-5 16.7,-7.3 l 4.25,-1.69 4.34,-1.64 q 4.37,-1.66 8.9,-3.5 c 3,-1.27 6.16,-2.48 9.37,-3.89 3.21,-1.41 6.51,-2.92 10,-4.59 -2.13,-1.47 6.14,-3.94 10.55,-6.15 -5,4.19 7.1,1.47 12.73,-0.31 6.22,-3.81 5.64,-8.22 16.42,-11.85 L 557,68 c -2.11,0.51 -6.58,2.7 -11.4,5.14 -2.4,1.24 -4.89,2.53 -7.19,3.79 l -6.11,3.42 c -1.57,-0.59 -4.52,0.18 -8,1.55 -3.48,1.37 -7.58,3.46 -11.43,5.34 -1.92,0.94 -3.79,1.85 -5.51,2.62 a 45.27,45.27 0 0 1 -4.55,1.9 c -2.61,0.86 -4.24,0.78 -4.11,-1 l 4.73,-1.31 a 61.77,61.77 0 0 0 11,-4.63 75.31,75.31 0 0 0 8.57,-5.75 c 2.71,-2 5.35,-4.11 8.22,-6.26 1.43,-1.08 2.93,-2.17 4.52,-3.26 1.59,-1.09 3.32,-2.11 5.16,-3.15 13.22,-3.44 18.61,-2 27.84,-2.92 10.52,-2.6 12.71,-5.12 17.63,-8.1 8.6,-4 13.66,-3.59 19.07,-4.12 3.07,-1.19 -1.76,-0.54 1.33,-1.73 4.26,-0.84 9.09,-1.49 12.16,-2.69 0.4,-4.18 -16.89,1.15 -27.48,3.58 2.48,-1.42 2.85,-2.39 6.52,-3.49 3.07,-1.26 2.7,-0.29 3.3,-0.12 2.06,-0.84 4.14,-1.62 6.2,-2.43 -0.2,-1.14 -2.19,-2.81 6.18,-5.65 1.9,0.23 3.78,0.42 5.68,0.67 16.94,-4.19 23.6,-11.85 1.76,-5.9 l -1.19,2.86 c -3.63,0.44 -7.23,1 -10.85,1.52 -3.62,0.52 -7.26,1 -10.87,1.61 -2,-0.58 0.21,-1.87 3,-3.18 2.79,-1.31 6,-2.77 5.78,-3.91 1.08,-1.84 -3,-1.69 -8.3,-0.85 -5.3,0.84 -11.9,2.6 -15.93,3.62 -7.58,4.33 5.77,0.5 11.63,-1.07 L 584.07,42 c -3.1,1.27 -8,2.19 -8.22,1 -4,0.06 -1,-4.53 -7.2,-1.85 -4.65,1.47 -6.92,2.53 -8,3.34 -1.08,0.81 -0.89,1.33 -0.62,1.86 0.53,1.06 1.47,2.09 -6,5.08 5.68,2.31 31.3,-6.11 40.14,-6.64 l 6.77,-2.36 c 3.53,1 -10.79,4.42 -0.13,2.1 a 83.26,83.26 0 0 1 -13.62,5.31 c -4.92,1.51 -10.07,2.9 -15.18,4 l -7.54,1.59 c -2.47,0.51 -4.87,1 -7.17,1.38 l -12.17,2.1 c -1.15,-2.39 -15.75,0.79 -6.26,-6.67 A 56.31,56.31 0 0 1 531,54 a 34.68,34.68 0 0 0 -9.2,3.2 c -2.42,1.63 -4.71,3 -6.91,4.28 -2.2,1.28 -4.25,2.38 -6.27,3.34 a 112,112 0 0 1 -11.51,4.71 c -3.71,1.38 -7.38,2.64 -11.24,4.17 -1.93,0.77 -3.93,1.57 -6,2.55 -2.07,0.98 -4.15,2.08 -6.36,3.35 2.71,-0.67 -0.5,2 -0.7,3 a 48.33,48.33 0 0 1 -7.45,2.6 7.12,7.12 0 0 1 -3.66,0.21 c -1.5,-0.49 -1.42,-2 -1.57,-3.27 -0.15,-1.27 -0.54,-2.26 -3,-1.68 a 28.06,28.06 0 0 0 -5.48,2.23 111.27,111.27 0 0 0 -9.91,5.64 C 436,92 433.5,94.86 436,95.09 c 2.37,-0.81 4.85,-1.35 7.55,-2.26 a 37.78,37.78 0 0 0 9,-4.39 c 0.42,1.08 11.81,-4.86 6.17,0.73 a 83,83 0 0 0 -10.38,5.64 c -2.95,1.91 -5.53,3.8 -8,5.63 -5,3.62 -9.48,7.19 -16,10.28 l -3.17,3.88 c -4.79,2.81 -15.51,11.36 -22.65,14.22 -19.44,10.53 -0.7,-4.16 -1,-6.25 -5.4,2.88 -10.81,5.75 -16.13,8.79 a 58.62,58.62 0 0 1 -11.83,8.83 c -4,2.31 -8,4.14 -11.84,6.07 a 68.69,68.69 0 0 0 -11.14,6.59 33.73,33.73 0 0 0 -9.15,10.2 l 0.53,-2.27 c 3.39,-4.4 2,-4.68 -1.07,-3.17 A 38.65,38.65 0 0 0 326.55,166 c -1.17,1.83 -2.2,3.83 -3.26,5.72 a 22.73,22.73 0 0 1 -1.54,4.74 c -0.36,0.87 -0.74,1.81 -1.19,2.76 -0.45,0.95 -0.95,1.93 -1.42,3 -0.47,1.07 -1,2.14 -1.56,3.24 -0.56,1.1 -1.06,2.37 -1.62,3.61 -0.56,1.24 -1.07,2.52 -1.59,3.83 -0.26,0.66 -0.52,1.32 -0.79,2 -0.27,0.68 -0.46,1.36 -0.7,2 a 74.2,74.2 0 0 0 -3.85,17.5 54,54 0 0 0 1.09,17.18 16.83,16.83 0 0 1 0.24,4.49 c -0.08,0.3 -0.23,0.34 -0.44,0 a 5.28,5.28 0 0 1 -0.71,-1.88 c 0.06,0.5 0.09,1 0.17,1.5 l 0.27,1.5 0.56,3 c 0.2,1 0.53,2 0.79,3 0.26,1 0.55,2 0.9,3 a 53.88,53.88 0 0 0 5.65,11.61 13.76,13.76 0 0 1 3,1.44 23.63,23.63 0 0 1 2.78,1.94 c 1.75,1.54 3.67,3.21 5.74,5.17 l 3.44,2.82 c 1.23,0.95 2.59,1.79 4,2.7 a 43.12,43.12 0 0 0 4.61,2.32 40.66,40.66 0 0 0 5.21,1.64 c 1.3,0.07 2.49,0.06 3.59,0.05 h 1.59 l 1.48,-0.16 a 50.06,50.06 0 0 0 5.43,-0.87 l 2.75,-0.54 c 0.95,-0.23 1.94,-0.46 3,-0.69 l 1.66,-0.35 1.78,-0.45 c 1.24,-0.3 2.59,-0.58 4.05,-1 a 49.71,49.71 0 0 0 20.47,-5.08 c 1.45,-0.78 2.9,-1.54 4.25,-2.36 1.35,-0.82 2.62,-1.67 3.85,-2.57 1.23,-0.9 2.42,-1.8 3.55,-2.76 1.13,-0.96 2.26,-1.91 3.31,-2.92 a 125,125 0 0 0 11.68,-12.76 c 3.69,-4.53 7.34,-9.31 11.4,-14.58 -0.58,-2.66 0.6,-7.62 0.69,-10.76 0.06,-1.56 -0.17,-2.68 -0.9,-2.82 -0.73,-0.14 -2,0.7 -4.22,2.9 0.8,-1.39 1.62,-2.77 2.37,-4.16 0.75,-1.39 1.53,-2.78 2.25,-4.18 1.49,-2.78 2.88,-5.6 4.16,-8.49 2.49,-5.78 4.57,-12 4.85,-18.84 a 36,36 0 0 0 -5.24,-20.28 43.79,43.79 0 0 0 -15.55,-14.74 53.65,53.65 0 0 0 -6,-1 c -2.27,1.07 -5.81,2.17 -9.27,3.77 a 34.34,34.34 0 0 0 -9.09,5.68 c -2.28,2.16 -3.45,4.42 -2.82,6.57 a 6.76,6.76 0 0 0 2.33,3.18 30.66,30.66 0 0 0 5.14,3.3 z"
         transform="translate(0,-1.16)"
         id="path5094"
         inkscape:connector-curvature="0" />
      <path
         d="m 609.75,56.88 c -3.46,1 -6.87,2.21 -10.3,3.34 l 1.75,0.51 c 4.43,0.27 3.37,-2.25 8.55,-3.85 z"
         transform="translate(0,-1.16)"
         id="path5096"
         inkscape:connector-curvature="0" />
      <path
         class="cls-1"
         d="m 189.89,160.15 a 95.6,95.6 0 0 0 -12.57,8.78 c -2.84,2.53 -3.55,4.2 0.1,3.48 6.69,-2.76 12.18,-6 17.89,-8.83 2.85,-1.44 5.69,-2.88 8.75,-4.12 a 80.47,80.47 0 0 1 9.84,-3.27 c -0.52,-1.35 -5.12,-0.59 -10.32,0.59 -5.2,1.18 -10.87,2.99 -13.69,3.37 z"
         transform="translate(0,-1.16)"
         id="path5098"
         inkscape:connector-curvature="0"
         style="fill:#ffffff" />
      <path
         d="m 403.24,109.36 c -4.68,2.82 -9.25,5.82 -13.87,8.75 l 4.36,0.17 c 12.1,-5.75 1.83,-4.13 9.51,-8.92 z"
         transform="translate(0,-1.16)"
         id="path5100"
         inkscape:connector-curvature="0" />
      <path
         class="cls-1"
         d="m 152.69,211.07 c 0.67,1.29 -1.78,4.19 4.09,0.34 2.75,-2.32 5.48,-4.69 8.27,-7 -1.28,1.38 -16.49,6.31 -12.36,6.66 z"
         transform="translate(0,-1.16)"
         id="path5102"
         inkscape:connector-curvature="0"
         style="fill:#ffffff" />
      <path
         class="cls-1"
         d="m 123.59,234 3.73,2.84 c 4,-3.3 6.09,-6.55 10.93,-8.48 a 33.34,33.34 0 0 1 -7,2.08 21.58,21.58 0 0 0 -7.66,3.56 z"
         transform="translate(0,-1.16)"
         id="path5104"
         inkscape:connector-curvature="0"
         style="fill:#ffffff" />
      <path
         class="cls-1"
         d="m 190.08,200.16 c -9.58,2.06 -13.77,5.51 -17.53,8.7 a 30.69,30.69 0 0 1 -6.08,4.26 26.34,26.34 0 0 1 -9.42,2.64 c -2.45,1.42 -4.46,2.67 -6.09,3.77 a 39.81,39.81 0 0 0 -3.81,2.91 c -1.86,1.66 -2.47,2.8 -2.28,3.6 0.38,1.59 3.95,1.85 7.06,2.24 3.76,-2 3.19,-3.13 3.09,-4.72 -0.1,-1.59 0.26,-3.65 6.12,-7.44 4,-1.64 8.48,-3.42 12.24,-4.59 3.76,-1.17 6.83,-1.78 8.16,-1 20.46,-9.14 -1.85,-3.91 8.54,-10.37 z"
         transform="translate(0,-1.16)"
         id="path5106"
         inkscape:connector-curvature="0"
         style="fill:#ffffff" />
      <path
         class="cls-1"
         d="m 128.87,242.63 c 2.88,-1.75 5.76,-3.49 8.71,-5.16 -1.94,0 -3.91,0 -5.86,0.05 z"
         transform="translate(0,-1.16)"
         id="path5108"
         inkscape:connector-curvature="0"
         style="fill:#ffffff" />
      <path
         class="cls-1"
         d="m 195.35,211.72 7.06,-5.13 -7.11,3 c -2.36,1 -4.71,2.06 -7.07,3.09 z"
         transform="translate(0,-1.16)"
         id="path5110"
         inkscape:connector-curvature="0"
         style="fill:#ffffff" />
      <path
         class="cls-1"
         d="m 180.61,228.35 6.12,-3 c 4.11,-3.14 6.57,-5.87 1.5,-4.71 -7.53,3.98 -5.03,5.26 -7.62,7.71 z"
         transform="translate(0,-1.16)"
         id="path5112"
         inkscape:connector-curvature="0"
         style="fill:#ffffff" />
      <path
         d="m 338.57,147.06 q -4.21,-0.75 -8.78,-1.41 c -3,-0.36 -6.16,-0.62 -9.4,-0.88 l -4.93,-0.34 c -1.67,-0.06 -3.34,-0.09 -5,-0.12 -3.41,0 -6.92,-0.09 -10.48,0 a 261.71,261.71 0 0 0 -45.37,5.53 c -2.7,1.58 -5.45,3.17 -8.33,4.75 -2.88,1.58 -5.84,3.32 -9,5 -3.31,0.54 -6.59,1.19 -9.87,1.84 -3.28,0.65 -6.6,1.26 -9.87,2 a 239.63,239.63 0 0 0 -27.71,12.77 c -8.66,4.75 -16.08,9.89 -20.63,14.65 -3.52,0.92 -3.85,0.27 -7.38,1.19 -5.73,4.35 -19.13,9.59 -24.14,15.25 -4.29,1.46 -6.69,1.82 -8.77,1.82 a 36.82,36.82 0 0 0 -6.74,0.17 c -8,5.9 -18.2,11.06 -28.09,17 C 84.19,232.22 74.5,238.87 68,247 c -2.81,0.38 -5.44,2.07 -8,4.33 a 44.14,44.14 0 0 0 -3.74,3.93 c -1.21,1.44 -2.47,2.89 -3.62,4.48 -2.35,3.14 -4.75,6.26 -7.14,9.06 a 31.65,31.65 0 0 1 -3.82,3.71 17.77,17.77 0 0 1 -4.16,2.73 98.17,98.17 0 0 0 -18.84,27.62 c -1,2.28 -1.84,4.46 -2.58,6.5 a 57.52,57.52 0 0 0 -1.63,5.64 35.15,35.15 0 0 0 -0.77,4.62 12.51,12.51 0 0 0 0.18,3.29 c -0.51,-0.2 -0.71,-2.33 -1.4,-3.39 -0.69,-1.06 -1.88,-1 -4.42,3.23 -0.19,1 -0.57,2.38 -0.86,3.57 -0.29,1.19 -0.4,2.19 -0.23,2.25 -0.16,0.46 -0.75,1.8 -1.55,3.66 l -1.31,3.17 c -0.44,1.15 -0.86,2.41 -1.29,3.69 -1.84,5.1 -3,11 -2.79,14 0.18,2.49 0.65,3.31 1.28,2.87 a 13.86,13.86 0 0 1 1.63,-3.22 5.32,5.32 0 0 1 1.54,-1.59 c 1,-0.58 1.84,-0.21 2.62,0.85 a 9.93,9.93 0 0 1 1.11,2.08 c 0.35,0.84 0.68,1.83 1.08,2.94 0.76,2.23 1.48,4.91 2.19,7.81 0.89,2.93 1.73,6.08 2.64,9.24 l 1.58,4.75 c 0.54,1.57 1,3.12 1.65,4.62 l 1.79,4.37 0.86,2.05 c 0.34,0.65 0.66,1.3 1,1.92 q 1,1.88 1.83,3.48 a 27.06,27.06 0 0 0 1.71,2.88 c 0.87,2.11 1.65,4.29 2.48,6.36 a 253.22,253.22 0 0 1 -0.68,-27.29 c -0.48,0.78 -0.78,0.38 -1,-0.56 a 17.77,17.77 0 0 1 -0.4,-3.71 c -0.11,-2.63 -0.27,-4.71 -1.57,-0.71 a 14.44,14.44 0 0 0 0,2.46 19.92,19.92 0 0 1 0.11,2.44 l -0.7,2.87 c -0.2,1 -0.46,1.92 -0.57,2.88 l -0.88,5.83 c -1,-4.91 -0.95,-13.29 0,-21.18 0.06,-1 0.19,-2 0.34,-2.93 0.15,-0.93 0.25,-1.92 0.37,-2.85 0.23,-1.87 0.38,-3.67 0.63,-5.31 a 27.46,27.46 0 0 0 0.06,-8 46.23,46.23 0 0 1 3.2,-6.92 42.41,42.41 0 0 1 3.26,-4.63 41.07,41.07 0 0 1 3.25,-3.53 c 1.1,-1.11 2.2,-2.24 3.32,-3.55 3.81,-8.24 9.28,-16.58 14.87,-24.2 l 2.05,-2.86 2.13,-2.75 c 1.4,-1.81 2.66,-3.67 4,-5.37 1.34,-1.7 2.54,-3.46 3.7,-5.16 1.16,-1.7 2.31,-3.31 3.28,-5 5.93,-7 10.42,-10.32 13.86,-12.14 a 34.59,34.59 0 0 1 8.76,-2.77 47.69,47.69 0 0 1 5.09,-5 c 2,-1.68 4.17,-3.4 6.22,-5 2.05,-1.6 4,-3.08 5.48,-4.45 a 9.45,9.45 0 0 0 2.9,-3.52 59.57,59.57 0 0 1 9.13,-3.8 42.82,42.82 0 0 1 7.24,-1.69 c 4.31,-0.68 7.89,-0.53 11.58,-0.88 5.51,-2.17 8,-3.72 9.91,-5.4 1.91,-1.68 3.22,-3.6 6.52,-6.38 5.29,-2.66 7.95,-3.38 9.22,-3.25 1.27,0.13 1.24,1.16 1.28,2.12 0.04,0.96 0.16,1.83 1.77,1.7 1.61,-0.13 4.71,-1.28 10.77,-4.31 a 67.78,67.78 0 0 0 13.63,-7.81 c 3.82,-2.79 6.34,-5.37 5.86,-6.35 A 73.35,73.35 0 0 0 204,212.5 c 3,-1.23 6,-2.6 8.9,-3.83 2.9,-1.23 5.73,-2.46 8.38,-3.42 a 32.77,32.77 0 0 1 7.33,-1.74 34.31,34.31 0 0 1 6,-4.35 54.62,54.62 0 0 1 6.84,-3.28 c 1.19,-0.49 2.41,-0.95 3.65,-1.39 1.24,-0.44 2.52,-0.8 3.8,-1.18 2.56,-0.75 5.19,-1.45 7.84,-2.15 2.65,-0.7 5.34,-1.28 8,-2 2.66,-0.72 5.34,-1.49 8,-2.24 A 72,72 0 0 0 288,180.46 c 11.66,-2.82 21.88,-5.57 32,-8.59 10.11,-2.73 20.12,-5.71 31.31,-7.68 2.38,-3.38 2.7,-6.63 0.68,-9.57 a 14.74,14.74 0 0 0 -4.82,-4.16 31.17,31.17 0 0 0 -3.79,-1.86 49.74,49.74 0 0 0 -4.81,-1.54 z"
         transform="translate(0,-1.16)"
         id="path5114"
         inkscape:connector-curvature="0" />
      <path
         class="cls-1"
         d="m 569.24,115.9 c 0.3,1.16 0.93,0.63 0.7,0.83 l 0.52,2.4 c -0.68,-2.27 -3.57,-3.64 -1.22,-3.23 z"
         transform="translate(0,-1.16)"
         id="path5116"
         inkscape:connector-curvature="0"
         style="fill:#ffffff" />
      <path
         class="cls-1"
         d="m 574.41,124.83 0.77,1.24 a 2.72,2.72 0 0 1 -2,-1.62 c 0.6,0.43 0.99,0.55 1.23,0.38 z"
         transform="translate(0,-1.16)"
         id="path5118"
         inkscape:connector-curvature="0"
         style="fill:#ffffff" />
      <path
         class="cls-2"
         d="m 593.5,145.78 -0.78,-0.3 c 0.16,-0.13 -0.93,-1.59 -0.46,-1.51 z"
         transform="translate(0,-1.16)"
         id="path5120"
         inkscape:connector-curvature="0"
         style="fill:#3148a1" />
      <path
         class="cls-2"
         d="m 571.2,156.19 a 4.57,4.57 0 0 0 -0.78,-0.59 11.62,11.62 0 0 1 -2.14,-3.53 c 0.77,0.31 0.84,-1 2,0.69 v 0.14 c 1,1.13 3.2,3.07 3.24,2.36 -0.72,-1 -2.45,-2.48 -3.38,-4.33 0,-0.87 1.07,-0.74 2.57,0.31 l -1.91,-3 c 0.78,0 2,1.25 3,1.81 l 0.71,1.32 c 1,0.85 2.67,3.15 3.22,2.64 a 8.66,8.66 0 0 1 -0.87,-3 c 2.5,1.76 1.88,-1.15 3.17,-1.07 -2.84,-4.84 3.88,0.26 0,-5.43 2.07,0.1 -0.59,-3.34 -2,-6.27 3.26,2.06 1.82,4.57 4.55,6.86 2.08,-0.18 2.24,-2.92 3.84,-3.74 -1.18,-2.1 -3.43,-3.61 -3.11,-4.66 0.7,1.32 2.68,3.16 3,3 -0.52,-0.06 -0.74,-0.89 -1.22,-1.53 l -0.51,-0.2 c -3.9,-4.4 1.32,-0.35 -0.08,-3 1.48,1.34 -0.27,0.19 0.93,1.71 1.71,2 3.91,4.25 5.2,4.48 -0.84,-3.59 3.88,0.25 4.52,-1.85 -1.47,-1.63 -0.46,-1.22 -0.43,-1.65 a 7.13,7.13 0 0 0 3.46,3 c -0.45,-1.21 -3.12,-4.51 -2.34,-4.64 l -2.95,-2.82 c -0.51,-0.21 -0.1,1.73 0.11,2.69 -3.19,-3.36 -0.43,3.07 -4.3,-1.89 l 0.75,0.45 c 2.27,1.07 -1.33,-4.08 -2,-6.41 1.77,0.87 4,3.09 6,4.64 1.26,0.52 0.31,-0.9 -0.15,-2 -0.2,-1.11 1.28,0.23 2.28,0.94 0,-0.3 -0.74,-0.75 -0.72,-1 0.51,0.21 1.26,0.67 1.27,0.37 -2.42,-3 -3.23,-2.35 -4.5,-2.87 -0.23,-0.53 -0.71,-1.17 -0.45,-1.21 0,-0.29 0.49,0.35 0.74,0.6 v -0.58 c -0.72,-0.89 -2.19,-2.52 -1.91,-3 l 1.73,1.59 c 1.3,-0.06 -1.82,-4.57 -3.14,-4.08 l 1.45,1.92 -3.27,-1.92 c -1.72,-1.74 -0.68,-1.76 -2.14,-3.53 a 6.75,6.75 0 0 0 -4.24,-2.91 2.32,2.32 0 0 0 2.24,1.65 l 2.13,3.67 c 0,0.29 -0.77,-0.16 -1.5,-1 -1,-0.85 -2.91,-3.55 -3,-3 -1.3,0.2 2.68,3.3 2.11,4.1 2.94,3.12 4.77,2.83 6.51,4.13 l 0.28,-0.33 c 1.47,1.48 -0.06,1 1.21,1.53 0.89,2.71 -3.61,-0.29 -6.1,-2 -1.71,-2 -4,-3.38 -5.61,-6.41 -0.52,-0.07 -2,-1.55 -2,-0.83 1.84,4.29 -2.09,0.47 -2.19,2.2 a 10.54,10.54 0 0 1 1.45,1.92 c -2.33,-0.21 -7,-9.19 -7.2,-5.88 a 5.13,5.13 0 0 0 1.67,2.74 c 0.75,0.46 2.23,1.79 2,0.83 0.74,0.88 1.28,0.37 2.46,2.47 -1.3,0.06 1.09,3.69 -0.19,3.47 l 1,1.56 c -0.27,0.18 0.39,2.22 -0.86,1.42 -1.81,-0.15 -2.42,-3 -3.63,-4.57 l -1.55,-0.19 c 1.85,4.14 -5.52,-3.43 -2.92,1.32 l -0.73,-1 c -0.68,-1.75 -3.17,-3.5 -3.45,-3.17 l 0.46,1.07 c 2.87,4.27 -0.42,2.78 -0.26,4.61 -0.26,0 -1,-0.7 -1,-1 l -2.28,-0.93 c 2.89,4 -0.56,0.66 -0.62,1.67 0.94,1.86 2.14,3.53 2.57,5 -3.53,-1.73 -0.93,2.86 -4.7,0.59 2.18,3 2.1,4.25 5.32,7 -2.55,-0.72 -6.16,-3 -8,-2.93 0.29,0.5 0.54,1 0.85,1.49 4.5,5.86 12.99,18.4 16.33,19.99 z"
         transform="translate(0,-1.16)"
         id="path5122"
         inkscape:connector-curvature="0"
         style="fill:#3148a1" />
      <path
         class="cls-2"
         d="m 600,136.68 -0.54,0.37 0.74,0.74 c 1.24,1.09 -0.46,-0.93 -0.2,-1.11 z"
         transform="translate(0,-1.16)"
         id="path5124"
         inkscape:connector-curvature="0"
         style="fill:#3148a1" />
      <path
         class="cls-1"
         d="m 530.65,126.82 c 0.46,1.52 1.76,4.21 3.24,5.33 0.86,-0.24 -0.52,-2.87 1.27,-2 -1.85,-2.23 -3.34,-2.41 -4.51,-3.33 z"
         transform="translate(0,-1.16)"
         id="path5126"
         inkscape:connector-curvature="0"
         style="fill:#ffffff" />
      <path
         class="cls-2"
         d="m 566.42,115.77 -0.57,0.8 1.72,1.73 c 1.52,0.62 -1.44,-2.06 -1.15,-2.53 z"
         transform="translate(0,-1.16)"
         id="path5128"
         inkscape:connector-curvature="0"
         style="fill:#3148a1" />
      <path
         class="cls-1"
         d="m 547.5,152 c 0.93,1.11 1.7,2.36 1.55,1.53 l -1.15,-2.34 c 0.39,0.63 -1.9,-0.73 -0.4,0.81 z"
         transform="translate(0,-1.16)"
         id="path5130"
         inkscape:connector-curvature="0"
         style="fill:#ffffff" />
      <path
         class="cls-1"
         d="m 549.56,157.85 2.87,3.28 c -0.23,-0.76 -1.23,-2.28 -0.53,-1.92 -0.78,-0.3 -2.17,-1.96 -2.34,-1.36 z"
         transform="translate(0,-1.16)"
         id="path5132"
         inkscape:connector-curvature="0"
         style="fill:#ffffff" />
      <path
         class="cls-1"
         d="m 553.43,155.57 c -3.66,-2.62 2.54,5 -1.89,1.11 -0.33,1.7 2.54,4.49 5.11,7.09 0.39,-0.33 -3.27,-3.91 -3.56,-5.55 a 5.93,5.93 0 0 1 3.51,2.27 c 1.26,-0.58 -2.79,-3.34 -3.17,-4.92 z"
         transform="translate(0,-1.16)"
         id="path5134"
         inkscape:connector-curvature="0"
         style="fill:#ffffff" />
      <polygon
         class="cls-1"
         points="556.07,164.49 556.55,164.09 554.45,162.07 "
         id="polygon5136"
         style="fill:#ffffff" />
      <polygon
         class="cls-1"
         points="561.57,164.16 560.8,162.44 559.86,162.76 "
         id="polygon5138"
         style="fill:#ffffff" />
      <path
         class="cls-1"
         d="m 566.2,172.81 0.32,-0.27 a 7.22,7.22 0 0 0 -2.17,-2.91 c -0.16,0.6 1.31,2.21 1.85,3.18 z"
         transform="translate(0,-1.16)"
         id="path5140"
         inkscape:connector-curvature="0"
         style="fill:#ffffff" />
      <path
         class="cls-2"
         d="m 555,142.92 c -5.28,-4.32 -9.95,-7.32 -13.32,-8.51 a 33.41,33.41 0 0 1 1.57,3.62 l -2.95,-1.76 c -0.86,0.74 -1.18,2.45 1.3,6.54 -0.62,-0.42 -1.08,-1 -1.7,-1.4 0.62,1.39 -0.94,0.81 0.38,3 -1.32,-0.78 -2.72,-2.45 -4.35,-3.92 0.54,2.42 -4.28,-1.1 -2.81,2.43 -4.35,-4.4 1.08,3.86 -3.11,-0.19 -2.34,-0.87 -1.72,2 0.61,5.22 -0.7,-0.83 -2.25,-3.33 -3.58,-4.11 a 4.7,4.7 0 0 0 0.47,1 c -0.08,0.07 -1.95,-0.72 -1,0.88 a 6.9,6.9 0 0 0 1,1.45 c 4,2.88 10.21,14.52 13.79,20.27 0.19,0.46 0.33,0.85 0.51,1.29 1.06,0.46 1.92,0.59 2.37,0.07 -1.32,-1.26 -0.31,-1.65 -1.86,-2.71 -0.08,0.07 0.07,0.41 0,0.49 l -2,-1.21 c -0.46,-1.52 2,-0.79 0,-3.84 1.24,0.36 3.26,2.45 5,3.86 1.09,-0.46 4,0.89 2.81,-2 0.39,-1.29 2.65,1.08 4.51,2.82 -0.54,-1.44 1.32,-0.66 -0.15,-2.74 2.1,1.06 5.13,4.2 7.54,6.44 1.71,0.92 0.31,-0.75 -0.46,-2.48 1.56,-0.39 4.42,5.77 5.67,4.69 0.94,0.16 -0.3,-2.61 -1.7,-4.28 1.94,1.2 1,-1.36 3,0.25 -3.56,-6 3.82,0.55 0.87,-5.06 1.49,-0.52 0.09,-4 -0.27,-6.61 A 97.77,97.77 0 0 0 555,142.92 Z"
         transform="translate(0,-1.16)"
         id="path5142"
         inkscape:connector-curvature="0"
         style="fill:#3148a1" />
      <path
         class="cls-3"
         d="m 544,7 h 0.09 0.32 c 0.36,-0.59 1.11,-0.49 2.1,-0.28 0,-0.18 -0.09,-0.36 0.26,-0.44 1.56,0.4 0.78,0 1.92,-0.32 -0.35,0 -0.79,0 -1,-0.16 l 2.18,-0.13 c -0.28,-0.35 -0.52,-0.75 -0.15,-1 -0.2,-0.7 0.56,-1.53 0.87,-2.26 A 3.28,3.28 0 0 1 549.72,2.1 c 0.07,-0.29 0.46,-0.42 0.93,-0.46 a 0.59,0.59 0 0 0 -0.14,-0.22 0.59,0.59 0 0 1 0.14,0.22 8,8 0 0 1 1,0 C 551.47,1.55 551.3,1.45 551.39,1.32 h -1.35 c 0,-0.07 0,-0.13 0.09,-0.18 l -0.36,0.17 0.26,0.19 c 0.09,0.14 -0.09,0.22 -0.28,0.31 a 0.81,0.81 0 0 1 -0.62,-0.2 l -0.73,0.3 c -0.28,0.54 1.88,0.36 0.7,0.83 L 548.75,2.6 c -0.54,0.12 -1.26,0.11 -1.62,0.46 -0.53,-0.64 -1.51,0.46 -1.6,-0.38 -2.06,-0.34 -4.72,0.3 -6.82,-0.45 -0.32,0.61 -0.27,1.74 -1.1,2.52 -0.18,-0.08 -0.46,-0.15 -0.37,-0.29 l -0.6,0.35 c 0.35,0 0.79,-0.09 1,0.12 -1,0.33 0.47,0.47 0.4,0.8 l -1.29,0.39 0.16,0.12 a 34.72,34.72 0 0 1 3.52,0.26 c 1.18,0.18 2.34,0.37 3.51,0.5 z"
         transform="translate(0,-1.16)"
         id="path5144"
         inkscape:connector-curvature="0"
         style="fill:#f5e461" />
      <path
         class="cls-3"
         d="m 501.71,3 0.23,0.64 c -5,1.94 -10.31,4.08 -15.89,6.45 -5.58,2.37 -11.36,5.07 -17.14,8.15 a 151.23,151.23 0 0 0 -17,10.46 125,125 0 0 0 -15.37,12.89 l -1.3,-2.28 c -4.11,6 -8.81,12.72 -11.42,19 l 1.93,-1.71 a 18.26,18.26 0 0 1 -2.06,5.28 33.55,33.55 0 0 1 -3.45,5.38 l -0.34,-0.67 c 2.57,-4.28 -0.4,0.13 -0.69,-2.55 l 0.24,-0.9 -0.57,0.22 -0.24,0.9 c -0.26,-0.3 -0.7,-0.51 -0.32,-1.27 -0.25,0.31 -0.51,0.6 -0.75,0.92 -2.9,1.07 -4.2,0.23 -5.68,-1.18 -0.18,0.72 1.86,1.23 -0.3,3.27 l -0.34,-0.68 c -0.28,1.09 -0.49,2.21 -0.72,3.32 l -1.47,0.75 c -0.24,1.18 -0.26,2 -1.07,2.88 l 1,1 c -3,4.23 -4.6,10.69 -7.59,15 0.7,1.54 -1.9,3.49 -2,6.59 l 1.8,-0.64 c 2.92,-2.17 4.81,-9.18 7.82,-13.25 l 0.58,0.53 c -0.27,1 0,2 -0.95,3 l 1,0.89 c 2.6,0.08 3.32,-1.94 3.66,-4.19 0.34,-2.25 0.34,-4.67 1.07,-5.27 1.53,-1.28 1.83,-0.38 1.83,0.61 0,0.99 -0.2,2.12 0.16,1.31 -0.23,2.21 0.91,1.87 2.36,0.93 1.45,-0.94 3.33,-2.41 4.41,-2.7 a 12.63,12.63 0 0 0 3.67,-2.77 23.39,23.39 0 0 0 1.73,-2 c 0.59,-0.7 1.17,-1.45 1.73,-2.23 0.56,-0.78 1.11,-1.57 1.66,-2.36 l 1.65,-2.33 c 0.55,-0.76 1.05,-1.51 1.57,-2.2 0.52,-0.69 1,-1.33 1.53,-1.91 a 26.4,26.4 0 0 1 4.44,-7 50.38,50.38 0 0 1 6.39,-6 c 2.27,-1.87 4.73,-3.47 7,-5.06 2.27,-1.59 4.45,-3 6.36,-4.37 a 13,13 0 0 0 2.76,-2.63 c 0.93,-1 1.84,-2.24 2.79,-3.31 1.93,-2.08 4,-3.65 6.33,-2.62 l 3.87,-1.75 c 1.28,-0.59 2.6,-1.09 3.9,-1.64 l 0.2,0.76 c 7.26,-3.58 14.83,-8.81 22,-11.71 3.15,-1.14 3.58,-3.39 5.65,-1.73 a 22.32,22.32 0 0 0 5.09,-1 49.57,49.57 0 0 0 5.13,-1.78 l 5.13,-1.87 a 42.05,42.05 0 0 1 5,-1.31 c -0.11,-0.67 0.72,-1.52 -0.55,-1.7 a 8.53,8.53 0 0 1 -5,0.37 c -1.49,-0.28 -2.66,-1 -2.89,-1.86 l 1.31,-0.06 -2.56,-1.06 -1.36,0.85 a 2.2,2.2 0 0 1 -0.8,-1 19.06,19.06 0 0 1 -4,-0.67 32.53,32.53 0 0 0 -4.2,-0.91 14.09,14.09 0 0 1 -6.96,1.78 z"
         transform="translate(0,-1.16)"
         id="path5146"
         inkscape:connector-curvature="0"
         style="fill:#f5e461" />
      <path
         class="cls-4"
         d="m 82.41,213 a 30.65,30.65 0 0 1 -0.3,-3.51 c -1.1,-2.4 -3.89,-4.89 -3.86,-7.77 0.32,-0.85 3.85,-3 4.16,-2.34 4,3.51 4.2,9.87 8.42,14 0.29,0.61 2.53,-0.94 4.43,-1.65 0,0 -0.29,-0.59 -0.66,-1.22 2.62,-0.92 5.34,1.63 8.21,1.52 a 5.36,5.36 0 0 1 -0.44,-1.54 c 0.91,4 5.55,4.41 8.73,5.34 a 7.34,7.34 0 0 1 1.05,1.79 c 3.1,0.29 5.47,2.27 9.45,1.77 3.2,0 6.73,3 10.72,3.67 6.33,2.63 12.16,9 19.68,6.15 1.25,-0.48 3.05,0.25 4.08,2.65 a 9.35,9.35 0 0 1 8.49,-1.42 49.84,49.84 0 0 1 8,3.45 c 1.8,0.68 2.33,3.31 2.57,5.16 1.38,-0.16 2.77,-0.3 4.17,-0.39 1.4,-0.09 2.78,-0.19 4.16,-0.2 a 31.1,31.1 0 0 1 8,0.88 c 3.31,0.62 6.6,1.23 9.9,2.19 a 42.14,42.14 0 0 1 10,4 c 0.94,0.48 3,0.08 4.16,-0.55 l 1,1.68 a 30.65,30.65 0 0 0 6.28,0 c 2,-0.11 3.94,-0.17 5.65,0.72 4.66,2.49 4.23,8.91 4,14.44 -3,1.39 -6.37,4.23 -10,6 -3.63,1.77 -7.44,2.37 -11.3,-0.51 -1,-1 -2.53,-1.12 -4.17,-1.09 -1.64,0.03 -3.43,0.34 -5,0.34 -2.81,0.56 -4.86,-2.84 -7.89,0 -2.07,-5 -8.66,-10 -14.54,-9.71 -0.31,-0.59 0.31,-0.86 -0.32,-1.58 -4.36,0.91 -8.55,0.29 -12.77,-0.68 -4.22,-0.97 -8.47,-2.59 -12.99,-3.34 -4.67,-0.37 -9.17,-3.69 -15.09,-3.64 -0.63,0.23 -2.38,-2 -3.92,-2.12 l -1.9,0.69 c -3.66,-1.5 -8.28,-2 -10.29,-4.76 -2.64,-2.58 -5.72,-2.88 -8.08,-4.84 -3.55,-3 -11,-3.08 -13.19,-7.9 -0.27,-0.61 -1.81,-0.75 -2.72,-1.13 l -0.84,-1.81 c -0.91,-0.37 -2.25,1.55 -3.15,1.18 -2.88,-1.39 -6.22,-2.63 -9,-4.31 -2.78,-1.68 -4.93,-3.86 -5.46,-7.23 0.64,-0.24 2.83,-0.38 2.57,-2.38 z"
         transform="translate(0,-1.16)"
         id="path5148"
         inkscape:connector-curvature="0"
         style="fill:#b1d0fe" />
      <path
         class="cls-4"
         d="m 60.32,194.48 c 0.49,-0.79 -0.41,-1.29 -1,-1.32 a 7.27,7.27 0 0 0 1.22,3.3 l -1.67,-0.77 c -1.48,1.8 1.55,1.11 0.29,1.64 -0.9,-0.5 -1.54,-1.11 -0.8,-2 0,0.57 0.51,0.36 1,0.73 0.48,-1.37 -0.3,-2.21 -0.59,-3.27 l 2.71,0.93 z"
         transform="translate(0,-1.16)"
         id="path5150"
         inkscape:connector-curvature="0"
         style="fill:#b1d0fe" />
      <path
         class="cls-4"
         d="m 65.73,198.64 -0.51,-0.36 c -0.5,0.79 -0.11,1.5 0.27,2.2 -2,-2 0.74,-2.62 -0.3,-4.52 -0.19,0.68 1.04,1.9 0.54,2.68 z"
         transform="translate(0,-1.16)"
         id="path5152"
         inkscape:connector-curvature="0"
         style="fill:#b1d0fe" />
      <path
         class="cls-4"
         d="m 61.46,201.59 c -0.54,-2.1 -2,-0.89 -1.69,-3.08 l 2.23,2.87 z"
         transform="translate(0,-1.16)"
         id="path5154"
         inkscape:connector-curvature="0"
         style="fill:#b1d0fe" />
      <path
         class="cls-4"
         d="m 79.85,206.26 c 1,-0.39 0.5,-0.19 1.74,0.48 L 79.72,206 Z"
         transform="translate(0,-1.16)"
         id="path5156"
         inkscape:connector-curvature="0"
         style="fill:#b1d0fe" />
      <path
         class="cls-4"
         d="m 117,220.94 c -0.66,-1.46 -1.07,-3 -2.64,-3.86 1.64,0.52 2.37,3.37 2.64,3.86 z"
         transform="translate(0,-1.16)"
         id="path5158"
         inkscape:connector-curvature="0"
         style="fill:#b1d0fe" />
      <path
         class="cls-4"
         d="m 131.13,233.33 c -0.29,0.67 0.19,1.07 -0.68,1.1 -0.22,-0.49 0.85,-2 -0.66,-1.46 z"
         transform="translate(0,-1.16)"
         id="path5160"
         inkscape:connector-curvature="0"
         style="fill:#b1d0fe" />
      <path
         class="cls-4"
         d="m 131.25,237.33 0.31,1.5 a 2.56,2.56 0 0 0 -0.31,-1.5 z"
         transform="translate(0,-1.16)"
         id="path5162"
         inkscape:connector-curvature="0"
         style="fill:#b1d0fe" />
      <path
         class="cls-4"
         d="m 91.46,204.71 v 0.41 c 0.1,0 0.23,-0.13 0.35,-0.18 a 1.83,1.83 0 0 0 -0.35,-0.23 z"
         transform="translate(0,-1.16)"
         id="path5164"
         inkscape:connector-curvature="0"
         style="fill:#b1d0fe" />
      <path
         class="cls-4"
         d="m 93.65,206.74 -1.3,-2.08 a 4.79,4.79 0 0 1 -0.55,0.28 c 1.07,0.8 0.25,1.87 1.85,1.8 z"
         transform="translate(0,-1.16)"
         id="path5166"
         inkscape:connector-curvature="0"
         style="fill:#b1d0fe" />
      <path
         class="cls-4"
         d="m 91.42,205.86 v -0.74 c -2,0.69 -1.78,-2.16 -4.23,-2.25 a 6.89,6.89 0 0 0 4.23,2.99 z"
         transform="translate(0,-1.16)"
         id="path5168"
         inkscape:connector-curvature="0"
         style="fill:#b1d0fe" />
      <path
         class="cls-4"
         d="m 89.12,206.73 -0.89,0.62 c -0.5,-0.38 -0.22,-1.06 -0.09,-1.39 l -1.26,-0.1 c -0.91,1.21 2.57,2.75 3.43,3.27 z"
         transform="translate(0,-1.16)"
         id="path5170"
         inkscape:connector-curvature="0"
         style="fill:#b1d0fe" />
      <path
         class="cls-4"
         d="m 74.29,215.07 c 0,0 0,0 0.06,0 z"
         transform="translate(0,-1.16)"
         id="path5172"
         inkscape:connector-curvature="0"
         style="fill:#b1d0fe" />
      <path
         class="cls-4"
         d="m 76.55,219.58 0.92,-2.36 c -1.58,-0.24 -1.33,-2 -3.12,-2.15 0,0 0,0 -0.06,0 -0.16,2.63 1.71,2.15 2.26,4.51 z"
         transform="translate(0,-1.16)"
         id="path5174"
         inkscape:connector-curvature="0"
         style="fill:#b1d0fe" />
      <path
         class="cls-4"
         d="m 94.91,210 c -1.48,-0.59 -2.59,-1 -3.5,0.16 l 2.59,1.59 c -0.73,-1.44 0.38,-1 0.91,-1.75 z"
         transform="translate(0,-1.16)"
         id="path5176"
         inkscape:connector-curvature="0"
         style="fill:#b1d0fe" />
      <path
         class="cls-4"
         d="m 95.69,215.38 -1.35,-0.38 0.32,1 a 1.32,1.32 0 0 1 1.03,-0.62 z"
         transform="translate(0,-1.16)"
         id="path5178"
         inkscape:connector-curvature="0"
         style="fill:#b1d0fe" />
      <path
         class="cls-4"
         d="M 94.66,216 A 0.77,0.77 0 0 0 95,217.05 Z"
         transform="translate(0,-1.16)"
         id="path5180"
         inkscape:connector-curvature="0"
         style="fill:#b1d0fe" />
      <path
         class="cls-4"
         d="m 91.4,217 c 0.3,1.89 0.87,0 2.2,0.89 0.69,-1.7 -1.47,-0.61 -2.2,-0.89 z"
         transform="translate(0,-1.16)"
         id="path5182"
         inkscape:connector-curvature="0"
         style="fill:#b1d0fe" />
      <polygon
         class="cls-4"
         points="97.24,218.75 97.3,220.15 98,218.47 "
         id="polygon5184"
         style="fill:#b1d0fe" />
      <path
         class="cls-4"
         d="m 110.73,216.4 c -1.92,1 0.28,1.88 0.11,2.79 z"
         transform="translate(0,-1.16)"
         id="path5186"
         inkscape:connector-curvature="0"
         style="fill:#b1d0fe" />
      <path
         class="cls-4"
         d="m 97.53,224.34 0.09,-1.73 -0.53,0.77 c -0.37,-0.15 -1,-0.2 -1.08,-1 -0.94,1.75 0.93,1.33 1.52,1.96 z"
         transform="translate(0,-1.16)"
         id="path5188"
         inkscape:connector-curvature="0"
         style="fill:#b1d0fe" />
      <line
         class="cls-4"
         x1="104.58"
         y1="221.14999"
         x2="105.62"
         y2="222.75"
         id="line5190"
         style="fill:#b1d0fe" />
      <path
         class="cls-4"
         d="m 92.25,228.87 c -0.27,0.68 1.07,3.56 -1.08,2.11 0.84,0.54 2.18,0.88 0.89,1.93 1.45,0.58 0.7,-1.68 2,-2.15 -1.19,0.71 -1.22,-1.26 -1.81,-1.89 z"
         transform="translate(0,-1.16)"
         id="path5192"
         inkscape:connector-curvature="0"
         style="fill:#b1d0fe" />
      <path
         class="cls-4"
         d="m 95.33,231.67 c 0.58,0.62 1.28,1.51 1.92,1 -0.72,-0.31 -0.89,-1.96 -1.92,-1 z"
         transform="translate(0,-1.16)"
         id="path5194"
         inkscape:connector-curvature="0"
         style="fill:#b1d0fe" />
      <polygon
         class="cls-4"
         points="94.62,234.73 94.09,232.95 94.12,234.92 "
         id="polygon5196"
         style="fill:#b1d0fe" />
      <line
         class="cls-4"
         x1="113.14"
         y1="228.22"
         x2="113.88"
         y2="225.97"
         id="line5198"
         style="fill:#b1d0fe" />
      <path
         class="cls-4"
         d="m 98.85,237.43 -2.67,-0.7 2,1.8 c 1.77,-0.5 1.29,-1.34 0.48,-2.29 a 1.59,1.59 0 0 1 0.19,1.19 z"
         transform="translate(0,-1.16)"
         id="path5200"
         inkscape:connector-curvature="0"
         style="fill:#b1d0fe" />
      <path
         class="cls-4"
         d="m 97.08,233.57 -1,0.37 c -0.16,0.39 1,0.8 1.9,1.51 a 2.59,2.59 0 0 1 -0.9,-1.88 z"
         transform="translate(0,-1.16)"
         id="path5202"
         inkscape:connector-curvature="0"
         style="fill:#b1d0fe" />
      <path
         class="cls-4"
         d="m 98,235.45 0.69,0.79 A 2.73,2.73 0 0 0 98,235.45 Z"
         transform="translate(0,-1.16)"
         id="path5204"
         inkscape:connector-curvature="0"
         style="fill:#b1d0fe" />
      <path
         class="cls-4"
         d="m 119.88,230.62 -2.29,-1.16 a 2.64,2.64 0 0 0 2.29,1.16 z"
         transform="translate(0,-1.16)"
         id="path5206"
         inkscape:connector-curvature="0"
         style="fill:#b1d0fe" />
      <path
         class="cls-4"
         d="m 100.06,240.09 0.36,0.15 0.71,-1.67 c -0.86,0.04 -0.93,1.19 -1.07,1.52 z"
         transform="translate(0,-1.16)"
         id="path5208"
         inkscape:connector-curvature="0"
         style="fill:#b1d0fe" />
      <path
         class="cls-4"
         d="m 102,244.44 c 0.29,1.3 2,0.65 2.67,0.71 -0.41,-1.55 -1.39,-1.75 -2.32,-2.53 0.97,0.78 -0.03,1.15 -0.35,1.82 z"
         transform="translate(0,-1.16)"
         id="path5210"
         inkscape:connector-curvature="0"
         style="fill:#b1d0fe" />
      <path
         class="cls-4"
         d="m 104.43,247.79 -2.16,-0.9 c -0.27,2.11 1.19,0.69 2.16,0.9 z"
         transform="translate(0,-1.16)"
         id="path5212"
         inkscape:connector-curvature="0"
         style="fill:#b1d0fe" />
      <path
         class="cls-4"
         d="m 108.22,248.38 c 0.26,-0.09 0.29,-0.67 0.8,-0.84 -0.08,-0.83 -1,-0.79 -1.42,-1.19 z"
         transform="translate(0,-1.16)"
         id="path5214"
         inkscape:connector-curvature="0"
         style="fill:#b1d0fe" />
      <path
         class="cls-4"
         d="m 95.18,224.37 c 0.69,0.19 1.32,0.32 1.92,0.44 -0.77,-0.72 -1.55,-1.41 -2.34,-2.08 a 8,8 0 0 0 0.42,1.64 z"
         transform="translate(0,-1.16)"
         id="path5216"
         inkscape:connector-curvature="0"
         style="fill:#b1d0fe" />
      <path
         class="cls-4"
         d="m 223.08,243.58 c -3.37,2.45 -8.74,1.94 -11.77,1.82 -2.36,-0.72 -5.21,-0.59 -8.23,-0.36 A 44.49,44.49 0 0 1 194,245.1 l 0.23,-0.69 c -4.13,-2.07 -10.29,-2 -15.15,-3.36 v 1 c 0.77,0.38 1.83,0.72 0.83,1.78 -1,-0.72 -2.3,-1.59 -2.4,-2.42 l -1.25,1.09 c -0.46,-1 1.06,-3.87 -1.14,-3.54 -2.14,2.88 -3.55,-3.67 -4.88,0.3 0,-2.63 -2.48,-1.09 -3.38,-1.54 l 0.06,2 c -1.67,-1.63 -2.64,-4.94 -3.75,-4.79 -2.55,-0.42 -5.93,-1.34 -8.88,-1.38 0.11,-2.31 2.78,0.93 1.8,-1.81 -6.37,2.13 -11.49,-5.84 -18.26,-5.91 0.11,0.24 0.58,0.63 0.07,0.82 -0.62,-2 -2.78,-1 -4.42,-2.63 -0.21,1.49 2.33,2.55 3.16,3.09 -1.78,3.19 -0.18,-1.06 -3,-0.87 0.11,0.24 0.34,0.73 0.19,1.06 -2.72,-0.15 -0.23,-2.46 -2.33,-2.55 l 0.66,1.46 c -1.81,-0.76 -0.76,0.28 -3.11,0.28 a 3.66,3.66 0 0 0 0,-3.95 c -0.54,0.76 -2.32,-0.57 -2.67,1.25 -1.22,-4.64 -3.59,-0.12 -4.71,-4.52 -1.55,1.13 0.38,2.13 -0.2,3.46 -2.86,0.19 -0.12,-2.21 -0.81,-3.09 -1,0.36 -4.47,-0.09 -5.36,-2 l -0.57,1.34 c -1.6,-2.25 -5,-3.84 -5.17,-6.06 -1.58,1.71 0.14,2.22 1.61,2.82 -0.06,1.15 -1.81,1.22 -2.4,0.59 0.37,0.14 0.19,1 0.85,0.54 -0.32,1.24 -1.13,0.12 -1.64,0.31 -2.42,-1.39 1.27,-0.46 0.45,-1.58 -1.12,0.12 -3.44,-1 -3,1.1 -2.09,-0.66 -0.15,-2.22 -1,-3.34 1.16,1.85 2.65,-0.68 3.3,1.36 a 1.33,1.33 0 0 0 0.34,-1.82 c -1.87,-0.18 -4.61,-2.88 -5.19,-1 l -0.44,-1.54 -1.3,1.05 -0.23,-0.49 c 0.16,2.21 1.47,3.72 1.49,5.7 -0.17,0.91 -1.12,0.12 -1.75,0.07 l 0.09,-1.73 c -1.34,-0.93 -2.12,2.48 -3.93,1.17 1.94,-1.58 -1.21,-3.81 -2.14,-5.75 -2.74,3 -0.74,2.83 -3.08,5.42 -1.46,-0.6 -4.09,-0.45 -5.53,-2.17 4.33,1.47 -1.28,-3.22 2.6,-3.28 -0.61,-0.62 -1.37,-0.34 -2.11,-0.62 0.34,-3 1.81,-1.83 1.51,-4.29 l -0.93,1.79 c -0.58,-1.79 -0.52,-4.1 -2.39,-5.4 -0.52,0.77 -1.92,1.59 -2.66,0.72 0.15,-1.49 0.18,-2.08 -1.72,-2.77 -2.44,1.23 -1.88,2.74 -0.77,4.38 1.11,1.64 2.75,3.46 2.59,5.24 4.93,2.71 2.31,11.36 8,15.44 1.4,-0.81 1.17,-1.29 3.27,-1.24 2.35,-2.57 -2,-3.52 -2.48,-5.89 0.76,-0.27 1.51,-0.56 1.86,0.17 l 0.09,-2.31 c 3.36,0.17 0.59,3.76 3.58,3.78 l -0.76,0.28 1.74,-0.08 -0.22,-0.49 c 1,0.2 1.8,-1.23 3,0 l -1.66,0.9 c 1.16,-0.71 0.55,1.77 1.92,1.56 -0.91,0.56 -1.45,1.49 -1.86,1.39 a 13.79,13.79 0 0 0 4.22,3.12 c 5.43,0.78 10,3.36 14.28,6.85 a 8.05,8.05 0 0 0 -0.33,-0.9 c 1,-0.19 1.3,0.82 1.5,1.9 0.78,0.68 1.55,1.38 2.32,2.11 a 22.43,22.43 0 0 1 6.13,1.72 c -0.25,1.06 -0.53,1.36 -0.85,1.33 0.93,0.12 1.59,-0.05 1.11,-1.43 1.59,0.28 1.89,1.58 3,2 l -3.15,0.85 c 0.81,1.12 1.56,-1.12 2.72,0.15 2.47,0.24 -0.38,-2.12 0.45,-3.55 l 0.84,0.54 -0.23,-2.46 c 1.78,1.34 2.16,3.46 2.57,5 L 132,239 c -1.36,2.19 2.29,1.15 2.45,2.79 l -0.25,0.09 c 2.18,0.9 -0.05,-1.4 1.55,-1.13 l 2,3 0.09,-1.74 c 1.87,-0.4 4,3.06 6.48,4.42 1.32,0.93 3.71,0.33 5.68,0.73 -0.23,-0.48 -0.82,-1.11 -0.43,-1.54 1.1,0.44 3.54,1.24 2.12,2.62 l 2,-0.76 a 1.85,1.85 0 0 1 1.18,1.05 l -0.19,-0.86 2.1,0.05 c -0.13,0.33 0.33,1.29 -0.66,1.1 1.53,2.55 5.34,0 8.38,1.91 l -1.26,0.5 c 2.38,-0.66 1.69,2.18 4.19,1.77 l -0.1,-1.4 c 1.74,-0.12 4.18,2.35 3.42,3.23 1.17,-3.06 0.6,1.19 2.38,-1.24 l 0.08,3.13 c 1.25,-0.49 2.38,-0.7 2.14,-2.31 1.2,1.74 2.42,2.36 3.86,0.75 a 0.13,0.13 0 0 1 0.07,-0.06 l 0.05,-0.06 v 0.05 c 0.42,-0.13 1.81,0.84 1.51,-0.67 3.59,1.08 1.12,3.28 4.6,4.13 l 0.73,-2.05 c 2.5,1.21 5.6,0.12 7.92,-0.64 l -0.2,1.85 c 1.48,-0.09 0.2,-1.85 2.42,-1.69 a 2,2 0 0 1 0.17,1.48 c 2.09,0.45 4.59,2.08 7.68,3 -0.11,0.35 -0.59,0.58 -0.84,0.7 a 22.41,22.41 0 0 0 5.45,-0.26 20.37,20.37 0 0 0 5.64,5 15.81,15.81 0 0 0 7.22,2.38 25.1,25.1 0 0 0 9,-13.58 c -0.39,-3.54 -3.45,-7.56 -7.55,-11.16 z"
         transform="translate(0,-1.16)"
         id="path5218"
         inkscape:connector-curvature="0"
         style="fill:#b1d0fe" />
    </g>
  </g>
</svg>
