<?xml version="1.0" encoding="UTF-8" standalone="no"?>
<!-- Generator: Adobe Illustrator 16.0.0, SVG Export Plug-In . SVG Version: 6.00 Build 0)  -->

<svg
   xmlns:dc="http://purl.org/dc/elements/1.1/"
   xmlns:cc="http://creativecommons.org/ns#"
   xmlns:rdf="http://www.w3.org/1999/02/22-rdf-syntax-ns#"
   xmlns:svg="http://www.w3.org/2000/svg"
   xmlns="http://www.w3.org/2000/svg"
   xmlns:sodipodi="http://sodipodi.sourceforge.net/DTD/sodipodi-0.dtd"
   xmlns:inkscape="http://www.inkscape.org/namespaces/inkscape"
   version="1.1"
   id="Capa_1"
   x="0px"
   y="0px"
   width="292.359px"
   height="292.359px"
   viewBox="0 0 292.359 292.359"
   style="enable-background:new 0 0 292.359 292.359;"
   xml:space="preserve"
   sodipodi:docname="rightarrow.svg"
   inkscape:version="0.92.4 (5da689c313, 2019-01-14)"><metadata
   id="metadata3793"><rdf:RDF><cc:Work
       rdf:about=""><dc:format>image/svg+xml</dc:format><dc:type
         rdf:resource="http://purl.org/dc/dcmitype/StillImage" /></cc:Work></rdf:RDF></metadata><defs
   id="defs3791" /><sodipodi:namedview
   pagecolor="#ffffff"
   bordercolor="#666666"
   borderopacity="1"
   objecttolerance="10"
   gridtolerance="10"
   guidetolerance="10"
   inkscape:pageopacity="0"
   inkscape:pageshadow="2"
   inkscape:window-width="1806"
   inkscape:window-height="1051"
   id="namedview3789"
   showgrid="false"
   inkscape:zoom="2.9347479"
   inkscape:cx="146.1795"
   inkscape:cy="146.1795"
   inkscape:window-x="105"
   inkscape:window-y="-9"
   inkscape:window-maximized="1"
   inkscape:current-layer="Capa_1" />
<g
   id="g3756">
	<path
   d="M222.979,133.331L95.073,5.424C91.456,1.807,87.178,0,82.226,0c-4.952,0-9.233,1.807-12.85,5.424   c-3.617,3.617-5.424,7.898-5.424,12.847v255.813c0,4.948,1.807,9.232,5.424,12.847c3.621,3.617,7.902,5.428,12.85,5.428   c4.949,0,9.23-1.811,12.847-5.428l127.906-127.907c3.614-3.613,5.428-7.897,5.428-12.847   C228.407,141.229,226.594,136.948,222.979,133.331z"
   id="path3754" />
</g>
<g
   id="g3758">
</g>
<g
   id="g3760">
</g>
<g
   id="g3762">
</g>
<g
   id="g3764">
</g>
<g
   id="g3766">
</g>
<g
   id="g3768">
</g>
<g
   id="g3770">
</g>
<g
   id="g3772">
</g>
<g
   id="g3774">
</g>
<g
   id="g3776">
</g>
<g
   id="g3778">
</g>
<g
   id="g3780">
</g>
<g
   id="g3782">
</g>
<g
   id="g3784">
</g>
<g
   id="g3786">
</g>
<path
   style="fill:#000000;fill-opacity:1;stroke-width:0.34074476"
   d="m 78.188199,291.70679 c -4.577389,-0.99448 -9.637205,-4.91056 -11.92186,-9.22702 -2.304352,-4.35367 -2.127582,6.92758 -2.133138,-136.1345 -0.0033,-84.926149 0.112437,-130.325591 0.335296,-131.527476 0.889155,-4.795226 5.04932,-10.3013513 9.468809,-12.5323021 5.812643,-2.93421289 12.607629,-2.69717483 17.739529,0.6188303 0.871754,0.5632887 31.278055,30.7382808 67.569565,67.0555358 65.25807,65.304372 65.99802,66.059792 67.20706,68.612642 2.8195,5.95327 2.18849,12.82108 -1.6483,17.94001 -0.81125,1.08233 -30.8937,31.34346 -66.8499,67.24693 -71.074597,70.9704 -66.60399,66.73493 -71.710398,67.9386 -2.642858,0.62297 -5.216661,0.62576 -8.056663,0.009 z"
   id="path3795"
   inkscape:connector-curvature="0" /><path
   style="fill:#000000;fill-opacity:1;stroke-width:0.34074476"
   d="m 77.974014,291.68213 c -4.532633,-1.09711 -9.472965,-4.98026 -11.707675,-9.20236 -2.304352,-4.35367 -2.127582,6.92758 -2.133138,-136.1345 -0.0033,-84.926149 0.112437,-130.325591 0.335296,-131.527476 0.590939,-3.186943 2.550889,-6.6708766 5.249776,-9.3318033 3.902742,-3.8478489 8.211922,-5.506751 13.491599,-5.19385127 3.240719,0.19206106 6.074632,1.06636487 8.466963,2.61218277 0.871754,0.5632887 31.276195,30.7382808 67.565415,67.0555358 64.66366,64.713622 66.00498,66.082382 67.21165,68.586962 2.83727,5.88906 2.20024,12.8305 -1.64874,17.96569 -0.81125,1.08233 -30.8937,31.34346 -66.8499,67.24693 -56.79184,56.70858 -65.647489,65.41986 -67.451088,66.35153 -3.889985,2.0094 -8.388957,2.57353 -12.530158,1.57116 z"
   id="path3797"
   inkscape:connector-curvature="0" /><path
   style="fill:#000000;fill-opacity:1;stroke-width:0.34074476"
   d="M 77.974014,291.68213 C 73.441381,290.58502 68.501049,286.70187 66.266339,282.47977 63.96188,278.1259 64.138757,289.44019 64.133201,146.02961 64.127659,2.9531836 63.95119,14.495059 66.213034,9.9985064 67.580037,7.2808982 71.429135,3.4434688 74.06894,2.1664142 c 5.601439,-2.70980063 12.184459,-2.55483431 17.062652,0.40166 1.359338,0.823845 20.794378,20.0562828 67.997218,67.2883578 64.80219,64.842338 66.11789,66.184748 67.32391,68.690388 2.39477,4.97541 2.39137,10.25818 -0.01,15.33078 -1.19494,2.5243 -2.09319,3.44015 -67.53676,68.86073 -57.71725,57.69697 -66.595193,66.44147 -68.401905,67.37376 -3.892433,2.00856 -8.390125,2.57213 -12.530158,1.57004 z"
   id="path3799"
   inkscape:connector-curvature="0" /><path
   style="fill:#000000;fill-opacity:1;stroke-width:0.34074476"
   d="m 78.132775,291.7589 c -3.594937,-0.94684 -6.070328,-2.41918 -8.80252,-5.23565 -2.330205,-2.40209 -3.537615,-4.34056 -4.408936,-7.07847 l -0.75908,-2.38521 V 146.38395 c 0,-126.567934 0.02002,-130.748225 0.636805,-132.985479 0.771177,-2.797267 2.707774,-5.8864852 5.178225,-8.2601922 5.564192,-5.34629736 13.699887,-6.4529155 20.735307,-2.8204191 1.801347,0.9300635 10.716774,9.7144713 68.203584,67.2012763 71.53258,71.532584 67.49307,67.288374 68.79294,72.278914 1.09375,4.19921 0.35093,9.50206 -1.86341,13.30256 -0.91684,1.57358 -15.55799,16.40212 -66.62293,67.47561 -38.8748,38.8813 -66.207666,65.96329 -67.319222,66.70132 -1.029251,0.68339 -2.785376,1.56829 -3.9025,1.96645 -2.527731,0.90092 -7.431227,1.15678 -9.868263,0.51491 z"
   id="path3801"
   inkscape:connector-curvature="0" /><path
   style="fill:#000000;fill-opacity:1;stroke-width:0.34074476"
   d="m 77.919642,291.69829 c -5.926631,-1.59627 -11.291534,-6.6669 -13.038679,-12.3235 -0.680661,-2.20372 -0.684649,-2.97815 -0.684649,-132.95514 0,-143.3897976 -0.156982,-132.517916 1.970496,-136.4684073 1.255799,-2.33188 4.70057,-5.9171174 7.038652,-7.3256644 3.732289,-2.24846881 9.251456,-3.03970308 13.435381,-1.92611182 4.835537,1.28702392 0.557779,-2.78678298 71.533727,68.12319652 40.83432,40.796377 66.37681,66.563167 67.20874,67.798977 3.60728,5.35843 3.73838,13.29395 0.31048,18.79205 -0.64899,1.04094 -26.73429,27.36405 -67.05375,67.66505 -71.765728,71.73288 -67.213415,67.41393 -72.327029,68.6193 -2.691962,0.63454 -6.038002,0.63464 -8.393369,2.5e-4 z"
   id="path3803"
   inkscape:connector-curvature="0" /><path
   style="fill:#000000;fill-opacity:1;stroke-width:0.34074476"
   d="m 77.919642,291.72136 c -6.050906,-1.70813 -11.286356,-6.67321 -13.046867,-12.37308 -0.669804,-2.16857 -0.676461,-3.47672 -0.676461,-132.92863 0,-143.345841 -0.156195,-132.48939 1.963557,-136.4784678 1.18282,-2.2259033 5.547275,-6.5903585 7.773178,-7.7731785 4.923229,-2.61614915 11.657321,-2.62224639 16.645475,-0.015071 1.332883,0.6966624 16.826286,15.9822963 67.596046,66.6895723 40.87031,40.820015 66.37607,66.542235 67.20874,67.779135 3.55091,5.2747 3.75276,12.82508 0.49522,18.52429 -1.22792,2.1483 -131.030315,132.11953 -133.831259,134.00533 -1.080315,0.72735 -2.843669,1.65384 -3.918565,2.05886 -2.563555,0.96596 -7.689023,1.22263 -10.209064,0.51124 z"
   id="path3805"
   inkscape:connector-curvature="0" /><path
   style="fill:#000000;fill-opacity:1;stroke-width:0.34074476"
   d="m 77.996477,291.74145 c -5.80629,-1.44264 -11.361845,-6.68894 -13.123702,-12.39317 -0.6698,-2.16856 -0.676461,-3.47644 -0.676461,-132.81308 0,-94.307113 0.105032,-131.124967 0.377785,-132.428632 0.207782,-0.993125 0.854297,-2.725693 1.4367,-3.850151 1.294844,-2.4999798 5.516177,-6.8098529 7.92225,-8.0884133 4.923229,-2.61614915 11.657321,-2.62224639 16.645475,-0.015071 1.332883,0.6966624 16.826286,15.9822963 67.596046,66.6895723 40.87031,40.820015 66.37607,66.542235 67.20874,67.779135 3.63051,5.39295 3.76047,13.25853 0.31048,18.79205 -0.6489,1.0408 -26.73968,27.37078 -67.05375,67.66852 -61.60382,61.57887 -66.150129,66.04574 -68.376752,67.18195 -3.70055,1.88834 -8.355921,2.44899 -12.266811,1.47729 z"
   id="path3807"
   inkscape:connector-curvature="0" /><path
   style="fill:#000000;fill-opacity:1;stroke-width:0.34074476"
   d="m 77.940381,291.73796 c -3.043074,-0.73801 -5.580436,-2.25607 -8.302369,-4.96717 -2.7186,-2.70777 -4.201366,-5.08325 -4.966384,-7.95645 -0.391905,-1.47188 -0.467878,-22.8044 -0.47127,-132.32843 -0.0029,-94.285277 0.100948,-131.075486 0.373741,-132.379342 0.207782,-0.993125 0.854297,-2.725693 1.4367,-3.850151 1.342047,-2.5911161 5.598141,-6.9312749 7.976202,-8.1337443 5.095933,-2.57676505 11.626444,-2.56485467 16.591523,0.03026 1.332883,0.6966624 16.826286,15.9822963 67.596046,66.6895723 40.87031,40.820015 66.37607,66.542235 67.20874,67.779135 3.63051,5.39295 3.76047,13.25853 0.31048,18.79205 -0.6489,1.0408 -26.73968,27.37078 -67.05375,67.66852 -61.60382,61.57887 -66.150129,66.04574 -68.376752,67.18195 -3.71084,1.89359 -8.319309,2.44476 -12.322907,1.4738 z"
   id="path3809"
   inkscape:connector-curvature="0" /><path
   style="fill:#3148a1;fill-opacity:1;stroke-width:0.34074476"
   d="m 77.727909,291.73049 c -4.192408,-1.15651 -9.285455,-5.1757 -11.466259,-9.04863 -2.317927,-4.11645 -2.134016,7.66478 -2.128449,-136.34709 C 64.138719,3.6180913 63.991038,13.87749 66.096478,9.9451921 66.606888,8.9919082 68.174509,7.053924 69.580081,5.6385602 73.746056,1.4435636 77.554865,-0.03241522 83.380244,0.29076034 86.830108,0.48214904 89.175565,1.2430469 91.868277,3.0443932 94.255762,4.6415513 223.82105,134.20973 225.38139,136.56049 c 2.50616,3.77568 3.46223,8.73166 2.53059,13.11788 -1.1692,5.50472 4.18589,-0.1629 -69.03284,73.0615 -62.372401,62.37723 -66.781355,66.71153 -68.854373,67.68837 -1.218162,0.57402 -3.027398,1.2126 -4.020523,1.41907 -2.338573,0.48619 -6.292738,0.43038 -8.276335,-0.11682 z"
   id="path4616"
   inkscape:connector-curvature="0" /><path
   style="fill:#3148a1;fill-opacity:1;stroke-width:0.34074476"
   d="m 76.336255,291.07081 c -3.808588,-1.56649 -7.444756,-4.6536 -9.981619,-8.47439 -1.110585,-1.67267 -1.230066,-2.10896 -1.565973,-5.71831 C 64.545636,274.26676 64.367745,240.02337 64.25237,173.64353 64.077952,73.293572 64.39527,15.44946 65.136268,12.51741 65.964187,9.2414219 70.961432,3.7879345 74.899236,1.863096 c 2.32689,-1.13740751 2.389691,-1.14749267 7.118029,-1.14307362 5.806151,0.005426 7.489496,0.54555072 10.791865,3.46271812 4.00033,3.5337161 70.74845,69.9570915 101.7126,101.2177495 23.8555,24.08394 30.92399,31.41122 31.61246,32.76986 1.49767,2.95549 2.00176,5.57637 1.79624,9.33905 -0.23974,4.3893 -0.96437,5.84148 -5.40498,10.83175 -4.45767,5.00944 -126.369114,126.92767 -129.853104,129.86034 -3.496122,2.94287 -5.663998,3.68363 -10.747422,3.67239 -3.038171,-0.007 -3.982414,-0.14241 -5.588669,-0.80307 z"
   id="path4618"
   inkscape:connector-curvature="0" /></svg>