<svg xmlns="http://www.w3.org/2000/svg" xmlns:xlink="http://www.w3.org/1999/xlink" viewBox="0 0 978.69 826.39"><defs><style>.cls-1{fill:none}.cls-3{isolation:isolate}.cls-5{fill:#4d494a}.cls-10{fill:#4c4849}</style><clipPath id="clip-path" transform="translate(-752.11 -391.92)"><path d="M1305.56 700.86l1.12-17.8a5.44 5.44 0 0 0 .34 2.26l-1.12 17.8a5.44 5.44 0 0 1-.34-2.26z" class="cls-1"/></clipPath><clipPath id="clip-path-2" transform="translate(-752.11 -391.92)"><path d="M1224.63 730l1.11-17.8a3.92 3.92 0 0 0 .33 1.82l-1.07 17.82a4.08 4.08 0 0 1-.37-1.84z" class="cls-1"/></clipPath><clipPath id="clip-path-3" transform="translate(-752.11 -391.92)"><path d="M1145.33 759.19l1.12-17.8a5.42 5.42 0 0 0 .34 2.25l-1.12 17.8a5.74 5.74 0 0 1-.34-2.25z" class="cls-1"/></clipPath><clipPath id="clip-path-4" transform="translate(-752.11 -391.92)"><path d="M832.94 870.4l1.11-17.8a2.74 2.74 0 0 0 .78 2 6.51 6.51 0 0 0 2.61 1.67l-1.11 17.8a6.26 6.26 0 0 1-2.61-1.66 2.76 2.76 0 0 1-.78-2.01z" class="cls-1"/></clipPath><clipPath id="clip-path-5" transform="translate(-752.11 -391.92)"><path d="M1358.86 893.45l-1.11 17.8c-.17 2.59-2.23 4.94-5.79 6.38l1.12-17.81c3.55-1.44 5.62-3.82 5.78-6.37z" class="cls-1"/></clipPath><clipPath id="clip-path-6" transform="translate(-752.11 -391.92)"><path d="M1263.8 694.45c4.47-.89 8 .41 9.2 3.09l85.52 193.64c1.25 3.43-.87 6.79-5.44 8.64L1322 911.13c-3.77 1.37-7.75.63-9.6-1.55L1226.07 714a4 4 0 0 1-.32-1.93 7.13 7.13 0 0 1 2.83-4.45 9.06 9.06 0 0 1 2.23-1.19z" class="cls-1"/></clipPath><clipPath id="clip-path-7" transform="translate(-752.11 -391.92)"><path d="M1359.3 243.5L373.06 602.46l852.82 759.85 986.24-358.96L1359.3 243.5" class="cls-1"/></clipPath><clipPath id="clip-path-8" transform="translate(-752.11 -391.92)"><path d="M1458.71 861.38l-142.7 51.93-189.54-168.87 142.7-51.94 189.54 168.88" class="cls-1"/></clipPath><clipPath id="clip-path-9" transform="translate(-752.11 -391.92)"><path d="M1322 911.13l-1.11 17.81c-3.78 1.37-7.75.62-9.61-1.56l1.12-17.8c1.86 2.18 5.84 2.92 9.6 1.55z" class="cls-1"/></clipPath><clipPath id="clip-path-10" transform="translate(-752.11 -391.92)"><path d="M754 899.17l1.12-17.81a2.77 2.77 0 0 0 .8 2 6.43 6.43 0 0 0 2.56 1.63l-1.11 17.81a6.37 6.37 0 0 1-2.57-1.64 2.8 2.8 0 0 1-.8-1.99z" class="cls-1"/></clipPath><clipPath id="clip-path-11" transform="translate(-752.11 -391.92)"><path d="M1326.63 960.77l1.12-17.8a5.42 5.42 0 0 0 .34 2.25L1327 963a5.74 5.74 0 0 1-.37-2.23z" class="cls-1"/></clipPath><clipPath id="clip-path-12" transform="translate(-752.11 -391.92)"><path d="M1530.32 1068.85l-1.11 17.81c-.17 2.58-2.24 4.93-5.78 6.38l1.11-17.8c3.55-1.45 5.62-3.8 5.78-6.39z" class="cls-1"/></clipPath><clipPath id="clip-path-13" transform="translate(-752.11 -391.92)"><path d="M1287.49 1062.47l-1.11 17.8a17.74 17.74 0 0 1-3.48-1.14l1.12-17.8a18.57 18.57 0 0 0 3.47 1.14z" class="cls-1"/></clipPath><clipPath id="clip-path-14" transform="translate(-752.11 -391.92)"><path d="M1493.47 1086.54l-1.11 17.81a9.29 9.29 0 0 1-3.26.72c-3.47.12-6.72-1.46-7.25-3.56l1.11-17.8c.54 2.09 3.79 3.68 7.25 3.56a9.52 9.52 0 0 0 3.26-.73z" class="cls-1"/></clipPath><clipPath id="clip-path-15" transform="translate(-752.11 -391.92)"><path d="M1343.52 665.37a9.72 9.72 0 0 1 3.25-.71c3.48-.11 6.72 1.48 7.25 3.57l176 398.37c1.24 3.42-.88 6.78-5.44 8.64l-31.07 11.3a9.52 9.52 0 0 1-3.26.73c-3.46.12-6.71-1.47-7.25-3.56l-176-398.39c-1.25-3.42.87-6.78 5.44-8.64z" class="cls-1"/></clipPath><clipPath id="clip-path-16" transform="translate(-752.11 -391.92)"><path d="M1485.19 316.56L498.95 675.52l852.82 759.85 986.24-358.97-852.82-759.84" class="cls-1"/></clipPath><clipPath id="clip-path-17" transform="translate(-752.11 -391.92)"><path d="M1729.1 1000.81l-242.1 88.11-379.14-337.8 242.1-88.12 379.14 337.81" class="cls-1"/></clipPath><clipPath id="clip-path-18" transform="translate(-752.11 -391.92)"><path d="M1449.61 1098.23l-1.11 17.8c-.16 2.58-2.21 4.92-5.73 6.37l1.12-17.81c3.51-1.45 5.56-3.79 5.72-6.36z" class="cls-1"/></clipPath><clipPath id="clip-path-19" transform="translate(-752.11 -391.92)"><path d="M1364.61 925.27a9.42 9.42 0 0 1 3.21-.73c3.46-.14 6.72 1.43 7.28 3.51l74.23 168.07c1.12 3.36-1 6.64-5.44 8.47l-31.19 11.35a9.67 9.67 0 0 1-3.25.72c-3.46.11-6.69-1.49-7.21-3.57l-74.15-167.87c-1.24-3.42.88-6.78 5.45-8.64z" class="cls-1"/></clipPath><clipPath id="clip-path-20" transform="translate(-752.11 -391.92)"><path d="M1455.39 461.19L469.14 820.15 1321.96 1580l986.25-358.96-852.82-759.85" class="cls-1"/></clipPath><clipPath id="clip-path-21" transform="translate(-752.11 -391.92)"><path d="M1537 1070.73l-130.72 47.58-165.93-147.84 130.73-47.58L1537 1070.73" class="cls-1"/></clipPath><clipPath id="clip-path-22" transform="translate(-752.11 -391.92)"><path d="M1412.7 1115.94l-1.11 17.81a9.38 9.38 0 0 1-3.25.71c-3.46.11-6.7-1.49-7.22-3.57l1.12-17.8c.52 2.08 3.75 3.68 7.21 3.57a9.67 9.67 0 0 0 3.25-.72z" class="cls-1"/></clipPath><clipPath id="clip-path-23" transform="translate(-752.11 -391.92)"><path d="M1370 1127.1l-1.12 17.8a5.35 5.35 0 0 1-1 2.74l1.12-17.8a5.48 5.48 0 0 0 1-2.74z" class="cls-1"/></clipPath><clipPath id="clip-path-24" transform="translate(-752.11 -391.92)"><path d="M1369.05 1129.84l-1.12 17.8a3.44 3.44 0 0 1-1.75 1.91l1.12-17.8a3.55 3.55 0 0 0 1.75-1.91z" class="cls-1"/></clipPath><clipPath id="clip-path-25" transform="translate(-752.11 -391.92)"><path d="M1367.3 1131.75l-1.12 17.8a10.46 10.46 0 0 1-3.06 1.73l1.12-17.8a10.82 10.82 0 0 0 3.06-1.73z" class="cls-1"/></clipPath><clipPath id="clip-path-26" transform="translate(-752.11 -391.92)"><path d="M1325.17 1144.51l-1.12 17.8a21.36 21.36 0 0 1-6.38-1.62l1.11-17.81a21.43 21.43 0 0 0 6.39 1.63z" class="cls-1"/></clipPath><clipPath id="clip-path-27" transform="translate(-752.11 -391.92)"><path d="M1333.17 1144.79l-1.12 17.8a10.39 10.39 0 0 1-8-.28l1.12-17.8a10.39 10.39 0 0 0 8 .28z" class="cls-1"/></clipPath><clipPath id="clip-path-28" transform="translate(-752.11 -391.92)"><path d="M1183.3 723.69a9.43 9.43 0 0 1 3.29-.73c3.48-.11 6.71 1.49 7.24 3.57l175.84 398.3a5.21 5.21 0 0 1-.62 5 3.55 3.55 0 0 1-1.75 1.91 10.82 10.82 0 0 1-3.06 1.73l-31.07 11.31a10.39 10.39 0 0 1-8-.28 21.43 21.43 0 0 1-6.39-1.63L758.45 885a6.43 6.43 0 0 1-2.56-1.63c-1.6-1.79-.74-3.85 1.87-4.8l31.66-11.5a24.25 24.25 0 0 1 16.05.82l497.16 228.84-15.14-34.27a18.57 18.57 0 0 1-3.47-1.14L837.44 856.25a6.51 6.51 0 0 1-2.61-1.67c-1.56-1.77-.71-3.81 1.88-4.76l31.7-11.5a24.31 24.31 0 0 1 16.07.81l381.89 175.33-119.58-270.82c-1.24-3.42.88-6.78 5.44-8.64z" class="cls-1"/></clipPath><clipPath id="clip-path-29" transform="translate(-752.11 -391.92)"><path d="M1135.9 392.27L149.65 751.23l852.82 759.85 986.25-358.97-852.82-759.84" class="cls-1"/></clipPath><clipPath id="clip-path-30" transform="translate(-752.11 -391.92)"><path d="M1568.83 1059.03l-437.31 159.17-379.05-337.73 437.3-159.16 379.06 337.72" class="cls-1"/></clipPath><clipPath id="clip-path-31" transform="translate(-752.11 -391.92)"><path d="M1304.78 574.55l1.12-17.81a5.52 5.52 0 0 0 .35 2.31l-1.11 17.8a5.65 5.65 0 0 1-.36-2.3z" class="cls-1"/></clipPath><clipPath id="clip-path-32" transform="translate(-752.11 -391.92)"><path d="M1224.15 603.55l1.11-17.8a4.26 4.26 0 0 0 .34 1.9l-1.11 17.81a4.17 4.17 0 0 1-.34-1.91z" class="cls-1"/></clipPath><clipPath id="clip-path-33" transform="translate(-752.11 -391.92)"><path d="M1145.16 632.65l1.11-17.81a5.7 5.7 0 0 0 .36 2.31l-1.12 17.8a5.64 5.64 0 0 1-.35-2.3z" class="cls-1"/></clipPath><clipPath id="clip-path-34" transform="translate(-752.11 -391.92)"><path d="M833.92 743.45l1.12-17.8a2.75 2.75 0 0 0 .79 2 6.48 6.48 0 0 0 2.62 1.67l-1.11 17.81a6.53 6.53 0 0 1-2.63-1.68 2.79 2.79 0 0 1-.79-2z" class="cls-1"/></clipPath><clipPath id="clip-path-35" transform="translate(-752.11 -391.92)"><path d="M1359.74 768.08l-1.11 17.81c-.16 2.57-2.21 4.9-5.72 6.33l1.11-17.8c3.52-1.42 5.56-3.77 5.72-6.34z" class="cls-1"/></clipPath><clipPath id="clip-path-36" transform="translate(-752.11 -391.92)"><path d="M1263.14 568.1c4.48-.88 8 .43 9.23 3.12l87 194.55c1.27 3.43-.82 6.8-5.37 8.65l-31 11.26c-3.76 1.37-7.73.61-9.61-1.58l-87.79-196.45a4.29 4.29 0 0 1-.34-1.94 7.1 7.1 0 0 1 2.8-4.46 9.92 9.92 0 0 1 2.22-1.19z" class="cls-1"/></clipPath><clipPath id="clip-path-37" transform="translate(-752.11 -391.92)"><path d="M1774.22 74.54L130.47 672.81l680.9 606.67L2455.11 681.2 1774.22 74.54" class="cls-1"/></clipPath><clipPath id="clip-path-38" transform="translate(-752.11 -391.92)"><path d="M1459.26 736.12l-142.16 51.74-190.76-169.97 142.15-51.74 190.77 169.97" class="cls-1"/></clipPath><clipPath id="clip-path-39" transform="translate(-752.11 -391.92)"><path d="M1323.07 785.68l-1.07 17.81c-3.77 1.37-7.74.61-9.61-1.59l1.11-17.8c1.84 2.19 5.81 2.95 9.57 1.58z" class="cls-1"/></clipPath><clipPath id="clip-path-40" transform="translate(-752.11 -391.92)"><path d="M755.25 772.11l1.12-17.81a2.78 2.78 0 0 0 .81 2 6.61 6.61 0 0 0 2.58 1.65l-1.12 17.8a6.37 6.37 0 0 1-2.57-1.64 2.81 2.81 0 0 1-.82-2z" class="cls-1"/></clipPath><clipPath id="clip-path-41" transform="translate(-752.11 -391.92)"><path d="M1328 835.4l1.12-17.81a5.58 5.58 0 0 0 .36 2.32l-1.12 17.8a5.72 5.72 0 0 1-.36-2.31z" class="cls-1"/></clipPath><clipPath id="clip-path-42" transform="translate(-752.11 -391.92)"><path d="M1532.49 944.55l-1.11 17.8c-.16 2.58-2.21 4.92-5.72 6.35l1.11-17.81c3.51-1.43 5.56-3.77 5.72-6.34z" class="cls-1"/></clipPath><clipPath id="clip-path-43" transform="translate(-752.11 -391.92)"><path d="M1289.81 937.45l-1.11 17.81a18.79 18.79 0 0 1-3.49-1.15l1.12-17.8a18.43 18.43 0 0 0 3.48 1.14z" class="cls-1"/></clipPath><clipPath id="clip-path-44" transform="translate(-752.11 -391.92)"><path d="M1495.82 962.16L1494.7 980a9.29 9.29 0 0 1-3.24.71c-3.47.11-6.73-1.49-7.28-3.58l1.11-17.81c.55 2.1 3.81 3.7 7.28 3.59a9.43 9.43 0 0 0 3.25-.75z" class="cls-1"/></clipPath><clipPath id="clip-path-45" transform="translate(-752.11 -391.92)"><path d="M1342.57 539.13a9.39 9.39 0 0 1 3.24-.7c3.48-.11 6.72 1.5 7.26 3.6l179.07 400.21c1.26 3.44-.83 6.8-5.37 8.65l-31 11.27a9.43 9.43 0 0 1-3.25.72c-3.47.11-6.73-1.49-7.28-3.59l-179-400.24c-1.26-3.44.82-6.8 5.37-8.65z" class="cls-1"/></clipPath><clipPath id="clip-path-46" transform="translate(-752.11 -391.92)"><path d="M1900.61 148.19L256.86 746.46l680.89 606.66L2581.5 754.85l-680.89-606.66" class="cls-1"/></clipPath><clipPath id="clip-path-47" transform="translate(-752.11 -391.92)"><path d="M1730.56 876.75l-241.19 87.78-381.57-339.97 241.19-87.79 381.57 339.98" class="cls-1"/></clipPath><clipPath id="clip-path-48" transform="translate(-752.11 -391.92)"><path d="M1452.09 973.81l-1.11 17.8c-.16 2.57-2.19 4.89-5.67 6.33l1.11-17.8c3.49-1.44 5.51-3.77 5.67-6.33z" class="cls-1"/></clipPath><clipPath id="clip-path-49" transform="translate(-752.11 -391.92)"><path d="M1365.74 800a9.37 9.37 0 0 1 3.21-.73c3.46-.13 6.73 1.45 7.3 3.55l75.54 168.84c1.14 3.38-.93 6.66-5.37 8.49l-31.07 11.31a9.2 9.2 0 0 1-3.24.7c-3.46.11-6.7-1.5-7.23-3.59l-75.45-168.65c-1.27-3.44.81-6.8 5.36-8.66z" class="cls-1"/></clipPath><clipPath id="clip-path-50" transform="translate(-752.11 -391.92)"><path d="M1872 293.24L228.25 891.51l680.9 606.67L2552.89 899.9 1872 293.24" class="cls-1"/></clipPath><clipPath id="clip-path-51" transform="translate(-752.11 -391.92)"><path d="M1539.19 946.4l-130.24 47.4-166.99-148.79 130.23-47.4 167 148.79" class="cls-1"/></clipPath><clipPath id="clip-path-52" transform="translate(-752.11 -391.92)"><path d="M1415.35 991.45l-1.11 17.8a9.29 9.29 0 0 1-3.24.71c-3.47.1-6.7-1.51-7.23-3.59l1.11-17.81c.53 2.09 3.77 3.7 7.23 3.59a9.2 9.2 0 0 0 3.24-.7z" class="cls-1"/></clipPath><clipPath id="clip-path-53" transform="translate(-752.11 -391.92)"><path d="M1372.81 1002.57l-1.11 17.8a5.41 5.41 0 0 1-1 2.71l1.11-17.8a5.31 5.31 0 0 0 1-2.71z" class="cls-1"/></clipPath><clipPath id="clip-path-54" transform="translate(-752.11 -391.92)"><path d="M1371.84 1005.28l-1.11 17.8a3.47 3.47 0 0 1-1.73 1.92l1.11-17.8a3.43 3.43 0 0 0 1.73-1.92z" class="cls-1"/></clipPath><clipPath id="clip-path-55" transform="translate(-752.11 -391.92)"><path d="M1370.11 1007.19L1369 1025a10.4 10.4 0 0 1-3 1.73l1.12-17.8a10.7 10.7 0 0 0 2.99-1.74z" class="cls-1"/></clipPath><clipPath id="clip-path-56" transform="translate(-752.11 -391.92)"><path d="M1328.12 1019.88l-1.12 17.8a21.16 21.16 0 0 1-6.38-1.64l1.11-17.8a21.52 21.52 0 0 0 6.39 1.64z" class="cls-1"/></clipPath><clipPath id="clip-path-57" transform="translate(-752.11 -391.92)"><path d="M1336.12 1020.18L1335 1038a10.35 10.35 0 0 1-8-.31l1.12-17.8a10.34 10.34 0 0 0 8 .29z" class="cls-1"/></clipPath><clipPath id="clip-path-58" transform="translate(-752.11 -391.92)"><path d="M1183 597.23a9.43 9.43 0 0 1 3.28-.72c3.47-.11 6.72 1.5 7.26 3.6l178.94 400.14a5.22 5.22 0 0 1-.59 5 3.43 3.43 0 0 1-1.73 1.91 10.7 10.7 0 0 1-3 1.73l-31 11.26a10.34 10.34 0 0 1-8-.3 21.52 21.52 0 0 1-6.39-1.64L759.76 758a6.61 6.61 0 0 1-2.58-1.65c-1.61-1.79-.77-3.86 1.83-4.8l31.55-11.46a24.18 24.18 0 0 1 16 .86l498.61 230.94-15.4-34.43a18.43 18.43 0 0 1-3.48-1.14l-447.88-207a6.48 6.48 0 0 1-2.62-1.67c-1.58-1.79-.74-3.84 1.84-4.78l31.57-11.46a24.33 24.33 0 0 1 16.07.86l383 177-121.64-272.12c-1.27-3.44.82-6.8 5.37-8.65z" class="cls-1"/></clipPath><clipPath id="clip-path-59" transform="translate(-752.11 -391.92)"><path d="M1643.75 241.62L0 839.89l680.89 606.67 1643.75-598.28-680.89-606.66" class="cls-1"/></clipPath><clipPath id="clip-path-60" transform="translate(-752.11 -391.92)"><path d="M1570.9 934.75l-435.67 158.57-381.48-339.9 435.65-158.57 381.5 339.9" class="cls-1"/></clipPath><clipPath id="clip-path-61" transform="translate(-752.11 -391.92)"><path d="M1303.34 429.78l1.1-17.89a5.42 5.42 0 0 0 .36 2.28l-1.1 17.89a5.42 5.42 0 0 1-.36-2.28z" class="cls-1"/></clipPath><clipPath id="clip-path-62" transform="translate(-752.11 -391.92)"><path d="M1222.68 458.92l1.1-17.89a3.88 3.88 0 0 0 .34 1.84l-1.1 17.89a3.88 3.88 0 0 1-.34-1.84z" class="cls-1"/></clipPath><clipPath id="clip-path-63" transform="translate(-752.11 -391.92)"><path d="M1143.66 488.06l1.1-17.88a5.51 5.51 0 0 0 .36 2.27l-1.1 17.89a5.56 5.56 0 0 1-.36-2.28z" class="cls-1"/></clipPath><clipPath id="clip-path-64" transform="translate(-752.11 -391.92)"><path d="M832.32 599.26l1.1-17.89a2.74 2.74 0 0 0 .8 2 6.44 6.44 0 0 0 2.62 1.64l-1.1 17.89a6.44 6.44 0 0 1-2.62-1.64 2.74 2.74 0 0 1-.8-2z" class="cls-1"/></clipPath><clipPath id="clip-path-65" transform="translate(-752.11 -391.92)"><path d="M1358.41 620.38l-1.1 17.88c-.16 2.55-2.21 4.87-5.73 6.31l1.1-17.89c3.52-1.44 5.57-3.76 5.73-6.3z" class="cls-1"/></clipPath><clipPath id="clip-path-66" transform="translate(-752.11 -391.92)"><path d="M1261.67 423.35c4.47-.9 8 .38 9.23 3l87.15 191.72c1.27 3.39-.82 6.72-5.37 8.58l-31 11.3c-3.76 1.37-7.73.65-9.61-1.52l-88-193.59a4 4 0 0 1-.34-1.92 7 7 0 0 1 2.8-4.42 9.24 9.24 0 0 1 2.21-1.18z" class="cls-1"/></clipPath><clipPath id="clip-path-67" transform="translate(-752.11 -391.92)"><path d="M1775.5 0L235.71 562.04l571.56 499.52 1539.79-562.04L1775.5 0" class="cls-1"/></clipPath><clipPath id="clip-path-68" transform="translate(-752.11 -391.92)"><path d="M1457.95 588.25l-142.21 51.91-190.93-166.86 142.21-51.91 190.93 166.86" class="cls-1"/></clipPath><clipPath id="clip-path-69" transform="translate(-752.11 -391.92)"><path d="M1321.72 638l-1.1 17.89c-3.76 1.37-7.73.65-9.61-1.52l1.1-17.89c1.89 2.15 5.89 2.87 9.61 1.52z" class="cls-1"/></clipPath><clipPath id="clip-path-70" transform="translate(-752.11 -391.92)"><path d="M753.63 628l1.1-17.89a2.71 2.71 0 0 0 .82 2 6.45 6.45 0 0 0 2.57 1.62L757 631.62a6.33 6.33 0 0 1-2.57-1.61 2.71 2.71 0 0 1-.8-2.01z" class="cls-1"/></clipPath><clipPath id="clip-path-71" transform="translate(-752.11 -391.92)"><path d="M1326.63 687.37l1.1-17.89a5.56 5.56 0 0 0 .36 2.28l-1.1 17.89a5.56 5.56 0 0 1-.36-2.28z" class="cls-1"/></clipPath><clipPath id="clip-path-72" transform="translate(-752.11 -391.92)"><path d="M1531.31 793.76l-1.1 17.89c-.15 2.55-2.2 4.87-5.72 6.31l1.1-17.89c3.52-1.43 5.57-3.76 5.72-6.31z" class="cls-1"/></clipPath><clipPath id="clip-path-73" transform="translate(-752.11 -391.92)"><path d="M1288.51 788.11l-1.1 17.88a17.71 17.71 0 0 1-3.48-1.11L1285 787a18.41 18.41 0 0 0 3.51 1.11z" class="cls-1"/></clipPath><clipPath id="clip-path-74" transform="translate(-752.11 -391.92)"><path d="M1494.64 811.37l-1.1 17.89a9.57 9.57 0 0 1-3.26.73c-3.46.13-6.73-1.44-7.28-3.5l1.1-17.89c.55 2.07 3.82 3.63 7.28 3.5a9.57 9.57 0 0 0 3.26-.73z" class="cls-1"/></clipPath><clipPath id="clip-path-75" transform="translate(-752.11 -391.92)"><path d="M1341.12 394.29a9.57 9.57 0 0 1 3.24-.72c3.47-.12 6.73 1.45 7.27 3.52L1531 791.49c1.26 3.39-.82 6.73-5.37 8.58l-30.95 11.3a9.57 9.57 0 0 1-3.26.73c-3.46.13-6.73-1.43-7.28-3.5L1304.8 414.17c-1.28-3.39.81-6.73 5.36-8.58z" class="cls-1"/></clipPath><clipPath id="clip-path-76" transform="translate(-752.11 -391.92)"><path d="M1901.98 72.06L362.19 634.1l571.56 499.52 1539.79-562.04-571.56-499.52" class="cls-1"/></clipPath><clipPath id="clip-path-77" transform="translate(-752.11 -391.92)"><path d="M1729.45 725.69l-241.27 88.06-381.91-333.77 241.27-88.06 381.91 333.77" class="cls-1"/></clipPath><clipPath id="clip-path-78" transform="translate(-752.11 -391.92)"><path d="M1450.89 823.12l-1.1 17.89c-.16 2.54-2.19 4.85-5.67 6.29l1.1-17.89c3.48-1.41 5.51-3.75 5.67-6.29z" class="cls-1"/></clipPath><clipPath id="clip-path-79" transform="translate(-752.11 -391.92)"><path d="M1364.42 651.87a9.42 9.42 0 0 1 3.21-.73c3.46-.15 6.73 1.4 7.3 3.45L1450.58 821c1.16 3.32-.92 6.57-5.36 8.41l-31.08 11.35a9.48 9.48 0 0 1-3.25.71c-3.45.12-6.69-1.45-7.23-3.51l-75.57-166.2c-1.27-3.4.82-6.73 5.37-8.59z" class="cls-1"/></clipPath><clipPath id="clip-path-80" transform="translate(-752.11 -391.92)"><path d="M1873.42 215.53L333.63 777.57l571.56 499.51 1539.79-562.04-571.56-499.51" class="cls-1"/></clipPath><clipPath id="clip-path-81" transform="translate(-752.11 -391.92)"><path d="M1538.01 795.57l-130.27 47.55-167.14-146.08 130.27-47.55 167.14 146.08" class="cls-1"/></clipPath><clipPath id="clip-path-82" transform="translate(-752.11 -391.92)"><path d="M1414.14 840.76l-1.1 17.88a9.52 9.52 0 0 1-3.25.72c-3.45.12-6.69-1.45-7.23-3.51l1.1-17.89c.54 2.06 3.78 3.63 7.23 3.51a9.48 9.48 0 0 0 3.25-.71z" class="cls-1"/></clipPath><clipPath id="clip-path-83" transform="translate(-752.11 -391.92)"><path d="M1371.58 852l-1.1 17.89a5.36 5.36 0 0 1-1 2.69l1.1-17.89a5.36 5.36 0 0 0 1-2.69z" class="cls-1"/></clipPath><clipPath id="clip-path-84" transform="translate(-752.11 -391.92)"><path d="M1370.62 854.66l-1.1 17.89a3.42 3.42 0 0 1-1.74 1.89l1.1-17.88a3.47 3.47 0 0 0 1.74-1.9z" class="cls-1"/></clipPath><clipPath id="clip-path-85" transform="translate(-752.11 -391.92)"><path d="M1368.88 856.56l-1.1 17.88a10.21 10.21 0 0 1-3 1.73l1.1-17.89a10.42 10.42 0 0 0 3-1.72z" class="cls-1"/></clipPath><clipPath id="clip-path-86" transform="translate(-752.11 -391.92)"><path d="M1326.88 869.33l-1.1 17.88a21.54 21.54 0 0 1-6.4-1.58l1.1-17.89a21.86 21.86 0 0 0 6.4 1.59z" class="cls-1"/></clipPath><clipPath id="clip-path-87" transform="translate(-752.11 -391.92)"><path d="M1334.88 869.58l-1.1 17.89a10.44 10.44 0 0 1-8-.26l1.1-17.88a10.48 10.48 0 0 0 8 .25z" class="cls-1"/></clipPath><clipPath id="clip-path-88" transform="translate(-752.11 -391.92)"><path d="M1181.45 452.57a9.21 9.21 0 0 1 3.28-.73c3.47-.13 6.72 1.45 7.27 3.51l179.19 394.34a5.13 5.13 0 0 1-.57 5 3.47 3.47 0 0 1-1.74 1.9 10.42 10.42 0 0 1-3 1.72l-31 11.3a10.48 10.48 0 0 1-8-.25 21.86 21.86 0 0 1-6.4-1.59l-562.36-254a6.45 6.45 0 0 1-2.57-1.62c-1.61-1.76-.78-3.81 1.82-4.75l31.56-11.5a24.5 24.5 0 0 1 16.05.76l499 225.4-15.43-33.92A18.41 18.41 0 0 1 1285 787L836.84 585a6.44 6.44 0 0 1-2.62-1.64c-1.59-1.76-.74-3.78 1.85-4.73l31.57-11.49a24.56 24.56 0 0 1 16.07.75L1267 740.58l-121.88-268.13c-1.27-3.39.82-6.73 5.37-8.58z" class="cls-1"/></clipPath><clipPath id="clip-path-89" transform="translate(-752.11 -391.92)"><path d="M1645.03 165.79L105.24 727.83l571.56 499.52 1539.79-562.04-571.56-499.52" class="cls-1"/></clipPath><clipPath id="clip-path-90" transform="translate(-752.11 -391.92)"><path d="M1569.72 783.88l-435.79 159.07-381.82-333.7 435.79-159.06 381.82 333.69" class="cls-1"/></clipPath></defs><g id="Layer_2" data-name="Layer 2"><g id="Layer_1-2" data-name="Layer 1"><g class="cls-3" opacity=".6"><g class="cls-3"><g class="cls-3" clip-path="url(#clip-path)"><path d="M1307 685.32l-1.12 17.8a5.44 5.44 0 0 1-.34-2.26l1.12-17.8a5.44 5.44 0 0 0 .34 2.26" class="cls-5" transform="translate(-752.11 -391.92)"/></g></g><g class="cls-3"><g class="cls-3" clip-path="url(#clip-path-2)"><path d="M1226.07 714l-1.07 17.84a4.08 4.08 0 0 1-.32-1.83l1.11-17.8a3.92 3.92 0 0 0 .33 1.82" class="cls-5" transform="translate(-752.11 -391.92)"/></g></g><g class="cls-3"><g class="cls-3" clip-path="url(#clip-path-3)"><path d="M1146.79 743.64l-1.12 17.8a5.74 5.74 0 0 1-.34-2.25l1.12-17.8a5.42 5.42 0 0 0 .34 2.25" class="cls-5" transform="translate(-752.11 -391.92)"/></g></g><g class="cls-3"><g class="cls-3" clip-path="url(#clip-path-4)"><path d="M837.44 856.25l-1.11 17.8a6.26 6.26 0 0 1-2.61-1.66 2.76 2.76 0 0 1-.78-2l1.11-17.8a2.74 2.74 0 0 0 .78 2 6.51 6.51 0 0 0 2.61 1.67" class="cls-5" transform="translate(-752.11 -391.92)"/></g></g><g class="cls-3"><g class="cls-3" clip-path="url(#clip-path-5)"><path d="M1358.86 893.45l-1.11 17.8c-.17 2.59-2.23 4.94-5.79 6.38l1.12-17.81c3.55-1.44 5.62-3.79 5.78-6.37" class="cls-5" transform="translate(-752.11 -391.92)"/></g></g><path d="M560.3 517.66l-1.12 17.8-86.34-195.54 1.12-17.81 86.34 195.55zm40.67-9.76l-1.12 17.81-31.06 11.3 1.11-17.8 31.07-11.31z" class="cls-10"/><path d="M1263.8 694.45c4.47-.89 8 .41 9.2 3.09l85.52 193.64c1.25 3.43-.87 6.79-5.44 8.64L1322 911.13c-3.77 1.37-7.75.63-9.6-1.55L1226.07 714a4 4 0 0 1-.32-1.93 7.13 7.13 0 0 1 2.83-4.45 9.06 9.06 0 0 1 2.23-1.19z" class="cls-10" transform="translate(-752.11 -391.92)"/><g clip-path="url(#clip-path-6)"><g clip-path="url(#clip-path-7)"><g clip-path="url(#clip-path-8)"><image width="333" height="221" transform="translate(374.36 300.58)" xlink:href="img-0.png"/></g></g></g><g class="cls-3"><g class="cls-3" clip-path="url(#clip-path-9)"><path d="M1322 911.13l-1.11 17.81c-3.78 1.37-7.75.62-9.61-1.56l1.12-17.8c1.85 2.18 5.83 2.92 9.6 1.55" class="cls-5" transform="translate(-752.11 -391.92)"/></g></g><g class="cls-3"><g class="cls-3" clip-path="url(#clip-path-10)"><path d="M758.45 885l-1.11 17.81a6.37 6.37 0 0 1-2.57-1.64 2.8 2.8 0 0 1-.8-2l1.12-17.81a2.77 2.77 0 0 0 .8 2 6.43 6.43 0 0 0 2.56 1.63" class="cls-5" transform="translate(-752.11 -391.92)"/></g></g><g class="cls-3"><g class="cls-3" clip-path="url(#clip-path-11)"><path d="M1328.09 945.22L1327 963a5.74 5.74 0 0 1-.34-2.25l1.12-17.8a5.42 5.42 0 0 0 .34 2.25" class="cls-5" transform="translate(-752.11 -391.92)"/></g></g><path d="M514.26 622.54l-1.11 17.81-119.59-270.83 1.12-17.8 119.58 270.82z" class="cls-10"/><g class="cls-3"><g class="cls-3" clip-path="url(#clip-path-12)"><path d="M1530.32 1068.85l-1.11 17.81c-.17 2.58-2.24 4.93-5.78 6.38l1.11-17.8c3.55-1.45 5.62-3.8 5.78-6.39" class="cls-5" transform="translate(-752.11 -391.92)"/></g></g><path d="M531.91 669.41l-1.12 17.8L84.22 482.13l1.11-17.8 446.58 205.08z" class="cls-10"/><g class="cls-3"><g class="cls-3" clip-path="url(#clip-path-13)"><path d="M1287.49 1062.47l-1.11 17.8a17.74 17.74 0 0 1-3.48-1.14l1.12-17.8a18.57 18.57 0 0 0 3.47 1.14" class="cls-5" transform="translate(-752.11 -391.92)"/></g></g><path d="M730.85 691.79l-1.11 17.81-175.95-398.4 1.12-17.8 175.94 398.39zm41.58-8.47l-1.11 17.8-31.07 11.31 1.12-17.81 31.06-11.3z" class="cls-10"/><g class="cls-3"><g class="cls-3" clip-path="url(#clip-path-14)"><path d="M1493.47 1086.54l-1.11 17.81a9.29 9.29 0 0 1-3.26.72c-3.47.12-6.72-1.46-7.25-3.56l1.11-17.8c.54 2.09 3.79 3.68 7.25 3.56a9.52 9.52 0 0 0 3.26-.73" class="cls-5" transform="translate(-752.11 -391.92)"/></g></g><path d="M1343.52 665.37a9.72 9.72 0 0 1 3.25-.71c3.48-.11 6.72 1.48 7.25 3.57l176 398.37c1.24 3.42-.88 6.78-5.44 8.64l-31.07 11.3a9.52 9.52 0 0 1-3.26.73c-3.46.12-6.71-1.47-7.25-3.56l-176-398.39c-1.25-3.42.87-6.78 5.44-8.64z" class="cls-10" transform="translate(-752.11 -391.92)"/><g clip-path="url(#clip-path-15)"><g clip-path="url(#clip-path-16)"><g clip-path="url(#clip-path-17)"><image width="622" height="426" transform="translate(355.76 271.09)" xlink:href="img-1.png"/></g></g></g><g class="cls-3"><g class="cls-3" clip-path="url(#clip-path-18)"><path d="M1449.61 1098.23l-1.11 17.8c-.16 2.58-2.21 4.92-5.73 6.37l1.12-17.81c3.51-1.45 5.56-3.79 5.72-6.36" class="cls-5" transform="translate(-752.11 -391.92)"/></g></g><path d="M550.52 704.82l-1.11 17.8-15.14-34.27 1.11-17.8 15.14 34.27zm99.61 16.35l-1.12 17.81-74.15-167.88 1.12-17.8 74.15 167.87zm41.65-8.5l-1.12 17.81-31.18 11.35 1.11-17.81 31.19-11.35z" class="cls-10"/><path d="M1364.61 925.27a9.42 9.42 0 0 1 3.21-.73c3.46-.14 6.72 1.43 7.28 3.51l74.23 168.07c1.12 3.36-1 6.64-5.44 8.47l-31.19 11.35a9.67 9.67 0 0 1-3.25.72c-3.46.11-6.69-1.49-7.21-3.57l-74.15-167.87c-1.24-3.42.88-6.78 5.45-8.64z" class="cls-10" transform="translate(-752.11 -391.92)"/><g clip-path="url(#clip-path-19)"><g clip-path="url(#clip-path-20)"><g clip-path="url(#clip-path-21)"><image width="297" height="196" transform="translate(488.24 530.97)" xlink:href="img-2.png"/></g></g></g><g class="cls-3"><g class="cls-3" clip-path="url(#clip-path-22)"><path d="M1412.7 1115.94l-1.11 17.81a9.38 9.38 0 0 1-3.25.71c-3.46.11-6.7-1.49-7.22-3.57l1.12-17.8c.52 2.08 3.75 3.68 7.21 3.57a9.67 9.67 0 0 0 3.25-.72" class="cls-5" transform="translate(-752.11 -391.92)"/></g></g><g class="cls-3"><g class="cls-3" clip-path="url(#clip-path-23)"><path d="M1370 1127.1l-1.12 17.8a5.35 5.35 0 0 1-1 2.74l1.12-17.8a5.48 5.48 0 0 0 1-2.74" class="cls-5" transform="translate(-752.11 -391.92)"/></g></g><g class="cls-3"><g class="cls-3" clip-path="url(#clip-path-24)"><path d="M1369.05 1129.84l-1.12 17.8a3.44 3.44 0 0 1-1.75 1.91l1.12-17.8a3.55 3.55 0 0 0 1.75-1.91" class="cls-5" transform="translate(-752.11 -391.92)"/></g></g><g class="cls-3"><g class="cls-3" clip-path="url(#clip-path-25)"><path d="M1367.3 1131.75l-1.12 17.8a10.46 10.46 0 0 1-3.06 1.73l1.12-17.8a10.82 10.82 0 0 0 3.06-1.73" class="cls-5" transform="translate(-752.11 -391.92)"/></g></g><path d="M566.67 750.96l-1.11 17.81L5.23 510.9l1.11-17.81 560.33 257.87zm45.46-9.4l-1.12 17.8-31.06 11.31 1.11-17.8 31.07-11.31z" class="cls-10"/><g class="cls-3"><g class="cls-3" clip-path="url(#clip-path-26)"><path d="M1325.17 1144.51l-1.12 17.8a21.36 21.36 0 0 1-6.38-1.62l1.11-17.81a21.43 21.43 0 0 0 6.39 1.63" class="cls-5" transform="translate(-752.11 -391.92)"/></g></g><g class="cls-3"><g class="cls-3" clip-path="url(#clip-path-27)"><path d="M1333.17 1144.79l-1.12 17.8a10.39 10.39 0 0 1-8-.28l1.12-17.8a10.39 10.39 0 0 0 8 .28" class="cls-5" transform="translate(-752.11 -391.92)"/></g></g><path d="M1183.3 723.69a9.43 9.43 0 0 1 3.29-.73c3.48-.11 6.71 1.49 7.24 3.57l175.84 398.3a5.21 5.21 0 0 1-.62 5 3.55 3.55 0 0 1-1.75 1.91 10.82 10.82 0 0 1-3.06 1.73l-31.07 11.31a10.39 10.39 0 0 1-8-.28 21.43 21.43 0 0 1-6.39-1.63L758.45 885a6.43 6.43 0 0 1-2.56-1.63c-1.6-1.79-.74-3.85 1.87-4.8l31.66-11.5a24.25 24.25 0 0 1 16.05.82l497.16 228.84-15.14-34.27a18.57 18.57 0 0 1-3.47-1.14L837.44 856.25a6.51 6.51 0 0 1-2.61-1.67c-1.56-1.77-.71-3.81 1.88-4.76l31.7-11.5a24.31 24.31 0 0 1 16.07.81l381.89 175.33-119.58-270.82c-1.24-3.42.88-6.78 5.44-8.64z" class="cls-10" transform="translate(-752.11 -391.92)"/><g clip-path="url(#clip-path-28)"><g clip-path="url(#clip-path-29)"><g clip-path="url(#clip-path-30)"><image width="817" height="497" transform="translate(.36 329.39)" xlink:href="img-3.png"/></g></g></g></g><g class="cls-3" opacity=".8"><g class="cls-3"><g class="cls-3" clip-path="url(#clip-path-31)"><path d="M1306.25 559.05l-1.11 17.8a5.65 5.65 0 0 1-.36-2.3l1.12-17.81a5.52 5.52 0 0 0 .35 2.31" class="cls-5" transform="translate(-752.11 -391.92)"/></g></g><g class="cls-3"><g class="cls-3" clip-path="url(#clip-path-32)"><path d="M1225.6 587.65l-1.11 17.81a4.17 4.17 0 0 1-.34-1.91l1.11-17.8a4.26 4.26 0 0 0 .34 1.9" class="cls-5" transform="translate(-752.11 -391.92)"/></g></g><g class="cls-3"><g class="cls-3" clip-path="url(#clip-path-33)"><path d="M1146.63 617.15l-1.12 17.8a5.64 5.64 0 0 1-.35-2.3l1.11-17.81a5.7 5.7 0 0 0 .36 2.31" class="cls-5" transform="translate(-752.11 -391.92)"/></g></g><g class="cls-3"><g class="cls-3" clip-path="url(#clip-path-34)"><path d="M838.45 729.33l-1.11 17.81a6.53 6.53 0 0 1-2.63-1.68 2.79 2.79 0 0 1-.79-2l1.12-17.8a2.75 2.75 0 0 0 .79 2 6.48 6.48 0 0 0 2.62 1.67" class="cls-5" transform="translate(-752.11 -391.92)"/></g></g><g class="cls-3"><g class="cls-3" clip-path="url(#clip-path-35)"><path d="M1359.74 768.08l-1.11 17.81c-.16 2.57-2.21 4.9-5.72 6.33l1.11-17.8c3.52-1.43 5.56-3.77 5.72-6.34" class="cls-5" transform="translate(-752.11 -391.92)"/></g></g><path d="M561.35 392.18l-1.11 17.8-87.86-196.44 1.12-17.81 87.85 196.45zm40.56-9.68l-1.11 17.8-30.95 11.27 1.11-17.81 30.95-11.26z" class="cls-10"/><path d="M1263.14 568.1c4.48-.88 8 .43 9.23 3.12l87 194.55c1.27 3.43-.82 6.8-5.37 8.65l-31 11.26c-3.76 1.37-7.73.61-9.61-1.58l-87.79-196.45a4.29 4.29 0 0 1-.34-1.94 7.1 7.1 0 0 1 2.8-4.46 9.92 9.92 0 0 1 2.22-1.19z" class="cls-10" transform="translate(-752.11 -391.92)"/><g clip-path="url(#clip-path-36)"><g clip-path="url(#clip-path-37)"><g clip-path="url(#clip-path-38)"><image width="333" height="222" transform="translate(374.23 174.23)" xlink:href="img-4.png"/></g></g></g><g class="cls-3"><g class="cls-3" clip-path="url(#clip-path-39)"><path d="M1323.07 785.68l-1.07 17.81c-3.77 1.37-7.74.61-9.61-1.59l1.11-17.8c1.88 2.19 5.85 2.95 9.61 1.58" class="cls-5" transform="translate(-752.11 -391.92)"/></g></g><g class="cls-3"><g class="cls-3" clip-path="url(#clip-path-40)"><path d="M759.76 758l-1.12 17.8a6.37 6.37 0 0 1-2.57-1.64 2.81 2.81 0 0 1-.82-2l1.12-17.81a2.78 2.78 0 0 0 .81 2 6.61 6.61 0 0 0 2.58 1.65" class="cls-5" transform="translate(-752.11 -391.92)"/></g></g><g class="cls-3"><g class="cls-3" clip-path="url(#clip-path-41)"><path d="M1329.43 819.91l-1.12 17.8a5.72 5.72 0 0 1-.36-2.31l1.12-17.81a5.58 5.58 0 0 0 .36 2.32" class="cls-5" transform="translate(-752.11 -391.92)"/></g></g><path d="M516.21 497.31l-1.12 17.81L393.4 243.03l1.12-17.8 121.69 272.08z" class="cls-10"/><g class="cls-3"><g class="cls-3" clip-path="url(#clip-path-42)"><path d="M1532.49 944.55l-1.11 17.8c-.16 2.58-2.21 4.92-5.72 6.35l1.11-17.81c3.51-1.43 5.56-3.77 5.72-6.34" class="cls-5" transform="translate(-752.11 -391.92)"/></g></g><path d="M534.22 544.39l-1.11 17.8L85.23 355.22l1.11-17.8 447.88 206.97z" class="cls-10"/><g class="cls-3"><g class="cls-3" clip-path="url(#clip-path-43)"><path d="M1289.81 937.45l-1.11 17.81a18.79 18.79 0 0 1-3.49-1.15l1.12-17.8a18.43 18.43 0 0 0 3.48 1.14" class="cls-5" transform="translate(-752.11 -391.92)"/></g></g><path d="M733.19 567.37l-1.12 17.81-179.04-400.25 1.11-17.8 179.05 400.24zm41.47-8.4l-1.11 17.81-30.96 11.26 1.12-17.8 30.95-11.27z" class="cls-10"/><g class="cls-3"><g class="cls-3" clip-path="url(#clip-path-44)"><path d="M1495.82 962.16L1494.7 980a9.29 9.29 0 0 1-3.24.71c-3.47.11-6.73-1.49-7.28-3.58l1.11-17.81c.55 2.1 3.81 3.7 7.28 3.59a9.43 9.43 0 0 0 3.25-.72" class="cls-5" transform="translate(-752.11 -391.92)"/></g></g><path d="M1342.57 539.13a9.39 9.39 0 0 1 3.24-.7c3.48-.11 6.72 1.5 7.26 3.6l179.07 400.21c1.26 3.44-.83 6.8-5.37 8.65l-31 11.27a9.43 9.43 0 0 1-3.25.72c-3.47.11-6.73-1.49-7.28-3.59l-179-400.24c-1.26-3.44.82-6.8 5.37-8.65z" class="cls-10" transform="translate(-752.11 -391.92)"/><g clip-path="url(#clip-path-45)"><g clip-path="url(#clip-path-46)"><g clip-path="url(#clip-path-47)"><image width="623" height="428" transform="translate(355.69 144.85)" xlink:href="img-5.png"/></g></g></g><g class="cls-3"><g class="cls-3" clip-path="url(#clip-path-48)"><path d="M1452.09 973.81l-1.11 17.8c-.16 2.57-2.19 4.89-5.67 6.33l1.11-17.8c3.49-1.44 5.51-3.77 5.67-6.33" class="cls-5" transform="translate(-752.11 -391.92)"/></g></g><path d="M553.1 579.96l-1.11 17.81-15.4-34.43 1.12-17.81 15.39 34.43zm99.67 16.68l-1.11 17.81-75.46-168.66 1.12-17.8 75.45 168.65zm41.54-8.42l-1.11 17.8-31.07 11.31 1.12-17.8 31.06-11.31z" class="cls-10"/><path d="M1365.74 800a9.37 9.37 0 0 1 3.21-.73c3.46-.13 6.73 1.45 7.3 3.55l75.54 168.84c1.14 3.38-.93 6.66-5.37 8.49l-31.07 11.31a9.2 9.2 0 0 1-3.24.7c-3.46.11-6.7-1.5-7.23-3.59l-75.45-168.65c-1.27-3.44.81-6.8 5.36-8.66z" class="cls-10" transform="translate(-752.11 -391.92)"/><g clip-path="url(#clip-path-49)"><g clip-path="url(#clip-path-50)"><g clip-path="url(#clip-path-51)"><image width="298" height="197" transform="translate(489.85 405.69)" xlink:href="img-6.png"/></g></g></g><g class="cls-3"><g class="cls-3" clip-path="url(#clip-path-52)"><path d="M1415.35 991.45l-1.11 17.8a9.29 9.29 0 0 1-3.24.71c-3.47.1-6.7-1.51-7.23-3.59l1.11-17.81c.53 2.09 3.77 3.7 7.23 3.59a9.2 9.2 0 0 0 3.24-.7" class="cls-5" transform="translate(-752.11 -391.92)"/></g></g><g class="cls-3"><g class="cls-3" clip-path="url(#clip-path-53)"><path d="M1372.81 1002.57l-1.11 17.8a5.41 5.41 0 0 1-1 2.71l1.11-17.8a5.31 5.31 0 0 0 1-2.71" class="cls-5" transform="translate(-752.11 -391.92)"/></g></g><g class="cls-3"><g class="cls-3" clip-path="url(#clip-path-54)"><path d="M1371.84 1005.28l-1.11 17.8a3.47 3.47 0 0 1-1.73 1.92l1.11-17.8a3.43 3.43 0 0 0 1.73-1.91" class="cls-5" transform="translate(-752.11 -391.92)"/></g></g><g class="cls-3"><g class="cls-3" clip-path="url(#clip-path-55)"><path d="M1370.11 1007.19L1369 1025a10.4 10.4 0 0 1-3 1.73l1.12-17.8a10.7 10.7 0 0 0 3-1.73" class="cls-5" transform="translate(-752.11 -391.92)"/></g></g><path d="M569.62 626.32l-1.11 17.8L6.54 383.87l1.11-17.8 561.97 260.25zm45.34-9.32l-1.12 17.8-30.95 11.27 1.12-17.81L614.96 617z" class="cls-10"/><g class="cls-3"><g class="cls-3" clip-path="url(#clip-path-56)"><path d="M1328.12 1019.88l-1.12 17.8a21.16 21.16 0 0 1-6.38-1.64l1.11-17.8a21.52 21.52 0 0 0 6.39 1.64" class="cls-5" transform="translate(-752.11 -391.92)"/></g></g><g class="cls-3"><g class="cls-3" clip-path="url(#clip-path-57)"><path d="M1336.12 1020.18L1335 1038a10.35 10.35 0 0 1-8-.31l1.12-17.8a10.34 10.34 0 0 0 8 .3" class="cls-5" transform="translate(-752.11 -391.92)"/></g></g><path d="M1183 597.23a9.43 9.43 0 0 1 3.28-.72c3.47-.11 6.72 1.5 7.26 3.6l178.94 400.14a5.22 5.22 0 0 1-.59 5 3.43 3.43 0 0 1-1.73 1.91 10.7 10.7 0 0 1-3 1.73l-31 11.26a10.34 10.34 0 0 1-8-.3 21.52 21.52 0 0 1-6.39-1.64L759.76 758a6.61 6.61 0 0 1-2.58-1.65c-1.61-1.79-.77-3.86 1.83-4.8l31.55-11.46a24.18 24.18 0 0 1 16 .86l498.61 230.94-15.4-34.43a18.43 18.43 0 0 1-3.48-1.14l-447.88-207a6.48 6.48 0 0 1-2.62-1.67c-1.58-1.79-.74-3.84 1.84-4.78l31.57-11.46a24.33 24.33 0 0 1 16.07.86l383 177-121.64-272.12c-1.27-3.44.82-6.8 5.37-8.65z" class="cls-10" transform="translate(-752.11 -391.92)"/><g clip-path="url(#clip-path-58)"><g clip-path="url(#clip-path-59)"><g clip-path="url(#clip-path-60)"><image width="818" height="499" transform="translate(1.64 202.93)" xlink:href="img-7.png"/></g></g></g></g><g class="cls-3"><g class="cls-3"><g class="cls-3" clip-path="url(#clip-path-61)"><path d="M1304.8 414.17l-1.1 17.89a5.42 5.42 0 0 1-.36-2.28l1.1-17.89a5.42 5.42 0 0 0 .36 2.28" class="cls-5" transform="translate(-752.11 -391.92)"/></g></g><g class="cls-3"><g class="cls-3" clip-path="url(#clip-path-62)"><path d="M1224.12 442.87l-1.1 17.89a3.88 3.88 0 0 1-.34-1.84l1.1-17.89a3.88 3.88 0 0 0 .34 1.84" class="cls-5" transform="translate(-752.11 -391.92)"/></g></g><g class="cls-3"><g class="cls-3" clip-path="url(#clip-path-63)"><path d="M1145.12 472.45l-1.1 17.89a5.56 5.56 0 0 1-.36-2.28l1.1-17.88a5.51 5.51 0 0 0 .36 2.27" class="cls-5" transform="translate(-752.11 -391.92)"/></g></g><g class="cls-3"><g class="cls-3" clip-path="url(#clip-path-64)"><path d="M836.84 585l-1.1 17.89a6.44 6.44 0 0 1-2.62-1.64 2.74 2.74 0 0 1-.8-2l1.1-17.89a2.74 2.74 0 0 0 .8 2 6.44 6.44 0 0 0 2.62 1.64" class="cls-5" transform="translate(-752.11 -391.92)"/></g></g><g class="cls-3"><g class="cls-3" clip-path="url(#clip-path-65)"><path d="M1358.41 620.38l-1.1 17.88c-.16 2.55-2.21 4.87-5.73 6.31l1.1-17.89c3.52-1.44 5.57-3.76 5.73-6.3" class="cls-5" transform="translate(-752.11 -391.92)"/></g></g><path d="M560 244.54l-1.1 17.89-87.99-193.59 1.1-17.89L560 244.54zm40.57-9.78l-1.1 17.89-30.96 11.3 1.1-17.89 30.96-11.3z" class="cls-10"/><path d="M1261.67 423.35c4.47-.9 8 .38 9.23 3l87.15 191.72c1.27 3.39-.82 6.72-5.37 8.58l-31 11.3c-3.76 1.37-7.73.65-9.61-1.52l-88-193.59a4 4 0 0 1-.34-1.92 7 7 0 0 1 2.8-4.42 9.24 9.24 0 0 1 2.21-1.18z" class="cls-10" transform="translate(-752.11 -391.92)"/><g clip-path="url(#clip-path-66)"><g clip-path="url(#clip-path-67)"><g clip-path="url(#clip-path-68)"><image width="334" height="219" transform="translate(372.7 29.47)" xlink:href="img-8.png"/></g></g></g><g class="cls-3"><g class="cls-3" clip-path="url(#clip-path-69)"><path d="M1321.72 638l-1.1 17.89c-3.76 1.37-7.73.65-9.61-1.52l1.1-17.89c1.88 2.17 5.85 2.89 9.61 1.52" class="cls-5" transform="translate(-752.11 -391.92)"/></g></g><g class="cls-3"><g class="cls-3" clip-path="url(#clip-path-70)"><path d="M758.12 613.74L757 631.62a6.33 6.33 0 0 1-2.57-1.61 2.71 2.71 0 0 1-.82-2l1.1-17.89a2.71 2.71 0 0 0 .82 2 6.45 6.45 0 0 0 2.57 1.62" class="cls-5" transform="translate(-752.11 -391.92)"/></g></g><g class="cls-3"><g class="cls-3" clip-path="url(#clip-path-71)"><path d="M1328.09 671.76l-1.1 17.89a5.56 5.56 0 0 1-.36-2.28l1.1-17.89a5.56 5.56 0 0 0 .36 2.28" class="cls-5" transform="translate(-752.11 -391.92)"/></g></g><path d="M514.88 348.66l-1.1 17.89L391.91 98.42l1.1-17.89 121.87 268.13z" class="cls-10"/><g class="cls-3"><g class="cls-3" clip-path="url(#clip-path-72)"><path d="M1531.31 793.76l-1.1 17.89c-.15 2.55-2.2 4.87-5.72 6.31l1.1-17.89c3.52-1.43 5.57-3.76 5.72-6.31" class="cls-5" transform="translate(-752.11 -391.92)"/></g></g><path d="M532.92 395.07l-1.1 17.89-448.19-202 1.1-17.89 448.19 202z" class="cls-10"/><g class="cls-3"><g class="cls-3" clip-path="url(#clip-path-73)"><path d="M1288.51 788.11l-1.1 17.88a17.71 17.71 0 0 1-3.48-1.11L1285 787a18.41 18.41 0 0 0 3.48 1.12" class="cls-5" transform="translate(-752.11 -391.92)"/></g></g><path d="M731.99 416.68l-1.1 17.88-179.3-394.42 1.1-17.89 179.3 394.43zm41.5-8.53l-1.1 17.89-30.96 11.3 1.1-17.89 30.96-11.3z" class="cls-10"/><g class="cls-3"><g class="cls-3" clip-path="url(#clip-path-74)"><path d="M1494.64 811.37l-1.1 17.89a9.57 9.57 0 0 1-3.26.73c-3.46.13-6.73-1.44-7.28-3.5l1.1-17.89c.55 2.07 3.82 3.63 7.28 3.5a9.57 9.57 0 0 0 3.26-.73" class="cls-5" transform="translate(-752.11 -391.92)"/></g></g><path d="M1341.12 394.29a9.57 9.57 0 0 1 3.24-.72c3.47-.12 6.73 1.45 7.27 3.52L1531 791.49c1.26 3.39-.82 6.73-5.37 8.58l-30.95 11.3a9.57 9.57 0 0 1-3.26.73c-3.46.13-6.73-1.43-7.28-3.5L1304.8 414.17c-1.28-3.39.81-6.73 5.36-8.58z" class="cls-10" transform="translate(-752.11 -391.92)"/><g clip-path="url(#clip-path-75)"><g clip-path="url(#clip-path-76)"><g clip-path="url(#clip-path-77)"><image width="624" height="422" transform="translate(354.16)" xlink:href="img-9.png"/></g></g></g><g class="cls-3"><g class="cls-3" clip-path="url(#clip-path-78)"><path d="M1450.89 823.12l-1.1 17.89c-.16 2.54-2.19 4.85-5.67 6.29l1.1-17.89c3.48-1.44 5.51-3.75 5.67-6.29" class="cls-5" transform="translate(-752.11 -391.92)"/></g></g><path d="M551.83 430.12l-1.1 17.88-15.43-33.93 1.1-17.88 15.43 33.93zm99.72 15.92l-1.1 17.89-75.57-166.2 1.1-17.89 75.57 166.2zm41.56-8.55l-1.1 17.89-31.08 11.34 1.1-17.89 31.08-11.34z" class="cls-10"/><path d="M1364.42 651.87a9.42 9.42 0 0 1 3.21-.73c3.46-.15 6.73 1.4 7.3 3.45L1450.58 821c1.16 3.32-.92 6.57-5.36 8.41l-31.08 11.35a9.48 9.48 0 0 1-3.25.71c-3.45.12-6.69-1.45-7.23-3.51l-75.57-166.2c-1.27-3.4.82-6.73 5.37-8.59z" class="cls-10" transform="translate(-752.11 -391.92)"/><g clip-path="url(#clip-path-79)"><g clip-path="url(#clip-path-80)"><g clip-path="url(#clip-path-81)"><image width="298" height="194" transform="translate(488.49 257.57)" xlink:href="img-10.png"/></g></g></g><g class="cls-3"><g class="cls-3" clip-path="url(#clip-path-82)"><path d="M1414.14 840.76l-1.1 17.88a9.52 9.52 0 0 1-3.25.72c-3.45.12-6.69-1.45-7.23-3.51l1.1-17.89c.54 2.06 3.78 3.63 7.23 3.51a9.48 9.48 0 0 0 3.25-.71" class="cls-5" transform="translate(-752.11 -391.92)"/></g></g><g class="cls-3"><g class="cls-3" clip-path="url(#clip-path-83)"><path d="M1371.58 852l-1.1 17.89a5.36 5.36 0 0 1-1 2.69l1.1-17.89a5.36 5.36 0 0 0 1-2.69" class="cls-5" transform="translate(-752.11 -391.92)"/></g></g><g class="cls-3"><g class="cls-3" clip-path="url(#clip-path-84)"><path d="M1370.62 854.66l-1.1 17.89a3.42 3.42 0 0 1-1.74 1.89l1.1-17.88a3.47 3.47 0 0 0 1.74-1.9" class="cls-5" transform="translate(-752.11 -391.92)"/></g></g><g class="cls-3"><g class="cls-3" clip-path="url(#clip-path-85)"><path d="M1368.88 856.56l-1.1 17.88a10.21 10.21 0 0 1-3 1.73l1.1-17.89a10.42 10.42 0 0 0 3-1.72" class="cls-5" transform="translate(-752.11 -391.92)"/></g></g><path d="M568.38 475.82l-1.11 17.89L4.92 239.7l1.09-17.88 562.37 254zm45.35-9.46l-1.1 17.89-30.96 11.3 1.1-17.89 30.96-11.3z" class="cls-10"/><g class="cls-3"><g class="cls-3" clip-path="url(#clip-path-86)"><path d="M1326.88 869.33l-1.1 17.88a21.54 21.54 0 0 1-6.4-1.58l1.1-17.89a21.86 21.86 0 0 0 6.4 1.59" class="cls-5" transform="translate(-752.11 -391.92)"/></g></g><g class="cls-3"><g class="cls-3" clip-path="url(#clip-path-87)"><path d="M1334.88 869.58l-1.1 17.89a10.44 10.44 0 0 1-8-.26l1.1-17.88a10.48 10.48 0 0 0 8 .25" class="cls-5" transform="translate(-752.11 -391.92)"/></g></g><path d="M1181.45 452.57a9.21 9.21 0 0 1 3.28-.73c3.47-.13 6.72 1.45 7.27 3.51l179.19 394.34a5.13 5.13 0 0 1-.57 5 3.47 3.47 0 0 1-1.74 1.9 10.42 10.42 0 0 1-3 1.72l-31 11.3a10.48 10.48 0 0 1-8-.25 21.86 21.86 0 0 1-6.4-1.59l-562.36-254a6.45 6.45 0 0 1-2.57-1.62c-1.61-1.76-.78-3.81 1.82-4.75l31.56-11.5a24.5 24.5 0 0 1 16.05.76l499 225.4-15.43-33.92A18.41 18.41 0 0 1 1285 787L836.84 585a6.44 6.44 0 0 1-2.62-1.64c-1.59-1.76-.74-3.78 1.85-4.73l31.57-11.49a24.56 24.56 0 0 1 16.07.75L1267 740.58l-121.88-268.13c-1.27-3.39.82-6.73 5.37-8.58z" class="cls-10" transform="translate(-752.11 -391.92)"/><g clip-path="url(#clip-path-88)"><g clip-path="url(#clip-path-89)"><g clip-path="url(#clip-path-90)"><image width="818" height="493" transform="translate(0 58.27)" xlink:href="img-11.png"/></g></g></g></g></g></g></svg>