<?xml version="1.0" encoding="UTF-8" standalone="no"?>
<svg
   xmlns:dc="http://purl.org/dc/elements/1.1/"
   xmlns:cc="http://creativecommons.org/ns#"
   xmlns:rdf="http://www.w3.org/1999/02/22-rdf-syntax-ns#"
   xmlns:svg="http://www.w3.org/2000/svg"
   xmlns="http://www.w3.org/2000/svg"
   xmlns:sodipodi="http://sodipodi.sourceforge.net/DTD/sodipodi-0.dtd"
   xmlns:inkscape="http://www.inkscape.org/namespaces/inkscape"
   viewBox="0 0 687.49 665.61"
   version="1.1"
   id="svg1217"
   sodipodi:docname="bottomleft.svg"
   inkscape:version="0.92.4 (5da689c313, 2019-01-14)">
  <metadata
     id="metadata1221">
    <rdf:RDF>
      <cc:Work
         rdf:about="">
        <dc:format>image/svg+xml</dc:format>
        <dc:type
           rdf:resource="http://purl.org/dc/dcmitype/StillImage" />
      </cc:Work>
    </rdf:RDF>
  </metadata>
  <sodipodi:namedview
     pagecolor="#ffffff"
     bordercolor="#666666"
     borderopacity="1"
     objecttolerance="10"
     gridtolerance="10"
     guidetolerance="10"
     inkscape:pageopacity="0"
     inkscape:pageshadow="2"
     inkscape:window-width="1806"
     inkscape:window-height="1051"
     id="namedview1219"
     showgrid="false"
     inkscape:zoom="1.2890432"
     inkscape:cx="386.60753"
     inkscape:cy="315.21184"
     inkscape:window-x="105"
     inkscape:window-y="-9"
     inkscape:window-maximized="1"
     inkscape:current-layer="svg1217" />
  <defs
     id="defs1021">
    <style
       id="style1019">.cls-1{fill:#3148a1;}.cls-2{fill:#b1d0fe;}.cls-3{fill:#f5e461;}.cls-4{fill:#fff;}.cls-5{fill:#050505;}</style>
    <clipPath
       clipPathUnits="userSpaceOnUse"
       id="clipPath4932">
      <rect
         style="fill:#3148a1;fill-opacity:0.01990051"
         id="rect4934"
         width="645.44"
         height="570.96619"
         x="38.788464"
         y="0.77576923" />
    </clipPath>
  </defs>
  <title
     id="title1023">Asset 9</title>
  <g
     id="Layer_2"
     data-name="Layer 2"
     clip-path="url(#clipPath4932)"
     transform="translate(-38.78846,93.86803)">
    <g
       id="Layer_1-2"
       data-name="Layer 1">
      <path
         class="cls-1"
         d="m 579.34,602.9 a 246.54,246.54 0 0 0 32.83,6 c 5.45,0.55 10.85,0.93 16.15,1 a 152.48,152.48 0 0 0 15.54,-0.5 176,176 0 0 1 -24.31,0.34 c 6.09,0.37 11.7,0.54 17.35,0.74 5.65,0.2 11.34,0.29 17.62,0.26 -1.75,1.14 -4.72,1.45 -7.45,1.89 -2.73,0.44 -5.25,0.72 -6.2,1.94 a 142.83,142.83 0 0 1 -45.1,-5.54 168.14,168.14 0 0 1 -40.6,-17.79 26.64,26.64 0 0 1 4.31,0.43 21.16,21.16 0 0 1 3.58,1.09 25.31,25.31 0 0 1 5.81,3.41 c 1.75,1.28 3.35,2.74 5.06,3.91 a 17.17,17.17 0 0 0 5.41,2.82 z"
         id="path1025"
         inkscape:connector-curvature="0"
         style="fill:#3148a1" />
      <path
         class="cls-1"
         d="m 687.49,606 c -2.87,1 -5.66,1.94 -8.49,2.68 a 65.8,65.8 0 0 1 8.49,-2.68 z"
         id="path1027"
         inkscape:connector-curvature="0"
         style="fill:#3148a1" />
      <path
         class="cls-1"
         d="m 409,478.61 c -1.62,-1.08 -3.23,-2.17 -4.81,-3.27 -0.79,-0.55 -1.56,-1.12 -2.35,-1.65 l -2.38,-1.55 c 0.86,0.43 1.7,0.89 2.53,1.37 0.83,0.48 1.59,1.07 2.37,1.62 1.56,1.13 3.1,2.31 4.64,3.48 z"
         id="path1029"
         inkscape:connector-curvature="0"
         style="fill:#3148a1" />
      <path
         class="cls-1"
         d="M 537.09,598.2 A 45.4,45.4 0 0 1 531.56,596.06 160,160 0 0 1 514,582.37 c -2.77,-2.49 -5.5,-5 -8.09,-7.74 -0.65,-0.67 -1.31,-1.32 -2,-2 l -1.9,-2.1 c -1.26,-1.41 -2.53,-2.81 -3.8,-4.22 1.39,1.52 2.85,3 4.33,4.48 1.48,1.48 3,2.89 4.59,4.26 1.59,1.37 3.2,2.73 4.84,4.05 1.64,1.32 3.31,2.6 5,3.89 6.77,5.09 13.67,9.89 20.12,15.21 z"
         id="path1031"
         inkscape:connector-curvature="0"
         style="fill:#3148a1" />
      <path
         class="cls-1"
         d="m 549.09,610.05 c 14,6.42 28.57,12.1 42.6,17.52 -14.13,-4.91 -28.61,-10.42 -42.6,-17.52 z"
         id="path1033"
         inkscape:connector-curvature="0"
         style="fill:#3148a1" />
      <path
         class="cls-1"
         d="m 296.34,464.14 a 1.15,1.15 0 0 1 -0.78,1 3.32,3.32 0 0 0 -1.23,0.42 c -2.94,-0.66 -5.87,-1.34 -8.87,-1.93 -3,-0.59 -6,-1.26 -9,-1.83 1.54,-0.11 3,-0.85 4.57,-0.71 a 60.11,60.11 0 0 1 7.33,2.22 19.06,19.06 0 0 0 7.98,0.83 z"
         id="path1035"
         inkscape:connector-curvature="0"
         style="fill:#3148a1" />
      <path
         class="cls-1"
         d="m 412.36,481.32 c 0.15,0 0.31,0.05 0.46,0.09 l 3.19,2.36 c 0.09,0.14 0.17,0.26 0.26,0.42 q -2.02,-1.35 -3.91,-2.87 z"
         id="path1037"
         inkscape:connector-curvature="0"
         style="fill:#3148a1" />
      <path
         class="cls-1"
         d="m 303.82,465.44 a 5,5 0 0 0 0.39,2.47 c -3.25,-0.79 -6.48,-1.62 -9.81,-2.33 a 7.4,7.4 0 0 0 1.16,-0.44 c 2.34,-0.35 5.64,1.03 8.26,0.3 z"
         id="path1039"
         inkscape:connector-curvature="0"
         style="fill:#3148a1" />
      <path
         class="cls-1"
         d="m 368.8,492.52 c 1.57,0.89 3.83,0.24 4.81,0.32 l 2.61,2.56 c 0.82,0.92 1.65,1.84 2.5,2.75 0.85,0.91 1.74,1.82 2.66,2.72 0.92,0.9 1.78,1.95 2.76,2.93 a 9.32,9.32 0 0 1 1.78,0.74 16.22,16.22 0 0 0 2.5,0.94 23.3,23.3 0 0 0 1.29,3.59 c -1.14,-1 -2.26,-2.13 -3.42,-3.13 l -3.49,-2.89 c -0.59,-0.48 -1.15,-1 -1.76,-1.46 l -1.84,-1.34 -3.68,-2.75 c -1.25,-0.9 -2.59,-1.69 -3.89,-2.57 l -1.95,-1.29 -1,-0.66 -1,-0.59 c -2.78,-1.55 -5.46,-3.3 -8.44,-4.72 l 2.45,1 c 0.83,0.35 1.58,0.79 2.38,1.2 1.56,0.85 3.15,1.72 4.73,2.65 z"
         id="path1041"
         inkscape:connector-curvature="0"
         style="fill:#3148a1" />
      <path
         class="cls-1"
         d="m 30.5,365.67 c 7.78,7.22 15.5,15.72 24.2,23.33 a 112.72,112.72 0 0 0 13.63,10.4 64.55,64.55 0 0 0 14.89,7.14 c -5,-3.71 -10.24,-7.86 -15.23,-12.22 A 157.61,157.61 0 0 1 54.35,381 c -7.89,-8.8 -12.67,-16.8 -11.19,-20.65 1.48,-3.85 7,1.72 14.38,9.25 3.67,3.78 7.84,8 12.12,11.91 a 89.69,89.69 0 0 0 12.48,9.71 c -1.57,-2 -1.56,-2 -3.07,-4 1.49,2 3.08,4 5.32,4.36 -0.78,-1 -1.79,-2.11 -2.88,-3.29 -1.09,-1.18 -2.21,-2.48 -3.26,-3.75 a 43.45,43.45 0 0 1 -2.75,-3.72 9.54,9.54 0 0 1 -1.36,-3.15 c 1.46,0.35 2.89,0.72 4.35,1 C 75.42,373 70,366.55 65,359.74 c -5,-6.81 -9.61,-13.91 -11.46,-20 a 119.58,119.58 0 0 0 47.84,51.69 c 3.72,2 7.46,4.14 11.46,5.84 3.91,1.88 8.08,3.36 12.22,4.92 2.09,0.73 4.24,1.36 6.37,2 l 3.21,1 3.36,0.81 c 2.2,0.55 4.37,1.15 6.59,1.65 l 6.7,1.39 c 9,1.69 18.15,3 27.43,3.85 l 3.46,0.34 3.49,0.27 c 2.33,0.18 4.64,0.38 7,0.53 4.67,0.27 9.3,0.57 14,0.76 9.28,0.46 18.57,0.76 27.73,1.15 20.57,0 40.76,-1.16 61,-1.87 10.13,-0.32 20.26,-0.52 30.48,-0.4 2.55,0 5.12,0.15 7.68,0.22 l 3.85,0.11 c 1.28,0.05 2.57,0.15 3.86,0.23 l 7.74,0.48 7.78,0.79 c 1,0.15 2.09,0.37 3.34,0.65 1.25,0.28 2.63,0.74 4.11,1.19 2.95,0.94 6.3,1.95 9.77,3.43 3.47,1.48 7.11,2.83 10.59,4.63 3.48,1.8 6.9,3.34 9.9,5.18 A 203.08,203.08 0 0 1 427,449 a 354.27,354.27 0 0 1 28.95,22.46 255.86,255.86 0 0 1 23.76,26.38 c 7,8.81 13.28,17.47 19.41,25.67 6.13,8.2 12.1,15.91 18.37,22.78 3.14,3.41 6.35,6.68 9.62,9.64 a 114.16,114.16 0 0 0 10.67,8.41 17.28,17.28 0 0 1 3.92,4.08 12.4,12.4 0 0 1 1.2,2.3 5,5 0 0 1 0.41,2 c -0.07,2.36 -3.21,3.47 -11.64,-1.32 -1.81,-0.9 -3.53,-1.92 -5.27,-2.95 -1.74,-1.03 -3.4,-2.16 -5.09,-3.29 l -1.26,-0.85 -1.21,-0.9 -2.42,-1.84 c -1.62,-1.22 -3.18,-2.65 -4.76,-4 A 158.65,158.65 0 0 1 493.7,538.7 c 1.56,0.06 3.43,1.94 5.38,4 1.95,2.06 4,4.25 6,5.13 -7.38,-10.45 -13.6,-19.47 -22.17,-30.15 l 8.48,10.5 c 2.79,3.35 5.58,6.75 8.36,9.91 -7,-8 -14.09,-17.31 -21.85,-27.17 a 357.75,357.75 0 0 0 -26,-30.21 26.82,26.82 0 0 1 -2.33,-3 c -0.74,-1 -1.42,-2.13 -2.08,-3.26 -0.66,-1.13 -1.31,-2.28 -2,-3.46 l -1,-1.77 c -0.37,-0.59 -0.75,-1.18 -1.15,-1.77 a 35.86,35.86 0 0 0 -5.75,-6.87 31.52,31.52 0 0 0 -9.24,-5.54 c 14.15,13.54 25.56,28.48 35.72,42.86 l 14.86,21.15 c 4.88,6.88 9.72,13.38 14.76,19.58 a 1,1 0 0 0 -0.24,0 c 9.2,10.74 17.22,20 26.61,28.05 -3.14,-2.29 -6.31,-4.67 -8.51,-7.48 l 2.21,2.73 c 0.74,0.9 1.51,1.71 2.27,2.57 0.76,0.86 1.52,1.71 2.33,2.52 l 2.42,2.42 1.22,1.26 1.27,1.16 2.56,2.3 c 1.74,1.49 3.52,2.94 5.31,4.36 a 153.49,153.49 0 0 0 23.36,14.74 120.79,120.79 0 0 1 -36,-18.51 l -4.09,-3.19 c -1.36,-1.08 -2.65,-2.24 -4,-3.37 -1.35,-1.13 -2.59,-2.38 -3.88,-3.58 -1.29,-1.2 -2.6,-2.4 -3.84,-3.71 -2.49,-2.61 -5,-5.16 -7.42,-8 -1.21,-1.38 -2.43,-2.73 -3.63,-4.15 l -3.57,-4.3 c -9.48,-11.53 -18.56,-24.19 -28.37,-36.6 -9.81,-12.41 -20.55,-24.72 -33,-35.26 5.33,7.64 12.74,14.83 19.45,22.2 6.71,7.37 12.64,14.7 15.3,22 -8.48,-10.91 -17.21,-22.06 -27.11,-32.82 -2.4,-2.74 -5.08,-5.32 -7.65,-8 -1.27,-1.35 -2.68,-2.59 -4.05,-3.88 l -4.12,-3.84 -4.36,-3.68 -2.19,-1.83 -1.1,-0.92 -1.15,-0.86 -4.61,-3.44 c -1.54,-1.14 -3.06,-2.32 -4.69,-3.34 2.12,0.91 4.09,2 6.18,2.91 A 79.46,79.46 0 0 0 395,448.27 c -2.09,-1.33 -4.29,-2.46 -6.47,-3.65 l -3.3,-1.73 c -1.1,-0.56 -2.25,-1 -3.37,-1.53 l -6.8,-2.95 -6.87,-2.54 c -1.14,-0.42 -2.27,-0.87 -3.41,-1.27 l -3.41,-1.14 c -2.26,-0.75 -4.5,-1.58 -6.72,-2.35 l -4.75,-1.62 c 1.56,0.56 3.16,1.09 4.75,1.62 a 207.33,207.33 0 0 1 45.86,23.14 q -2.67,-1.23 -5.35,-2.64 c -0.9,-0.47 -1.78,-1 -2.7,-1.45 l -2.81,-1.4 c -1.89,-1 -3.82,-2 -5.81,-3.09 l -6.3,-3.19 a 43.91,43.91 0 0 0 3.53,2.75 l 2,1.41 2.11,1.52 c 1.44,1 3,2 4.51,3.08 0.77,0.53 1.57,1 2.33,1.58 l 2.29,1.7 c 2.1,1.32 4.22,2.61 6.3,4 l 6,4.34 c 1,0.74 2,1.41 3,2.21 l 2.87,2.35 c 1.89,1.58 3.85,3.1 5.6,4.79 -0.73,-0.6 -1.42,-1.24 -2.17,-1.81 l -2.27,-1.71 c -1.51,-1.13 -3,-2.25 -4.55,-3.34 -3.13,-2.07 -6.33,-4 -9.48,-5.86 -3.27,-1.67 -6.5,-3.29 -9.72,-4.76 -3.3,-1.31 -6.54,-2.58 -9.73,-3.68 a 245.09,245.09 0 0 1 25.21,17.06 178.94,178.94 0 0 1 21.89,20.74 179.46,179.46 0 0 0 -25.24,-20.73 l -5.49,-4.16 -5.74,-3.82 c -1,-0.63 -1.92,-1.29 -2.9,-1.89 l -3,-1.74 c -2,-1.14 -4,-2.34 -6,-3.43 -4.15,-2.05 -8.26,-4.25 -12.57,-6 l -3.21,-1.38 -1.61,-0.68 -1.64,-0.62 -6.51,-2.4 2.07,0.54 c -1.36,-0.42 -2.7,-0.89 -4.07,-1.24 l -5.22,-1.64 c -1.75,-0.53 -3.49,-1.13 -5.26,-1.56 l -5.31,-1.4 -2.66,-0.7 -2.68,-0.6 a 85.75,85.75 0 0 0 -19.41,-1.23 l -3.19,-0.42 c 2.11,-0.44 3.21,-1 -0.63,-2 -8.16,-2.31 -16.91,-2.86 -25.89,-3.41 -8.98,-0.55 -18.24,-1 -27.63,-3.11 -4.92,-1.1 -11.66,-1.1 -18.89,-0.93 a 4.44,4.44 0 0 0 -3.93,0.1 l -4.71,0.1 a 99.54,99.54 0 0 0 -11.45,-0.12 c 3.72,0.18 7.58,0.19 11.45,0.12 q 2.16,0.09 4.29,0.12 a 6.91,6.91 0 0 1 -4.22,1.15 c 26.34,2.27 53.89,4.28 81.61,8 -1.74,0.36 -4.17,0.61 -5.19,0.87 2.78,-0.17 5.57,-0.33 8.38,-0.45 8.95,1.28 17.92,2.63 26.88,4.45 a 29,29 0 0 0 -7.67,0.18 269.64,269.64 0 0 1 37.18,11.18 178.88,178.88 0 0 1 34.9,18.07 181.56,181.56 0 0 1 26.32,25.48 c 7.88,9.16 15,18.75 22,28.35 a 175.58,175.58 0 0 0 -23.1,-33.1 c 13.25,13 24.7,27.45 35.68,41.81 10.98,14.36 21.53,28.74 33.18,42 -3.25,-1.25 -6.61,-3.36 -10,-5.1 -3.39,-1.74 -6.41,-3.41 -9.1,-3.83 -1.13,1.28 6.22,10.62 0.95,6.07 -10.12,-7.92 -16.89,-16.4 -22.84,-22.92 -5.95,-6.52 -11.21,-11.26 -18,-12.28 -1.59,0 0,6.86 1.1,13 1.1,6.14 1.85,11.59 -1.64,8.58 -1.32,-1.36 -2.86,-3 -4.57,-4.93 -1.71,-1.93 -3.54,-3.93 -5.52,-6.19 l -6.18,-7 c -2.14,-2.35 -4.34,-4.92 -6.57,-7.36 -1.12,-1.54 -2.29,-3.08 -3.51,-4.64 -1.22,-1.56 -2.48,-3 -3.77,-4.52 -0.2,-0.49 -1.15,-0.76 -2.29,-1.13 -4.78,-4.83 -9.37,-9.39 -13.46,-12.92 l -2.91,-2.63 -2.7,-2.22 c -0.84,-0.71 -1.63,-1.39 -2.35,-2 -0.72,-0.61 -1.45,-1.16 -2.07,-1.7 l -2.75,-2.4 -1.39,-1.17 c -0.46,-0.38 -1,-0.71 -1.46,-1.07 a 9.54,9.54 0 0 1 -1.67,-3.42 c -1.67,-0.23 -3.17,-0.67 -4.74,-1 -2.81,-1.71 -5.55,-3.52 -8.54,-5 -1.47,-0.76 -2.91,-1.57 -4.41,-2.28 l -4.59,-2 -2.38,-1.61 -2.47,-1.5 c -1.66,-1 -3.32,-2 -5,-2.92 -0.1,0.59 0.26,1.53 -0.62,1.9 a 211.38,211.38 0 0 0 -25.41,-6.81 43.28,43.28 0 0 1 -9.36,-5.11 c -5.35,1.88 -13.51,1.22 -22.7,0.28 l -14.1,-1.6 c -4.76,-0.46 -9.35,-0.89 -13.61,-1 v 0.2 l -26,-1.92 a 31.15,31.15 0 0 1 -4.07,-2.09 c -2.26,0.74 -4.58,0.65 -5.71,1 -3.55,-0.59 -6.84,-1.3 -10,-2 -3.16,-0.7 -6.17,-1.59 -9.17,-2.41 -1.14,0.37 -3.4,1.91 -5.81,1.72 -2.41,-0.19 -4.74,-0.58 -7.06,-0.8 -2.32,-0.22 -4.66,-0.47 -6.95,-0.66 l -4,-0.61 -4.06,-0.71 c -2.71,-0.5 -5.42,-0.93 -8.18,-1.51 -18.46,-3.82 -36.83,-9.09 -54.26,-17.06 a 4.52,4.52 0 0 1 0,-2.55 14.43,14.43 0 0 1 -4.87,-1.15 29.69,29.69 0 0 0 -4.49,-1.6 c 0.57,-0.06 1,-0.25 1.1,-0.7 a 32.19,32.19 0 0 1 -5.17,-1.67 16.68,16.68 0 0 1 -3.51,-2 88.4,88.4 0 0 0 -7.21,-5.17 c -1.6,-0.74 -3.43,-0.83 -5.1,-1.43 -0.72,-0.47 -1.42,-1 -2.14,-1.48 a 43.6,43.6 0 0 0 -9.9,-9.25 c -3.61,-2.62 -7.54,-5 -11.33,-7.93 q -5.31,-4.9 -10.23,-10.09 c -3.3,-3.42 -6.45,-7 -9.51,-10.51 -4.92,-5.64 -5.09,-9.42 -7.42,-14.13 z"
         id="path1043"
         inkscape:connector-curvature="0"
         style="fill:#3148a1" />
      <path
         class="cls-1"
         d="m 274.25,461.37 c -7.89,-1.55 -15.95,-3 -24,-4.41 8.75,0.69 16.64,-0.06 24,4.41 z"
         id="path1045"
         inkscape:connector-curvature="0"
         style="fill:#3148a1" />
      <path
         class="cls-1"
         d="m 438.63,562.59 a 40.41,40.41 0 0 0 1.69,5.52 54.72,54.72 0 0 0 2.68,5.68 c -6.93,-8.89 -13.35,-17.58 -19.57,-25.76 -6.22,-8.18 -12.32,-16 -18.51,-23.09 l 0.14,-0.14 c 5.31,5.39 10.88,13.25 16.55,20.73 5.67,7.48 11.49,14.28 17.02,17.06 z"
         id="path1047"
         inkscape:connector-curvature="0"
         style="fill:#3148a1" />
      <path
         class="cls-1"
         d="m 295.56,465.14 a 7.4,7.4 0 0 1 -1.16,0.44 h -0.07 a 3.32,3.32 0 0 1 1.23,-0.44 z"
         id="path1049"
         inkscape:connector-curvature="0"
         style="fill:#3148a1" />
      <path
         class="cls-1"
         d="m 490.44,573.57 c 0.45,0.53 0.93,1 1.4,1.49 -2,-1.67 -3.83,-3.51 -5.73,-5.28 -1.9,-1.77 -3.71,-3.66 -5.52,-5.54 1.63,1.34 3.19,2.89 4.87,4.43 1.68,1.54 3.32,3.21 4.98,4.9 z"
         id="path1051"
         inkscape:connector-curvature="0"
         style="fill:#3148a1" />
      <path
         class="cls-1"
         d="M 533.29,609.42 A 209.64,209.64 0 0 0 562.68,622 q 9.47,4 19,7.37 9.53,3.37 18.95,6.53 a 200.06,200.06 0 0 1 -67.34,-26.48 z"
         id="path1053"
         inkscape:connector-curvature="0"
         style="fill:#3148a1" />
      <path
         class="cls-1"
         d="m 465.65,597.8 c 1.52,2 3.06,4.13 4.59,6.25 1.53,2.12 3.17,4.24 4.87,6.35 -1.93,-1.87 -3.85,-3.73 -5.6,-5.62 l -5.34,-5.62 c 1.09,0.28 1.1,-0.86 1.48,-1.36 z"
         id="path1055"
         inkscape:connector-curvature="0"
         style="fill:#3148a1" />
      <path
         class="cls-1"
         d="m 461,541.46 2,2.49 -6.29,-5.45 c 0.91,0.5 2.81,2.03 4.29,2.96 z"
         id="path1057"
         inkscape:connector-curvature="0"
         style="fill:#3148a1" />
      <path
         class="cls-1"
         d="m 506.47,636.24 -4.78,-3.39 -4.69,-3.53 a 43.09,43.09 0 0 0 6.52,2.62 15.2,15.2 0 0 0 2.95,4.3 z"
         id="path1059"
         inkscape:connector-curvature="0"
         style="fill:#3148a1" />
      <path
         class="cls-1"
         d="m 561.3,661.07 c 2.52,0.82 5,1.63 7.47,2.35 2.47,0.72 4.86,1.51 7.23,2.19 -6,-1.22 -12.08,-2.83 -18,-4.58 1.5,-0.15 2.72,-0.33 3.3,0.04 z"
         id="path1061"
         inkscape:connector-curvature="0"
         style="fill:#3148a1" />
      <path
         class="cls-2"
         d="m 160.89,372.93 a 33.22,33.22 0 0 1 0.87,4.76 c 1.29,2.17 3.49,4.92 5.38,7.55 1.89,2.63 3.45,5.1 3.48,6.85 -0.67,0.63 -8.15,-1.11 -8.88,-2.27 a 47.35,47.35 0 0 1 -5.51,-6.87 c -1.48,-2.29 -2.72,-4.54 -4,-6.82 -1.28,-2.28 -2.48,-4.62 -4,-7.06 a 70.4,70.4 0 0 0 -5.58,-7.71 c -0.64,-1.17 -5.37,-2.28 -9.43,-4.05 0,0 0.63,1.17 1.45,2.47 -2.82,-1.2 -5.6,-3.71 -8.5,-6.31 l -4.36,-4 a 43.45,43.45 0 0 0 -4.39,-3.61 10,10 0 0 1 0.88,2.64 16.08,16.08 0 0 0 -2.67,-5 c -0.63,-0.86 -1.34,-1.72 -2.11,-2.58 -0.77,-0.86 -1.55,-1.78 -2.4,-2.66 -1.68,-1.78 -3.5,-3.55 -5.31,-5.26 l -2.68,-2.52 -2.39,-2.48 a 26.07,26.07 0 0 1 -1.92,-4 c -1.52,-1.36 -2.95,-2.79 -4.35,-4.26 -1.4,-1.47 -2.7,-3.07 -4.1,-4.63 -1.4,-1.56 -2.83,-3.17 -4.41,-4.76 -1.58,-1.59 -3.31,-3.17 -5.14,-4.83 a 87.84,87.84 0 0 1 -9,-11.27 c -3,-4.47 -6.12,-9.17 -9.51,-13.45 -2.48,-4 -4.84,-8.23 -7.17,-12.49 -1.21,-2.1 -2.19,-4.36 -3.29,-6.53 -1.1,-2.17 -2.16,-4.37 -3.27,-6.51 -2.32,-4.23 -4.37,-8.54 -6.78,-12.52 a 92.64,92.64 0 0 0 -8,-11.07 c -1.93,-2.25 -4,-7.27 -4.19,-12.42 a 18.37,18.37 0 0 1 -3.32,-3.43 42.21,42.21 0 0 1 -2.93,-4.38 74.27,74.27 0 0 1 -5,-10.67 c -1.32,-3.91 -2.49,-8 -3.55,-12 -0.52,-2 -1.06,-4 -1.49,-5.93 -0.43,-1.93 -0.77,-3.86 -1.13,-5.68 a 17.8,17.8 0 0 1 1.28,-11.83 C 8.36,152.09 3.57,137.29 2.17,122.34 -0.18,103.4 -1.13,84.09 2.24,63.24 A 32.67,32.67 0 0 0 2.29,57.57 39.47,39.47 0 0 0 1.7,51.86 L 3.49,48.22 C 4.52,36.1 3.68,24.5 6.83,14.25 9.07,7.25 11.9,3.76 14.88,2 c 2.98,-1.76 6,-1.84 8.89,-2 a 93.36,93.36 0 0 0 1.08,11.84 c 0.29,2 0.58,4 0.88,6.11 0.3,2.11 0.6,4.16 0.81,6.3 0.21,2.14 0.42,4.31 0.51,6.54 0.09,2.23 0.06,4.51 -0.07,6.87 a 67.57,67.57 0 0 1 -2.56,15.12 29.76,29.76 0 0 0 -1.06,10.91 c 0.09,2 0.25,4.14 0.4,6.2 0.09,1 0.14,2.06 0.24,3.07 0.1,1.01 0.19,2 0.26,3 0.54,3.29 0,6.69 -0.15,10 -0.15,3.31 0.14,6.52 1.94,9.31 -2.18,4.1 -3.5,11.17 -4.15,19.06 a 101.88,101.88 0 0 0 0.25,12.08 c 0.08,1 0.18,2 0.29,3 0.11,1 0.33,2 0.51,2.91 0.38,1.91 0.82,3.76 1.33,5.51 -0.29,1.26 -0.92,0 -1.12,2.14 0.45,1.22 0.87,2.45 1.27,3.69 l 0.6,1.87 c 0.22,0.62 0.44,1.25 0.67,1.87 q 1.3,3.73 2.42,7.6 c 0.37,1.29 0.73,2.59 1.1,3.89 0.37,1.3 0.69,2.62 1.13,3.92 0.81,2.61 1.59,5.25 2.36,7.92 0.37,1.34 0.75,2.68 1.13,4 0.38,1.32 0.73,2.71 1.2,4 q 1.35,4 2.7,8.06 c 0.45,1.35 0.91,2.7 1.37,4 0.46,1.3 0.88,2.73 1.47,4 1.1,2.66 2.23,5.32 3.39,8 0.64,1.31 1.26,2.67 1.85,4.06 0.29,0.7 0.58,1.4 0.87,2.12 0.29,0.72 0.57,1.44 0.91,2.14 1.3,2.86 2.58,5.85 3.91,8.9 a 95.59,95.59 0 0 0 10,18.22 5.29,5.29 0 0 1 0.83,1.58 c 0.3,0.76 0.62,1.73 1.07,2.72 a 32.11,32.11 0 0 0 3,5.89 l 3.12,2.83 c 2.32,4.48 5.6,8.82 8.32,13.08 0.68,1.06 1.35,2.11 2,3.14 0.3,0.52 0.61,1 0.91,1.54 l 0.91,1.47 a 33.54,33.54 0 0 1 2.81,5.58 59.73,59.73 0 0 0 6.46,10.59 c 2.35,3.19 4.61,6.25 6.55,9.5 a 81.89,81.89 0 0 0 5.71,7.61 c 1.1,1.33 2.23,2.7 3.42,4 1.19,1.3 2.42,2.66 3.64,4 1.22,1.34 2.38,2.67 3.51,4 l 3.23,3.92 a 33.58,33.58 0 0 1 4.74,7.42 11,11 0 0 0 2.19,2.55 c 1.08,1 2.32,2 3.24,2.94 l 1.65,3.53 c 1.86,1.79 4.55,1.35 6.45,3.07 3,2.88 6.15,6 9.42,8.92 3.27,2.92 6.46,6 9.48,8.84 5.95,5.8 10.82,11.26 12.19,16.13 -1.42,-0.36 -6.14,-3.03 -5.47,-0.15 z"
         id="path1063"
         inkscape:connector-curvature="0"
         style="fill:#b1d0fe" />
      <path
         class="cls-2"
         d="m 212.1,421.64 c -1.06,0.42 1.11,2 2.62,2.65 -0.8,-1.53 -1,-2.93 -3.25,-5.17 l 4,2.65 c 3.25,-0.57 -3.76,-2.92 -0.88,-2.23 2.16,1.53 3.76,2.9 2.13,3.2 -0.1,-0.7 -1.26,-1 -2.51,-1.94 -1,1.12 1,2.93 1.77,4.47 -2.16,-1.3 -4.3,-2.6 -6.44,-3.93 z"
         id="path1065"
         inkscape:connector-curvature="0"
         style="fill:#b1d0fe" />
      <path
         class="cls-2"
         d="m 199.12,410.77 1.2,1 c 1.07,-0.39 0.11,-1.67 -0.85,-3 4.91,4.76 -1.43,2.33 1.16,5.76 0.49,-0.47 -2.63,-3.38 -1.51,-3.76 z"
         id="path1067"
         inkscape:connector-curvature="0"
         style="fill:#b1d0fe" />
      <path
         class="cls-2"
         d="m 208.65,412 c 1.46,3.09 4.81,3.24 4.26,5.47 -1.82,-1.91 -3.62,-3.84 -5.4,-5.77 z"
         id="path1069"
         inkscape:connector-curvature="0"
         style="fill:#b1d0fe" />
      <path
         class="cls-2"
         d="m 166.92,384.49 c -2.19,-0.79 -1.09,-0.4 -3.85,-2.79 l 4.13,3.24 z"
         id="path1071"
         inkscape:connector-curvature="0"
         style="fill:#b1d0fe" />
      <path
         class="cls-2"
         d="m 89.87,311.48 c 0.54,1.51 0.95,2.94 1.6,4.48 a 18.84,18.84 0 0 0 3,5 16.55,16.55 0 0 1 -3.42,-5.71 c -0.66,-1.79 -1,-3.25 -1.18,-3.77 z"
         id="path1073"
         inkscape:connector-curvature="0"
         style="fill:#b1d0fe" />
      <path
         class="cls-2"
         d="m 67.34,269.89 c 0.67,-0.29 0,-1.69 1.45,-0.07 0.21,1 -2,0.88 0.64,3.1 z"
         id="path1075"
         inkscape:connector-curvature="0"
         style="fill:#b1d0fe" />
      <path
         class="cls-2"
         d="m 68.4,264.67 v -2.43 c -0.21,0.09 -0.3,1.07 0,2.43 z"
         id="path1077"
         inkscape:connector-curvature="0"
         style="fill:#b1d0fe" />
      <path
         class="cls-2"
         d="m 141.71,371.36 v -0.5 c -0.22,-0.09 -0.51,-0.16 -0.76,-0.25 0.23,0.24 0.44,0.47 0.76,0.75 z"
         id="path1079"
         inkscape:connector-curvature="0"
         style="fill:#b1d0fe" />
      <path
         class="cls-2"
         d="m 136.89,365.77 c 1,1.49 1.91,3 2.9,4.46 a 12.16,12.16 0 0 1 1.16,0.38 c -2.35,-2.44 -0.61,-2.72 -4.06,-4.84 z"
         id="path1081"
         inkscape:connector-curvature="0"
         style="fill:#b1d0fe" />
      <path
         class="cls-2"
         d="m 141.73,370 v 0.9 a 9.58,9.58 0 0 1 4.22,3.64 16.81,16.81 0 0 0 5.08,4.8 45.36,45.36 0 0 0 -9.3,-9.34 z"
         id="path1083"
         inkscape:connector-curvature="0"
         style="fill:#b1d0fe" />
      <path
         class="cls-2"
         d="m 146.66,372 1.91,0.41 c 1.08,1.14 0.53,1.63 0.25,1.87 0.9,0.61 1.82,1.19 2.74,1.77 1.89,-0.28 -5.7,-6.84 -7.58,-8.66 z"
         id="path1085"
         inkscape:connector-curvature="0"
         style="fill:#b1d0fe" />
      <path
         class="cls-2"
         d="m 178.51,380.55 -0.12,-0.07 0.12,0.08 z"
         id="path1087"
         inkscape:connector-curvature="0"
         style="fill:#b1d0fe" />
      <path
         class="cls-2"
         d="m 173.28,372.15 -1.87,1.76 c 3.48,2.28 3,4.15 7,6.57 l 0.12,0.07 c 0.19,-3.04 -3.89,-4.78 -5.25,-8.4 z"
         id="path1089"
         inkscape:connector-curvature="0"
         style="fill:#b1d0fe" />
      <path
         class="cls-2"
         d="m 134.07,359.92 c 3.19,2.8 5.59,4.9 7.51,4.65 L 136,359 c 1.57,2.78 -0.81,0.69 -1.93,0.92 z"
         id="path1091"
         inkscape:connector-curvature="0"
         style="fill:#b1d0fe" />
      <path
         class="cls-2"
         d="m 132.32,351.93 2.85,2.39 -0.68,-1.71 c -0.33,0.16 -1.06,0 -2.17,-0.68 z"
         id="path1093"
         inkscape:connector-curvature="0"
         style="fill:#b1d0fe" />
      <path
         class="cls-2"
         d="m 134.49,352.61 c 0.37,-0.18 0.22,-0.81 -0.74,-1.83 z"
         id="path1095"
         inkscape:connector-curvature="0"
         style="fill:#b1d0fe" />
      <path
         class="cls-2"
         d="m 141.37,355.92 c -0.67,-2.79 -1.88,-1.11 -4.68,-4.16 -1.45,1.18 3.11,2.8 4.68,4.16 z"
         id="path1097"
         inkscape:connector-curvature="0"
         style="fill:#b1d0fe" />
      <path
         class="cls-2"
         d="m 129.06,344 -0.1,-1.87 -1.46,1.11 c 0.5,0.22 1.03,0.49 1.56,0.76 z"
         id="path1099"
         inkscape:connector-curvature="0"
         style="fill:#b1d0fe" />
      <path
         class="cls-2"
         d="m 101.51,327.75 c 3.86,1.88 -0.38,-2.88 0,-3.78 z"
         id="path1101"
         inkscape:connector-curvature="0"
         style="fill:#b1d0fe" />
      <path
         class="cls-2"
         d="m 128.56,337.88 -0.21,2.09 1.09,-0.2 c 0.74,0.73 2,1.72 2.19,2.86 1,-0.45 0.5,-1.2 -0.37,-2.06 a 28.58,28.58 0 0 1 -2.7,-2.69 z"
         id="path1103"
         inkscape:connector-curvature="0"
         style="fill:#b1d0fe" />
      <line
         class="cls-2"
         x1="114.21"
         y1="329.87"
         x2="112.23"
         y2="326.23001"
         id="line1105"
         style="fill:#b1d0fe" />
      <path
         class="cls-2"
         d="m 139.46,339.71 c 0.57,-0.46 -2.17,-6 2.24,-1.14 -1.72,-1.84 -4.47,-4.14 -1.82,-3.67 -3,-2.76 -1.46,1.15 -4,0 2.31,0.7 2.38,3.19 3.58,4.81 z"
         id="path1107"
         inkscape:connector-curvature="0"
         style="fill:#b1d0fe" />
      <path
         class="cls-2"
         d="m 133.24,331.79 c -1.15,-1.65 -2.52,-3.76 -3.84,-4 1.45,1.39 1.73,3.7 3.84,4 z"
         id="path1109"
         inkscape:connector-curvature="0"
         style="fill:#b1d0fe" />
      <polygon
         class="cls-2"
         points="134.81,327.46 135.8,330.47 135.83,327.94 "
         id="polygon1111"
         style="fill:#b1d0fe" />
      <line
         class="cls-2"
         x1="98.279999"
         y1="307.10001"
         x2="96.559998"
         y2="308.73001"
         id="line1113"
         style="fill:#b1d0fe" />
      <path
         class="cls-2"
         d="m 126.54,319.35 c 1.73,1.61 3.39,3.29 5.19,4.83 -1.33,-1.69 -2.54,-3.48 -3.8,-5.22 -3.48,-2 -2.61,-0.22 -1.1,2.19 -0.35,-0.72 -0.54,-1.37 -0.29,-1.8 z"
         id="path1115"
         inkscape:connector-curvature="0"
         style="fill:#b1d0fe" />
      <path
         class="cls-2"
         d="m 129.79,326.86 2,1 c 0.37,-0.27 -2,-2.42 -3.7,-4.66 1.02,1.61 1.96,3.04 1.7,3.66 z"
         id="path1117"
         inkscape:connector-curvature="0"
         style="fill:#b1d0fe" />
      <path
         class="cls-2"
         d="m 128.12,323.18 c -0.44,-0.68 -0.88,-1.38 -1.29,-2 a 12.31,12.31 0 0 0 1.29,2 z"
         id="path1119"
         inkscape:connector-curvature="0"
         style="fill:#b1d0fe" />
      <path
         class="cls-2"
         d="M 86.07,294 90,299.47 A 17,17 0 0 0 86.07,294 Z"
         id="path1121"
         inkscape:connector-curvature="0"
         style="fill:#b1d0fe" />
      <path
         class="cls-2"
         d="m 124.39,314.2 -0.69,-0.73 -1.51,1.06 c 1.68,1.23 1.9,-0.12 2.2,-0.33 z"
         id="path1123"
         inkscape:connector-curvature="0"
         style="fill:#b1d0fe" />
      <path
         class="cls-2"
         d="m 121.1,305.73 c -0.39,-2.09 -3.76,-4 -4.9,-5 0.56,2.55 2.37,4.31 4,6.74 -1.64,-2.41 0.29,-1.33 0.9,-1.74 z"
         id="path1125"
         inkscape:connector-curvature="0"
         style="fill:#b1d0fe" />
      <path
         class="cls-2"
         d="m 117.07,297.9 3.91,4.41 c 0.72,-2.21 -2.12,-2.67 -3.91,-4.41 z"
         id="path1127"
         inkscape:connector-curvature="0"
         style="fill:#b1d0fe" />
      <path
         class="cls-2"
         d="m 110.38,291.17 c -0.48,-0.29 -0.63,0.38 -1.58,-0.2 0,1.14 1.56,2.47 2.34,3.72 z"
         id="path1129"
         inkscape:connector-curvature="0"
         style="fill:#b1d0fe" />
      <path
         class="cls-2"
         d="m 133.38,341.27 c -1.45,-1.2 -2.7,-2.32 -3.94,-3.35 0.78,1 1.55,2.05 2.35,3.06 l 2.45,3 a 13.22,13.22 0 0 0 -0.86,-2.71 z"
         id="path1131"
         inkscape:connector-curvature="0"
         style="fill:#b1d0fe" />
      <path
         class="cls-2"
         d="m 1.34,30.76 a 57.72,57.72 0 0 1 0.88,7.52 c 0.17,2.78 0.12,5.76 0.14,8.74 0.05,6 -0.28,11.92 -0.17,16.19 C 2.05,65 2,66.75 1.93,68.6 c 0,0.92 0,1.85 0,2.8 0,0.95 0.07,1.9 0.07,2.86 0.21,3.86 0.53,7.86 0.94,11.91 l 1.61,12.27 c 0.22,2.06 0.58,4.1 0.85,6.14 0.27,2.04 0.54,4.07 0.76,6.09 l -0.74,-0.09 c 0,1.59 0,3.24 0,4.94 0,1.7 0.28,3.42 0.48,5.18 0.39,3.53 0.91,7.18 1.46,10.86 0.73,3.66 1.47,7.35 2.19,11 q 0.53,2.73 1,5.4 c 0.41,1.76 0.8,3.5 1.15,5.21 l 0.81,-0.93 c -0.31,-2.33 -0.89,-5.34 0.75,-3.79 0.18,3.13 0.56,7.32 0,8.38 l 1.84,2.06 c -0.35,2.11 -3.87,1.17 -1.78,6.4 2.05,1.22 2.22,4.35 2.4,7.12 0.18,2.77 0.36,5.15 2.41,4.72 -0.93,1.39 -0.56,3.22 0.15,5 a 44,44 0 0 1 2.31,4.87 l 1.28,-2.31 c 0.7,5.69 -0.39,11.73 0.91,14.23 1.35,3.27 3,7.13 4.69,11.06 0.85,2 1.72,3.93 2.6,5.84 a 29.83,29.83 0 0 0 1.42,2.76 c 0.5,0.89 1,1.76 1.49,2.59 -1.34,2.46 -3.27,-7.37 -3.38,-1.95 a 47.76,47.76 0 0 1 6.19,10.38 c 0.44,1 0.87,1.95 1.29,3 0.42,1.05 0.82,2 1.29,3 q 1.37,3 2.68,6.23 c 0.89,2.12 1.79,4.26 2.68,6.4 0.46,1.07 0.91,2.15 1.39,3.21 l 1.59,3.09 a 83.61,83.61 0 0 0 7.18,11.59 c -0.09,-0.53 -0.69,-2 0.17,-1.2 0.09,2 1.27,3.61 2.57,5.51 a 34.3,34.3 0 0 1 4,6.64 c 0.78,-1.49 -3.15,-7.84 -4.37,-10.18 4,-0.46 0,1.7 4.82,7.12 -0.11,-0.53 -0.33,-1.58 0,-1.72 4.49,5.52 -0.35,3.59 3.14,7.84 L 63.56,277 c 2.82,4.52 1.32,1.17 5.43,5.61 -2.14,0.41 -1.68,3.66 -0.93,5.08 1.14,0.05 4,5.13 5,3.44 a 10.84,10.84 0 0 0 1.52,4.66 14.56,14.56 0 0 0 2.34,2.74 11,11 0 0 1 3.88,7 c 3.06,1.34 -0.32,-3.44 1,-4.13 5.29,4.88 -0.17,3.08 1,5.48 2,1.33 8.53,7.82 10,11.89 L 94,318 c 1.47,2.78 3.88,6.08 5.91,9.09 1,1.5 1.94,2.93 2.63,4.17 a 7.59,7.59 0 0 1 1.22,3 c 1.66,0.15 1.62,-0.62 0.79,-1.81 a 22.23,22.23 0 0 0 -1.7,-2.05 l -2.11,-2.4 c 0.22,-1.41 3.62,1.41 4.82,3.11 -0.73,-0.77 -0.34,-1.65 -1.67,-2 0.7,-1.08 2.29,1.62 3.33,2.19 4.82,5.57 -2.6,-1.41 -1,1.31 2.29,1.61 6.93,6.72 6.22,3.35 4.19,4.1 0.17,3.12 1.83,5.79 -2.33,-4.14 -5.43,-3.27 -6.67,-6.9 -1.34,-0.35 -1.43,0.35 -0.78,1.81 1.91,1.57 4.17,4.37 6.24,6.45 2.07,2.08 3.8,3.6 4.42,2.81 l 0.88,2.64 2.71,0.61 0.47,1 c -0.3,-3.09 -3,-7 -3,-9.55 0.37,-0.92 2.33,1.52 3.61,2.52 l -0.2,2.1 c 2.75,3.19 4.36,0 8.18,4.24 -4.06,-0.8 2.54,6.64 4.6,10.36 5.77,0 1.5,-2.56 6.42,-2.59 1.58,1.37 3.74,2.95 5.94,4.64 a 32,32 0 0 1 6,5.56 c -9.38,-7.63 2.91,5.75 -5.45,0.65 1.34,1.59 3,2.25 4.58,3.6 -0.57,3.3 -3.82,-0.11 -3,3.39 l 1.92,-1 c 1.37,3 1.37,5.79 5.52,9.82 1.1,-0.3 4.12,0.45 5.79,2.46 -0.25,1.64 -0.22,2.39 3.91,5.56 5.18,1.47 3.91,-1.06 1.41,-4.45 -2.5,-3.39 -6.23,-7.73 -6,-9.71 -5.46,-4.85 -6.9,-9.13 -8.47,-13.84 a 45.45,45.45 0 0 0 -3.08,-7.39 38.3,38.3 0 0 0 -6.41,-8.79 c -2.93,-0.89 -2.42,0 -6.8,-3 -4.88,-0.06 4.05,7.27 5.3,10.91 -1.6,-0.68 -3.21,-1.36 -4,-2.75 l -0.14,2.78 c -7.1,-4.93 -1.29,-5.61 -7.54,-9.87 l 1.58,0.73 -3.64,-2.39 0.47,0.94 c -2,-1.68 -3.72,-1.07 -6.14,-4.45 l 3.42,1.32 c -2.37,-0.8 -1.06,-3.08 -3.88,-4.83 1.89,0.64 3,0.23 3.84,1 a 64.68,64.68 0 0 0 -4.24,-5.46 c -1.42,-1.68 -2.78,-3.29 -4.16,-4.84 q -2,-1.74 -4,-3.54 c -1.3,-1.19 -2.57,-2.4 -3.75,-3.69 q -3.6,-3.81 -6.93,-7.78 c -1.13,-1.31 -2.16,-2.7 -3.18,-4.08 -1.02,-1.38 -2,-2.79 -3,-4.19 -2,-2.82 -3.91,-5.61 -5.59,-8.61 a 14.18,14.18 0 0 0 0.43,1.74 6.38,6.38 0 0 1 -2.32,-5 c -1.26,-2.21 -2.5,-4.44 -3.71,-6.67 a 140.68,140.68 0 0 1 -10,-13.22 c 0.72,-0.86 1.28,-0.71 1.83,-0.1 -1.55,-1.84 -2.6,-2.91 -2.28,-0.26 -2.49,-3.35 -2.56,-5.54 -4.17,-8.15 l 5.37,4.71 c -0.93,-2.9 -2.85,-1.51 -4.33,-5.28 -3.89,-4.93 -0.08,3.32 -1.86,3.55 L 69.2,265 68.79,268.49 A 23.06,23.06 0 0 1 66.64,262 25,25 0 0 1 66.31,257.35 c 0.4,1.3 0.92,2.54 1.4,3.8 1.48,-0.05 0.62,-1.47 -0.5,-3.2 -1.12,-1.73 -2.46,-3.81 -2.27,-5 l 0.42,0.38 c -3,-5.38 -0.46,1.8 -2.78,-1.67 l -1.79,-7.4 -0.79,1.97 c -1.57,-1.58 -2.64,-4.6 -3.71,-8 -1.07,-3.4 -2.14,-7.14 -3.51,-10.39 -1.26,-3.83 -4.6,-8.18 -6.94,-12.81 0,1 0.46,3 -0.27,2.66 -0.59,-1.42 -1.57,-3.66 -2.08,-5.36 -0.51,-1.7 -0.41,-2.89 0.81,-2.11 l -2.79,-3.57 a 9.72,9.72 0 0 1 -0.74,-3.76 l -0.29,1.38 -2.48,-4.68 c 0.36,-0.07 0.4,-2.13 1.44,0.25 a 13.12,13.12 0 0 0 -1.1,-4.53 c -0.64,-1.52 -1.33,-3.13 -2.16,-4.79 A 47.62,47.62 0 0 1 31.77,179 l 1.62,2.35 a 10.13,10.13 0 0 1 -1.3,-3 11,11 0 0 1 -0.14,-2.46 11.58,11.58 0 0 0 -1.21,-5.93 l -0.94,1.6 c -1.66,-3.95 -2.06,-12 -0.66,-11.08 -3.3,0.14 0.47,-2.55 -2.82,-4.45 l 2.4,-3.11 c -1.36,-2.46 -2.37,-5 -3.48,-3 0.4,-4.43 0.22,-7.87 -2.08,-10 a 0.22,0.22 0 0 1 -0.09,-0.1 l -0.08,-0.08 H 23 c -0.38,-0.9 -0.47,-5.11 -1.54,-3.08 -1.43,-9.71 2,-5.49 0.87,-14.67 l -2.21,-0.16 c -0.34,-7.13 -2.43,-14 -4.12,-19.39 l 1.79,-0.79 c -0.65,-3.68 -1.86,0.8 -2.4,-5 0.31,-0.82 0.87,-1.56 1.36,-1.43 -0.11,-2.81 0.05,-6.07 0.28,-9.68 0.23,-3.61 0.79,-7.54 0.97,-11.73 0.36,0.08 0.68,1.18 0.84,1.74 0,-0.91 -0.06,-2 -0.13,-3.08 -0.07,-1.08 -0.09,-2.33 -0.17,-3.56 -0.14,-2.45 -0.35,-5 -0.55,-7.13 0.88,-2.38 1.9,-5 2.77,-7.79 0.87,-2.79 1.64,-5.78 2.49,-8.84 0.85,-3.06 1.48,-6.23 2.11,-9.42 0.63,-3.19 1.16,-6.41 1.53,-9.6 C 24.19,15.7 20.53,8.13 15.6,6.06 13.7,6.98 11.35,9.81 8.82,14.06 7.59,16.23 6.32,18.73 5,21.52 3.68,24.31 2.57,27.43 1.34,30.76 Z"
         id="path1133"
         inkscape:connector-curvature="0"
         style="fill:#b1d0fe" />
      <path
         class="cls-3"
         d="m 223.07,412.94 v 0.05 0.18 c 0.59,0.2 0.43,0.61 0.26,1.15 0.18,0 0.36,-0.05 0.45,0.14 -0.36,0.86 0,0.43 0.36,1.05 0,-0.19 0,-0.43 0.14,-0.53 l 0.18,1.19 c 0.35,-0.16 0.74,-0.3 1,-0.1 a 7,7 0 0 1 2.28,0.42 1.41,1.41 0 0 1 0.26,-0.49 0.53,0.53 0 0 1 0.49,0.48 1,1 0 0 0 0.22,-0.08 1,1 0 0 1 -0.22,0.08 1.81,1.81 0 0 1 0,0.52 c 0.09,-0.1 0.18,-0.19 0.32,-0.15 v -0.71 a 0.17,0.17 0 0 1 0.17,0 l -0.17,-0.18 -0.18,0.14 c -0.14,0.05 -0.23,-0.05 -0.32,-0.14 -0.09,-0.09 0.09,-0.24 0.18,-0.33 l -0.32,-0.38 c -0.54,-0.15 -0.31,1 -0.81,0.38 l 0.13,-0.19 c -0.13,-0.29 -0.13,-0.67 -0.49,-0.86 0.63,-0.28 -0.5,-0.8 0.36,-0.85 0.41,-1.09 -0.27,-2.52 0.63,-3.61 a 9.18,9.18 0 0 1 -2.45,-0.66 c 0.1,-0.1 0.19,-0.24 0.32,-0.19 l -0.32,-0.33 c 0,0.19 0.05,0.42 -0.18,0.52 -0.27,-0.52 -0.49,0.24 -0.81,0.19 l -0.32,-0.71 -0.12,0.08 c -0.19,1.28 -0.74,2.55 -1,3.82 z"
         id="path1135"
         inkscape:connector-curvature="0"
         style="fill:#f5e461" />
      <path
         class="cls-3"
         d="m 233.75,391.2 h -0.68 c -1.72,-10.87 1.17,-25.5 0.82,-38.93 l 2.54,0.33 c -1.54,-3.59 -2.46,-7.68 -4.27,-11.05 l -0.45,1.31 a 7.85,7.85 0 0 1 -2,-6.14 l 0.65,0.19 c 0.37,2.58 0.22,-0.18 2,0.87 l 0.33,0.45 0.33,-0.26 -0.34,-0.45 c 0.38,0.05 0.87,0 1,0.43 l 0.07,-0.6 c 1.8,-1.29 3.35,-1.29 5.36,-1.13 -0.25,-0.33 -2.23,0 -1.57,-1.42 l 0.65,0.19 -1.17,-1.57 0.86,-0.7 c -0.42,-0.56 -0.86,-0.93 -0.6,-1.5 l -1.34,-0.17 c 0.5,-2.58 -1,-5.82 -0.06,-8.43 -1.29,-0.57 0.42,-2 -0.67,-3.43 l -1.42,0.63 c -1.93,1.57 -0.92,5.25 -1.61,7.8 l -0.76,-0.1 c -0.23,-0.54 -0.86,-0.92 -0.49,-1.58 l -1.33,-0.18 c -4.69,1.12 1,4.59 0.31,5.52 -1.3,2 -2.85,-1.28 -2.67,-0.35 -1.78,-2.15 -3.31,1.8 -4.87,2.72 -3.11,2.54 -1.54,8.11 -1.46,11.47 3.32,5.6 -0.09,13.07 0,18.25 -0.39,2.49 4.66,6.48 0.5,8.08 l -0.84,4.65 -0.77,-0.1 c -0.24,4.54 1.59,9.54 2.16,13.77 0.16,1.85 2.13,2.41 0,3.25 -1.4,3.67 1.47,8 1.73,11.58 0.68,0 1.4,0.48 1.76,-0.18 -0.84,-1.83 0.86,-3.95 2.71,-4 l -0.18,0.69 1.5,-1.23 -0.59,-0.79 a 3.13,3.13 0 0 1 1.11,-0.3 c 0.65,-1.35 2.29,-2.52 3.4,-3.92 a 3.53,3.53 0 0 1 0.35,-3.67 z"
         id="path1137"
         inkscape:connector-curvature="0"
         style="fill:#f5e461" />
      <path
         class="cls-3"
         d="m 170.75,262 h 0.05 v -0.15 c -0.6,-0.18 -0.43,-0.55 -0.26,-1 -0.18,0 -0.36,0 -0.46,-0.12 0.37,-0.76 0,-0.38 -0.36,-0.93 0,0.17 0.05,0.38 -0.13,0.46 l -0.19,-1.05 a 1.18,1.18 0 0 1 -1,0.09 8,8 0 0 1 -2.28,-0.37 1.27,1.27 0 0 1 -0.29,0.41 0.51,0.51 0 0 1 -0.48,-0.43 0.81,0.81 0 0 0 -0.22,0.07 0.81,0.81 0 0 1 0.22,-0.07 1.42,1.42 0 0 1 0,-0.46 c -0.09,0.08 -0.19,0.17 -0.32,0.13 v 0.63 a 0.19,0.19 0 0 1 -0.18,0 l 0.18,0.17 0.18,-0.13 c 0.14,0 0.23,0 0.32,0.13 0.09,0.13 -0.09,0.21 -0.18,0.29 l 0.31,0.34 c 0.55,0.12 0.32,-0.89 0.82,-0.34 l -0.14,0.17 c 0.14,0.25 0.14,0.59 0.5,0.76 -0.63,0.25 0.5,0.71 -0.36,0.76 -0.41,1 0.27,2.23 -0.64,3.2 a 10,10 0 0 1 2.45,0.59 c -0.09,0.09 -0.18,0.21 -0.32,0.17 l 0.32,0.3 c 0,-0.17 0,-0.38 0.18,-0.47 0.27,0.47 0.5,-0.21 0.82,-0.17 l 0.32,0.64 0.12,-0.08 c 0.19,-1.13 0.74,-2.26 1,-3.39 z"
         id="path1139"
         inkscape:connector-curvature="0"
         style="fill:#f5e461" />
      <path
         class="cls-3"
         d="m 160.07,281.29 h 0.68 c 1.71,9.67 -1.18,22.67 -0.83,34.61 l -2.53,-0.29 c 1.53,3.19 2.46,6.82 4.27,9.82 l 0.44,-1.17 a 6.49,6.49 0 0 1 2,5.46 l -0.66,-0.16 c -0.37,-2.3 -0.21,0.15 -2,-0.78 l -0.34,-0.4 -0.32,0.24 0.33,0.4 c -0.38,-0.05 -0.87,0 -1,-0.39 l -0.07,0.53 c -1.8,1.15 -3.35,1.15 -5.36,1 0.25,0.3 2.23,0 1.57,1.27 l -0.66,-0.17 1.18,1.4 -0.86,0.62 c 0.42,0.5 0.86,0.82 0.6,1.33 l 1.33,0.16 c -0.5,2.28 1.06,5.17 0.07,7.49 1.29,0.5 -0.42,1.75 0.66,3.05 l 1.43,-0.56 c 1.93,-1.4 0.91,-4.67 1.6,-6.94 l 0.76,0.09 c 0.23,0.48 0.86,0.82 0.5,1.41 l 1.33,0.15 c 4.69,-1 -1,-4.08 -0.32,-4.9 1.3,-1.74 2.86,1.14 2.68,0.31 1.77,1.91 3.31,-1.6 4.87,-2.42 3.11,-2.25 1.54,-7.21 1.45,-10.19 -3.31,-5 0.09,-11.62 0,-16.23 0.39,-2.21 -4.66,-5.76 -0.5,-7.17 l 0.84,-4.14 0.76,0.08 c 0.25,-4 -1.58,-8.47 -2.15,-12.23 -0.17,-1.64 -2.14,-2.14 0,-2.89 1.4,-3.26 -1.48,-7.11 -1.73,-10.29 -0.68,0 -1.4,-0.43 -1.77,0.16 0.85,1.63 -0.85,3.5 -2.7,3.56 l 0.18,-0.61 -1.5,1.09 0.58,0.7 a 3.34,3.34 0 0 1 -1.1,0.27 c -0.66,1.2 -2.29,2.24 -3.4,3.48 a 2.87,2.87 0 0 1 -0.31,3.25 z"
         id="path1141"
         inkscape:connector-curvature="0"
         style="fill:#f5e461" />
      <path
         class="cls-3"
         d="m 202,328.63 v -0.09 c 0,-0.11 0,-0.21 0,-0.31 -0.6,-0.36 -0.44,-1.09 -0.27,-2.05 -0.18,0 -0.36,0.08 -0.45,-0.25 0.36,-1.52 0,-0.76 -0.36,-1.86 0,0.34 0,0.76 -0.14,0.93 l -0.18,-2.11 c -0.34,0.29 -0.73,0.53 -1,0.18 -0.7,0.21 -1.55,-0.48 -2.29,-0.74 a 3.16,3.16 0 0 1 -0.28,0.81 c -0.3,-0.05 -0.43,-0.41 -0.48,-0.85 a 0.59,0.59 0 0 0 -0.22,0.14 0.59,0.59 0 0 1 0.22,-0.14 5.63,5.63 0 0 1 0,-0.92 c -0.09,0.17 -0.18,0.34 -0.31,0.26 v 1.26 c -0.07,0 -0.13,0 -0.18,-0.07 l 0.18,0.32 0.18,-0.25 c 0.13,-0.08 0.23,0.09 0.31,0.25 a 0.67,0.67 0 0 1 -0.18,0.59 l 0.32,0.68 c 0.55,0.25 0.32,-1.77 0.82,-0.68 l -0.14,0.34 c 0.14,0.51 0.14,1.18 0.5,1.52 -0.63,0.51 0.5,1.43 -0.36,1.52 -0.41,1.94 0.27,4.47 -0.64,6.41 0.59,0.34 1.72,0.34 2.45,1.18 -0.09,0.17 -0.18,0.42 -0.32,0.34 l 0.32,0.59 c 0,-0.34 -0.05,-0.76 0.18,-0.93 0.27,0.93 0.5,-0.42 0.82,-0.34 l 0.31,1.27 0.13,-0.15 c 0.18,-2.27 0.74,-4.53 1,-6.79 z"
         id="path1143"
         inkscape:connector-curvature="0"
         style="fill:#f5e461" />
      <path
         class="cls-3"
         d="m 191.28,367.29 h 0.68 c 1.72,19.33 -1.17,45.34 -0.82,69.22 l -2.54,-0.59 c 1.54,6.38 2.47,13.65 4.28,19.63 l 0.44,-2.32 c 1.41,2.13 2.31,7.56 2,10.92 l -0.66,-0.33 c -0.37,-4.6 -0.21,0.31 -2,-1.55 l -0.33,-0.8 -0.32,0.47 0.33,0.8 c -0.38,-0.09 -0.87,0 -1,-0.78 l -0.07,1.06 c -1.8,2.3 -3.35,2.3 -5.37,2 0.25,0.6 2.23,0 1.58,2.53 l -0.66,-0.33 1.17,2.79 -0.85,1.25 c 0.41,1 0.86,1.64 0.59,2.66 l 1.34,0.31 c -0.5,4.57 1,10.34 0.07,15 1.29,1 -0.43,3.5 0.66,6.1 l 1.43,-1.12 c 1.93,-2.8 0.91,-9.34 1.6,-13.87 l 0.76,0.18 c 0.23,0.95 0.86,1.64 0.49,2.81 l 1.34,0.31 c 4.68,-2 -1,-8.16 -0.32,-9.81 1.3,-3.48 2.85,2.28 2.67,0.62 1.78,3.83 3.32,-3.21 4.88,-4.83 3.11,-4.51 1.54,-14.43 1.45,-20.39 -3.31,-10 0.09,-23.24 0,-32.45 0.4,-4.42 -4.65,-11.53 -0.49,-14.35 l 0.84,-8.28 0.76,0.17 c 0.24,-8.06 -1.59,-16.95 -2.15,-24.47 -0.17,-3.28 -2.14,-4.28 0,-5.77 1.4,-6.53 -1.48,-14.22 -1.74,-20.59 -0.68,0 -1.39,-0.86 -1.76,0.32 0.85,3.26 -0.85,7 -2.7,7.12 l 0.18,-1.22 -1.51,2.18 0.59,1.4 a 2.11,2.11 0 0 1 -1.1,0.54 c -0.66,2.4 -2.29,4.48 -3.41,7 a 10.56,10.56 0 0 1 -0.33,6.46 z"
         id="path1145"
         inkscape:connector-curvature="0"
         style="fill:#f5e461" />
      <path
         class="cls-3"
         d="m 238.29,490.48 v 0 a 0.56,0.56 0 0 1 0,0.12 c 0.6,0.13 0.44,0.39 0.27,0.74 0.18,0 0.36,0 0.45,0.09 -0.36,0.55 0,0.28 0.36,0.67 0,-0.12 0,-0.27 0.14,-0.33 l 0.18,0.76 a 1.55,1.55 0 0 1 1,-0.06 10.14,10.14 0 0 1 2.29,0.27 0.91,0.91 0 0 1 0.28,-0.3 0.49,0.49 0 0 1 0.49,0.31 h 0.22 -0.22 a 0.73,0.73 0 0 1 0,0.33 A 0.39,0.39 0 0 1 244,493 v -0.46 a 0.25,0.25 0 0 1 0.17,0 l -0.17,-0.12 -0.19,0.09 a 0.37,0.37 0 0 1 -0.31,-0.09 c -0.05,-0.12 0.09,-0.15 0.18,-0.21 l -0.32,-0.25 c -0.54,-0.09 -0.32,0.64 -0.81,0.25 l 0.13,-0.13 c -0.13,-0.18 -0.13,-0.42 -0.5,-0.55 0.64,-0.18 -0.5,-0.52 0.37,-0.55 0.4,-0.7 -0.28,-1.62 0.63,-2.32 a 12.66,12.66 0 0 1 -2.45,-0.43 c 0.09,-0.06 0.18,-0.15 0.32,-0.12 l -0.32,-0.21 c 0,0.12 0.05,0.27 -0.18,0.33 -0.27,-0.33 -0.5,0.15 -0.81,0.12 l -0.32,-0.45 -0.13,0.05 a 21.53,21.53 0 0 1 -1,2.46 z"
         id="path1147"
         inkscape:connector-curvature="0"
         style="fill:#f5e461" />
      <path
         class="cls-3"
         d="m 249,476.47 h -0.68 c -1.72,-7 1.17,-16.44 0.82,-25.09 l 2.54,0.21 c -1.54,-2.31 -2.47,-5 -4.28,-7.12 l -0.44,0.84 a 4.05,4.05 0 0 1 -2,-3.95 l 0.66,0.12 c 0.37,1.66 0.22,-0.12 2,0.56 l 0.33,0.29 0.33,-0.17 -0.34,-0.29 c 0.38,0 0.87,0 1,0.28 l 0.07,-0.39 a 10.36,10.36 0 0 1 5.37,-0.72 c -0.25,-0.22 -2.23,0 -1.58,-0.92 l 0.66,0.12 -1.17,-1 0.86,-0.45 c -0.42,-0.36 -0.86,-0.6 -0.6,-1 l -1.34,-0.11 c 0.5,-1.66 -1,-3.75 -0.07,-5.43 -1.29,-0.37 0.43,-1.27 -0.66,-2.21 l -1.43,0.4 c -1.93,1 -0.91,3.39 -1.6,5 l -0.76,-0.06 c -0.23,-0.35 -0.86,-0.6 -0.49,-1 l -1.34,-0.12 c -4.68,0.72 1,3 0.32,3.56 -1.3,1.26 -2.85,-0.83 -2.67,-0.22 -1.78,-1.39 -3.31,1.16 -4.87,1.75 -3.11,1.63 -1.55,5.23 -1.46,7.39 3.31,3.61 -0.09,8.42 0,11.76 -0.39,1.6 4.65,4.18 0.49,5.21 l -0.84,3 -0.76,-0.07 c -0.24,2.92 1.59,6.15 2.15,8.87 0.17,1.19 2.14,1.55 0,2.1 -1.41,2.36 1.47,5.15 1.73,7.46 0.68,0 1.39,0.31 1.76,-0.12 -0.85,-1.18 0.86,-2.54 2.71,-2.58 l -0.18,0.44 1.5,-0.79 -0.59,-0.5 a 4.69,4.69 0 0 1 1.1,-0.2 c 0.66,-0.87 2.29,-1.62 3.41,-2.52 -0.49,-0.6 -0.6,-1.33 0.34,-2.33 z"
         id="path1149"
         inkscape:connector-curvature="0"
         style="fill:#f5e461" />
      <path
         class="cls-3"
         d="m 157.76,597.09 v 0.06 a 1.77,1.77 0 0 0 0,0.2 c 0.6,0.24 0.44,0.71 0.27,1.33 0.18,0 0.36,0 0.45,0.17 -0.36,1 0,0.49 0.36,1.2 0,-0.22 0,-0.49 0.14,-0.6 l 0.18,1.37 c 0.34,-0.19 0.73,-0.34 1,-0.11 a 6.23,6.23 0 0 1 2.29,0.48 1.57,1.57 0 0 1 0.28,-0.53 c 0.3,0 0.43,0.26 0.48,0.55 a 0.6,0.6 0 0 0 0.22,-0.09 0.6,0.6 0 0 1 -0.22,0.09 2.4,2.4 0 0 1 0,0.6 c 0.09,-0.11 0.18,-0.22 0.31,-0.17 v -0.82 a 0.16,0.16 0 0 1 0.18,0 l -0.18,-0.21 -0.18,0.16 c -0.13,0.06 -0.23,-0.05 -0.31,-0.16 -0.08,-0.11 0.08,-0.28 0.18,-0.39 l -0.32,-0.44 c -0.55,-0.16 -0.32,1.16 -0.82,0.44 l 0.14,-0.22 c -0.14,-0.32 -0.14,-0.76 -0.5,-1 0.63,-0.33 -0.5,-0.93 0.36,-1 0.41,-1.26 -0.27,-2.91 0.64,-4.17 a 8.32,8.32 0 0 1 -2.45,-0.76 c 0.09,-0.11 0.18,-0.28 0.32,-0.22 l -0.32,-0.39 c 0,0.22 0,0.5 -0.18,0.61 -0.27,-0.61 -0.5,0.27 -0.82,0.22 l -0.31,-0.83 -0.13,0.1 c -0.18,1.47 -0.74,2.94 -1,4.41 z"
         id="path1151"
         inkscape:connector-curvature="0"
         style="fill:#f5e461" />
      <path
         class="cls-3"
         d="m 168.45,572 h -0.68 c -1.72,-12.56 1.17,-29.47 0.82,-45 l 2.54,0.38 c -1.54,-4.15 -2.47,-8.87 -4.28,-12.76 l -0.44,1.51 c -1.41,-1.38 -2.31,-4.92 -2,-7.1 l 0.66,0.22 c 0.37,3 0.21,-0.2 2,1 l 0.33,0.51 0.32,-0.3 -0.33,-0.52 c 0.38,0.06 0.87,0 1,0.51 l 0.07,-0.7 c 1.8,-1.49 3.35,-1.49 5.37,-1.3 -0.25,-0.39 -2.23,0 -1.58,-1.65 l 0.66,0.22 -1.17,-1.82 0.85,-0.8 c -0.41,-0.65 -0.86,-1.07 -0.59,-1.73 l -1.34,-0.21 c 0.5,-3 -1.05,-6.71 -0.07,-9.73 -1.29,-0.66 0.43,-2.28 -0.66,-4 l -1.43,0.73 c -1.93,1.82 -0.91,6.07 -1.6,9 l -0.76,-0.12 c -0.23,-0.62 -0.86,-1.07 -0.49,-1.83 l -1.34,-0.2 c -4.68,1.29 1,5.31 0.32,6.37 -1.3,2.27 -2.85,-1.48 -2.67,-0.39 -1.78,-2.5 -3.32,2.08 -4.88,3.13 -3.11,2.94 -1.54,9.38 -1.45,13.26 3.31,6.47 -0.09,15.1 0,21.09 -0.4,2.87 4.65,7.49 0.49,9.33 l -0.84,5.38 -0.76,-0.11 c -0.24,5.23 1.59,11 2.15,15.9 0.17,2.14 2.14,2.79 0,3.76 -1.4,4.24 1.48,9.24 1.74,13.38 0.68,0 1.39,0.56 1.76,-0.21 a 3.47,3.47 0 0 1 2.7,-4.63 l -0.18,0.79 1.51,-1.41 -0.59,-0.91 a 2.73,2.73 0 0 1 1.1,-0.35 c 0.66,-1.56 2.29,-2.92 3.41,-4.53 a 4.63,4.63 0 0 1 0.33,-4.16 z"
         id="path1153"
         inkscape:connector-curvature="0"
         style="fill:#f5e461" />
      <path
         class="cls-3"
         d="m 214.07,649.09 v 0.07 0.25 c 0.59,0.3 0.43,0.89 0.26,1.67 0.18,0 0.36,-0.07 0.45,0.2 -0.36,1.23 0,0.62 0.36,1.51 0,-0.28 0,-0.62 0.14,-0.76 l 0.18,1.72 c 0.35,-0.24 0.74,-0.43 1,-0.15 0.7,-0.17 1.54,0.39 2.28,0.61 a 2.34,2.34 0 0 1 0.28,-0.67 c 0.3,0 0.44,0.34 0.49,0.7 a 0.8,0.8 0 0 0 0.22,-0.12 0.8,0.8 0 0 1 -0.22,0.12 3.65,3.65 0 0 1 0,0.74 c 0.09,-0.14 0.18,-0.27 0.32,-0.21 v -1 c 0.07,0 0.12,0 0.17,0.06 l -0.17,-0.27 -0.18,0.21 c -0.14,0.07 -0.23,-0.07 -0.32,-0.21 -0.09,-0.14 0.09,-0.34 0.18,-0.48 l -0.32,-0.55 c -0.54,-0.2 -0.31,1.44 -0.81,0.55 l 0.13,-0.27 c -0.13,-0.41 -0.13,-1 -0.49,-1.23 0.63,-0.42 -0.5,-1.17 0.36,-1.24 0.41,-1.57 -0.27,-3.63 0.63,-5.21 -0.59,-0.27 -1.72,-0.27 -2.45,-1 0.1,-0.13 0.19,-0.34 0.32,-0.27 l -0.32,-0.48 c 0,0.28 0.05,0.62 -0.18,0.75 -0.27,-0.75 -0.49,0.35 -0.81,0.28 l -0.32,-1 -0.12,0.12 c -0.19,1.84 -0.74,3.68 -1,5.52 z"
         id="path1155"
         inkscape:connector-curvature="0"
         style="fill:#f5e461" />
      <path
         class="cls-3"
         d="m 224.75,617.68 h -0.68 c -1.72,-15.7 1.17,-36.84 0.82,-56.24 l 2.54,0.47 c -1.54,-5.18 -2.46,-11.08 -4.27,-15.95 l -0.45,1.89 c -1.4,-1.73 -2.3,-6.14 -2,-8.87 l 0.65,0.27 c 0.37,3.73 0.22,-0.25 2,1.26 l 0.33,0.65 0.33,-0.38 -0.34,-0.65 c 0.38,0.07 0.87,0 1,0.63 l 0.07,-0.87 c 1.8,-1.86 3.35,-1.86 5.36,-1.63 -0.25,-0.49 -2.23,0 -1.57,-2 l 0.65,0.27 -1.17,-2.27 0.86,-1 c -0.42,-0.81 -0.86,-1.34 -0.6,-2.17 L 227,530.8 c 0.5,-3.71 -1,-8.4 -0.06,-12.17 -1.29,-0.82 0.42,-2.85 -0.67,-5 l -1.42,0.9 c -1.93,2.28 -0.92,7.59 -1.61,11.27 l -0.76,-0.14 c -0.23,-0.77 -0.86,-1.33 -0.49,-2.29 l -1.33,-0.25 c -4.69,1.62 1,6.63 0.31,8 -1.3,2.83 -2.85,-1.85 -2.67,-0.5 -1.78,-3.12 -3.31,2.6 -4.87,3.92 -3.11,3.67 -1.54,11.72 -1.46,16.57 3.32,8.09 -0.09,18.88 0,26.37 -0.39,3.59 4.66,9.36 0.5,11.66 l -0.84,6.73 -0.77,-0.15 c -0.24,6.55 1.59,13.78 2.16,19.89 0.16,2.67 2.13,3.47 0,4.69 -1.4,5.3 1.47,11.55 1.73,16.72 0.68,0 1.4,0.7 1.76,-0.25 -0.84,-2.65 0.86,-5.7 2.71,-5.79 l -0.18,1 1.5,-1.77 -0.59,-1.14 a 2.49,2.49 0 0 1 1.11,-0.44 c 0.65,-1.95 2.29,-3.64 3.4,-5.66 a 7.05,7.05 0 0 1 0.29,-5.29 z"
         id="path1157"
         inkscape:connector-curvature="0"
         style="fill:#f5e461" />
      <path
         class="cls-4"
         d="m 129.06,496.52 c -1.18,-0.71 -0.34,0.94 -0.65,0.32 -0.84,-0.53 -1.61,-1.11 -2.41,-1.68 2.2,1.28 2.65,-2.27 3.06,1.36 z"
         id="path1159"
         inkscape:connector-curvature="0"
         style="fill:#ffffff" />
      <path
         class="cls-4"
         d="m 121.22,495.78 h -1.09 c -0.1,-0.76 0,-2.4 1,-1.79 a 2.16,2.16 0 0 0 0.09,1.79 z"
         id="path1161"
         inkscape:connector-curvature="0"
         style="fill:#ffffff" />
      <path
         class="cls-5"
         d="m 105.42,506.6 v -1.22 c 0.24,0.51 1.44,0.24 1.58,1.09 z"
         id="path1163"
         inkscape:connector-curvature="0"
         style="fill:#050505" />
      <path
         class="cls-5"
         d="m 93.44,445.8 a 2.19,2.19 0 0 0 0.58,-0.62 3.24,3.24 0 0 1 2.86,1.25 c -0.41,1 0.51,3.14 -0.9,2.94 l -0.1,-0.23 c -1,0.16 -2.76,1.57 -2.26,2.77 0.86,0.16 2.2,-1 3.68,0 a 4.82,4.82 0 0 1 -0.61,4.61 l 2.49,0.76 c -0.12,1.49 -1.17,2.05 -1.7,3.21 l -1.1,-0.6 c -0.74,0.7 -2.7,0.55 -2.34,2.46 a 9.49,9.49 0 0 1 2.48,2.82 c -0.76,1.19 -0.53,2.58 -0.12,4 a 14.15,14.15 0 0 1 1,4 c 2,0.72 2.09,2.56 2.21,4.33 0.12,1.77 0.37,3.46 2.81,3.67 0.21,4 3.17,3.53 5.78,4.77 -1.37,3.62 -4.19,-2.69 -5.91,-0.47 a 22.39,22.39 0 0 0 2.21,6.51 c 0.5,1.06 1,2.13 1.52,3.18 a 30.63,30.63 0 0 1 1.37,3.19 c 1.89,0.43 2.73,-2.05 4,-0.06 -1.19,-0.32 -2.5,1.18 -2.16,2 -0.15,-0.94 0.71,-0.29 1.24,-0.42 v -0.73 c 3.38,-2 1,3 3.38,3.61 -0.89,1.21 -0.32,-0.76 -1.55,-0.31 -1.57,0.77 -3.2,2.31 -2.77,4.59 2,1.46 2.39,3.31 2.82,5.29 a 30.13,30.13 0 0 0 0.69,3 8.57,8.57 0 0 0 1.67,3 c 1.13,-1 1.3,0.55 1.9,1.11 -1.61,-0.17 -1.84,2.32 -1.48,3.27 1.35,0.54 3.79,-0.91 4.59,0.75 l 1.54,-2.55 c -0.09,-0.74 -2.48,-2.07 -3.58,-2.82 1.1,-1.15 0,-2.23 -0.86,-3.27 -0.86,-1.04 -1.49,-2 0.45,-2.83 l -0.11,0.92 c 0,1.57 1.17,2.11 2.57,2.42 a 20.47,20.47 0 0 1 4.41,1 c 0.13,2.32 -1.2,4.08 -1.75,6.18 0.33,1.84 1.55,1.53 2.66,1.78 1.4,0.77 0.76,2.16 0.67,3.3 0.44,0.31 0.4,-0.61 0.84,-0.3 0.17,0.72 0.22,1.66 0.66,2 2.17,-1.47 0.35,-3.58 0,-5.41 0.55,0.12 1,-0.13 1.31,0.39 0.41,0.31 -0.07,0.56 -0.21,0.77 l 0.86,0.6 c 0.61,-0.46 1.62,-1.52 2.54,-0.59 l -0.7,1.58 c 1.28,2.38 4.79,0.92 3,-1.81 l -1.42,0.8 c -0.06,-1.32 -0.12,-2.62 -0.14,-3.92 1,-1.38 1.85,0.4 3.07,-0.54 a 2.09,2.09 0 0 0 1.06,-2.18 9.68,9.68 0 0 0 -0.45,-2.42 c -1.59,-0.26 -0.81,1.5 -0.51,2.33 -1.07,0.12 -2.14,0.23 -3.23,0.33 a 1.07,1.07 0 0 1 0.26,-1.61 c 0.39,-0.92 2.52,-1.75 1.75,-2.31 -1.17,-2.4 -2.4,1.54 -3.82,-0.22 -2,2.16 -0.22,5.66 -0.58,7.52 l 0.67,0.82 c -0.82,1.22 -1.42,-1.08 -1.09,0.71 -1.5,-0.53 -2.16,-2.11 -2.35,-3.86 a 17.5,17.5 0 0 1 0.42,-5.07 c 1.44,-1 1.69,-3.61 4.46,-3.54 -0.25,-0.83 0.67,-1.91 -0.2,-2.69 -2.07,-0.5 -2.52,-1.55 -2.71,-2.67 -0.19,-1.12 0,-2.37 -1.06,-3.34 -0.17,0.5 -1,0.35 -1.53,0.53 -0.47,-1.93 1.42,-2.58 2.86,-3.22 1.44,-0.64 2.53,-1.27 0.67,-3.14 a 1.68,1.68 0 0 0 -2.37,0 c -0.21,0.82 -1.1,2 -0.1,2.66 -0.69,0.33 0.12,1.85 -1.74,1.68 -0.6,-2.38 -3.76,-2.11 -4,-4.21 l -1.36,-0.09 c -0.29,-0.7 -2.34,-1.89 -1.86,-3.26 -0.4,-3.17 2.48,-0.8 3.71,-1.23 l -0.25,-2.57 c -1.91,-0.77 -1.38,-2.27 -0.87,-3.65 0.51,-1.38 0.93,-2.64 -1.12,-3.2 h 0.86 c 1.57,0.89 2.83,-1.47 2.49,-2.35 l -0.94,-0.47 c -3.66,0 -2.65,-4.16 -4.28,-6.18 -0.05,-0.53 0.56,-0.91 0.81,-0.52 l 0.73,-2.92 c -3.36,0.1 -0.6,-1.84 -1.42,-3.24 -1.56,-0.74 -3,-0.75 -4.24,-2 a 6.07,6.07 0 0 0 -0.26,-4.83 4.84,4.84 0 0 1 0.19,-4.58 c -2.51,-0.1 -3.43,-2.09 -5.95,0 a 39,39 0 0 1 1.94,-5.44 19.45,19.45 0 0 0 1.6,-5.21 c -0.4,-0.19 -0.77,-0.41 -1.19,-0.6 -2.49,-0.15 -6.32,-0.88 -9.77,-1.11 -3.45,-0.23 -6.4,-0.07 -7.32,2 z"
         id="path1165"
         inkscape:connector-curvature="0"
         style="fill:#050505" />
      <path
         class="cls-5"
         d="m 122.55,530.62 c -0.38,-0.47 -0.72,-1 -1.06,-1.44 l -0.4,0.63 c -0.45,1.19 0.91,0.11 1.46,0.81 z"
         id="path1167"
         inkscape:connector-curvature="0"
         style="fill:#050505" />
      <path
         class="cls-4"
         d="m 124.36,415.08 c -1,-1.41 -2.89,-3.07 -4.1,-2.14 -0.25,1.9 1.67,3.32 0.48,5.2 1.93,-0.02 2.64,-2.36 3.62,-3.06 z"
         id="path1169"
         inkscape:connector-curvature="0"
         style="fill:#ffffff" />
      <path
         class="cls-5"
         d="m 128.24,491.79 c -0.35,-0.61 -0.67,-1.24 -1,-1.86 l -1.3,1.07 c -0.21,2 1.72,-0.22 2.3,0.79 z"
         id="path1171"
         inkscape:connector-curvature="0"
         style="fill:#050505" />
      <path
         class="cls-4"
         d="m 104.35,407.41 c -1,0 -1.93,-0.53 -1.46,0.47 l 1.67,1.51 c -0.48,-0.26 1.25,-2.39 -0.21,-1.98 z"
         id="path1173"
         inkscape:connector-curvature="0"
         style="fill:#ffffff" />
      <path
         class="cls-4"
         d="m 100.61,402.12 -2.91,0.16 c 0.47,0.77 1.66,1.3 1.16,2 0.51,-0.95 1.95,-0.91 1.75,-2.16 z"
         id="path1175"
         inkscape:connector-curvature="0"
         style="fill:#ffffff" />
      <path
         class="cls-4"
         d="m 99.92,412.81 c 2.92,-2.71 -3.59,-3.05 0.31,-5.23 -0.66,-3.25 -3.33,-2.32 -5.78,-1.62 0,1.26 3.39,0.08 4.33,2.09 -0.51,1.24 -1,2.74 -2.71,3 -0.27,3.24 2.93,0 3.85,1.76 z"
         id="path1177"
         inkscape:connector-curvature="0"
         style="fill:#ffffff" />
      <polygon
         class="cls-4"
         points="93.84,401.92 93.8,403.43 95.75,402.73 "
         id="polygon1179"
         style="fill:#ffffff" />
      <polygon
         class="cls-4"
         points="91.45,412.75 92.66,414.03 92.91,411.75 "
         id="polygon1181"
         style="fill:#ffffff" />
      <path
         class="cls-4"
         d="m 85.68,409.62 v 1 c 0.72,0.78 1.68,1.3 2.41,0.54 -0.24,-1.25 -1.69,-1.02 -2.41,-1.54 z"
         id="path1183"
         inkscape:connector-curvature="0"
         style="fill:#ffffff" />
      <path
         class="cls-5"
         d="m 106.3,435.09 a 32.39,32.39 0 0 0 9.55,-11.61 15.46,15.46 0 0 1 -2.58,-2.53 l 2.13,-2.68 c 0,-2.62 -0.75,-5.73 -3.89,-7.45 0.49,-0.49 1,-0.48 1.46,-1 -1,-1 0,-2.9 -1.64,-3.9 1,-1.2 2.44,-1.17 3.91,-1.87 -1.4,-2.69 2.58,-6 0.26,-8.71 4.16,-1.05 -2.27,-4 1.66,-5.28 a 4.82,4.82 0 0 0 -2.58,-7 c 0.73,0 2.61,1.1 3.64,-0.07 -0.23,-0.25 -0.45,-0.75 -0.69,-0.77 0,-0.24 1.34,-2.38 0.17,-3.18 a 1.56,1.56 0 0 0 -1.17,-0.38 c -3.34,2.71 -11.58,-4.16 -15.91,-6.67 -0.3,-0.36 -0.53,-0.73 -0.81,-1.09 a 7.83,7.83 0 0 0 -1.3,4.18 c 1.24,-0.43 0.87,2 2.14,0.86 0,-0.25 -0.22,-0.51 -0.21,-0.76 l 1.55,-1.64 c 0.89,1.53 -0.75,4.9 1.62,6 -0.81,1.68 -2.77,2.08 -4.27,3 -0.38,2.7 -2.46,5.84 -0.62,8.16 0.38,2.75 -1.82,3.16 -3.54,3.85 0.91,1.28 -0.36,3.49 1.32,4 -1.52,2.21 -4.45,2.89 -6.64,3.85 -1.25,1.75 0.2,1.79 1.38,3.07 -0.53,3.55 -4.83,-0.85 -4.88,3.25 -0.51,1.53 1.41,3.6 2.87,3.6 -1.44,1.8 0.24,4.1 -1.42,5.41 2.32,1.39 1.84,3 1.34,4.68 -0.5,1.68 -1.06,3.47 1.07,5.08 -0.24,3.73 2.3,6.52 4,9.88 a 19.14,19.14 0 0 0 12.08,-2.28 z"
         id="path1185"
         inkscape:connector-curvature="0"
         style="fill:#050505" />
      <path
         class="cls-4"
         d="m 556,499.86 c -2.48,0.72 1.48,0.72 0,0.72 l -5.45,1.42 c 4.45,-1.42 -1.97,-3.35 5.45,-2.14 z"
         id="path1187"
         inkscape:connector-curvature="0"
         style="fill:#ffffff" />
      <path
         class="cls-4"
         d="m 547.59,506.64 -1,1 c -1.48,-0.24 -4.45,-1 -2.47,-1.69 a 7.36,7.36 0 0 0 3.47,0.69 z"
         id="path1189"
         inkscape:connector-curvature="0"
         style="fill:#ffffff" />
      <path
         class="cls-5"
         d="m 553.51,525.51 -2,-0.48 c 1,0 1.48,-1.21 3,-1 z"
         id="path1191"
         inkscape:connector-curvature="0"
         style="fill:#050505" />
      <path
         class="cls-5"
         d="m 439.4,521.32 a 3.39,3.39 0 0 0 -1.08,-0.63 c 0.23,-1.3 0.89,-1.9 3,-2.72 1.86,0.48 6.11,-0.15 5.41,1.22 l -0.47,0.07 c 0.1,1 2.34,2.94 4.7,2.59 0.52,-0.84 -1.44,-2.32 0.83,-3.67 a 15.3,15.3 0 0 1 8.53,1.26 l 2.16,-2.34 c 2.79,0.34 3.52,1.5 5.51,2.21 l -1.47,1 c 1,0.85 0.17,2.75 3.77,2.73 a 21.91,21.91 0 0 1 6,-1.91 c 3.8,2 10.46,0.21 15,0.8 4.42,-3.69 13.5,1.79 16.88,-2.76 7.3,0.94 8.08,-2 12,-4.06 5.64,2.45 -7.37,3.12 -4.37,5.46 8.24,0.79 17.23,-0.54 25.66,-0.28 2.12,-1.57 -1.54,-3.31 2.86,-3.71 -1.46,1 0.16,2.76 1.72,2.78 -1.7,-0.25 0,-0.77 0.24,-1.3 l -1.24,-0.33 c -0.89,-3.91 5.92,0.39 8.84,-1.56 1.33,1.32 -1.57,0 -1.79,1.28 0.06,1.76 1.35,3.84 5.38,4.51 7.94,-2.2 13.51,1.78 22.31,1 -0.39,-1.46 2.07,-0.82 3.49,-1 -1.79,1.28 1.72,2.78 3.43,3 2.08,-0.81 2.39,-3.64 5.66,-3.37 l -2.2,-2.71 c -1.23,-0.32 -5.68,0.85 -7.89,1.43 -1.4,-3.08 -11,1.39 -10,-2.81 l 1.39,0.55 c 5.06,1.52 7.64,-2.65 12.41,-4.12 3.85,1.2 5.14,3.28 7.71,4.92 3.08,0.81 3.92,-0.33 5.53,-1.08 2.69,-0.65 4,0.67 5.55,1.46 0.94,-0.15 -0.43,-0.7 0.51,-0.84 1.24,0.32 2.61,0.88 3.56,0.74 0.45,-2.6 -4.71,-2.59 -7.79,-3.4 0.8,-0.37 1,-0.9 2.08,-0.81 0.94,-0.14 0.75,0.39 0.9,0.62 l 1.89,-0.28 c 0.05,-0.76 -0.34,-2.22 2.16,-2.35 l 1.49,1.56 c 5,0.52 7.36,-3.12 1,-3.44 l -0.56,1.6 -6.12,-2.37 c -1,-1.62 2.88,-1.19 3,-2.72 0.89,-1.9 -4.38,-2.89 -6.7,-3.3 -2.4,1.11 1.49,1.55 3.18,1.8 l -3.43,2.79 c -0.94,0.14 -2.32,-0.42 -2.28,-1.18 -1.05,-0.86 0.17,-3.06 -1.72,-2.78 -5.45,-0.46 -0.31,2.83 -4.86,3 1.25,2.85 8.88,3.48 11.3,4.89 l 2,-0.05 c 0.86,1.39 -3.31,0.49 -0.22,1.3 -5.11,1.77 -12.42,-1.69 -16.22,-3.65 -0.07,-1.77 -4.2,-3.43 -0.94,-5.68 -1.71,-0.26 -2.57,-1.64 -4.94,-1.3 -6.41,3 -9.19,-0.65 -14.86,0.19 0.76,0.4 -0.38,1.07 -0.55,1.61 -7.92,-1.1 2.45,-7.7 -8.43,-6.09 -1.89,0.29 -2.88,1.19 -2.3,2.12 1.37,0.55 2.71,1.87 4.93,1.29 0,0.76 3.55,0.73 1.44,2.31 -5,-0.52 -7.33,2.36 -11.36,1.69 l -1.31,1.21 c -1.56,0 -5.39,1.31 -7.52,0.36 -6.21,-0.85 0.45,-2.6 0.68,-3.89 l -5.13,-0.76 c -5.94,2.91 -9.77,-4.11 -14.81,-0.58 l 0.51,-0.83 c 2.88,-1.19 -0.92,-3.15 -3,-3.1 l -1.6,0.74 c -2.53,3.41 -10.08,1.25 -15.13,2.25 -1.09,-0.09 -1.52,-0.78 -0.58,-0.92 l -5.55,-1.45 c -1.59,3.27 -4.07,0.09 -7.38,0.59 -2.27,1.35 -3,2.72 -6,3.67 -7.68,-2.39 -12.25,1.07 -19.13,-1.7 -1.07,2.44 -5.33,3.07 -2,5.86 -7.17,-1.45 -13.56,-4.15 -20.52,-4.93 -0.49,0.39 -1,0.73 -1.48,1.13 -1.84,4.85 -9.07,14.93 -1.67,17.17 z"
         id="path1193"
         inkscape:connector-curvature="0"
         style="fill:#050505" />
      <path
         class="cls-5"
         d="m 605.45,523.64 h -3.12 l 0.43,0.69 c 1.24,1.05 1.13,-0.71 2.69,-0.69 z"
         id="path1195"
         inkscape:connector-curvature="0"
         style="fill:#050505" />
      <path
         class="cls-4"
         d="m 380.28,489 c -3,1 -6.43,2.9 -4.45,4.11 3.95,0.24 6.92,-1.69 10.87,-0.48 0,-1.97 -4.94,-2.69 -6.42,-3.63 z"
         id="path1197"
         inkscape:connector-curvature="0"
         style="fill:#ffffff" />
      <path
         class="cls-5"
         d="m 546,498.59 -4.55,0.17 1,1.62 c 3.71,0.96 1.04,-1.67 3.55,-1.79 z"
         id="path1199"
         inkscape:connector-curvature="0"
         style="fill:#050505" />
      <path
         class="cls-4"
         d="m 365,509.06 c 0,1 -1,1.93 1,1.45 l 3,-1.7 c -0.59,0.49 -5,-1.21 -4,0.25 z"
         id="path1201"
         inkscape:connector-curvature="0"
         style="fill:#ffffff" />
      <path
         class="cls-4"
         d="m 354.58,512.93 0.49,2.9 c 1.48,-0.49 2.47,-1.69 3.95,-1.21 -1.97,-0.48 -1.97,-1.93 -4.44,-1.69 z"
         id="path1203"
         inkscape:connector-curvature="0"
         style="fill:#ffffff" />
      <path
         class="cls-4"
         d="m 375.83,513.41 c -5.44,-2.9 -5.94,3.63 -10.38,-0.24 -6.43,0.73 -4.45,3.39 -3,5.81 2.48,0 0,-3.39 4,-4.36 2.47,0.49 5.44,1 5.93,2.66 6.41,0.25 -0.01,-2.9 3.45,-3.87 z"
         id="path1205"
         inkscape:connector-curvature="0"
         style="fill:#ffffff" />
      <polygon
         class="cls-4"
         points="354.58,519.7 357.54,519.7 356.06,517.77 "
         id="polygon1207"
         style="fill:#ffffff" />
      <polygon
         class="cls-4"
         points="375.83,521.88 378.3,520.67 373.85,520.43 "
         id="polygon1209"
         style="fill:#ffffff" />
      <path
         class="cls-4"
         d="m 369.89,527.69 h 2 c 1.48,-0.73 2.46,-1.69 1,-2.42 -2.5,0.24 -2,1.73 -3,2.42 z"
         id="path1211"
         inkscape:connector-curvature="0"
         style="fill:#ffffff" />
      <path
         class="cls-5"
         d="m 420.59,507.62 a 64.48,64.48 0 0 0 -22.88,-10 37.35,37.35 0 0 1 -5.36,2.52 l -5.46,-2.16 c -5.43,0 -11.85,0.75 -15.28,3.9 -1,-0.48 -1,-1 -2,-1.44 -2,1 -5.94,0 -7.89,1.71 -2.48,-1 -2.5,-2.41 -4,-3.86 -5.42,1.46 -12.37,-2.39 -17.78,0 -2.52,-4.11 -7.89,2.44 -10.9,-1.43 -5.94,-1.44 -12.35,0.27 -13.81,2.94 0,-0.73 2,-2.67 -0.53,-3.63 -0.48,0.24 -1.47,0.49 -1.47,0.73 -0.49,0 -4.95,-1.2 -6.42,0 -0.61,0.45 -0.79,0.81 -0.65,1.19 5.83,3.18 -7,11.79 -11.54,16.27 -0.68,0.31 -1.39,0.57 -2.07,0.87 a 28.65,28.65 0 0 0 8.51,1 c -1,-1.21 3.95,-1 1.46,-2.18 -0.49,0 -1,0.24 -1.48,0.25 l -3.48,-1.45 c 3,-1 9.9,0.46 11.85,-2 3.47,0.71 4.48,2.65 6.47,4.09 5.43,0.23 11.88,2.16 16.31,0.21 5.43,-0.5 6.44,1.68 7.94,3.37 2.46,-1 6.92,0.22 7.89,-1.47 4.46,1.44 6,4.34 8,6.51 3.47,1.21 3.46,-0.25 5.92,-1.46 6.92,0.47 -1.43,4.84 6.47,4.82 3,0.48 6.91,-1.46 6.89,-2.91 3.47,1.44 7.91,-0.27 10.4,1.42 5.39,-4.61 12.37,1.91 18.75,-2.22 7.1,0.37 12.62,-2 19.31,-3.5 1.54,-4.14 0.59,-8.46 -3.17,-12.09 z"
         id="path1213"
         inkscape:connector-curvature="0"
         style="fill:#050505" />
    </g>
  </g>
</svg>
