<?xml version="1.0" encoding="UTF-8" standalone="no"?>
<svg
   xmlns:dc="http://purl.org/dc/elements/1.1/"
   xmlns:cc="http://creativecommons.org/ns#"
   xmlns:rdf="http://www.w3.org/1999/02/22-rdf-syntax-ns#"
   xmlns:svg="http://www.w3.org/2000/svg"
   xmlns="http://www.w3.org/2000/svg"
   xmlns:sodipodi="http://sodipodi.sourceforge.net/DTD/sodipodi-0.dtd"
   xmlns:inkscape="http://www.inkscape.org/namespaces/inkscape"
   viewBox="0 0 667.42 364.95"
   version="1.1"
   id="svg6230"
   sodipodi:docname="topright.svg"
   inkscape:version="0.92.4 (5da689c313, 2019-01-14)">
  <metadata
     id="metadata6234">
    <rdf:RDF>
      <cc:Work
         rdf:about="">
        <dc:format>image/svg+xml</dc:format>
        <dc:type
           rdf:resource="http://purl.org/dc/dcmitype/StillImage" />
      </cc:Work>
    </rdf:RDF>
  </metadata>
  <sodipodi:namedview
     pagecolor="#ffffff"
     bordercolor="#666666"
     borderopacity="1"
     objecttolerance="10"
     gridtolerance="10"
     guidetolerance="10"
     inkscape:pageopacity="0"
     inkscape:pageshadow="2"
     inkscape:window-width="1806"
     inkscape:window-height="1051"
     id="namedview6232"
     showgrid="false"
     inkscape:zoom="1.5395044"
     inkscape:cx="290.27666"
     inkscape:cy="191.76909"
     inkscape:window-x="105"
     inkscape:window-y="-9"
     inkscape:window-maximized="1"
     inkscape:current-layer="svg6230" />
  <defs
     id="defs6010">
    <style
       id="style6008">.cls-1{fill:#f5e461;}.cls-2{fill:#fff;}.cls-3{fill:#3148a1;}.cls-4{fill:#b1d0fe;}</style>
    <clipPath
       clipPathUnits="userSpaceOnUse"
       id="clipPath6787">
      <rect
         style="fill:#3148a1;fill-opacity:0.00995023"
         id="rect6789"
         width="666.01831"
         height="243.12637"
         x="1.5761374"
         y="122.22485" />
    </clipPath>
    <clipPath
       clipPathUnits="userSpaceOnUse"
       id="clipPath934">
      <rect
         style="fill:#3148a1;fill-opacity:0.00995023"
         id="rect936"
         width="453.3927"
         height="365.70212"
         x="-0.64955968"
         y="122.01469" />
    </clipPath>
  </defs>
  <title
     id="title6012">Asset 7</title>
  <g
     id="Layer_2"
     data-name="Layer 2"
     clip-path="url(#clipPath934)"
     transform="translate(215.00426,-122.11722)">
    <g
       id="Layer_1-2"
       data-name="Layer 1">
      <path
         d="m 203.83,141.48 a 12.8,12.8 0 0 1 1.2,-3.87 c 0,-0.86 0,-1.8 0.06,-2.68 a 7.05,7.05 0 0 1 0.56,-2.37 4.43,4.43 0 0 1 3,-2.69 c 0.46,0 1.45,0.46 2.32,0.6 0.87,0.14 1.49,0.1 1.31,0.26 a 7,7 0 0 0 -0.72,3.16 24.34,24.34 0 0 0 0.34,5.05 29.09,29.09 0 0 0 1.79,6.05 26.85,26.85 0 0 0 3.87,6.53 c 0.23,0.52 1.39,0.84 2.89,1.15 1.5,0.31 3.36,0.54 5,0.92 0,0 -0.52,-0.93 -1.17,-1.94 2.3,0.55 4.64,2 7.15,3.52 a 29.86,29.86 0 0 0 7.81,3.65 6.87,6.87 0 0 1 -1.07,-2 8.74,8.74 0 0 0 2.87,3.3 20.56,20.56 0 0 0 4.58,2.49 62.28,62.28 0 0 0 10.59,2.84 20.46,20.46 0 0 1 2.86,2 c 1.55,0.13 3.07,0.25 4.6,0.48 l 5.16,0.62 6.27,0.72 c 2.33,0.28 4.93,0.6 8,1.2 a 26.68,26.68 0 0 1 8.36,3.77 31.07,31.07 0 0 1 7.9,7.72 c 0.54,0.79 1.13,1.59 1.6,2.42 0.47,0.83 0.92,1.66 1.37,2.5 a 44.19,44.19 0 0 1 2.06,5.07 60.85,60.85 0 0 1 2.34,9.81 51.74,51.74 0 0 1 -1.12,15.5 c -0.51,2.44 -1.2,4.93 -1.83,7 l -1.78,6.13 a 43.75,43.75 0 0 0 -2.05,10.78 c -0.07,3.2 0.6,6 2.21,7.82 a 5.26,5.26 0 0 1 0.65,1.06 4,4 0 0 1 0.2,0.64 5,5 0 0 1 0.19,0.69 12.68,12.68 0 0 1 -0.17,3.69 23.7,23.7 0 0 1 2.67,0.76 8.76,8.76 0 0 1 1.21,0.5 10.53,10.53 0 0 1 1.28,0.56 l 0.59,0.33 0.67,0.33 c 0.45,0.23 0.83,0.5 1.3,0.76 0.47,0.26 0.94,0.53 1.4,0.83 0.46,0.3 1,0.57 1.49,0.89 2,1.23 4.31,2.6 6.79,3.88 1.19,0.67 2.52,1.26 3.75,1.89 1.23,0.63 2.52,1.17 3.8,1.65 a 14,14 0 0 1 7.02,6.35 141.64,141.64 0 0 1 19.58,2.2 78.16,78.16 0 0 1 10.67,2.87 l 2.73,1.06 1.36,0.55 1.37,0.64 c 0.91,0.44 1.82,0.86 2.72,1.34 0.9,0.48 1.81,1 2.7,1.56 a 56.65,56.65 0 0 1 13.19,10.65 51,51 0 0 1 5.44,7.21 55.24,55.24 0 0 1 3.89,7.65 117.28,117.28 0 0 1 4.35,12.95 c 0.52,1.82 1,3.44 1.45,4.87 0.25,0.67 0.49,1.35 0.72,2.06 0.23,0.71 0.59,1.37 0.85,2.1 a 8,8 0 0 0 2.15,2.49 12.62,12.62 0 0 0 1.55,1 7.33,7.33 0 0 0 1.43,0.68 c 0.2,0.86 0.39,1.72 0.59,2.58 a 26.31,26.31 0 0 0 9.41,4.84 c 3.24,1 6.26,1.65 9.09,2.79 a 19,19 0 0 1 4.75,2.64 13.33,13.33 0 0 1 3.1,3.27 c 1.67,2.35 2.61,5.27 3.6,7.95 a 86.56,86.56 0 0 1 -9.69,3.75 38.31,38.31 0 0 1 -11.62,1.78 31.65,31.65 0 0 1 -13,-2.91 29.66,29.66 0 0 1 -11.82,-10 87.23,87.23 0 0 0 -6.92,-8.62 c -1.27,-1.63 -2.68,-3.26 -3.83,-5.06 a 41.39,41.39 0 0 1 -3.19,-5.3 c -1.76,-2.82 -2.36,-6 -3.19,-8.78 -0.83,-2.78 -1.93,-5.24 -4.42,-6.39 a 13.57,13.57 0 0 0 -0.44,-6.45 9.08,9.08 0 0 0 -0.68,-1.86 A 17.48,17.48 0 0 0 372,308 c -0.38,-0.62 -0.79,-1.25 -1.21,-1.89 a 20.93,20.93 0 0 0 -1.49,-1.83 28.18,28.18 0 0 0 -7.94,-6.16 32.8,32.8 0 0 0 -9.41,-3.28 c -0.83,-0.79 0.44,-0.84 -1.15,-1.89 -4.57,-0.43 -9.18,-1 -13.92,-1.69 -2.38,-0.36 -4.75,-0.75 -7.23,-1.25 -2.48,-0.5 -5,-1.09 -7.52,-1.82 a 90.81,90.81 0 0 1 -15.13,-5.76 62.07,62.07 0 0 1 -14.49,-9.6 32.7,32.7 0 0 1 -10.39,-17.43 48.53,48.53 0 0 1 -1.21,-11 c 0,-3.65 0.2,-7.22 0.36,-10.75 a 15.36,15.36 0 0 1 1.25,-4.34 29.24,29.24 0 0 0 1.73,-5.81 c -0.14,-1.28 -0.29,-2.52 -0.46,-3.75 a 43.68,43.68 0 0 0 1.1,-6.18 50.88,50.88 0 0 0 0.27,-5.95 c 0,-1.9 -0.14,-3.62 -0.21,-5.2 -0.06,-0.78 -0.08,-1.54 -0.13,-2.22 -0.05,-0.68 0,-1.36 0,-2 a 10.34,10.34 0 0 0 -3.48,-6.82 28.49,28.49 0 0 0 -6.88,-4 29.09,29.09 0 0 0 -7.68,-2 l -4.73,-0.66 c -1.64,-0.24 -3.33,-0.54 -5,-0.83 -6.61,-1.29 -12.85,-3.57 -16.33,-6.86 a 9.32,9.32 0 0 0 -2.76,-1.31 c -1.25,-0.43 -2.62,-1 -3.69,-1.44 -0.82,-0.85 -1.6,-1.77 -2.37,-2.67 -2.06,-1 -4.41,0.25 -6.48,-0.87 -6.46,-4 -13.47,-8.92 -18.56,-14.46 a 43.11,43.11 0 0 1 -3.47,-4.15 26.54,26.54 0 0 1 -2.59,-4.14 11.68,11.68 0 0 1 -1.44,-7.51 14.08,14.08 0 0 0 2.41,1.73 c 0.99,0.5 1.88,0.52 2.06,-0.73 z"
         transform="translate(0,-0.42)"
         id="path6014"
         inkscape:connector-curvature="0" />
      <path
         d="m 224.28,93.32 c 0.34,0.53 0.75,0 1.11,-1 a 14.16,14.16 0 0 0 0.66,-3.53 c -1.2,1.82 -2.42,2.85 -4.09,6.25 a 52.45,52.45 0 0 0 1.46,-5.78 c -0.85,-1.76 -1.18,-0.25 -1.43,1.13 -0.25,1.38 -0.38,2.71 -0.44,1 0.84,-3.13 1.4,-5.88 2.32,-4.11 -0.61,0.52 -0.42,2 -1,4 0.69,0.29 1.32,-0.34 1.92,-1.31 0.6,-0.97 1.13,-2.31 1.7,-3.26 a 54.05,54.05 0 0 1 -1.9,9.77 c -0.08,-1.09 -0.17,-2.09 -0.31,-3.16 z"
         transform="translate(0,-0.42)"
         id="path6016"
         inkscape:connector-curvature="0" />
      <path
         d="m 215.76,109.54 0.82,-1.26 c -0.54,-1 -1.66,0.1 -2.77,1.09 1.95,-2.5 2.59,-2.31 3.09,-1.71 0.5,0.6 0.88,1.49 2.4,0 -0.61,-0.39 -3.02,2.89 -3.54,1.88 z"
         transform="translate(0,-0.42)"
         id="path6018"
         inkscape:connector-curvature="0" />
      <path
         d="m 215.47,100.06 a 7.83,7.83 0 0 0 2.45,-3.72 c 0.49,-1.19 0.89,-2.16 2.05,-2.26 a 52.36,52.36 0 0 1 -4.6,7.17 z"
         transform="translate(0,-0.42)"
         id="path6020"
         inkscape:connector-curvature="0" />
      <path
         d="m 205.27,132.92 c 0.47,0.3 0.57,0.36 0.62,0.55 a 4,4 0 0 0 0.26,1.28 10.24,10.24 0 0 1 -0.75,-2.06 z"
         transform="translate(0,-0.42)"
         id="path6022"
         inkscape:connector-curvature="0" />
      <path
         d="m 271.45,170.88 c -1.33,-0.78 -2.49,-1.56 -3.8,-2.23 a 19.18,19.18 0 0 0 -4.51,-1.67 c 3.55,0.44 7.45,3.35 8.31,3.9 z"
         transform="translate(0,-0.42)"
         id="path6024"
         inkscape:connector-curvature="0" />
      <path
         d="m 297,208.68 c -0.73,-0.11 -1,1.29 -1.26,-0.69 0.36,-0.9 2.22,0.34 1.08,-2.77 0.06,1.16 0.09,2.31 0.18,3.46 z"
         transform="translate(0,-0.42)"
         id="path6026"
         inkscape:connector-curvature="0" />
      <path
         d="m 293.06,212 c -0.48,0.57 -1,1.13 -1.48,1.67 0.19,0.02 0.91,-0.58 1.48,-1.67 z"
         transform="translate(0,-0.42)"
         id="path6028"
         inkscape:connector-curvature="0" />
      <path
         d="m 219.7,142.4 -0.09,0.45 c 0.16,0.06 0.39,0.09 0.58,0.14 a 5.63,5.63 0 0 0 -0.49,-0.59 z"
         transform="translate(0,-0.42)"
         id="path6030"
         inkscape:connector-curvature="0" />
      <path
         d="m 223,146.67 c -0.66,-1.15 -1.25,-2.35 -1.86,-3.49 a 4.45,4.45 0 0 1 -0.9,-0.19 c 1.51,1.86 0.08,2.33 2.76,3.68 z"
         transform="translate(0,-0.42)"
         id="path6032"
         inkscape:connector-curvature="0" />
      <path
         d="m 219.44,143.65 0.17,-0.8 a 4.73,4.73 0 0 1 -2.82,-2.82 10.27,10.27 0 0 0 -2.84,-3.75 11.86,11.86 0 0 0 2.3,4.19 19.13,19.13 0 0 0 3.19,3.18 z"
         transform="translate(0,-0.42)"
         id="path6034"
         inkscape:connector-curvature="0" />
      <path
         d="m 215.66,142.33 -1.54,-0.27 c -0.7,-0.95 -0.11,-1.4 0.18,-1.62 -0.65,-0.48 -1.24,-0.95 -1.82,-1.42 -0.82,0.16 -0.18,1.56 1.09,3.17 0.62,0.79 1.31,1.66 2,2.36 l 1.6,1.68 c -0.54,-1.32 -1.08,-2.57 -1.51,-3.9 z"
         transform="translate(0,-0.42)"
         id="path6036"
         inkscape:connector-curvature="0" />
      <path
         d="m 194.74,130.64 v 0.1 z"
         transform="translate(0,-0.42)"
         id="path6038"
         inkscape:connector-curvature="0" />
      <path
         d="m 193,139.14 c 0.83,-0.2 1.65,-0.42 2.47,-0.65 a 5.88,5.88 0 0 1 -0.64,-3.77 12.5,12.5 0 0 0 -0.07,-4 v -0.1 c -1.25,0.7 -1.54,2 -1.58,3.53 a 27.38,27.38 0 0 1 -0.18,4.99 z"
         transform="translate(0,-0.42)"
         id="path6040"
         inkscape:connector-curvature="0" />
      <path
         d="m 224.92,151.39 c -2.57,-1.89 -4.39,-3.4 -6.06,-2.94 0.7,0.73 1.4,1.45 2.15,2.12 0.75,0.67 1.45,1.41 2.22,2.07 -1.23,-2.25 0.77,-0.79 1.69,-1.25 z"
         transform="translate(0,-0.42)"
         id="path6042"
         inkscape:connector-curvature="0" />
      <path
         d="M 226.51,158.24 224,156.75 c 0.2,0.47 0.43,0.92 0.65,1.39 0.24,-0.22 0.88,-0.25 1.86,0.1 z"
         transform="translate(0,-0.42)"
         id="path6044"
         inkscape:connector-curvature="0" />
      <path
         d="m 224.6,158.14 c -0.31,0.26 -0.15,0.8 0.75,1.5 z"
         transform="translate(0,-0.42)"
         id="path6046"
         inkscape:connector-curvature="0" />
      <path
         d="m 218.52,156.36 c 0.56,2.53 1.64,0.78 4.19,3.07 1.21,-1.37 -2.82,-1.98 -4.19,-3.07 z"
         transform="translate(0,-0.42)"
         id="path6048"
         inkscape:connector-curvature="0" />
      <polygon
         points="230.52,165.93 231.59,164.44 230.13,164.25 "
         id="polygon6050" />
      <path
         d="m 255.88,166.14 c -3.34,0.78 1.35,2.08 1.48,3 -0.51,-1.01 -1.01,-1.98 -1.48,-3 z"
         transform="translate(0,-0.42)"
         id="path6052"
         inkscape:connector-curvature="0" />
      <path
         d="m 231.72,170.07 -0.27,-2 -0.91,0.54 c -0.8,-0.44 -2.1,-0.95 -2.44,-2 -1.61,1.39 2.2,2.39 3.62,3.46 z"
         transform="translate(0,-0.42)"
         id="path6054"
         inkscape:connector-curvature="0" />
      <path
         d="m 245.9,171.24 c 0.93,0.74 1.88,1.42 2.85,2.1"
         transform="translate(0,-0.42)"
         id="path6056"
         inkscape:connector-curvature="0" />
      <path
         d="m 221.44,171.38 c -0.49,0.55 3.18,5.3 -1.95,1.59 2,1.42 5.09,3 2.46,3.17 3.47,1.94 1.14,-1.44 3.83,-1 a 3.16,3.16 0 0 1 -2.54,-1.42 17.15,17.15 0 0 0 -1.8,-2.34 z"
         transform="translate(0,-0.42)"
         id="path6058"
         inkscape:connector-curvature="0" />
      <path
         d="m 229,177.25 c 1.52,1.2 3.47,2.68 4.76,2.45 a 11.86,11.86 0 0 1 -2.3,-1.66 2.84,2.84 0 0 0 -2.46,-0.79 z"
         transform="translate(0,-0.42)"
         id="path6060"
         inkscape:connector-curvature="0" />
      <polygon
         points="226.99,178.87 227.73,181.28 228.85,181.42 "
         id="polygon6062" />
      <line
         x1="268.19"
         y1="179.32001"
         x2="268.41"
         y2="176.97"
         id="line6064" />
      <path
         d="m 239.69,186.2 c -1.15,-0.33 -2.29,-0.7 -3.41,-1.1 -1.12,-0.4 -2.27,-0.75 -3.38,-1.2 0.92,0.6 1.87,1.11 2.82,1.66 0.95,0.55 1.89,1.11 2.87,1.6 4.09,0.25 2.44,-1 0,-2.44 0.67,0.49 1.12,0.99 1.1,1.48 z"
         transform="translate(0,-0.42)"
         id="path6066"
         inkscape:connector-curvature="0" />
      <path
         d="m 233.74,180.69 -2.2,-0.19 c -0.23,0.34 2.64,1.64 5.08,2.92 a 21.4,21.4 0 0 1 -2,-1.49 c -0.56,-0.49 -0.89,-0.93 -0.88,-1.24 z"
         transform="translate(0,-0.42)"
         id="path6068"
         inkscape:connector-curvature="0" />
      <path
         d="m 236.62,183.42 c 0.67,0.44 1.36,0.9 2,1.3 a 14.3,14.3 0 0 0 -2,-1.3 z"
         transform="translate(0,-0.42)"
         id="path6070"
         inkscape:connector-curvature="0" />
      <path
         d="m 284.26,183.37 a 27.58,27.58 0 0 0 -5.77,-3 36.28,36.28 0 0 0 5.77,3 z"
         transform="translate(0,-0.42)"
         id="path6072"
         inkscape:connector-curvature="0" />
      <path
         d="m 244.09,189.8 1,0.31 0.79,-1.67 c -2.11,-0.27 -1.63,1.02 -1.79,1.36 z"
         transform="translate(0,-0.42)"
         id="path6074"
         inkscape:connector-curvature="0" />
      <path
         d="m 251.86,195.29 a 6.21,6.21 0 0 0 3.75,1.11 c 1.45,0.06 2.89,-0.05 3.7,0 a 11.14,11.14 0 0 0 -3.62,-1.75 c -1.31,-0.41 -2.7,-0.8 -4.17,-1.31 2.94,1.05 0.63,1.27 0.34,1.95 z"
         transform="translate(0,-0.42)"
         id="path6076"
         inkscape:connector-curvature="0" />
      <path
         d="m 260.57,199.19 c -1,-0.15 -2.08,-0.35 -3.15,-0.54 -1.07,-0.19 -2.15,-0.38 -3.21,-0.6 0.85,2.2 3.79,0.95 6.36,1.14 z"
         transform="translate(0,-0.42)"
         id="path6078"
         inkscape:connector-curvature="0" />
      <path
         d="m 268.68,199.59 c 0.38,-0.11 0.23,-0.71 1,-0.91 a 1.67,1.67 0 0 0 -1.22,-0.75 c -0.59,-0.13 -1.22,-0.21 -1.81,-0.39 0.4,0.34 0.76,0.68 1.1,1 0.34,0.32 0.64,0.71 0.93,1.05 z"
         transform="translate(0,-0.42)"
         id="path6080"
         inkscape:connector-curvature="0" />
      <path
         d="m 226.76,168.42 c 1.5,0.73 2.85,1.37 4.17,1.92 -1.81,-1.41 -3.62,-2.75 -5.33,-4.22 a 10.33,10.33 0 0 0 1.16,2.3 z"
         transform="translate(0,-0.42)"
         id="path6082"
         inkscape:connector-curvature="0" />
      <path
         d="m 422.1,340.31 a 8.09,8.09 0 0 1 -2.15,0.05 19.6,19.6 0 0 1 -2.33,-0.43 c -0.76,-0.25 -1.55,-0.55 -2.36,-0.88 -0.81,-0.33 -1.52,-0.8 -2.3,-1.23 a 28.81,28.81 0 0 1 -7,-6.31 c -0.25,-0.44 -0.52,-0.88 -0.81,-1.31 -0.29,-0.43 -0.5,-0.9 -0.78,-1.35 -0.28,-0.45 -0.57,-0.91 -0.86,-1.37 -0.29,-0.46 -0.59,-1 -0.89,-1.6 -1.25,-2.26 -2.64,-5.15 -4.28,-8.48 a 100.41,100.41 0 0 0 -6.17,-11 56.86,56.86 0 0 0 -9.16,-10.6 l 0.62,-0.41 c -0.59,-0.67 -1.22,-1.34 -1.86,-2 -0.64,-0.66 -1.37,-1.24 -2.08,-1.86 A 44.07,44.07 0 0 0 375.11,288.14 58.76,58.76 0 0 0 365,283 c -0.87,-0.36 -1.73,-0.68 -2.6,-1 l -2.59,-0.88 c -1.71,-0.51 -3.43,-1.07 -5.1,-1.5 -3.36,-0.94 -6.57,-1.68 -9.6,-2.5 l 0.41,1.13 c 2,0.69 4.66,1.49 2.72,2.29 -2.59,-1.19 -6.08,-2.56 -6.68,-3.49 l -2.38,0.85 c -1.49,-1.17 0.66,-4 -4.17,-4.17 -1.7,1.3 -3.95,0.09 -5.84,-1 -1.89,-1.09 -3.44,-2.07 -4.21,-0.11 -0.39,-1.48 -1.71,-2 -3.14,-2.32 -1.43,-0.32 -3,-0.41 -3.91,-0.91 0.16,0.77 0.33,1.55 0.52,2.33 a 22.18,22.18 0 0 1 -2.48,-2.24 c -0.71,-0.82 -1.35,-1.64 -1.95,-2.37 -1.1,-1.53 -2,-2.69 -2.88,-3 a 30.75,30.75 0 0 1 -6.16,-4.29 l -0.7,-0.63 a 4.54,4.54 0 0 1 -0.67,-0.64 c -0.4,-0.44 -0.82,-0.87 -1.25,-1.29 -0.43,-0.42 -0.72,-0.89 -1.1,-1.31 l -0.29,-0.32 -0.23,-0.33 c -0.16,-0.23 -0.32,-0.44 -0.48,-0.65 0.83,-0.88 1.23,0.08 1.64,0.8 0.41,0.72 0.8,1.22 1.12,-0.42 a 4.94,4.94 0 0 1 -1.21,-0.95 5.14,5.14 0 0 1 -1,-1.19 c -0.26,-0.45 -0.52,-0.91 -0.76,-1.4 a 11,11 0 0 1 -0.45,-1.6 19.16,19.16 0 0 1 0.48,-8 c 0.67,-3 1.79,-6.39 2.82,-10.05 0.52,-1.83 1,-3.74 1.41,-5.75 a 44.42,44.42 0 0 0 0.84,-6.38 c -0.28,0.47 -0.79,2 -0.91,0.79 1.18,-1.55 1.48,-3.62 1.65,-6 0.17,-2.38 0.16,-5.09 0.57,-8.27 a 3.14,3.14 0 0 0 -0.85,1.85 c -0.23,0.91 -0.44,2.06 -0.62,3.26 -0.4,2.37 -0.78,4.92 -1.11,6.21 -1.65,-1.11 -1.38,-1.41 -0.72,-2.39 a 6.79,6.79 0 0 0 1.05,-2.15 9.23,9.23 0 0 0 0.32,-1.81 14.29,14.29 0 0 0 -0.1,-2.46 c -0.21,0.52 -0.62,1.55 -1,1.46 a 15.39,15.39 0 0 1 0.05,-3.65 2.44,2.44 0 0 1 0.7,-1.32 2.31,2.31 0 0 0 0.7,-1.05 5.86,5.86 0 0 0 -0.17,-2.89 c -0.22,1.18 -0.54,2.29 -0.85,3.39 -0.12,-2.86 -0.41,-3.35 -0.69,-3.86 a 20.69,20.69 0 0 1 -1.83,-4.31 c 1.09,0.26 1.8,-0.5 2.17,-1.63 a 6.73,6.73 0 0 0 0.08,-3.61 c -0.53,-0.26 -1.41,-2.18 -2.41,-3.79 -1,-1.61 -2.22,-2.88 -2.74,-2 a 17.2,17.2 0 0 0 -1.09,-3.38 16.1,16.1 0 0 0 -1.62,-2.5 12.17,12.17 0 0 0 -1.88,-1.8 14.83,14.83 0 0 0 -2,-1.37 c -0.68,-0.4 -1.35,-0.8 -2.05,-1.17 -0.7,-0.37 -1.4,-0.82 -2.1,-1.25 a 29.23,29.23 0 0 1 -4.58,-3.61 c -2,0.17 -1.28,0.87 -0.24,1.74 1.04,0.87 2.45,2 2,2.56 -1,-0.33 -1.85,-0.55 -2.46,-0.76 a 8.88,8.88 0 0 1 -1.34,-0.56 c -0.59,-0.35 -0.65,-0.7 -0.55,-1 0.21,-0.69 1.15,-1.41 -0.22,-2.13 -1.39,-0.07 -4.62,-0.49 -7.62,-0.87 -3,-0.38 -5.9,-0.93 -7.4,-1.9 l -0.4,1.41 c -2.33,-1.11 -5.17,-2.08 -7.7,-3.19 -2.53,-1.11 -4.56,-2.31 -5.07,-3.55 -2.4,1.51 1.06,2.5 4.16,3.29 0.41,1.23 -3,1.11 -4.41,0.26 0.76,0.25 0.8,1.21 1.87,0.74 0,0.65 -0.59,0.65 -1.24,0.48 a 7.23,7.23 0 0 0 -1.86,-0.47 c -2.65,-1 -2,-1.11 -1.07,-1.05 0.93,0.06 2.37,0.13 1.36,-0.57 -2.15,-0.06 -7,-2.16 -5.57,0.36 -4.28,-1.56 -0.95,-2.53 -2.81,-4.11 a 5.06,5.06 0 0 0 3.67,1.37 3.3,3.3 0 0 1 3,1.25 c 1.06,-0.39 0.9,-1 0,-1.92 a 16.19,16.19 0 0 1 -3,-1 l -3.12,-1.43 c -1.94,-0.93 -3.52,-1.51 -3.87,-0.59 l -1.07,-2 c -0.73,0.17 -1.48,0.36 -2.21,0.49 l -0.48,-0.69 a 11.13,11.13 0 0 0 2,3.78 12.94,12.94 0 0 1 2,3.49 c -0.1,1 -2.2,-0.39 -3.41,-0.83 l -0.2,-1.93 a 3.3,3.3 0 0 0 -3.28,-0.24 4,4 0 0 1 -4,-1 c 1.76,-0.21 1,-1.53 -0.26,-3.15 -0.64,-0.84 -1.44,-1.75 -2.18,-2.62 a 19.2,19.2 0 0 1 -1.77,-2.53 c -2.46,0.6 -2.79,1.19 -3.05,1.84 -0.26,0.65 -0.41,1.27 -2.56,1.66 -0.67,-0.54 -1.5,-1.06 -2.34,-1.67 -0.84,-0.61 -1.76,-1.25 -2.67,-1.93 a 30.58,30.58 0 0 1 -2.54,-2.28 13.29,13.29 0 0 1 -2,-2.62 21.14,21.14 0 0 0 2,1.74 c 0.46,0.32 0.73,0.41 0.87,0.36 0.14,-0.05 0,-0.8 -0.19,-1.6 -0.46,-1.59 -0.92,-3.38 2.26,-1.26 -0.89,-1.37 -2.18,-1.91 -3.31,-3.06 1.25,-2.89 3.24,-0.05 3.36,-3.06 l -1.85,0.95 a 24.5,24.5 0 0 1 0,-3.73 11.15,11.15 0 0 0 -0.5,-3.67 c -0.9,0.3 -2.6,-0.15 -2.35,-1.09 a 7.92,7.92 0 0 0 1.34,-0.92 1,1 0 0 0 0.35,-0.9 5.28,5.28 0 0 0 -2.51,-0.28 2.6,2.6 0 0 0 -1,0.52 3.69,3.69 0 0 0 -0.78,1 5.66,5.66 0 0 0 -0.6,1.29 11.89,11.89 0 0 0 -0.38,1.61 7.45,7.45 0 0 1 -0.84,3.09 27.29,27.29 0 0 1 2.26,6 c 0.48,2 0.8,4.1 1.15,6.27 a 22.88,22.88 0 0 0 8,14.65 c 2.76,0.42 2.24,-0.36 6.55,1.6 2.22,-0.57 1.05,-2 -0.7,-3.76 -0.9,-0.86 -1.92,-1.85 -2.8,-2.81 a 7.61,7.61 0 0 1 -1.83,-2.74 c 1.41,0.45 2.84,0.77 3.53,1.95 l 0.09,-2.63 c 3.11,1.61 3.48,2.75 3.76,3.93 a 3.94,3.94 0 0 0 0.71,1.73 6.45,6.45 0 0 0 2.74,1.7 l -1.46,-0.25 c 1.15,0.43 2.29,0.83 3.46,1.18 l -0.54,-0.71 c 2,0.9 3.3,-0.21 6,1.91 l -3.14,0.06 c 1.09,-0.06 1.47,0.53 1.92,1.22 a 3.26,3.26 0 0 0 2.4,1.7 c -1.74,0.18 -2.6,0.92 -3.48,0.54 a 23.08,23.08 0 0 0 2.5,1.83 c 0.84,0.54 1.67,1.06 2.52,1.52 a 52.26,52.26 0 0 0 5.06,2.37 c 6.06,1.49 12,2.87 17.9,4.07 3,0.62 6,1.17 8.93,2 a 34.22,34.22 0 0 1 8.4,3.32 6.74,6.74 0 0 0 -1.08,-1.17 4.2,4.2 0 0 1 3.73,3 15.54,15.54 0 0 1 3.94,4.69 17.55,17.55 0 0 1 3.61,5 20.1,20.1 0 0 1 1.81,7 c -1,0.39 -1.47,0.08 -1.63,-0.55 0.44,1.86 0.95,3.08 1.86,1 a 9.83,9.83 0 0 1 -0.07,4.2 27.52,27.52 0 0 0 -0.67,3.48 40,40 0 0 0 -1.86,-5.73 2.66,2.66 0 0 0 0.48,2.4 3.36,3.36 0 0 1 0.3,3.11 c 0.11,2.61 0.62,2.11 1.3,1 0.68,-1.11 1.45,-2.88 2.26,-2.52 -0.1,0.74 -0.19,1.48 -0.34,2.22 0.82,-0.74 1.58,-1.51 2.35,-2.32 a 14.88,14.88 0 0 1 -4.84,9 c 0.49,-1.06 0.91,-2.15 1.35,-3.26 -1.17,-0.78 -1.42,0.61 -1.67,2.35 -0.25,1.74 -0.55,3.9 -1.46,4.5 l -0.06,-0.5 c -1.33,5.26 1.53,-0.85 1,2.81 -1.2,1.95 -2.41,3.92 -3.6,5.93 l 1.87,-0.74 c 0.07,2 -0.95,4.67 -2,7.79 a 36.48,36.48 0 0 0 -2.37,10.35 17.15,17.15 0 0 0 1.13,6.88 c 0.23,0.6 0.44,1.22 0.7,1.82 l 0.86,1.79 c 0.29,0.59 0.54,1.2 0.85,1.78 0.31,0.58 0.65,1.14 1,1.71 -0.09,-1 -0.49,-3 0.25,-2.62 0.58,1.35 1.5,3.52 2.28,5 a 5.19,5.19 0 0 1 0.56,1.88 c 0,0.4 -0.29,0.59 -1,0.35 1.24,0.91 2.45,1.79 3.7,2.55 a 10.89,10.89 0 0 1 2.07,3.07 11.79,11.79 0 0 1 -0.28,-1.34 c 0.62,0.56 1.35,1 2,1.48 0.65,0.48 1.34,1 2.06,1.36 -0.28,0.24 0.7,2 -1.34,0.55 1.58,2.48 4.46,4.09 7.76,5.27 3.3,1.18 7,2.27 10.67,4.2 l -2.64,-0.15 a 9,9 0 0 1 4.86,2 11.19,11.19 0 0 0 2,1.26 10.28,10.28 0 0 0 3.19,0.79 L 323,285.3 c 3.83,0.6 10.41,3.92 9.08,4.67 1.29,-3 1.85,1.46 4.76,-0.75 l 1.47,3.44 c 2.53,-0.23 4.91,-0.08 3.78,-1.94 3.32,2.27 6.06,3.4 8.69,2.21 a 0.16,0.16 0 0 1 0.11,-0.05 h 0.1 v 0.05 c 0.88,0 4.12,1.78 3.07,-0.06 4.05,1.51 4.79,2.68 5.47,3.74 0.68,1.06 1.33,2 4.72,3.85 l 1.38,-1.71 c 2.55,1.76 5.11,3.32 7.65,4.83 1.22,0.8 2.51,1.51 3.62,2.36 0.57,0.4 1.16,0.78 1.71,1.19 l 1.52,1.26 c -0.38,0.52 -0.77,1 -1.16,1.54 1.11,1.19 1.36,0.88 1.81,0.69 0.45,-0.19 1,-0.17 2.41,2.1 0,0.81 -0.19,1.63 -0.69,1.73 a 41.56,41.56 0 0 1 2.71,8.15 84.44,84.44 0 0 0 3,10.13 c -0.36,0.09 -1.05,-0.7 -1.4,-1.11 0.34,0.76 0.76,1.63 1.27,2.53 0.51,0.9 1.16,1.82 1.79,2.75 0.32,0.47 0.63,0.94 1,1.38 l 1.09,1.28 a 25.11,25.11 0 0 0 2.1,2.3 32.77,32.77 0 0 0 8.39,13.92 37.93,37.93 0 0 0 16.14,9.64 29.09,29.09 0 0 0 7.1,-1.61 21.26,21.26 0 0 0 5.23,-2.87 14.59,14.59 0 0 0 3.25,-3.57 10.2,10.2 0 0 0 1.41,-3.88 7.24,7.24 0 0 0 -0.86,-1.26 13.73,13.73 0 0 0 -1.23,-1.38 c -0.46,-0.46 -1,-0.93 -1.53,-1.39 -0.53,-0.46 -1.14,-1 -1.75,-1.56 a 92.11,92.11 0 0 1 -8.11,-7.59 z"
         transform="translate(0,-0.42)"
         id="path6084"
         inkscape:connector-curvature="0" />
      <path
         class="cls-1"
         d="m 537.79,131.43 c 6.68,-0.3 13.39,-0.47 20.07,-0.54 h 5 c 1.66,0 3.32,0.06 5,0.1 l 9.91,0.28 19.47,0.68 18.76,1 -14.66,-0.67 c -2.44,-0.14 -4.88,-0.18 -7.33,-0.23 l -7.33,-0.16 c 3.66,0.08 7.18,0.23 10.63,0.44 3.45,0.21 6.81,0.65 10.19,1.08 6.75,0.87 13.51,2 20.87,3.5 -4.66,2 -14.14,-0.53 -16.69,2.4 -35.54,-2.35 -71.13,-7.5 -106.06,-10.54 6.91,-3.58 12.55,-2.89 17.64,-1.34 5.09,1.55 9.64,4.02 14.53,4 z"
         transform="translate(0,-0.42)"
         id="path6086"
         inkscape:connector-curvature="0"
         style="fill:#f5e461" />
      <path
         class="cls-1"
         d="m 667.42,144 c -3.58,-0.26 -7.06,-0.54 -10.49,-0.86 a 50.71,50.71 0 0 1 10.49,0.86 z"
         transform="translate(0,-0.42)"
         id="path6088"
         inkscape:connector-curvature="0"
         style="fill:#f5e461" />
      <path
         class="cls-1"
         d="m 306.48,176 c -3.9,1 -7.83,2 -11.66,2.64 A 77.56,77.56 0 0 1 306.48,176 Z"
         transform="translate(0,-0.42)"
         id="path6090"
         inkscape:connector-curvature="0"
         style="fill:#f5e461" />
      <path
         class="cls-1"
         d="m 491.16,148.37 c -2.11,0.62 -4.24,1.11 -6.4,1.52 q -12.17,-0.27 -24.54,-0.65 l -25,-0.28 c 4.56,0 9.18,-0.3 13.84,-0.65 l 7,-0.55 3.52,-0.28 3.52,-0.18 c 9.48,-0.44 18.9,-0.52 28.06,1.07 z"
         transform="translate(0,-0.42)"
         id="path6092"
         inkscape:connector-curvature="0"
         style="fill:#f5e461" />
      <path
         class="cls-1"
         d="m 508.75,154.84 q 6.18,-0.12 12.38,0 3.11,0.09 6.19,0.25 c 2.06,0.11 4.11,0.33 6.15,0.53 a 203.41,203.41 0 0 1 24,3.89 c -7.76,-1.41 -15.75,-2.47 -23.89,-3.3 -2,-0.2 -4.09,-0.42 -6.14,-0.56 l -6.19,-0.35 Q 515,155 508.75,154.84 Z"
         transform="translate(0,-0.42)"
         id="path6094"
         inkscape:connector-curvature="0"
         style="fill:#f5e461" />
      <path
         class="cls-1"
         d="m 165.38,242.53 a 4.94,4.94 0 0 1 -2.06,2.05 16.53,16.53 0 0 0 -2.69,1.51 q -16.44,3.27 -31.77,6.11 c 3.09,-1.17 6.72,-3.34 9.5,-4.15 5.59,-1 8.52,-0.88 12,-1.24 3.48,-0.36 7.55,-1.25 15.02,-4.28 z"
         transform="translate(0,-0.42)"
         id="path6096"
         inkscape:connector-curvature="0"
         style="fill:#f5e461" />
      <path
         class="cls-1"
         d="m 310.87,175.09 c 0.12,-0.13 0.24,-0.26 0.37,-0.38 l 4,-1.06 c 0.17,0 0.33,0.06 0.51,0.12 a 45.12,45.12 0 0 1 -4.88,1.32 z"
         transform="translate(0,-0.42)"
         id="path6098"
         inkscape:connector-curvature="0"
         style="fill:#f5e461" />
      <path
         class="cls-1"
         d="m 179.28,239.35 c -0.25,1.23 -0.5,2.48 0.12,3.27 l -9.3,1.57 -9.34,1.88 c 0.93,-0.51 1.81,-1 2.56,-1.49 a 53.27,53.27 0 0 1 7.8,-2.44 34.11,34.11 0 0 0 8.16,-2.79 z"
         transform="translate(0,-0.42)"
         id="path6100"
         inkscape:connector-curvature="0"
         style="fill:#f5e461" />
      <path
         class="cls-1"
         d="m 285.3,225.84 c 2.27,-0.46 3.9,-3.1 4.88,-3.86 l 9.35,0.66 c 3.2,0.22 6.52,0.35 10.09,0.29 1,-0.75 3.27,-1.15 5.25,-2.65 a 27.36,27.36 0 0 0 4.48,1.79 L 296,225 c -7.87,1.12 -15.85,2.18 -24,3.17 4.27,-0.95 8.68,-1.78 13.3,-2.33 z"
         transform="translate(0,-0.42)"
         id="path6102"
         inkscape:connector-curvature="0"
         style="fill:#f5e461" />
      <path
         class="cls-1"
         d="m 191.92,0.42 a 116,116 0 0 1 -4.07,15.84 c -0.85,2.65 -1.76,5.32 -2.67,8 -0.91,2.68 -1.87,5.35 -2.81,8 -3.65,10.72 -7,21.41 -7.22,32.18 5.59,-10.91 11.06,-24.33 16.31,-35.18 a 85.71,85.71 0 0 1 7.83,-13.69 c 2.61,-3.49 5.18,-5.7 7.85,-5.94 5.33,-0.49 3.45,7.76 -0.53,18.38 -2,5.32 -4.54,11.2 -6.86,16.93 a 155.64,155.64 0 0 0 -5.92,15.86 c 1.79,-2.11 1.8,-2.1 3.55,-4.22 -1.74,2.12 -3.56,4.22 -3.11,6.74 3.63,-4.18 8.37,-13.1 12.39,-14.87 l 0.93,5.06 a 52.3,52.3 0 0 0 7.88,-9.8 c 2.48,-3.83 5,-8 7.29,-12.33 4.78,-8.52 9.37,-17.16 14.7,-22.68 -19.74,28.47 -33.92,63.86 -48,101.32 q -2.61,7 -5.24,14.12 l -1.2,3.29 -0.81,2.29 -1.65,4.6 -6.22,17.74 c -2,5.67 -3.91,11 -5.83,16.06 -1.92,5.06 -3.86,9.84 -6,14.52 -0.13,0.44 -0.26,0.88 -0.38,1.31 l -0.11,0.38 c 0,0.05 -0.08,0.17 0,0.16 l 0.35,-0.14 1.39,-0.57 2.78,-1.14 c 1.85,-0.77 3.69,-1.56 5.5,-2.36 3.63,-1.6 7.17,-3.25 10.57,-4.91 3.4,-1.66 6.67,-3.3 9.73,-4.94 3.06,-1.64 5.92,-3.29 8.54,-4.92 a 76.35,76.35 0 0 0 12.58,-9.39 25.82,25.82 0 0 0 3.69,-4.37 l 0.32,-0.53 0.16,-0.26 0.07,-0.12 c 0,0 0,-0.08 -0.05,-0.11 l -0.14,-0.2 0.81,-0.39 1.64,-0.79 6.53,-3.16 c 3.42,-1.35 9.44,-2.71 16.15,-3.94 l 5.13,-0.9 c 1.74,-0.27 3.5,-0.49 5.23,-0.72 3.48,-0.45 6.89,-0.85 10,-1.19 l 16.08,-4.13 4,-1.05 4,-1 8,-2 c 10.73,-2.7 21.37,-5.9 32,-9.09 q 8.56,-1.94 17.16,-3.42 c 2.86,-0.49 5.73,-1 8.6,-1.38 2.87,-0.38 5.75,-0.72 8.63,-1.05 5.76,-0.64 11.53,-1.19 17.32,-1.69 2.89,-0.24 5.79,-0.48 8.7,-0.69 l 8.74,-0.43 c 23.36,-1.22 47.12,-1.53 72,-2.93 10,-0.51 23.68,8.93 -0.53,12.45 -10,1.85 -20,3.69 -30.09,4.92 -5,0.64 -10.08,1.14 -15.13,1.63 -5.05,0.49 -10.1,1 -15.17,1.43 2.13,-3.27 11.91,-2.18 16.27,-4.82 -7.54,-0.38 -14.43,-0.53 -21.27,-0.4 a 180.59,180.59 0 0 0 -21,1.44 l 7.33,-0.91 7.34,-0.75 14.69,-1.48 c -6.12,0.62 -12.41,1.18 -18.81,1.75 -3.21,0.24 -6.43,0.62 -9.68,1 l -9.64,1.16 c -6.57,0.77 -13.22,1.54 -19.87,2.47 -6.65,0.93 -13.29,2.2 -19.91,3.48 -4.86,0.74 -9.75,-1.1 -15.06,-2 -5.31,-0.9 -11,-0.65 -17.37,3.91 17.59,-1.09 35.49,-1.3 53.37,-2.17 17.93,-0.38 35.86,-1.43 53.74,-2.63 a 0.91,0.91 0 0 0 -0.16,0.24 c 4,-0.4 7.86,-0.75 11.7,-1.06 1.91,-0.15 3.82,-0.33 5.71,-0.43 l 5.67,-0.28 c 7.54,-0.36 15,-0.68 22.71,-1.13 -4.77,0.67 -9.62,1.49 -13.87,1.17 q 8.46,0.62 16.83,0.86 c 2.8,0.06 5.59,0.23 8.37,0.32 2.78,0.09 5.57,0.19 8.35,0.26 q 8.33,0.19 16.63,0.22 h 4.15 l 4.15,0.1 8.29,0.19 q -5.84,1 -11.75,1.82 c -3.94,0.61 -7.89,1.2 -11.87,1.72 -8,1 -16,1.83 -24.07,2.53 -8.07,0.7 -16.21,1.53 -24.39,2.12 l -6.13,0.41 c -2.05,0.12 -4.1,0.26 -6.15,0.45 l -12.29,1 -12.32,0.9 -6.15,0.43 c -2.06,0.14 -4.1,0.37 -6.15,0.55 -8.18,0.78 -16.34,1.55 -24.45,2.38 -2,0.22 -4.05,0.39 -6.07,0.66 l -6,0.8 q -6,0.82 -12,1.71 c -7.95,1.2 -15.82,2.42 -23.51,4.14 a 44.83,44.83 0 0 0 7,0.38 c 2.38,-0.06 4.81,-0.15 7.26,-0.4 4.9,-0.48 9.89,-1.34 14.83,-2.16 a 139,139 0 0 1 14.44,-1.86 40,40 0 0 1 13,1.31 l -10.73,1.06 -2.68,0.25 -2.68,0.31 -5.37,0.61 q -10.74,1.2 -21.56,2.26 l -43.62,4.86 c 2.11,-0.72 4.14,-1.54 6.17,-2.4 -18.67,-0.52 -37.49,5.68 -55.57,8.64 l -4.89,0.66 c 1.62,-0.18 3.26,-0.41 4.89,-0.66 l 12.49,-1.69 6.2,-0.86 6.19,-0.73 q 12.38,-1.44 24.52,-3 c -7.17,2.47 -15,3.86 -24.45,4.88 5.43,1.2 12.88,0.85 20.31,0.5 9.57,-1.62 19.21,-2.75 28.75,-3.89 -7.32,1.25 -14.56,2.7 -21.54,4.58 -6.98,1.88 -13.71,4.13 -20.09,6.51 5,-0.34 10.09,-0.81 15.14,-1.36 l 7.58,-0.87 7.61,-0.77 15.2,-1.63 7.58,-0.78 c 2.52,-0.27 5,-0.5 7.55,-0.64 -2.73,0.41 -5.45,0.92 -8.17,1.43 l -8.16,1.52 -16.29,3 c -4.63,0.38 -9.23,1 -13.85,1.54 l -13.91,1.71 -7,0.88 c -2.33,0.29 -4.66,0.6 -7,1 l -14,2.25 2.18,-0.58 -4.2,1 -11,1.86 c -3,0.48 -6,1.11 -8.95,1.71 -5.3,1.37 -10.67,3.89 -16.83,6.92 l -2.84,0.71 c 2.21,-1.51 3.33,-2.77 0.3,-2.61 a 39.21,39.21 0 0 0 -9.92,1.45 c -3.5,0.88 -7.26,2 -11.12,3.22 -1.93,0.58 -3.88,1.16 -5.81,1.7 l -2.87,0.76 c -0.94,0.26 -1.87,0.5 -2.77,0.72 -3.62,0.87 -6.95,1.37 -9.26,1 a 13.83,13.83 0 0 0 -5.13,0.88 c -1.15,0.34 -2.42,0.77 -3.8,1.26 l -2.15,0.79 -0.56,0.21 -0.28,0.1 c 0,0 -0.11,0.05 -0.12,0 v -0.08 l 0.23,-0.7 c 0.13,-0.43 0.27,-0.87 0.4,-1.32 2,-2.48 1.59,-2.58 0.7,-2.3 0.27,-0.93 0.57,-1.89 0.89,-2.87 1.28,-2.8 2.6,-5.69 2.9,-7.86 a 73.5,73.5 0 0 0 -2.9,7.86 c -0.49,1.05 -0.93,2.06 -1.3,3 -1,0.37 -2.29,0.85 -1.54,-0.77 l -4.76,8.91 -0.49,0.91 -0.12,0.22 0.22,-0.05 0.44,-0.1 1.75,-0.43 3.54,-0.86 7.18,-1.75 14.85,-3.69 q 7.64,-1.74 15.54,-3.68 l 7.93,-2 c 2.66,-0.69 5.32,-1.39 8,-2 -1.8,1.23 -4.35,2.61 -5.53,3.46 2.91,-1.49 5.71,-2.84 8.37,-4.17 8,-2 16,-4.16 23.61,-6.46 a 29,29 0 0 0 -6.3,4 c 2.89,-0.58 5.87,-1.26 8.73,-1.77 l 9.76,-1.93 q 9.76,-2 19.51,-4.13 l 19.6,-4 9.81,-2 4.91,-1 4.92,-0.93 18.7,-1.72 9.3,-0.85 c 3.1,-0.3 6.21,-0.45 9.31,-0.68 l 18.55,-1.33 c 3.09,-0.22 6.17,-0.5 9.25,-0.69 l 9.26,-0.52 c -3.38,-0.4 -6.8,-0.69 -10.24,-0.9 -3.44,-0.21 -6.89,-0.17 -10.38,-0.15 -7,0.06 -14,0.38 -21.13,0.85 q 14,-2.24 28,-4.31 c 2.34,-0.36 4.68,-0.63 7,-0.9 l 7.05,-0.8 q 7.05,-0.8 14.11,-1.48 c 9.4,-1 18.86,-1.43 28.29,-1.85 q 7.08,-0.28 14.17,-0.43 c 4.72,0 9.45,0.08 14.17,0.21 -3.3,1.94 -7.23,3.66 -10.83,5.5 -3.6,1.84 -6.85,3.92 -8.8,6.35 0.21,1.12 3.33,1.65 5.53,2.13 a 4.46,4.46 0 0 1 2.14,0.77 c 0.16,0.3 -0.38,0.6 -2.1,1.07 -12.49,4.11 -23.33,5.09 -32.25,6.74 -8.89,1.85 -15.83,4.32 -20.31,11.13 -0.78,1.81 6.16,5 12.13,8.23 5.97,3.23 11,6.37 6.61,8.07 -3.7,0.94 -8.87,2 -14.92,3.14 -6.05,1.14 -13,2.19 -20.11,3.56 -4.2,0.18 -8.53,0.57 -13,1 -0.59,-0.17 -1.43,0.66 -2.51,1.6 l -11.42,1.76 c -3.7,0.63 -7.25,1.2 -10.59,1.69 -6.67,1 -12.45,1.68 -16.61,1.92 l -4.62,0.25 -4.57,0.39 a 11.59,11.59 0 0 1 -4.42,-2 31.13,31.13 0 0 1 -5.36,2.95 q -6.12,0.6 -12.16,1.28 l -6,0.69 c -2,0.25 -4,0.57 -6,0.86 -4.59,-0.19 -9.2,-0.53 -13.72,-0.57 0.25,0.77 1.16,1.68 0.49,2.62 l -7.44,1.21 -3.7,0.62 -1.64,0.31 c -0.66,0.12 -1.33,0.23 -1.84,0.35 -1.11,0.23 -2.2,0.44 -3.31,0.69 l -26.43,6 c -7,0.61 -13,0.53 -17.75,-0.55 a 69.88,69.88 0 0 1 -8.83,4.35 c -1.64,0.7 -3.31,1.3 -5.13,2 -1.82,0.7 -3.67,1.41 -5.59,2.09 -7.7,2.72 -16.23,5.21 -24.93,7.55 -8.7,2.34 -17.58,4.54 -26.21,6.74 -8.63,2.2 -16.77,4.42 -24.76,6.91 l -0.33,0.36 -18.47,5 -9.14,2.6 -4.64,1.25 -2.32,0.61 -1.74,0.17 4.37,-8.51 c 2.5,-3.46 5.14,-6.92 7.89,-10.34 a 8.52,8.52 0 0 1 0.53,-3.61 12.41,12.41 0 0 0 0.73,-3.05 c 7.58,-13.12 15.06,-24.69 22.23,-35.8 -0.09,-1.17 -2,-2.54 -0.13,-6.42 4.2,-8 7.76,-15.39 11.13,-22.64 l 13.43,-26 10.54,-21.29 q 4.89,-10.31 9.77,-20.55 c 0.8,-1.68 1.61,-3.35 2.37,-5 0.4,-0.83 0.78,-1.68 1.16,-2.55 L 136,109 a 4.15,4.15 0 0 1 0.23,-0.47 l 0.18,-0.36 3,-5.85 c 2,-3.88 3.9,-7.79 5.89,-11.67 a 7.83,7.83 0 0 1 3.26,0.31 c -0.41,-3 1.91,-6.2 2,-8.74 a 1.56,1.56 0 0 0 1.13,1.12 16.42,16.42 0 0 1 2.7,-8.16 51.58,51.58 0 0 0 4.41,-6.93 c 0.48,-1.54 -0.12,-3.33 0.07,-4.93 l 1.05,-2.14 A 24.5,24.5 0 0 0 167,50.62 c 1.47,-3.91 2.32,-8.12 3.73,-12.42 3.82,-8.26 7.59,-16.58 11.23,-25 2.81,-6.64 6.62,-8.48 9.96,-12.78 z"
         transform="translate(0,-0.42)"
         id="path6104"
         inkscape:connector-curvature="0"
         style="fill:#f5e461" />
      <path
         class="cls-1"
         d="M 125.15,252.89 106,256.36 88,259.5 c 7.18,-1.92 14.61,-4.39 21,-5.93 a 52,52 0 0 1 8.82,-1.48 18.65,18.65 0 0 1 7.33,0.8 z"
         transform="translate(0,-0.42)"
         id="path6106"
         inkscape:connector-curvature="0"
         style="fill:#f5e461" />
      <path
         class="cls-1"
         d="m 397.64,209.33 a 37.21,37.21 0 0 0 11.36,3.82 l -7.93,0.46 c -2.65,0.16 -5.29,0.29 -7.93,0.55 l -15.84,1.42 c -5.28,0.5 -10.59,0.92 -15.89,1.49 l -16,1.85 -0.06,-0.25 c 4.25,-0.79 9,-1.31 13.92,-1.76 l 3.7,-0.34 3.72,-0.24 c 2.49,-0.16 5,-0.34 7.38,-0.56 9.72,-0.86 18.49,-2.48 23.57,-6.44 z"
         transform="translate(0,-0.42)"
         id="path6108"
         inkscape:connector-curvature="0"
         style="fill:#f5e461" />
      <path
         class="cls-1"
         d="m 163.32,244.58 c -0.75,0.49 -1.63,1 -2.56,1.49 h -0.13 a 16.53,16.53 0 0 1 2.69,-1.49 z"
         transform="translate(0,-0.42)"
         id="path6110"
         inkscape:connector-curvature="0"
         style="fill:#f5e461" />
      <path
         class="cls-1"
         d="M 435.88,163.19 H 438 c -2.67,0.39 -5.34,0.77 -8,1.12 l -4,0.51 -4,0.58 a 71.63,71.63 0 0 1 13.88,-2.21 z"
         transform="translate(0,-0.42)"
         id="path6112"
         inkscape:connector-curvature="0"
         style="fill:#f5e461" />
      <path
         class="cls-1"
         d="m 493.81,163.78 32.94,-1.26 c 7.06,0.51 14,1.27 20.9,2.22 q 5.15,0.72 10.19,1.65 c 1.68,0.32 3.35,0.64 5,1 1.65,0.36 3.3,0.82 4.94,1.26 -6.11,-0.61 -12.24,-0.92 -18.37,-1.39 L 531,165.88 c -3.08,-0.27 -6.16,-0.38 -9.25,-0.57 l -9.28,-0.51 z"
         transform="translate(0,-0.42)"
         id="path6114"
         inkscape:connector-curvature="0"
         style="fill:#f5e461" />
      <path
         class="cls-1"
         d="m 438.71,209.32 c 4.43,0.7 8.92,1.71 13.41,2.57 l -13.3,0.09 c 0.79,-0.83 0.02,-1.86 -0.11,-2.66 z"
         transform="translate(0,-0.42)"
         id="path6116"
         inkscape:connector-curvature="0"
         style="fill:#f5e461" />
      <path
         class="cls-1"
         d="m 391.06,168.9 c 1.09,-0.13 2.19,-0.22 3.28,-0.33 -2.75,0.87 -5.48,2 -8.21,3 0.97,-0.66 3.31,-1.69 4.93,-2.67 z"
         transform="translate(0,-0.42)"
         id="path6118"
         inkscape:connector-curvature="0"
         style="fill:#f5e461" />
      <path
         class="cls-1"
         d="m 486,213 -9.75,-0.52 a 30.5,30.5 0 0 0 5.7,-2.14 11.47,11.47 0 0 0 4.05,2.66 z"
         transform="translate(0,-0.42)"
         id="path6120"
         inkscape:connector-curvature="0"
         style="fill:#f5e461" />
      <path
         class="cls-1"
         d="m 536.59,212.62 c 4.46,0.19 8.78,0.43 12.92,0.87 -5.15,0.17 -10.42,0.28 -15.62,0.35 1.19,-0.78 2.11,-1.47 2.7,-1.22 z"
         transform="translate(0,-0.42)"
         id="path6122"
         inkscape:connector-curvature="0"
         style="fill:#f5e461" />
      <path
         class="cls-2"
         d="m 16.34,158.25 c 1.08,0.27 1.08,-0.16 1.08,0 l 2.18,0.6 c -2.18,-0.49 -5.08,0.22 -3.26,-0.6 z"
         transform="translate(0,-0.42)"
         id="path6124"
         inkscape:connector-curvature="0"
         style="fill:#ffffff" />
      <path
         class="cls-2"
         d="m 26.5,159.18 1.45,0.11 a 4.68,4.68 0 0 1 -2.54,0.27 c 0.73,-0.11 1.09,-0.22 1.09,-0.38 z"
         transform="translate(0,-0.42)"
         id="path6126"
         inkscape:connector-curvature="0"
         style="fill:#ffffff" />
      <path
         class="cls-2"
         d="m 54.82,158.52 -0.73,0.22 c 0,-0.11 -1.81,-0.16 -1.45,-0.33 z"
         transform="translate(0,-0.42)"
         id="path6128"
         inkscape:connector-curvature="0"
         style="fill:#ffffff" />
      <path
         class="cls-2"
         d="m 48.53,171.11 a 7.71,7.71 0 0 0 -1,0.12 21.39,21.39 0 0 1 -4.08,-0.33 c 0.73,-0.2 -0.22,-0.67 1.83,-0.59 l 0.1,0.05 c 1.5,0 4.42,-0.26 3.89,-0.52 -1.26,-0.06 -3.47,0.16 -5.5,-0.09 -0.64,-0.32 0.13,-0.69 1.89,-0.94 l -3.52,-0.24 a 19.92,19.92 0 0 1 3.33,-0.61 l 1.46,0.16 c 1.28,-0.11 4.14,0 4.1,-0.41 a 13.42,13.42 0 0 1 -2.87,-0.67 c 2.94,-0.42 0.32,-1.15 1.21,-1.65 -5.54,-0.49 2.68,-1.49 -4.15,-1.86 1.41,-0.81 -2.94,-0.89 -6.08,-1.32 3.67,-0.62 4.68,0.81 8.18,0.48 1.19,-0.91 -0.81,-1.9 -0.41,-2.83 -2.37,-0.23 -5,0.17 -5.57,-0.31 a 13.85,13.85 0 0 0 4.17,-0.19 6.11,6.11 0 0 1 -2,0 l -0.49,0.14 c -5.87,0.1 0.58,-0.65 -2.35,-1 2,-0.14 0,0.18 1.92,0.2 2.64,0 5.76,-0.15 6.77,-0.59 -3.3,-0.88 2.67,-1.49 1.47,-2.46 -2.2,0 -1.23,-0.23 -1.55,-0.39 a 12.74,12.74 0 0 0 4.55,-0.38 c -1.22,-0.23 -5.46,-0.26 -5.06,-0.62 l -4.06,0.24 c -0.48,0.14 1.27,0.63 2.14,0.87 -4.62,0.16 2.08,1.22 -4.21,1.11 l 0.82,-0.16 c 2.29,-0.55 -4,-0.84 -6.18,-1.37 1.8,-0.42 4.92,-0.56 7.39,-0.85 1.2,-0.34 -0.5,-0.43 -1.62,-0.6 -1.12,-0.17 1,-0.45 2.18,-0.62 -0.21,-0.1 -1,0 -1.25,-0.05 0.48,-0.14 1.31,-0.29 1.1,-0.4 -3.9,0 -3.88,0.52 -5.09,0.86 -0.56,-0.09 -1.36,-0.11 -1.22,-0.23 -0.22,-0.1 0.58,-0.08 0.93,-0.1 l -0.42,-0.2 c -1.15,0 -3.34,0 -3.52,-0.24 l 2.33,-0.17 c 0.78,-0.54 -4.68,-0.81 -5.15,-0.1 l 2.4,0.06 -3.56,0.67 c -2.44,0.11 -1.79,-0.31 -4.08,-0.32 a 11.09,11.09 0 0 0 -5,0.74 3.8,3.8 0 0 0 2.71,-0.35 l 4.18,0.37 c 0.21,0.11 -0.62,0.26 -1.77,0.26 -1.15,0 -4.59,0 -4.17,0.19 -0.68,0.6 4.25,0 4.5,0.53 4.28,-0.14 5.23,-1 7.34,-1.25 l -0.07,-0.22 c 2.08,-0.09 0.73,0.36 1.95,0 2.65,0.57 -2.54,1.37 -5.48,1.79 -2.65,0 -5.15,0.47 -8.53,0.11 -0.38,0.19 -2.46,0.28 -1.94,0.54 4.48,0.71 -1,1 0.29,1.64 a 20.21,20.21 0 0 1 2.4,0.06 c -1.65,0.87 -11.54,-0.27 -9.12,0.93 a 9.09,9.09 0 0 0 3.17,0.25 c 0.83,-0.15 2.81,-0.29 1.93,-0.54 1.15,0 1.11,-0.39 3.48,-0.16 -0.79,0.55 3.53,0.81 2.53,1.25 l 1.82,0.15 c 0,0.17 2,0.59 0.53,0.83 -1.27,0.68 -3.89,0 -5.84,-0.08 l -1.13,0.57 c 4.36,0.65 -6.17,1.08 -0.86,1.63 h -1.26 c -1.78,-0.32 -4.73,0.1 -4.65,0.32 l 1.11,0.18 c 5.12,0.28 1.87,1.11 3.38,1.67 a 2.77,2.77 0 0 1 -1.38,0.06 l -2.18,0.61 c 4.9,0.18 0.15,0.45 0.89,0.82 2,0.25 4.07,0.32 5.5,0.66 -3.59,0.85 1.6,1.35 -2.55,2.11 3.66,0.12 4.6,0.59 8.8,0.22 -2.19,0.79 -6.23,1.5 -7.4,2.27 l 1.69,0.16 c 7.52,0.15 22.6,0.95 25.96,0.13 z"
         transform="translate(0,-0.42)"
         id="path6130"
         inkscape:connector-curvature="0"
         style="fill:#ffffff" />
      <path
         class="cls-2"
         d="m 52,152.8 -0.06,0.34 h 1.05 C 54.62,153 52,153 52,152.8 Z"
         transform="translate(0,-0.42)"
         id="path6132"
         inkscape:connector-curvature="0"
         style="fill:#ffffff" />
      <path
         class="cls-2"
         d="m 0,177.63 a 22.22,22.22 0 0 0 6.17,0.49 c 0.36,-0.44 -2.54,-0.76 -0.73,-1.2 A 28.07,28.07 0 0 0 0,177.63 Z"
         transform="translate(0,-0.42)"
         id="path6134"
         inkscape:connector-curvature="0"
         style="fill:#ffffff" />
      <path
         class="cls-2"
         d="m 14.43,159.35 0.25,0.5 2.44,-0.11 c 1.44,-0.41 -2.51,-0.11 -2.69,-0.39 z"
         transform="translate(0,-0.42)"
         id="path6136"
         inkscape:connector-curvature="0"
         style="fill:#ffffff" />
      <path
         class="cls-2"
         d="m 30.13,179.32 c 1.45,0 2.91,0.11 2.18,-0.11 l -2.54,-0.33 c 0.72,0.06 -1.77,0.55 0.36,0.44 z"
         transform="translate(0,-0.42)"
         id="path6138"
         inkscape:connector-curvature="0"
         style="fill:#ffffff" />
      <path
         class="cls-2"
         d="m 35.94,180.46 4.36,-0.05 c -0.74,-0.17 -2.55,-0.27 -1.82,-0.44 -0.73,0.22 -2.9,0.22 -2.54,0.49 z"
         transform="translate(0,-0.42)"
         id="path6140"
         inkscape:connector-curvature="0"
         style="fill:#ffffff" />
      <path
         class="cls-2"
         d="m 36.67,178.12 c -4.36,0.6 5.44,0.65 -0.37,1.14 1.1,0.71 5.09,0.49 8.72,0.33 0,-0.27 -5.09,0 -6.54,-0.44 a 9.71,9.71 0 0 1 4,-0.65 c 0.36,-0.71 -4.36,0 -5.81,-0.38 z"
         transform="translate(0,-0.42)"
         id="path6142"
         inkscape:connector-curvature="0"
         style="fill:#ffffff" />
      <polygon
         class="cls-2"
         points="46.1,179.72 43.2,179.88 46.1,180.04 "
         id="polygon6144"
         style="fill:#ffffff" />
      <polygon
         class="cls-2"
         points="47.56,177.43 47.2,177.92 49.37,177.7 "
         id="polygon6146"
         style="fill:#ffffff" />
      <path
         class="cls-2"
         d="m 58.09,178.77 v -0.22 a 13.39,13.39 0 0 0 -3.63,-0.1 c 0.36,0.27 2.54,0.21 3.63,0.32 z"
         transform="translate(0,-0.42)"
         id="path6148"
         inkscape:connector-curvature="0"
         style="fill:#ffffff" />
      <path
         class="cls-2"
         d="m 28,173.18 a 85.29,85.29 0 0 0 -15.07,2.53 c 1.39,0.18 2.72,0.37 3.79,0.59 l -3.24,0.6 c 0,0.6 1.13,1.31 5.85,1.68 -0.72,0.11 -1.44,0.11 -2.16,0.22 1.45,0.22 0,0.66 2.56,0.87 -1.44,0.28 -3.62,0.28 -5.79,0.44 2.2,0.6 -3.59,1.37 0.06,2 -6.16,0.27 3.66,0.87 -2.14,1.2 -2.16,0.65 0.41,1.36 4.4,1.52 a 37,37 0 0 0 -5.44,0.06 8.33,8.33 0 0 0 1.1,0.16 c 0,0.06 -1.8,0.55 0,0.71 a 12.16,12.16 0 0 0 1.77,0.07 c 4.78,-0.64 17.69,0.78 24.41,1.27 l 1.31,0.23 c 1,-0.27 1.69,-0.58 1.57,-0.94 -1.81,0.11 -1.46,-0.43 -3.27,-0.16 0,0.06 0.37,0.11 0.37,0.17 l -2.17,0.38 c -1.46,-0.33 0.69,-1.09 -2.94,-1.31 a 43.92,43.92 0 0 1 6.15,-0.71 c 0.34,-0.6 3.22,-1.31 0.3,-1.8 -0.74,-0.6 2.52,-0.71 5,-0.87 -1.45,-0.28 0.34,-0.77 -2.2,-0.87 a 84.67,84.67 0 0 1 9.77,-0.88 c 1.81,-0.39 -0.37,-0.39 -2.19,-0.66 0.7,-0.76 7.26,0.16 7.23,-0.71 0.72,-0.33 -2.19,-0.76 -4.37,-0.76 2.16,-0.38 -0.4,-0.87 2.14,-1.15 -6.92,-0.59 2.86,-1.36 -3.33,-2.07 0.55,-0.78 -3,-1.39 -5.25,-2.12 -6.31,-0.21 -12.79,-0.1 -18.22,0.31 z"
         transform="translate(0,-0.42)"
         id="path6150"
         inkscape:connector-curvature="0"
         style="fill:#ffffff" />
      <path
         class="cls-3"
         d="m 367.77,266.57 c 1.49,-1.19 2.79,-0.71 4.05,-1 -0.5,0.13 -1,0.27 -1.52,0.39 0.76,-0.19 1.3,0.49 1.87,2 -0.44,1.7 -0.75,0.28 -1.15,2.58 -1.77,-0.15 -3.2,-3.23 -4.61,-6 1.33,-5.28 0.85,2.16 1.36,2.03 z"
         transform="translate(0,-0.42)"
         id="path6152"
         inkscape:connector-curvature="0"
         style="fill:#3148a1" />
      <path
         class="cls-3"
         d="m 373.81,270.71 a 2,2 0 0 1 -0.54,0.06 c 0.22,-0.22 0.42,-0.38 0.54,-0.06 z"
         transform="translate(0,-0.42)"
         id="path6154"
         inkscape:connector-curvature="0"
         style="fill:#3148a1" />
      <path
         class="cls-3"
         d="m 353.41,286.94 a 1.75,1.75 0 0 1 -0.69,0.59 c 0.28,-0.53 0.47,-0.53 0.69,-0.59 z"
         transform="translate(0,-0.42)"
         id="path6156"
         inkscape:connector-curvature="0"
         style="fill:#3148a1" />
      <path
         class="cls-3"
         d="m 363.9,279 a 7.59,7.59 0 0 1 -0.44,1 20.92,20.92 0 0 1 -2.22,-2.4 c 0.83,0.64 2.08,-1.48 2.66,1.4 z"
         transform="translate(0,-0.42)"
         id="path6158"
         inkscape:connector-curvature="0"
         style="fill:#3148a1" />
      <path
         class="cls-3"
         d="m 364.18,284 c 0.86,-0.12 1.59,0.89 2.09,3.34 A 5.49,5.49 0 0 0 364.18,284 Z"
         transform="translate(0,-0.42)"
         id="path6160"
         inkscape:connector-curvature="0"
         style="fill:#3148a1" />
      <path
         class="cls-3"
         d="m 343.87,313.39 c -0.05,0.45 -0.11,0.79 -0.16,1.07 a 4.66,4.66 0 0 0 -0.14,0.55 c -0.26,-0.63 -0.52,-1.29 -0.77,-2 a 9.32,9.32 0 0 1 0.38,-1.09 c 0.28,0.76 0.11,2.84 0.69,1.47 z"
         transform="translate(0,-0.42)"
         id="path6162"
         inkscape:connector-curvature="0"
         style="fill:#3148a1" />
      <path
         class="cls-3"
         d="m 353.65,286.81 c 0,-0.08 0,-0.16 0.05,-0.24 l 0.25,-0.31 a 0.76,0.76 0 0 0 0,0.14 1,1 0 0 1 -0.3,0.41 z"
         transform="translate(0,-0.42)"
         id="path6164"
         inkscape:connector-curvature="0"
         style="fill:#3148a1" />
      <path
         class="cls-3"
         d="m 344.27,313.69 c -0.1,0.85 -0.2,1.7 -0.25,2.38 l -0.45,-1.05 c 0.05,-0.18 0.09,-0.35 0.14,-0.56 0.19,-0.58 0.29,0.31 0.56,-0.77 z"
         transform="translate(0,-0.42)"
         id="path6166"
         inkscape:connector-curvature="0"
         style="fill:#3148a1" />
      <path
         class="cls-3"
         d="m 347.74,320.93 a 14.13,14.13 0 0 0 0.56,-2.17 16.87,16.87 0 0 0 0.63,3.08 c 0.11,-0.43 0.24,-0.46 0.46,-1.33 0,0.7 0,1.3 0,1.83 a 7.6,7.6 0 0 1 -2.35,-1.5 0.58,0.58 0 0 1 0.7,0.09 z"
         transform="translate(0,-0.42)"
         id="path6168"
         inkscape:connector-curvature="0"
         style="fill:#3148a1" />
      <path
         class="cls-3"
         d="m 331.18,294.3 c 1.24,-1.13 1.93,3.57 3.55,-0.92 -0.89,-3 -2.47,-4.24 -1.74,-11.75 0.73,-7.51 1.78,-0.45 2.79,-0.71 l -0.06,-1.62 c 0,0.81 0.06,1.62 0.28,0.75 a 41.67,41.67 0 0 1 -0.21,-5.64 l 0.44,-1.74 c 0,-5.7 -1,-7.06 -1,-12.75 1,18.45 6.32,11.38 10.37,10.33 2.47,-2.26 5.29,-8.68 8.08,-15.9 0.48,-0.94 1.27,-0.33 1.8,0.35 a 15.4,15.4 0 0 0 3.9,-5.08 c 2.69,-3.13 4.39,1.32 6.93,0.66 0.51,-0.13 0.28,7.25 -1.18,9.25 -1.29,2.39 -2.41,3.24 -3.42,3.16 0.4,-2.29 0.71,-0.87 1.14,-2.57 -0.56,-1.49 -1.1,-2.16 -1.86,-2 l 1.52,-0.39 c -1.27,0.32 -2.57,-0.15 -4.05,1 -0.51,0.13 0,-7.31 -1.36,-2.09 1.41,2.75 2.83,5.82 4.61,6 v 0.17 A 8.19,8.19 0 0 1 364,263 c -0.27,0.29 -0.57,0.68 -0.73,0.26 a 5.26,5.26 0 0 0 2.94,3.31 c -4.05,7.55 -6.84,1.76 -10.32,4.28 0.41,4 2.25,-1.39 2.44,3.44 a 7.32,7.32 0 0 1 -4.15,-2.14 7.67,7.67 0 0 0 0.45,-1 c -0.58,-2.83 -1.83,-0.72 -2.67,-1.43 l -0.21,-0.27 a 1.27,1.27 0 0 0 0.21,0.27 23.84,23.84 0 0 0 2.22,2.4 c -0.48,0.84 -0.88,0.81 -1.3,0.29 a 8.43,8.43 0 0 0 0.63,3.09 7.09,7.09 0 0 1 1.4,0.65 c -0.77,0.11 -1.64,1.13 -2.54,2.9 0.82,1.7 1.84,2 2.74,3 l -1.77,0.68 a 16,16 0 0 0 -2.58,-2.3 l 0.12,-0.13 -0.22,0.06 a 5.66,5.66 0 0 0 -1.07,-0.54 c -0.36,0.09 -0.8,1 -1.28,2.15 h -0.17 a 3.54,3.54 0 0 0 0.18,-1.86 c -0.6,-2.28 -2,1.33 -2.62,-1.76 -0.17,-0.81 -0.57,-0.44 -1,0.12 0,-0.56 -0.13,-0.22 -0.24,0.32 l -0.3,0.37 c -0.21,0.06 -0.42,0.06 -0.68,0.58 a 1.69,1.69 0 0 0 0.68,-0.58 0.67,0.67 0 0 0 0.25,-0.13 4.55,4.55 0 0 1 -0.39,1.39 c 1.32,0.69 2.66,1.7 4.15,1.55 -0.16,0.59 -0.35,1.17 -0.45,1.56 0.21,-0.55 0.42,-1.09 0.62,-1.59 a 3.39,3.39 0 0 0 1.51,-0.67 11,11 0 0 0 -0.61,1.87 c 1.28,0.53 2.7,0.11 4.13,-0.44 a 31.81,31.81 0 0 0 3.4,3.38 7.8,7.8 0 0 0 -1.63,-4.06 c 2,-0.72 4,-1 5.61,1.41 -0.66,2.6 -1.36,4.41 -2,7.83 -0.19,1.68 0.35,2.34 -0.12,3.28 -1.88,4.55 -2.29,0.24 -4,9.61 -0.42,2.55 -0.07,11.76 -0.77,13.57 a 6.54,6.54 0 0 1 -2.12,2 1.24,1.24 0 0 0 -0.63,-0.51 c 0,-0.18 -0.12,0.35 -0.26,0.94 -0.87,0.31 -1.66,0.27 -2,-0.35 -0.13,-0.24 -0.27,-0.46 -0.4,-0.67 0,-0.53 0,-1.21 0,-2.08 a 12.5,12.5 0 0 1 -0.48,1.44 8,8 0 0 0 -1.13,-1.27 c -0.14,-0.84 -0.26,-1.79 -0.4,-2.5 -0.07,0.6 -0.13,1.4 -0.25,2 a 6.74,6.74 0 0 0 -1.48,-0.81 23.29,23.29 0 0 1 -0.15,-3.53 c -1.21,5.19 -2.11,1.76 -3.1,2.42 v 0.19 a 10.55,10.55 0 0 1 -1.34,-0.45 c 0,-0.52 0,-1.13 0,-1.83 -0.23,0.87 -0.35,0.91 -0.46,1.34 A 16.18,16.18 0 0 1 339,311 a 15,15 0 0 1 -0.56,2.17 0.59,0.59 0 0 0 -0.71,-0.08 8.91,8.91 0 0 1 -0.73,-0.76 18.8,18.8 0 0 1 -2.28,-4 c 0.05,-0.68 0.15,-1.53 0.24,-2.37 -0.27,1.07 -0.36,0.18 -0.56,0.77 0.06,-0.29 0.12,-0.62 0.17,-1.07 -0.59,1.36 -0.41,-0.71 -0.7,-1.45 a 9.88,9.88 0 0 0 -0.38,1.09 l -0.09,-0.25 c 0,-3.83 -0.53,-2.62 -1,-2.79 -0.35,-1 -0.7,-2.06 -1,-3.1 -0.32,-0.77 -0.16,-3.25 -0.22,-4.86 z"
         transform="translate(0,-0.42)"
         id="path6170"
         inkscape:connector-curvature="0"
         style="fill:#3148a1" />
      <path
         class="cls-3"
         d="m 342.7,312.78 c -0.33,-0.9 -0.66,-1.83 -1,-2.78 0.47,0.17 1.05,-1 1,2.78 z"
         transform="translate(0,-0.42)"
         id="path6172"
         inkscape:connector-curvature="0"
         style="fill:#3148a1" />
      <path
         class="cls-3"
         d="m 353.85,320.17 a 24.87,24.87 0 0 0 0.15,3.54 27,27 0 0 0 -3.27,-0.92 v -0.2 c 1.02,-0.66 1.92,2.77 3.12,-2.42 z"
         transform="translate(0,-0.42)"
         id="path6174"
         inkscape:connector-curvature="0"
         style="fill:#3148a1" />
      <path
         class="cls-3"
         d="m 343.71,314.46 c 0,0.21 -0.09,0.38 -0.14,0.56 v 0 a 4.66,4.66 0 0 1 0.14,-0.56 z"
         transform="translate(0,-0.42)"
         id="path6176"
         inkscape:connector-curvature="0"
         style="fill:#3148a1" />
      <path
         class="cls-3"
         d="m 359.93,288.12 0.1,0.07 a 6.52,6.52 0 0 1 -0.93,0.86 c 0.3,-0.63 0.57,-0.83 0.83,-0.93 z"
         transform="translate(0,-0.42)"
         id="path6178"
         inkscape:connector-curvature="0"
         style="fill:#3148a1" />
      <path
         class="cls-3"
         d="m 362.61,290.49 c 0.59,-0.23 1.19,-0.47 1.78,-0.68 a 7.85,7.85 0 0 1 1.62,4.06 33.78,33.78 0 0 1 -3.4,-3.38 z"
         transform="translate(0,-0.42)"
         id="path6180"
         inkscape:connector-curvature="0"
         style="fill:#3148a1" />
      <path
         class="cls-3"
         d="m 355.73,322.53 c 0.15,0.71 0.27,1.67 0.4,2.51 a 7.47,7.47 0 0 0 -0.64,-0.53 c 0.11,-0.58 0.17,-1.38 0.24,-1.98 z"
         transform="translate(0,-0.42)"
         id="path6182"
         inkscape:connector-curvature="0"
         style="fill:#3148a1" />
      <path
         class="cls-3"
         d="m 357.42,289.75 h 0.17 c -0.21,0.51 -0.42,1 -0.63,1.6 0.1,-0.43 0.3,-1.01 0.46,-1.6 z"
         transform="translate(0,-0.42)"
         id="path6184"
         inkscape:connector-curvature="0"
         style="fill:#3148a1" />
      <path
         class="cls-3"
         d="m 357.7,326.94 c -0.15,-0.23 -0.29,-0.44 -0.44,-0.64 a 11.86,11.86 0 0 0 0.48,-1.44 c -0.05,0.88 -0.06,1.56 -0.04,2.08 z"
         transform="translate(0,-0.42)"
         id="path6186"
         inkscape:connector-curvature="0"
         style="fill:#3148a1" />
      <path
         class="cls-3"
         d="m 360.38,327 a 1.21,1.21 0 0 1 0.63,0.5 5.56,5.56 0 0 1 -0.89,0.43 c 0.14,-0.56 0.25,-1.09 0.26,-0.93 z"
         transform="translate(0,-0.42)"
         id="path6188"
         inkscape:connector-curvature="0"
         style="fill:#3148a1" />
      <path
         class="cls-4"
         d="m 209.1,283.06 c 0.26,-1.37 0.53,-1.05 0.77,-1.53 -0.09,0.19 -0.19,0.38 -0.29,0.57 0.15,-0.28 0.27,0.32 0.42,1.72 -0.05,1.74 -0.14,0.37 -0.16,2.7 -0.36,0.06 -0.72,-2.81 -1.06,-5.37 0.14,-5.35 0.22,2.1 0.32,1.91 z"
         transform="translate(0,-0.42)"
         id="path6190"
         inkscape:connector-curvature="0"
         style="fill:#b1d0fe" />
      <path
         class="cls-4"
         d="m 210.39,286.43 a 0.21,0.21 0 0 1 -0.1,0.12 c 0.03,-0.24 0.07,-0.42 0.1,-0.12 z"
         transform="translate(0,-0.42)"
         id="path6192"
         inkscape:connector-curvature="0"
         style="fill:#b1d0fe" />
      <path
         class="cls-4"
         d="m 206.75,305 a 3.11,3.11 0 0 1 -0.12,0.66 c 0.04,-0.53 0.08,-0.55 0.12,-0.66 z"
         transform="translate(0,-0.42)"
         id="path6194"
         inkscape:connector-curvature="0"
         style="fill:#b1d0fe" />
      <path
         class="cls-4"
         d="m 208.63,295.82 c 0,0.42 0,0.75 -0.06,1 -0.16,-0.58 -0.33,-1.3 -0.5,-2.11 0.19,0.62 0.38,-1.64 0.56,1.11 z"
         transform="translate(0,-0.42)"
         id="path6196"
         inkscape:connector-curvature="0"
         style="fill:#b1d0fe" />
      <path
         class="cls-4"
         d="m 208.81,300.74 c 0.17,-0.22 0.33,0.69 0.49,3.06 a 12.14,12.14 0 0 0 -0.49,-3.06 z"
         transform="translate(0,-0.42)"
         id="path6198"
         inkscape:connector-curvature="0"
         style="fill:#b1d0fe" />
      <path
         class="cls-4"
         d="m 205.51,332.43 c 0,0.45 0,0.79 0,1.08 0,0.12 0,0.3 0,0.57 -0.07,-0.61 -0.14,-1.23 -0.2,-1.88 0,-0.24 0,-1.09 0.05,-1.12 0.05,0.7 0.07,2.78 0.15,1.35 z"
         transform="translate(0,-0.42)"
         id="path6200"
         inkscape:connector-curvature="0"
         style="fill:#b1d0fe" />
      <path
         class="cls-4"
         d="m 206.8,304.86 v -0.24 c 0,-0.12 0,-0.24 0,-0.35 a 0.61,0.61 0 0 1 0,0.14 c 0.03,0.23 0.01,0.37 0,0.45 z"
         transform="translate(0,-0.42)"
         id="path6202"
         inkscape:connector-curvature="0"
         style="fill:#b1d0fe" />
      <path
         class="cls-4"
         d="m 205.59,332.68 c 0,0.85 0,1.71 0,2.39 0,-0.32 -0.07,-0.65 -0.11,-1 0,-0.18 0,-0.36 0,-0.57 0.05,-0.59 0.09,0.28 0.11,-0.82 z"
         transform="translate(0,-0.42)"
         id="path6204"
         inkscape:connector-curvature="0"
         style="fill:#b1d0fe" />
      <path
         class="cls-4"
         d="m 206.46,339.45 c 0,-0.05 0,-1.79 0,-2.23 0.07,1.14 0.13,2.28 0.2,3 0,-0.44 0,-0.48 0.06,-1.38 0,0.7 0,1.3 0,1.83 a 4.21,4.21 0 0 1 -0.5,-1.21 c 0.14,-0.16 0.19,-0.2 0.24,-0.01 z"
         transform="translate(0,-0.42)"
         id="path6206"
         inkscape:connector-curvature="0"
         style="fill:#b1d0fe" />
      <path
         class="cls-4"
         d="m 202.54,315 c 0.22,-1.27 0.47,3.31 0.68,-1.34 a 85.69,85.69 0 0 1 -0.63,-11.45 c 0,-7.54 0.34,-0.67 0.53,-1.05 l -0.05,-1.6 c 0,0.8 0.05,1.6 0.08,0.71 -0.05,-1.6 -0.15,-3.09 -0.18,-5.57 v -1.79 c -0.13,-5.65 -0.37,-6.87 -0.5,-12.53 0.63,18.2 1.52,10.53 2.3,9 0.43,-2.54 0.83,-9.26 1.21,-16.77 0.07,-1 0.24,-0.47 0.36,0.13 a 46.86,46.86 0 0 0 0.65,-5.51 c 0.46,-3.43 0.9,0.77 1.39,-0.19 a 85.48,85.48 0 0 1 0,9.33 c -0.2,2.53 -0.4,3.51 -0.6,3.55 0,-2.33 0.12,-1 0.16,-2.7 -0.15,-1.4 -0.27,-2 -0.42,-1.72 l 0.3,-0.57 c -0.25,0.48 -0.51,0.17 -0.78,1.53 -0.1,0.2 -0.18,-7.25 -0.32,-1.91 0.35,2.56 0.7,5.44 1.06,5.37 v 0.17 c 0.15,-0.31 0.3,0 0.45,-0.13 0,0.32 -0.1,0.75 -0.14,0.35 a 6.75,6.75 0 0 0 0.66,2.92 c -0.62,8 -1.31,2.58 -1.93,5.51 0.17,3.89 0.41,-1.65 0.56,3.12 -0.29,0 -0.57,-0.58 -0.87,-1.63 0,-0.26 0,-0.58 0.07,-1 -0.19,-2.74 -0.38,-0.49 -0.57,-1.1 0,-0.08 0,-0.15 0,-0.24 a 2.35,2.35 0 0 0 0,0.24 c 0.17,0.81 0.34,1.53 0.5,2.11 -0.07,0.9 -0.15,0.92 -0.25,0.46 0.05,1.59 0.13,2.29 0.2,3 a 1.47,1.47 0 0 1 0.29,0.48 12.68,12.68 0 0 0 -0.43,3.19 14.42,14.42 0 0 0 0.68,2.63 c -0.11,0.28 -0.22,0.6 -0.33,0.89 a 17.23,17.23 0 0 0 -0.57,-2 v -0.15 a 0.93,0.93 0 0 0 -0.05,0.1 1.5,1.5 0 0 0 -0.22,-0.41 15.05,15.05 0 0 0 -0.2,2.29 v 0 a 18.31,18.31 0 0 0 0,-1.86 c -0.18,-2.19 -0.37,1.56 -0.57,-1.43 0,-0.78 -0.12,-0.37 -0.19,0.25 0,-0.55 0,-0.21 0,0.34 0,0.14 0,0.27 -0.05,0.4 -0.05,0.13 -0.08,0.12 -0.12,0.67 a 3.41,3.41 0 0 0 0.12,-0.67 0.5,0.5 0 0 0 0.05,-0.15 c 0,0.63 0,1.38 0,1.42 0.28,0.52 0.56,1.37 0.86,1 0,0.61 -0.05,1.21 -0.06,1.61 0,-0.57 0.06,-1.13 0.09,-1.65 a 2.7,2.7 0 0 0 0.28,-0.85 c 0,0.43 -0.05,1 -0.08,1.93 0.27,0.37 0.54,-0.22 0.81,-0.94 0.25,1.06 0.5,2.2 0.75,2.94 A 23.73,23.73 0 0 0 207,300 c 0.38,-1 0.77,-1.5 1.15,0.71 -0.07,2.67 -0.17,4.56 -0.21,8 0,1.69 0.13,2.29 0,3.28 -0.26,4.74 -0.44,0.51 -0.55,10 0,2.58 0.27,11.68 0.18,13.56 a 15.82,15.82 0 0 1 -0.37,2.27 1,1 0 0 0 -0.14,-0.43 c 0,-0.18 0,0.36 0,1 -0.16,0.42 -0.32,0.48 -0.4,-0.1 0,-0.22 -0.07,-0.42 -0.1,-0.62 0,-0.52 0,-1.19 0,-2.06 0,0.66 0,1.14 -0.06,1.48 -0.09,-0.45 -0.17,-0.82 -0.26,-1.11 0,-0.82 -0.09,-1.75 -0.13,-2.44 0,0.6 0,1.4 0,2 a 2.21,2.21 0 0 0 -0.31,-0.62 c 0,-0.78 -0.08,-1.89 -0.11,-3.49 -0.12,5.3 -0.38,2 -0.56,2.78 v 0.2 a 1.45,1.45 0 0 1 -0.27,-0.28 c 0,-0.52 0,-1.13 0,-1.83 0,0.89 0,0.95 -0.06,1.39 -0.07,-0.7 -0.13,-1.85 -0.2,-3 0,0.44 0,2.18 0,2.23 -0.05,-0.19 -0.1,-0.14 -0.14,0 -0.06,-0.2 -0.11,-0.42 -0.17,-0.67 -0.18,-0.92 -0.36,-2.2 -0.55,-3.71 v -2.38 c 0,1.09 -0.07,0.22 -0.1,0.82 0,-0.28 0,-0.62 0,-1.08 -0.08,1.43 -0.1,-0.65 -0.17,-1.35 0,0 0,0.88 -0.05,1.13 v -0.24 c -0.08,-3.8 -0.16,-2.53 -0.26,-2.64 -0.09,-1 -0.18,-2 -0.28,-3 -0.26,-0.71 -0.29,-3.19 -0.34,-4.8 z"
         transform="translate(0,-0.42)"
         id="path6208"
         inkscape:connector-curvature="0"
         style="fill:#b1d0fe" />
      <path
         class="cls-4"
         d="m 205.26,332 c -0.08,-0.86 -0.17,-1.74 -0.26,-2.64 0.1,0.08 0.18,-1.2 0.26,2.64 z"
         transform="translate(0,-0.42)"
         id="path6210"
         inkscape:connector-curvature="0"
         style="fill:#b1d0fe" />
      <path
         class="cls-4"
         d="m 207.64,338 c 0,1.59 0.08,2.72 0.12,3.49 a 2.21,2.21 0 0 0 -0.67,-0.52 v -0.19 c 0.18,-0.78 0.44,2.46 0.55,-2.78 z"
         transform="translate(0,-0.42)"
         id="path6212"
         inkscape:connector-curvature="0"
         style="fill:#b1d0fe" />
      <path
         class="cls-4"
         d="m 205.5,333.51 c 0,0.21 0,0.39 0,0.57 v 0 c -0.01,-0.27 0,-0.45 0,-0.57 z"
         transform="translate(0,-0.42)"
         id="path6214"
         inkscape:connector-curvature="0"
         style="fill:#b1d0fe" />
      <path
         class="cls-4"
         d="m 208.07,305.4 v 0.05 c -0.05,0.39 -0.11,0.72 -0.16,1 a 3.54,3.54 0 0 1 0.16,-1.05 z"
         transform="translate(0,-0.42)"
         id="path6216"
         inkscape:connector-curvature="0"
         style="fill:#b1d0fe" />
      <path
         class="cls-4"
         d="m 208.66,307.43 c 0.11,-0.3 0.22,-0.62 0.33,-0.9 a 23.9,23.9 0 0 1 0.42,3.83 c -0.25,-0.75 -0.5,-1.89 -0.75,-2.93 z"
         transform="translate(0,-0.42)"
         id="path6218"
         inkscape:connector-curvature="0"
         style="fill:#b1d0fe" />
      <path
         class="cls-4"
         d="m 208.07,340.06 c 0.05,0.69 0.1,1.62 0.14,2.44 a 3.27,3.27 0 0 0 -0.14,-0.44 c 0.01,-0.59 0,-1.39 0,-2 z"
         transform="translate(0,-0.42)"
         id="path6220"
         inkscape:connector-curvature="0"
         style="fill:#b1d0fe" />
      <path
         class="cls-4"
         d="m 207.61,307.32 v -0.05 c 0,0.52 -0.06,1.09 -0.09,1.66 0.05,-0.41 0.08,-1.01 0.09,-1.61 z"
         transform="translate(0,-0.42)"
         id="path6222"
         inkscape:connector-curvature="0"
         style="fill:#b1d0fe" />
      <path
         class="cls-4"
         d="m 208.57,344.2 c 0,-0.21 -0.07,-0.4 -0.1,-0.58 0,-0.34 0,-0.83 0.06,-1.49 0.01,0.87 0.02,1.55 0.04,2.07 z"
         transform="translate(0,-0.42)"
         id="path6224"
         inkscape:connector-curvature="0"
         style="fill:#b1d0fe" />
      <path
         class="cls-4"
         d="m 209.1,344 a 1,1 0 0 1 0.14,0.43 4.8,4.8 0 0 1 -0.17,0.53 7.73,7.73 0 0 1 0.03,-0.96 z"
         transform="translate(0,-0.42)"
         id="path6226"
         inkscape:connector-curvature="0"
         style="fill:#b1d0fe" />
    </g>
  </g>
</svg>
